%FSLAX46Y46*%
%MOMM*%
%ADD11C,0.200000*%
%ADD12C,0.300000*%
%ADD10C,0.500000*%
%AMPS13*
1,1,2.100000,0.000000,0.000000*
%
%ADD13PS13*%
%AMPS16*
1,1,1.600000,0.000000,0.000000*
%
%ADD16PS16*%
%AMPS17*
1,1,1.600000,0.000000,0.000000*
%
%ADD17PS17*%
%AMPS23*
1,1,1.600000,0.000000,0.000000*
%
%ADD23PS23*%
%AMPS14*
1,1,1.700000,0.000000,0.000000*
%
%ADD14PS14*%
%AMPS19*
1,1,1.700000,0.000000,0.000000*
%
%ADD19PS19*%
%AMPS22*
1,1,2.200000,0.000000,0.000000*
%
%ADD22PS22*%
%AMPS18*
1,1,1.400000,0.000000,0.000000*
%
%ADD18PS18*%
%AMPS21*
1,1,1.400000,0.000000,0.000000*
%
%ADD21PS21*%
%AMPS15*
1,1,1.400000,0.000000,0.000000*
%
%ADD15PS15*%
%AMPS20*
1,1,1.400000,0.000000,0.000000*
%
%ADD20PS20*%
%AMPS27*
1,1,1.400000,0.000000,0.000000*
%
%ADD27PS27*%
%AMPS25*
1,1,0.700000,0.000000,0.000000*
%
%ADD25PS25*%
%AMPS26*
1,1,0.900000,0.000000,0.000000*
%
%ADD26PS26*%
%AMPS24*
1,1,0.700000,0.000000,0.000000*
%
%ADD24PS24*%
G01*
%LPD*%
G36*
X62640000Y360000D02*
X62640000Y71640000D01*
X360000Y71640000D01*
X360000Y360000D01*
X62640000Y360000D01*
D02*
G37*
%LPC*%
G36*
X25950000Y68350000D02*
X25223365Y68350000D01*
X25226878Y68373679D01*
X25248103Y68458413D01*
X25277538Y68540680D01*
X25314890Y68619653D01*
X25359800Y68694582D01*
X25411846Y68764758D01*
X25470514Y68829486D01*
X25535242Y68888154D01*
X25605418Y68940200D01*
X25680347Y68985110D01*
X25759320Y69022462D01*
X25841587Y69051897D01*
X25926321Y69073122D01*
X25950000Y69076635D01*
X25950000Y68350000D01*
D02*
G37*
%LPC*%
G36*
X30766635Y68350000D02*
X30040000Y68350000D01*
X30040000Y69076635D01*
X30063679Y69073122D01*
X30148413Y69051897D01*
X30230680Y69022462D01*
X30309653Y68985110D01*
X30384582Y68940200D01*
X30454758Y68888154D01*
X30519486Y68829486D01*
X30578154Y68764758D01*
X30630200Y68694582D01*
X30675110Y68619653D01*
X30712462Y68540680D01*
X30741897Y68458413D01*
X30763122Y68373679D01*
X30766635Y68350000D01*
D02*
G37*
%LPC*%
G36*
X26976635Y68350000D02*
X26250000Y68350000D01*
X26250000Y69076635D01*
X26273679Y69073122D01*
X26358413Y69051897D01*
X26440680Y69022462D01*
X26519653Y68985110D01*
X26594582Y68940200D01*
X26664758Y68888154D01*
X26729486Y68829486D01*
X26788154Y68764758D01*
X26840200Y68694582D01*
X26885110Y68619653D01*
X26922462Y68540680D01*
X26951897Y68458413D01*
X26973122Y68373679D01*
X26976635Y68350000D01*
D02*
G37*
%LPC*%
G36*
X29740000Y68350000D02*
X29013365Y68350000D01*
X29016878Y68373679D01*
X29038103Y68458413D01*
X29067538Y68540680D01*
X29104890Y68619653D01*
X29149800Y68694582D01*
X29201846Y68764758D01*
X29260514Y68829486D01*
X29325242Y68888154D01*
X29395418Y68940200D01*
X29470347Y68985110D01*
X29549320Y69022462D01*
X29631587Y69051897D01*
X29716321Y69073122D01*
X29740000Y69076635D01*
X29740000Y68350000D01*
D02*
G37*
%LPC*%
G36*
X30040000Y67323365D02*
X30040000Y68050000D01*
X30766635Y68050000D01*
X30763122Y68026321D01*
X30741897Y67941587D01*
X30712462Y67859320D01*
X30675110Y67780347D01*
X30630200Y67705418D01*
X30578154Y67635242D01*
X30519486Y67570514D01*
X30454758Y67511846D01*
X30384582Y67459800D01*
X30309653Y67414890D01*
X30230680Y67377538D01*
X30148413Y67348103D01*
X30063679Y67326878D01*
X30040000Y67323365D01*
D02*
G37*
%LPC*%
G36*
X29740000Y67323365D02*
X29716321Y67326878D01*
X29631587Y67348103D01*
X29549320Y67377538D01*
X29470347Y67414890D01*
X29395418Y67459800D01*
X29325242Y67511846D01*
X29260514Y67570514D01*
X29201846Y67635242D01*
X29149800Y67705418D01*
X29104890Y67780347D01*
X29067538Y67859320D01*
X29038103Y67941587D01*
X29016878Y68026321D01*
X29013365Y68050000D01*
X29740000Y68050000D01*
X29740000Y67323365D01*
D02*
G37*
%LPC*%
G36*
X26250000Y67323365D02*
X26250000Y68050000D01*
X26976635Y68050000D01*
X26973122Y68026321D01*
X26951897Y67941587D01*
X26922462Y67859320D01*
X26885110Y67780347D01*
X26840200Y67705418D01*
X26788154Y67635242D01*
X26729486Y67570514D01*
X26664758Y67511846D01*
X26594582Y67459800D01*
X26519653Y67414890D01*
X26440680Y67377538D01*
X26358413Y67348103D01*
X26273679Y67326878D01*
X26250000Y67323365D01*
D02*
G37*
%LPC*%
G36*
X25950000Y67323365D02*
X25926321Y67326878D01*
X25841587Y67348103D01*
X25759320Y67377538D01*
X25680347Y67414890D01*
X25605418Y67459800D01*
X25535242Y67511846D01*
X25470514Y67570514D01*
X25411846Y67635242D01*
X25359800Y67705418D01*
X25314890Y67780347D01*
X25277538Y67859320D01*
X25248103Y67941587D01*
X25226878Y68026321D01*
X25223365Y68050000D01*
X25950000Y68050000D01*
X25950000Y67323365D01*
D02*
G37*
%LPC*%
G36*
X33270000Y65530000D02*
X32543365Y65530000D01*
X32546878Y65553679D01*
X32568103Y65638413D01*
X32597538Y65720680D01*
X32634890Y65799653D01*
X32679800Y65874582D01*
X32731846Y65944758D01*
X32790514Y66009486D01*
X32855242Y66068154D01*
X32925418Y66120200D01*
X33000347Y66165110D01*
X33079320Y66202462D01*
X33161587Y66231897D01*
X33246321Y66253122D01*
X33270000Y66256635D01*
X33270000Y65530000D01*
D02*
G37*
%LPC*%
G36*
X34296635Y65530000D02*
X33570000Y65530000D01*
X33570000Y66256635D01*
X33593679Y66253122D01*
X33678413Y66231897D01*
X33760680Y66202462D01*
X33839653Y66165110D01*
X33914582Y66120200D01*
X33984758Y66068154D01*
X34049486Y66009486D01*
X34108154Y65944758D01*
X34160200Y65874582D01*
X34205110Y65799653D01*
X34242462Y65720680D01*
X34271897Y65638413D01*
X34293122Y65553679D01*
X34296635Y65530000D01*
D02*
G37*
%LPC*%
G36*
X36520000Y65530000D02*
X35793365Y65530000D01*
X35796878Y65553679D01*
X35818103Y65638413D01*
X35847538Y65720680D01*
X35884890Y65799653D01*
X35929800Y65874582D01*
X35981846Y65944758D01*
X36040514Y66009486D01*
X36105242Y66068154D01*
X36175418Y66120200D01*
X36250347Y66165110D01*
X36329320Y66202462D01*
X36411587Y66231897D01*
X36496321Y66253122D01*
X36520000Y66256635D01*
X36520000Y65530000D01*
D02*
G37*
%LPC*%
G36*
X37546635Y65530000D02*
X36820000Y65530000D01*
X36820000Y66256635D01*
X36843679Y66253122D01*
X36928413Y66231897D01*
X37010680Y66202462D01*
X37089653Y66165110D01*
X37164582Y66120200D01*
X37234758Y66068154D01*
X37299486Y66009486D01*
X37358154Y65944758D01*
X37410200Y65874582D01*
X37455110Y65799653D01*
X37492462Y65720680D01*
X37521897Y65638413D01*
X37543122Y65553679D01*
X37546635Y65530000D01*
D02*
G37*
%LPC*%
G36*
X36520000Y64503365D02*
X36496321Y64506878D01*
X36411587Y64528103D01*
X36329320Y64557538D01*
X36250347Y64594890D01*
X36175418Y64639800D01*
X36105242Y64691846D01*
X36040514Y64750514D01*
X35981846Y64815242D01*
X35929800Y64885418D01*
X35884890Y64960347D01*
X35847538Y65039320D01*
X35818103Y65121587D01*
X35796878Y65206321D01*
X35793365Y65230000D01*
X36520000Y65230000D01*
X36520000Y64503365D01*
D02*
G37*
%LPC*%
G36*
X33270000Y64503365D02*
X33246321Y64506878D01*
X33161587Y64528103D01*
X33079320Y64557538D01*
X33000347Y64594890D01*
X32925418Y64639800D01*
X32855242Y64691846D01*
X32790514Y64750514D01*
X32731846Y64815242D01*
X32679800Y64885418D01*
X32634890Y64960347D01*
X32597538Y65039320D01*
X32568103Y65121587D01*
X32546878Y65206321D01*
X32543365Y65230000D01*
X33270000Y65230000D01*
X33270000Y64503365D01*
D02*
G37*
%LPC*%
G36*
X33570000Y64503365D02*
X33570000Y65230000D01*
X34296635Y65230000D01*
X34293122Y65206321D01*
X34271897Y65121587D01*
X34242462Y65039320D01*
X34205110Y64960347D01*
X34160200Y64885418D01*
X34108154Y64815242D01*
X34049486Y64750514D01*
X33984758Y64691846D01*
X33914582Y64639800D01*
X33839653Y64594890D01*
X33760680Y64557538D01*
X33678413Y64528103D01*
X33593679Y64506878D01*
X33570000Y64503365D01*
D02*
G37*
%LPC*%
G36*
X36820000Y64503365D02*
X36820000Y65230000D01*
X37546635Y65230000D01*
X37543122Y65206321D01*
X37521897Y65121587D01*
X37492462Y65039320D01*
X37455110Y64960347D01*
X37410200Y64885418D01*
X37358154Y64815242D01*
X37299486Y64750514D01*
X37234758Y64691846D01*
X37164582Y64639800D01*
X37089653Y64594890D01*
X37010680Y64557538D01*
X36928413Y64528103D01*
X36843679Y64506878D01*
X36820000Y64503365D01*
D02*
G37*
%LPC*%
G36*
X4500000Y61154643D02*
X4368140Y61161123D01*
X4237532Y61180496D01*
X4109471Y61212574D01*
X3985153Y61257055D01*
X3865802Y61313504D01*
X3752555Y61381381D01*
X3646521Y61460022D01*
X3548690Y61548690D01*
X3460022Y61646521D01*
X3381381Y61752555D01*
X3313504Y61865802D01*
X3257055Y61985153D01*
X3212574Y62109471D01*
X3180496Y62237532D01*
X3161123Y62368140D01*
X3154643Y62500000D01*
X3161123Y62631860D01*
X3180496Y62762468D01*
X3212574Y62890529D01*
X3257055Y63014847D01*
X3313504Y63134198D01*
X3381381Y63247445D01*
X3460022Y63353479D01*
X3548690Y63451310D01*
X3646521Y63539978D01*
X3752555Y63618619D01*
X3865802Y63686496D01*
X3985153Y63742945D01*
X4109471Y63787426D01*
X4237532Y63819504D01*
X4368140Y63838877D01*
X4500000Y63845357D01*
X4631860Y63838877D01*
X4762468Y63819504D01*
X4890529Y63787426D01*
X5014847Y63742945D01*
X5134198Y63686496D01*
X5247445Y63618619D01*
X5353479Y63539978D01*
X5451310Y63451310D01*
X5539978Y63353479D01*
X5618619Y63247445D01*
X5686496Y63134198D01*
X5742945Y63014847D01*
X5787426Y62890529D01*
X5819504Y62762468D01*
X5838877Y62631860D01*
X5845357Y62500000D01*
X5838877Y62368140D01*
X5819504Y62237532D01*
X5787426Y62109471D01*
X5742945Y61985153D01*
X5686496Y61865802D01*
X5618619Y61752555D01*
X5539978Y61646521D01*
X5451310Y61548690D01*
X5353479Y61460022D01*
X5247445Y61381381D01*
X5134198Y61313504D01*
X5014847Y61257055D01*
X4890529Y61212574D01*
X4762468Y61180496D01*
X4631860Y61161123D01*
X4500000Y61154643D01*
D02*
G37*
%LPC*%
G36*
X14410000Y55274753D02*
X14345774Y55277909D01*
X14282167Y55287345D01*
X14219790Y55302968D01*
X14159243Y55324634D01*
X14101122Y55352123D01*
X14045966Y55385182D01*
X13994316Y55423488D01*
X13946670Y55466670D01*
X13903488Y55514316D01*
X13865182Y55565966D01*
X13832123Y55621122D01*
X13804634Y55679243D01*
X13782968Y55739790D01*
X13767345Y55802167D01*
X13757909Y55865774D01*
X13754753Y55930000D01*
X13757909Y55994226D01*
X13767345Y56057833D01*
X13782968Y56120210D01*
X13804634Y56180757D01*
X13832123Y56238878D01*
X13865182Y56294034D01*
X13903488Y56345684D01*
X13946670Y56393330D01*
X13994319Y56436515D01*
X14055000Y56481517D01*
X14055000Y57442953D01*
X10168314Y61329640D01*
X10014847Y61257055D01*
X9890529Y61212574D01*
X9762468Y61180496D01*
X9631860Y61161123D01*
X9500000Y61154643D01*
X9368140Y61161123D01*
X9237532Y61180496D01*
X9109471Y61212574D01*
X8985153Y61257055D01*
X8865802Y61313504D01*
X8752555Y61381381D01*
X8646521Y61460022D01*
X8548690Y61548690D01*
X8460022Y61646521D01*
X8381381Y61752555D01*
X8313504Y61865802D01*
X8257055Y61985153D01*
X8212574Y62109471D01*
X8180496Y62237532D01*
X8161123Y62368140D01*
X8154643Y62500000D01*
X8161123Y62631860D01*
X8180496Y62762468D01*
X8212574Y62890529D01*
X8257055Y63014847D01*
X8313504Y63134198D01*
X8381381Y63247445D01*
X8460022Y63353479D01*
X8548690Y63451310D01*
X8646521Y63539978D01*
X8752555Y63618619D01*
X8865802Y63686496D01*
X8985153Y63742945D01*
X9109471Y63787426D01*
X9237532Y63819504D01*
X9368140Y63838877D01*
X9500000Y63845357D01*
X9631860Y63838877D01*
X9762468Y63819504D01*
X9890529Y63787426D01*
X10014847Y63742945D01*
X10134198Y63686496D01*
X10247445Y63618619D01*
X10353479Y63539978D01*
X10451310Y63451310D01*
X10539978Y63353479D01*
X10618619Y63247445D01*
X10686496Y63134198D01*
X10742945Y63014847D01*
X10787426Y62890529D01*
X10819504Y62762468D01*
X10838877Y62631860D01*
X10845357Y62500000D01*
X10838877Y62368140D01*
X10819504Y62237532D01*
X10787426Y62109471D01*
X10742945Y61985153D01*
X10670360Y61831686D01*
X14668148Y57833897D01*
X14705996Y57787776D01*
X14738893Y57726229D01*
X14759151Y57659451D01*
X14765000Y57600077D01*
X14765000Y56481517D01*
X14825681Y56436515D01*
X14873330Y56393330D01*
X14916512Y56345684D01*
X14954818Y56294034D01*
X14987877Y56238878D01*
X15015366Y56180757D01*
X15037032Y56120210D01*
X15052655Y56057833D01*
X15062091Y55994226D01*
X15065247Y55930000D01*
X15062091Y55865774D01*
X15052655Y55802167D01*
X15037032Y55739790D01*
X15015366Y55679243D01*
X14987877Y55621122D01*
X14954818Y55565966D01*
X14916512Y55514316D01*
X14873330Y55466670D01*
X14825684Y55423488D01*
X14774034Y55385182D01*
X14718878Y55352123D01*
X14660757Y55324634D01*
X14600210Y55302968D01*
X14537833Y55287345D01*
X14474226Y55277909D01*
X14410000Y55274753D01*
D02*
G37*
%LPC*%
G36*
X16010000Y54004753D02*
X15945774Y54007909D01*
X15882167Y54017345D01*
X15819790Y54032968D01*
X15759243Y54054634D01*
X15701122Y54082123D01*
X15645966Y54115182D01*
X15594316Y54153488D01*
X15546670Y54196670D01*
X15503488Y54244316D01*
X15465182Y54295966D01*
X15432123Y54351122D01*
X15404634Y54409243D01*
X15382968Y54469790D01*
X15367345Y54532167D01*
X15357909Y54595774D01*
X15354753Y54660000D01*
X15357909Y54724226D01*
X15367345Y54787833D01*
X15382968Y54850210D01*
X15404634Y54910757D01*
X15432123Y54968878D01*
X15465182Y55024034D01*
X15503488Y55075684D01*
X15546670Y55123330D01*
X15594319Y55166515D01*
X15655000Y55211517D01*
X15655000Y60842953D01*
X15168314Y61329640D01*
X15014847Y61257055D01*
X14890529Y61212574D01*
X14762468Y61180496D01*
X14631860Y61161123D01*
X14500000Y61154643D01*
X14368140Y61161123D01*
X14237532Y61180496D01*
X14109471Y61212574D01*
X13985153Y61257055D01*
X13865802Y61313504D01*
X13752555Y61381381D01*
X13646521Y61460022D01*
X13548690Y61548690D01*
X13460022Y61646521D01*
X13381381Y61752555D01*
X13313504Y61865802D01*
X13257055Y61985153D01*
X13212574Y62109471D01*
X13180496Y62237532D01*
X13161123Y62368140D01*
X13154643Y62500000D01*
X13161123Y62631860D01*
X13180496Y62762468D01*
X13212574Y62890529D01*
X13257055Y63014847D01*
X13313504Y63134198D01*
X13381381Y63247445D01*
X13460022Y63353479D01*
X13548690Y63451310D01*
X13646521Y63539978D01*
X13752555Y63618619D01*
X13865802Y63686496D01*
X13985153Y63742945D01*
X14109471Y63787426D01*
X14237532Y63819504D01*
X14368140Y63838877D01*
X14500000Y63845357D01*
X14631860Y63838877D01*
X14762468Y63819504D01*
X14890529Y63787426D01*
X15014847Y63742945D01*
X15134198Y63686496D01*
X15247445Y63618619D01*
X15353479Y63539978D01*
X15451310Y63451310D01*
X15539978Y63353479D01*
X15618619Y63247445D01*
X15686496Y63134198D01*
X15742945Y63014847D01*
X15787426Y62890529D01*
X15819504Y62762468D01*
X15838877Y62631860D01*
X15845357Y62500000D01*
X15838877Y62368140D01*
X15819504Y62237532D01*
X15787426Y62109471D01*
X15742945Y61985153D01*
X15670360Y61831686D01*
X16268148Y61233897D01*
X16305996Y61187776D01*
X16338893Y61126229D01*
X16359151Y61059451D01*
X16365000Y61000077D01*
X16365000Y55211517D01*
X16425681Y55166515D01*
X16473330Y55123330D01*
X16516512Y55075684D01*
X16554818Y55024034D01*
X16587877Y54968878D01*
X16615366Y54910757D01*
X16637032Y54850210D01*
X16652655Y54787833D01*
X16662091Y54724226D01*
X16665247Y54660000D01*
X16662091Y54595774D01*
X16652655Y54532167D01*
X16637032Y54469790D01*
X16615366Y54409243D01*
X16587877Y54351122D01*
X16554818Y54295966D01*
X16516512Y54244316D01*
X16473330Y54196670D01*
X16425684Y54153488D01*
X16374034Y54115182D01*
X16318878Y54082123D01*
X16260757Y54054634D01*
X16200210Y54032968D01*
X16137833Y54017345D01*
X16074226Y54007909D01*
X16010000Y54004753D01*
D02*
G37*
%LPC*%
G36*
X48500000Y61154643D02*
X48368140Y61161123D01*
X48237532Y61180496D01*
X48109471Y61212574D01*
X47985153Y61257055D01*
X47865802Y61313504D01*
X47752555Y61381381D01*
X47646521Y61460022D01*
X47548690Y61548690D01*
X47460022Y61646521D01*
X47381381Y61752555D01*
X47313504Y61865802D01*
X47257055Y61985153D01*
X47212574Y62109471D01*
X47180496Y62237532D01*
X47161123Y62368140D01*
X47154643Y62500000D01*
X47161123Y62631860D01*
X47180496Y62762468D01*
X47212574Y62890529D01*
X47257055Y63014847D01*
X47313504Y63134198D01*
X47381381Y63247445D01*
X47460022Y63353479D01*
X47548690Y63451310D01*
X47646521Y63539978D01*
X47752555Y63618619D01*
X47865802Y63686496D01*
X47985153Y63742945D01*
X48109471Y63787426D01*
X48237532Y63819504D01*
X48368140Y63838877D01*
X48500000Y63845357D01*
X48631860Y63838877D01*
X48762468Y63819504D01*
X48890529Y63787426D01*
X49014847Y63742945D01*
X49134198Y63686496D01*
X49247445Y63618619D01*
X49353479Y63539978D01*
X49451310Y63451310D01*
X49539978Y63353479D01*
X49618619Y63247445D01*
X49686496Y63134198D01*
X49742945Y63014847D01*
X49787426Y62890529D01*
X49819504Y62762468D01*
X49838877Y62631860D01*
X49845357Y62500000D01*
X49838877Y62368140D01*
X49819504Y62237532D01*
X49787426Y62109471D01*
X49742945Y61985153D01*
X49686496Y61865802D01*
X49618619Y61752555D01*
X49539978Y61646521D01*
X49451310Y61548690D01*
X49353479Y61460022D01*
X49247445Y61381381D01*
X49134198Y61313504D01*
X49014847Y61257055D01*
X48890529Y61212574D01*
X48762468Y61180496D01*
X48631860Y61161123D01*
X48500000Y61154643D01*
D02*
G37*
%LPC*%
G36*
X53500000Y61154643D02*
X53368140Y61161123D01*
X53237532Y61180496D01*
X53109471Y61212574D01*
X52985153Y61257055D01*
X52865802Y61313504D01*
X52752555Y61381381D01*
X52646521Y61460022D01*
X52548690Y61548690D01*
X52460022Y61646521D01*
X52381381Y61752555D01*
X52313504Y61865802D01*
X52257055Y61985153D01*
X52212574Y62109471D01*
X52180496Y62237532D01*
X52161123Y62368140D01*
X52154643Y62500000D01*
X52161123Y62631860D01*
X52180496Y62762468D01*
X52212574Y62890529D01*
X52257055Y63014847D01*
X52313504Y63134198D01*
X52381381Y63247445D01*
X52460022Y63353479D01*
X52548690Y63451310D01*
X52646521Y63539978D01*
X52752555Y63618619D01*
X52865802Y63686496D01*
X52985153Y63742945D01*
X53109471Y63787426D01*
X53237532Y63819504D01*
X53368140Y63838877D01*
X53500000Y63845357D01*
X53631860Y63838877D01*
X53762468Y63819504D01*
X53890529Y63787426D01*
X54014847Y63742945D01*
X54134198Y63686496D01*
X54247445Y63618619D01*
X54353479Y63539978D01*
X54451310Y63451310D01*
X54539978Y63353479D01*
X54618619Y63247445D01*
X54686496Y63134198D01*
X54742945Y63014847D01*
X54787426Y62890529D01*
X54819504Y62762468D01*
X54838877Y62631860D01*
X54845357Y62500000D01*
X54838877Y62368140D01*
X54819504Y62237532D01*
X54787426Y62109471D01*
X54742945Y61985153D01*
X54686496Y61865802D01*
X54618619Y61752555D01*
X54539978Y61646521D01*
X54451310Y61548690D01*
X54353479Y61460022D01*
X54247445Y61381381D01*
X54134198Y61313504D01*
X54014847Y61257055D01*
X53890529Y61212574D01*
X53762468Y61180496D01*
X53631860Y61161123D01*
X53500000Y61154643D01*
D02*
G37*
%LPC*%
G36*
X58350000Y62650000D02*
X57269963Y62650000D01*
X57283603Y62741959D01*
X57313176Y62860021D01*
X57354177Y62974613D01*
X57406213Y63084634D01*
X57468794Y63189044D01*
X57541286Y63286786D01*
X57623026Y63376974D01*
X57713214Y63458714D01*
X57810956Y63531206D01*
X57915366Y63593787D01*
X58025387Y63645823D01*
X58139979Y63686824D01*
X58258041Y63716397D01*
X58350000Y63730037D01*
X58350000Y62650000D01*
D02*
G37*
%LPC*%
G36*
X59730037Y62650000D02*
X58650000Y62650000D01*
X58650000Y63730037D01*
X58741959Y63716397D01*
X58860021Y63686824D01*
X58974613Y63645823D01*
X59084634Y63593787D01*
X59189044Y63531206D01*
X59286786Y63458714D01*
X59376974Y63376974D01*
X59458714Y63286786D01*
X59531206Y63189044D01*
X59593787Y63084634D01*
X59645823Y62974613D01*
X59686824Y62860021D01*
X59716397Y62741959D01*
X59730037Y62650000D01*
D02*
G37*
%LPC*%
G36*
X58350000Y61269963D02*
X58258041Y61283603D01*
X58139979Y61313176D01*
X58025387Y61354177D01*
X57915366Y61406213D01*
X57810956Y61468794D01*
X57713214Y61541286D01*
X57623026Y61623026D01*
X57541286Y61713214D01*
X57468794Y61810956D01*
X57406213Y61915366D01*
X57354177Y62025387D01*
X57313176Y62139979D01*
X57283603Y62258041D01*
X57269963Y62350000D01*
X58350000Y62350000D01*
X58350000Y61269963D01*
D02*
G37*
%LPC*%
G36*
X58650000Y61269963D02*
X58650000Y62350000D01*
X59730037Y62350000D01*
X59716397Y62258041D01*
X59686824Y62139979D01*
X59645823Y62025387D01*
X59593787Y61915366D01*
X59531206Y61810956D01*
X59458714Y61713214D01*
X59376974Y61623026D01*
X59286786Y61541286D01*
X59189044Y61468794D01*
X59084634Y61406213D01*
X58974613Y61354177D01*
X58860021Y61313176D01*
X58741959Y61283603D01*
X58650000Y61269963D01*
D02*
G37*
%LPC*%
G36*
X26100000Y58004645D02*
X26002438Y58009438D01*
X25905808Y58023773D01*
X25811063Y58047504D01*
X25719099Y58080410D01*
X25630791Y58122177D01*
X25547014Y58172390D01*
X25468551Y58230582D01*
X25396178Y58296178D01*
X25330582Y58368551D01*
X25272390Y58447014D01*
X25222177Y58530791D01*
X25180410Y58619099D01*
X25147504Y58711063D01*
X25123773Y58805808D01*
X25109438Y58902438D01*
X25104645Y59000000D01*
X25109438Y59097562D01*
X25123773Y59194192D01*
X25147504Y59288937D01*
X25180410Y59380901D01*
X25222177Y59469209D01*
X25272390Y59552986D01*
X25330582Y59631449D01*
X25396178Y59703822D01*
X25468551Y59769418D01*
X25547014Y59827610D01*
X25630791Y59877823D01*
X25719099Y59919590D01*
X25811063Y59952496D01*
X25905808Y59976227D01*
X26002438Y59990562D01*
X26100000Y59995355D01*
X26197562Y59990562D01*
X26294192Y59976227D01*
X26388937Y59952496D01*
X26480901Y59919590D01*
X26569209Y59877823D01*
X26652986Y59827610D01*
X26731449Y59769418D01*
X26803822Y59703822D01*
X26869418Y59631449D01*
X26927610Y59552986D01*
X26977823Y59469209D01*
X27019590Y59380901D01*
X27052496Y59288937D01*
X27076227Y59194192D01*
X27090562Y59097562D01*
X27095355Y59000000D01*
X27090562Y58902438D01*
X27076227Y58805808D01*
X27052496Y58711063D01*
X27019590Y58619099D01*
X26977823Y58530791D01*
X26927610Y58447014D01*
X26869418Y58368551D01*
X26803822Y58296178D01*
X26731449Y58230582D01*
X26652986Y58172390D01*
X26569209Y58122177D01*
X26480901Y58080410D01*
X26388937Y58047504D01*
X26294192Y58023773D01*
X26197562Y58009438D01*
X26100000Y58004645D01*
D02*
G37*
%LPC*%
G36*
X29890000Y58004645D02*
X29792438Y58009438D01*
X29695808Y58023773D01*
X29601063Y58047504D01*
X29509099Y58080410D01*
X29420791Y58122177D01*
X29337014Y58172390D01*
X29258551Y58230582D01*
X29186178Y58296178D01*
X29120582Y58368551D01*
X29062390Y58447014D01*
X29012177Y58530791D01*
X28970410Y58619099D01*
X28937504Y58711063D01*
X28913773Y58805808D01*
X28899438Y58902438D01*
X28894645Y59000000D01*
X28899438Y59097562D01*
X28913773Y59194192D01*
X28937504Y59288937D01*
X28970410Y59380901D01*
X29012177Y59469209D01*
X29062390Y59552986D01*
X29120582Y59631449D01*
X29186178Y59703822D01*
X29258551Y59769418D01*
X29337014Y59827610D01*
X29420791Y59877823D01*
X29509099Y59919590D01*
X29601063Y59952496D01*
X29695808Y59976227D01*
X29792438Y59990562D01*
X29890000Y59995355D01*
X29987562Y59990562D01*
X30084192Y59976227D01*
X30178937Y59952496D01*
X30270901Y59919590D01*
X30359209Y59877823D01*
X30442986Y59827610D01*
X30521449Y59769418D01*
X30593822Y59703822D01*
X30659418Y59631449D01*
X30717610Y59552986D01*
X30767823Y59469209D01*
X30809590Y59380901D01*
X30842496Y59288937D01*
X30866227Y59194192D01*
X30880562Y59097562D01*
X30885355Y59000000D01*
X30880562Y58902438D01*
X30866227Y58805808D01*
X30842496Y58711063D01*
X30809590Y58619099D01*
X30767823Y58530791D01*
X30717610Y58447014D01*
X30659418Y58368551D01*
X30593822Y58296178D01*
X30521449Y58230582D01*
X30442986Y58172390D01*
X30359209Y58122177D01*
X30270901Y58080410D01*
X30178937Y58047504D01*
X30084192Y58023773D01*
X29987562Y58009438D01*
X29890000Y58004645D01*
D02*
G37*
%LPC*%
G36*
X33420000Y57984645D02*
X33322438Y57989438D01*
X33225808Y58003773D01*
X33131063Y58027504D01*
X33039099Y58060410D01*
X32950791Y58102177D01*
X32867014Y58152390D01*
X32788551Y58210582D01*
X32716178Y58276178D01*
X32650582Y58348551D01*
X32592390Y58427014D01*
X32542177Y58510791D01*
X32500410Y58599099D01*
X32467504Y58691063D01*
X32443773Y58785808D01*
X32429438Y58882438D01*
X32424645Y58980000D01*
X32429438Y59077562D01*
X32443773Y59174192D01*
X32467504Y59268937D01*
X32500410Y59360901D01*
X32542177Y59449209D01*
X32592390Y59532986D01*
X32650582Y59611449D01*
X32716178Y59683822D01*
X32788551Y59749418D01*
X32867014Y59807610D01*
X32950791Y59857823D01*
X33039099Y59899590D01*
X33131063Y59932496D01*
X33225808Y59956227D01*
X33322438Y59970562D01*
X33420000Y59975355D01*
X33517562Y59970562D01*
X33614192Y59956227D01*
X33708937Y59932496D01*
X33800901Y59899590D01*
X33889209Y59857823D01*
X33972986Y59807610D01*
X34051449Y59749418D01*
X34123822Y59683822D01*
X34189418Y59611449D01*
X34247610Y59532986D01*
X34297823Y59449209D01*
X34339590Y59360901D01*
X34372496Y59268937D01*
X34396227Y59174192D01*
X34410562Y59077562D01*
X34415355Y58980000D01*
X34410562Y58882438D01*
X34396227Y58785808D01*
X34372496Y58691063D01*
X34339590Y58599099D01*
X34297823Y58510791D01*
X34247610Y58427014D01*
X34189418Y58348551D01*
X34123822Y58276178D01*
X34051449Y58210582D01*
X33972986Y58152390D01*
X33889209Y58102177D01*
X33800901Y58060410D01*
X33708937Y58027504D01*
X33614192Y58003773D01*
X33517562Y57989438D01*
X33420000Y57984645D01*
D02*
G37*
%LPC*%
G36*
X36670000Y57984645D02*
X36572438Y57989438D01*
X36475808Y58003773D01*
X36381063Y58027504D01*
X36289099Y58060410D01*
X36200791Y58102177D01*
X36117014Y58152390D01*
X36038551Y58210582D01*
X35966178Y58276178D01*
X35900582Y58348551D01*
X35842390Y58427014D01*
X35792177Y58510791D01*
X35750410Y58599099D01*
X35717504Y58691063D01*
X35693773Y58785808D01*
X35679438Y58882438D01*
X35674645Y58980000D01*
X35679438Y59077562D01*
X35693773Y59174192D01*
X35717504Y59268937D01*
X35750410Y59360901D01*
X35792177Y59449209D01*
X35842390Y59532986D01*
X35900582Y59611449D01*
X35966178Y59683822D01*
X36038551Y59749418D01*
X36117014Y59807610D01*
X36200791Y59857823D01*
X36289099Y59899590D01*
X36381063Y59932496D01*
X36475808Y59956227D01*
X36572438Y59970562D01*
X36670000Y59975355D01*
X36767562Y59970562D01*
X36864192Y59956227D01*
X36958937Y59932496D01*
X37050901Y59899590D01*
X37139209Y59857823D01*
X37222986Y59807610D01*
X37301449Y59749418D01*
X37373822Y59683822D01*
X37439418Y59611449D01*
X37497610Y59532986D01*
X37547823Y59449209D01*
X37589590Y59360901D01*
X37622496Y59268937D01*
X37646227Y59174192D01*
X37660562Y59077562D01*
X37665355Y58980000D01*
X37660562Y58882438D01*
X37646227Y58785808D01*
X37622496Y58691063D01*
X37589590Y58599099D01*
X37547823Y58510791D01*
X37497610Y58427014D01*
X37439418Y58348551D01*
X37373822Y58276178D01*
X37301449Y58210582D01*
X37222986Y58152390D01*
X37139209Y58102177D01*
X37050901Y58060410D01*
X36958937Y58027504D01*
X36864192Y58003773D01*
X36767562Y57989438D01*
X36670000Y57984645D01*
D02*
G37*
%LPC*%
G36*
X22000000Y55024753D02*
X21911268Y55029113D01*
X21823388Y55042149D01*
X21737224Y55063731D01*
X21653579Y55093661D01*
X21573263Y55131648D01*
X21497079Y55177310D01*
X21425715Y55230237D01*
X21359894Y55289894D01*
X21300237Y55355715D01*
X21247310Y55427079D01*
X21201648Y55503263D01*
X21163661Y55583579D01*
X21133731Y55667224D01*
X21112149Y55753388D01*
X21099113Y55841268D01*
X21094753Y55930000D01*
X21099113Y56018732D01*
X21112149Y56106612D01*
X21133731Y56192776D01*
X21163661Y56276421D01*
X21201648Y56356737D01*
X21247310Y56432921D01*
X21300237Y56504285D01*
X21359894Y56570106D01*
X21425715Y56629763D01*
X21497079Y56682690D01*
X21573263Y56728352D01*
X21653579Y56766339D01*
X21737224Y56796269D01*
X21823388Y56817851D01*
X21911268Y56830887D01*
X22000000Y56835247D01*
X22088732Y56830887D01*
X22176612Y56817851D01*
X22262776Y56796269D01*
X22346421Y56766339D01*
X22426737Y56728352D01*
X22502921Y56682690D01*
X22574285Y56629763D01*
X22640106Y56570106D01*
X22699763Y56504285D01*
X22752690Y56432921D01*
X22798352Y56356737D01*
X22836339Y56276421D01*
X22866269Y56192776D01*
X22887851Y56106612D01*
X22900887Y56018732D01*
X22905247Y55930000D01*
X22900887Y55841268D01*
X22887851Y55753388D01*
X22866269Y55667224D01*
X22836339Y55583579D01*
X22798352Y55503263D01*
X22752690Y55427079D01*
X22699763Y55355715D01*
X22640106Y55289894D01*
X22574285Y55230237D01*
X22502921Y55177310D01*
X22426737Y55131648D01*
X22346421Y55093661D01*
X22262776Y55063731D01*
X22176612Y55042149D01*
X22088732Y55029113D01*
X22000000Y55024753D01*
D02*
G37*
%LPC*%
G36*
X26420000Y51104645D02*
X26283231Y51111364D01*
X26147774Y51131458D01*
X26014948Y51164729D01*
X25886023Y51210859D01*
X25762236Y51269406D01*
X25644784Y51339804D01*
X25534794Y51421378D01*
X25433335Y51513335D01*
X25341378Y51614794D01*
X25259804Y51724784D01*
X25189406Y51842236D01*
X25130859Y51966023D01*
X25084729Y52094948D01*
X25051458Y52227774D01*
X25031364Y52363231D01*
X25024645Y52500000D01*
X25031364Y52636769D01*
X25051458Y52772226D01*
X25084729Y52905052D01*
X25130859Y53033977D01*
X25189406Y53157764D01*
X25259804Y53275216D01*
X25341378Y53385206D01*
X25433335Y53486665D01*
X25534794Y53578622D01*
X25644784Y53660196D01*
X25762236Y53730594D01*
X25886023Y53789141D01*
X26014948Y53835271D01*
X26147774Y53868542D01*
X26283231Y53888636D01*
X26420000Y53895355D01*
X26556769Y53888636D01*
X26692226Y53868542D01*
X26825052Y53835271D01*
X26953977Y53789141D01*
X27077764Y53730594D01*
X27195216Y53660196D01*
X27305206Y53578622D01*
X27406665Y53486665D01*
X27498622Y53385206D01*
X27580196Y53275216D01*
X27650594Y53157764D01*
X27709141Y53033977D01*
X27755271Y52905052D01*
X27788542Y52772226D01*
X27808636Y52636769D01*
X27815355Y52500000D01*
X27808636Y52363231D01*
X27788542Y52227774D01*
X27755271Y52094948D01*
X27709141Y51966023D01*
X27650594Y51842236D01*
X27580196Y51724784D01*
X27498622Y51614794D01*
X27406665Y51513335D01*
X27305206Y51421378D01*
X27195216Y51339804D01*
X27077764Y51269406D01*
X26953977Y51210859D01*
X26825052Y51164729D01*
X26692226Y51131458D01*
X26556769Y51111364D01*
X26420000Y51104645D01*
D02*
G37*
%LPC*%
G36*
X31500000Y51104645D02*
X31363231Y51111364D01*
X31227774Y51131458D01*
X31094948Y51164729D01*
X30966023Y51210859D01*
X30842236Y51269406D01*
X30724784Y51339804D01*
X30614794Y51421378D01*
X30513335Y51513335D01*
X30421378Y51614794D01*
X30339804Y51724784D01*
X30269406Y51842236D01*
X30210859Y51966023D01*
X30164729Y52094948D01*
X30131458Y52227774D01*
X30111364Y52363231D01*
X30104645Y52500000D01*
X30111364Y52636769D01*
X30131458Y52772226D01*
X30164729Y52905052D01*
X30210859Y53033977D01*
X30269406Y53157764D01*
X30339804Y53275216D01*
X30421378Y53385206D01*
X30513335Y53486665D01*
X30614794Y53578622D01*
X30724784Y53660196D01*
X30842236Y53730594D01*
X30966023Y53789141D01*
X31094948Y53835271D01*
X31227774Y53868542D01*
X31363231Y53888636D01*
X31500000Y53895355D01*
X31636769Y53888636D01*
X31772226Y53868542D01*
X31905052Y53835271D01*
X32033977Y53789141D01*
X32157764Y53730594D01*
X32275216Y53660196D01*
X32385206Y53578622D01*
X32486665Y53486665D01*
X32578622Y53385206D01*
X32660196Y53275216D01*
X32730594Y53157764D01*
X32789141Y53033977D01*
X32835271Y52905052D01*
X32868542Y52772226D01*
X32888636Y52636769D01*
X32895355Y52500000D01*
X32888636Y52363231D01*
X32868542Y52227774D01*
X32835271Y52094948D01*
X32789141Y51966023D01*
X32730594Y51842236D01*
X32660196Y51724784D01*
X32578622Y51614794D01*
X32486665Y51513335D01*
X32385206Y51421378D01*
X32275216Y51339804D01*
X32157764Y51269406D01*
X32033977Y51210859D01*
X31905052Y51164729D01*
X31772226Y51131458D01*
X31636769Y51111364D01*
X31500000Y51104645D01*
D02*
G37*
%LPC*%
G36*
X36580000Y51104645D02*
X36443231Y51111364D01*
X36307774Y51131458D01*
X36174948Y51164729D01*
X36046023Y51210859D01*
X35922236Y51269406D01*
X35804784Y51339804D01*
X35694794Y51421378D01*
X35593335Y51513335D01*
X35501378Y51614794D01*
X35419804Y51724784D01*
X35349406Y51842236D01*
X35290859Y51966023D01*
X35244729Y52094948D01*
X35211458Y52227774D01*
X35191364Y52363231D01*
X35184645Y52500000D01*
X35191364Y52636769D01*
X35211458Y52772226D01*
X35244729Y52905052D01*
X35290859Y53033977D01*
X35349406Y53157764D01*
X35419804Y53275216D01*
X35501378Y53385206D01*
X35593335Y53486665D01*
X35694794Y53578622D01*
X35804784Y53660196D01*
X35922236Y53730594D01*
X36046023Y53789141D01*
X36174948Y53835271D01*
X36307774Y53868542D01*
X36443231Y53888636D01*
X36580000Y53895355D01*
X36716769Y53888636D01*
X36852226Y53868542D01*
X36985052Y53835271D01*
X37113977Y53789141D01*
X37237764Y53730594D01*
X37355216Y53660196D01*
X37465206Y53578622D01*
X37566665Y53486665D01*
X37658622Y53385206D01*
X37740196Y53275216D01*
X37810594Y53157764D01*
X37869141Y53033977D01*
X37915271Y52905052D01*
X37948542Y52772226D01*
X37968636Y52636769D01*
X37975355Y52500000D01*
X37968636Y52363231D01*
X37948542Y52227774D01*
X37915271Y52094948D01*
X37869141Y51966023D01*
X37810594Y51842236D01*
X37740196Y51724784D01*
X37658622Y51614794D01*
X37566665Y51513335D01*
X37465206Y51421378D01*
X37355216Y51339804D01*
X37237764Y51269406D01*
X37113977Y51210859D01*
X36985052Y51164729D01*
X36852226Y51131458D01*
X36716769Y51111364D01*
X36580000Y51104645D01*
D02*
G37*
%LPC*%
G36*
X10280000Y50024753D02*
X10191268Y50029113D01*
X10103388Y50042149D01*
X10017224Y50063731D01*
X9933579Y50093661D01*
X9853263Y50131648D01*
X9777079Y50177310D01*
X9705715Y50230237D01*
X9639894Y50289894D01*
X9580237Y50355715D01*
X9527310Y50427079D01*
X9481648Y50503263D01*
X9443661Y50583579D01*
X9413731Y50667224D01*
X9392149Y50753388D01*
X9379113Y50841268D01*
X9374753Y50930000D01*
X9379113Y51018732D01*
X9392149Y51106612D01*
X9413731Y51192776D01*
X9443661Y51276421D01*
X9481648Y51356737D01*
X9527310Y51432921D01*
X9580237Y51504285D01*
X9639894Y51570106D01*
X9705715Y51629763D01*
X9777079Y51682690D01*
X9853263Y51728352D01*
X9933579Y51766339D01*
X10017224Y51796269D01*
X10103388Y51817851D01*
X10191268Y51830887D01*
X10280000Y51835247D01*
X10368732Y51830887D01*
X10456612Y51817851D01*
X10542776Y51796269D01*
X10626421Y51766339D01*
X10706737Y51728352D01*
X10782921Y51682690D01*
X10854285Y51629763D01*
X10920106Y51570106D01*
X10979763Y51504285D01*
X11032690Y51432921D01*
X11078352Y51356737D01*
X11116339Y51276421D01*
X11146269Y51192776D01*
X11167851Y51106612D01*
X11180887Y51018732D01*
X11185247Y50930000D01*
X11180887Y50841268D01*
X11167851Y50753388D01*
X11146269Y50667224D01*
X11116339Y50583579D01*
X11078352Y50503263D01*
X11032690Y50427079D01*
X10979763Y50355715D01*
X10920106Y50289894D01*
X10854285Y50230237D01*
X10782921Y50177310D01*
X10706737Y50131648D01*
X10626421Y50093661D01*
X10542776Y50063731D01*
X10456612Y50042149D01*
X10368732Y50029113D01*
X10280000Y50024753D01*
D02*
G37*
%LPC*%
G36*
X51530000Y47604753D02*
X51441268Y47609113D01*
X51353388Y47622149D01*
X51267224Y47643731D01*
X51183579Y47673661D01*
X51103263Y47711648D01*
X51027079Y47757310D01*
X50955715Y47810237D01*
X50889894Y47869894D01*
X50830237Y47935715D01*
X50777310Y48007079D01*
X50731648Y48083263D01*
X50693661Y48163579D01*
X50663731Y48247224D01*
X50642149Y48333388D01*
X50629113Y48421268D01*
X50624753Y48510000D01*
X50629113Y48598732D01*
X50642149Y48686612D01*
X50663731Y48772776D01*
X50693661Y48856421D01*
X50731648Y48936737D01*
X50777310Y49012921D01*
X50830237Y49084285D01*
X50889894Y49150106D01*
X50955715Y49209763D01*
X51027079Y49262690D01*
X51103263Y49308352D01*
X51183579Y49346339D01*
X51267224Y49376269D01*
X51353388Y49397851D01*
X51441268Y49410887D01*
X51530000Y49415247D01*
X51618732Y49410887D01*
X51706612Y49397851D01*
X51792776Y49376269D01*
X51876421Y49346339D01*
X51956737Y49308352D01*
X52032921Y49262690D01*
X52104285Y49209763D01*
X52170106Y49150106D01*
X52229763Y49084285D01*
X52282690Y49012921D01*
X52328352Y48936737D01*
X52366339Y48856421D01*
X52396269Y48772776D01*
X52417851Y48686612D01*
X52430887Y48598732D01*
X52435247Y48510000D01*
X52430887Y48421268D01*
X52417851Y48333388D01*
X52396269Y48247224D01*
X52366339Y48163579D01*
X52328352Y48083263D01*
X52282690Y48007079D01*
X52229763Y47935715D01*
X52170106Y47869894D01*
X52104285Y47810237D01*
X52032921Y47757310D01*
X51956737Y47711648D01*
X51876421Y47673661D01*
X51792776Y47643731D01*
X51706612Y47622149D01*
X51618732Y47609113D01*
X51530000Y47604753D01*
D02*
G37*
%LPC*%
G36*
X35750000Y40404643D02*
X35642644Y40409919D01*
X35536304Y40425692D01*
X35432032Y40451811D01*
X35330829Y40488022D01*
X35233655Y40533982D01*
X35141454Y40589245D01*
X35055113Y40653280D01*
X34975467Y40725467D01*
X34903280Y40805113D01*
X34839245Y40891454D01*
X34783982Y40983655D01*
X34738022Y41080829D01*
X34701811Y41182032D01*
X34675692Y41286304D01*
X34659919Y41392644D01*
X34654643Y41500000D01*
X34659919Y41607356D01*
X34675692Y41713696D01*
X34701811Y41817968D01*
X34738022Y41919171D01*
X34783982Y42016345D01*
X34839245Y42108546D01*
X34903280Y42194887D01*
X34975467Y42274533D01*
X35055113Y42346720D01*
X35141454Y42410755D01*
X35233655Y42466018D01*
X35330829Y42511978D01*
X35432032Y42548189D01*
X35536304Y42574308D01*
X35642644Y42590081D01*
X35750000Y42595357D01*
X35857356Y42590081D01*
X35963696Y42574308D01*
X36067968Y42548189D01*
X36169171Y42511978D01*
X36266345Y42466018D01*
X36358546Y42410755D01*
X36444887Y42346720D01*
X36524533Y42274533D01*
X36596720Y42194887D01*
X36660755Y42108546D01*
X36716018Y42016345D01*
X36761978Y41919171D01*
X36798189Y41817968D01*
X36824308Y41713696D01*
X36840081Y41607356D01*
X36845357Y41500000D01*
X36840081Y41392644D01*
X36824308Y41286304D01*
X36798189Y41182032D01*
X36761978Y41080829D01*
X36716018Y40983655D01*
X36660755Y40891454D01*
X36596720Y40805113D01*
X36524533Y40725467D01*
X36444887Y40653280D01*
X36358546Y40589245D01*
X36266345Y40533982D01*
X36169171Y40488022D01*
X36067968Y40451811D01*
X35963696Y40425692D01*
X35857356Y40409919D01*
X35750000Y40404643D01*
D02*
G37*
%LPC*%
G36*
X38900000Y41650000D02*
X38072393Y41650000D01*
X38078799Y41693187D01*
X38102410Y41787447D01*
X38135147Y41878939D01*
X38176697Y41966792D01*
X38226656Y42050141D01*
X38284545Y42128196D01*
X38349803Y42200197D01*
X38421804Y42265455D01*
X38499859Y42323344D01*
X38583208Y42373303D01*
X38671061Y42414853D01*
X38762553Y42447590D01*
X38856813Y42471201D01*
X38900000Y42477607D01*
X38900000Y41650000D01*
D02*
G37*
%LPC*%
G36*
X40027607Y41650000D02*
X39200000Y41650000D01*
X39200000Y42477607D01*
X39243187Y42471201D01*
X39337447Y42447590D01*
X39428939Y42414853D01*
X39516792Y42373303D01*
X39600141Y42323344D01*
X39678196Y42265455D01*
X39750197Y42200197D01*
X39815455Y42128196D01*
X39873344Y42050141D01*
X39923303Y41966792D01*
X39964853Y41878939D01*
X39997590Y41787447D01*
X40021201Y41693187D01*
X40027607Y41650000D01*
D02*
G37*
%LPC*%
G36*
X39200000Y40522393D02*
X39200000Y41350000D01*
X40027607Y41350000D01*
X40021201Y41306813D01*
X39997590Y41212553D01*
X39964853Y41121061D01*
X39923303Y41033208D01*
X39873344Y40949859D01*
X39815455Y40871804D01*
X39750197Y40799803D01*
X39678196Y40734545D01*
X39600141Y40676656D01*
X39516792Y40626697D01*
X39428939Y40585147D01*
X39337447Y40552410D01*
X39243187Y40528799D01*
X39200000Y40522393D01*
D02*
G37*
%LPC*%
G36*
X38900000Y40522393D02*
X38856813Y40528799D01*
X38762553Y40552410D01*
X38671061Y40585147D01*
X38583208Y40626697D01*
X38499859Y40676656D01*
X38421804Y40734545D01*
X38349803Y40799803D01*
X38284545Y40871804D01*
X38226656Y40949859D01*
X38176697Y41033208D01*
X38135147Y41121061D01*
X38102410Y41212553D01*
X38078799Y41306813D01*
X38072393Y41350000D01*
X38900000Y41350000D01*
X38900000Y40522393D01*
D02*
G37*
%LPC*%
G36*
X35750000Y37904643D02*
X35642644Y37909919D01*
X35536304Y37925692D01*
X35432032Y37951811D01*
X35330829Y37988022D01*
X35233655Y38033982D01*
X35141454Y38089245D01*
X35055113Y38153280D01*
X34975467Y38225467D01*
X34903280Y38305113D01*
X34839245Y38391454D01*
X34783982Y38483655D01*
X34738022Y38580829D01*
X34701811Y38682032D01*
X34675692Y38786304D01*
X34659919Y38892644D01*
X34654643Y39000000D01*
X34659919Y39107356D01*
X34675692Y39213696D01*
X34701811Y39317968D01*
X34738022Y39419171D01*
X34783982Y39516345D01*
X34839245Y39608546D01*
X34903280Y39694887D01*
X34975467Y39774533D01*
X35055113Y39846720D01*
X35141454Y39910755D01*
X35233655Y39966018D01*
X35330829Y40011978D01*
X35432032Y40048189D01*
X35536304Y40074308D01*
X35642644Y40090081D01*
X35750000Y40095357D01*
X35857356Y40090081D01*
X35963696Y40074308D01*
X36067968Y40048189D01*
X36169171Y40011978D01*
X36266345Y39966018D01*
X36358546Y39910755D01*
X36444887Y39846720D01*
X36524533Y39774533D01*
X36596720Y39694887D01*
X36660755Y39608546D01*
X36716018Y39516345D01*
X36761978Y39419171D01*
X36798189Y39317968D01*
X36824308Y39213696D01*
X36840081Y39107356D01*
X36845357Y39000000D01*
X36840081Y38892644D01*
X36824308Y38786304D01*
X36798189Y38682032D01*
X36761978Y38580829D01*
X36716018Y38483655D01*
X36660755Y38391454D01*
X36596720Y38305113D01*
X36524533Y38225467D01*
X36444887Y38153280D01*
X36358546Y38089245D01*
X36266345Y38033982D01*
X36169171Y37988022D01*
X36067968Y37951811D01*
X35963696Y37925692D01*
X35857356Y37909919D01*
X35750000Y37904643D01*
D02*
G37*
%LPC*%
G36*
X38900000Y39150000D02*
X38072393Y39150000D01*
X38078799Y39193187D01*
X38102410Y39287447D01*
X38135147Y39378939D01*
X38176697Y39466792D01*
X38226656Y39550141D01*
X38284545Y39628196D01*
X38349803Y39700197D01*
X38421804Y39765455D01*
X38499859Y39823344D01*
X38583208Y39873303D01*
X38671061Y39914853D01*
X38762553Y39947590D01*
X38856813Y39971201D01*
X38900000Y39977607D01*
X38900000Y39150000D01*
D02*
G37*
%LPC*%
G36*
X40027607Y39150000D02*
X39200000Y39150000D01*
X39200000Y39977607D01*
X39243187Y39971201D01*
X39337447Y39947590D01*
X39428939Y39914853D01*
X39516792Y39873303D01*
X39600141Y39823344D01*
X39678196Y39765455D01*
X39750197Y39700197D01*
X39815455Y39628196D01*
X39873344Y39550141D01*
X39923303Y39466792D01*
X39964853Y39378939D01*
X39997590Y39287447D01*
X40021201Y39193187D01*
X40027607Y39150000D01*
D02*
G37*
%LPC*%
G36*
X39200000Y38022393D02*
X39200000Y38850000D01*
X40027607Y38850000D01*
X40021201Y38806813D01*
X39997590Y38712553D01*
X39964853Y38621061D01*
X39923303Y38533208D01*
X39873344Y38449859D01*
X39815455Y38371804D01*
X39750197Y38299803D01*
X39678196Y38234545D01*
X39600141Y38176656D01*
X39516792Y38126697D01*
X39428939Y38085147D01*
X39337447Y38052410D01*
X39243187Y38028799D01*
X39200000Y38022393D01*
D02*
G37*
%LPC*%
G36*
X38900000Y38022393D02*
X38856813Y38028799D01*
X38762553Y38052410D01*
X38671061Y38085147D01*
X38583208Y38126697D01*
X38499859Y38176656D01*
X38421804Y38234545D01*
X38349803Y38299803D01*
X38284545Y38371804D01*
X38226656Y38449859D01*
X38176697Y38533208D01*
X38135147Y38621061D01*
X38102410Y38712553D01*
X38078799Y38806813D01*
X38072393Y38850000D01*
X38900000Y38850000D01*
X38900000Y38022393D01*
D02*
G37*
%LPC*%
G36*
X58500000Y35154643D02*
X58368140Y35161123D01*
X58237532Y35180496D01*
X58109471Y35212574D01*
X57985153Y35257055D01*
X57865802Y35313504D01*
X57752555Y35381381D01*
X57646521Y35460022D01*
X57548690Y35548690D01*
X57460022Y35646521D01*
X57381381Y35752555D01*
X57313504Y35865802D01*
X57257055Y35985153D01*
X57212574Y36109471D01*
X57180496Y36237532D01*
X57161123Y36368140D01*
X57154643Y36500000D01*
X57161123Y36631860D01*
X57180496Y36762468D01*
X57212574Y36890529D01*
X57257055Y37014847D01*
X57313504Y37134198D01*
X57381381Y37247445D01*
X57460022Y37353479D01*
X57548690Y37451310D01*
X57646521Y37539978D01*
X57752555Y37618619D01*
X57865802Y37686496D01*
X57985153Y37742945D01*
X58109471Y37787426D01*
X58237532Y37819504D01*
X58368140Y37838877D01*
X58500000Y37845357D01*
X58631860Y37838877D01*
X58762468Y37819504D01*
X58890529Y37787426D01*
X59014847Y37742945D01*
X59134198Y37686496D01*
X59247445Y37618619D01*
X59353479Y37539978D01*
X59451310Y37451310D01*
X59539978Y37353479D01*
X59618619Y37247445D01*
X59686496Y37134198D01*
X59742945Y37014847D01*
X59787426Y36890529D01*
X59819504Y36762468D01*
X59838877Y36631860D01*
X59845357Y36500000D01*
X59838877Y36368140D01*
X59819504Y36237532D01*
X59787426Y36109471D01*
X59742945Y35985153D01*
X59686496Y35865802D01*
X59618619Y35752555D01*
X59539978Y35646521D01*
X59451310Y35548690D01*
X59353479Y35460022D01*
X59247445Y35381381D01*
X59134198Y35313504D01*
X59014847Y35257055D01*
X58890529Y35212574D01*
X58762468Y35180496D01*
X58631860Y35161123D01*
X58500000Y35154643D01*
D02*
G37*
%LPC*%
G36*
X53500000Y35154643D02*
X53368140Y35161123D01*
X53237532Y35180496D01*
X53109471Y35212574D01*
X52985153Y35257055D01*
X52865802Y35313504D01*
X52752555Y35381381D01*
X52646521Y35460022D01*
X52548690Y35548690D01*
X52460022Y35646521D01*
X52381381Y35752555D01*
X52313504Y35865802D01*
X52257055Y35985153D01*
X52212574Y36109471D01*
X52180496Y36237532D01*
X52161123Y36368140D01*
X52154643Y36500000D01*
X52161123Y36631860D01*
X52180496Y36762468D01*
X52212574Y36890529D01*
X52257055Y37014847D01*
X52313504Y37134198D01*
X52381381Y37247445D01*
X52460022Y37353479D01*
X52548690Y37451310D01*
X52646521Y37539978D01*
X52752555Y37618619D01*
X52865802Y37686496D01*
X52985153Y37742945D01*
X53109471Y37787426D01*
X53237532Y37819504D01*
X53368140Y37838877D01*
X53500000Y37845357D01*
X53631860Y37838877D01*
X53762468Y37819504D01*
X53890529Y37787426D01*
X54014847Y37742945D01*
X54134198Y37686496D01*
X54247445Y37618619D01*
X54353479Y37539978D01*
X54451310Y37451310D01*
X54539978Y37353479D01*
X54618619Y37247445D01*
X54686496Y37134198D01*
X54742945Y37014847D01*
X54787426Y36890529D01*
X54819504Y36762468D01*
X54838877Y36631860D01*
X54845357Y36500000D01*
X54838877Y36368140D01*
X54819504Y36237532D01*
X54787426Y36109471D01*
X54742945Y35985153D01*
X54686496Y35865802D01*
X54618619Y35752555D01*
X54539978Y35646521D01*
X54451310Y35548690D01*
X54353479Y35460022D01*
X54247445Y35381381D01*
X54134198Y35313504D01*
X54014847Y35257055D01*
X53890529Y35212574D01*
X53762468Y35180496D01*
X53631860Y35161123D01*
X53500000Y35154643D01*
D02*
G37*
%LPC*%
G36*
X14500000Y35154643D02*
X14368140Y35161123D01*
X14237532Y35180496D01*
X14109471Y35212574D01*
X13985153Y35257055D01*
X13865802Y35313504D01*
X13752555Y35381381D01*
X13646521Y35460022D01*
X13548690Y35548690D01*
X13460022Y35646521D01*
X13381381Y35752555D01*
X13313504Y35865802D01*
X13257055Y35985153D01*
X13212574Y36109471D01*
X13180496Y36237532D01*
X13161123Y36368140D01*
X13154643Y36500000D01*
X13161123Y36631860D01*
X13180496Y36762468D01*
X13212574Y36890529D01*
X13257055Y37014847D01*
X13313504Y37134198D01*
X13381381Y37247445D01*
X13460022Y37353479D01*
X13548690Y37451310D01*
X13646521Y37539978D01*
X13752555Y37618619D01*
X13865802Y37686496D01*
X13985153Y37742945D01*
X14109471Y37787426D01*
X14237532Y37819504D01*
X14368140Y37838877D01*
X14500000Y37845357D01*
X14631860Y37838877D01*
X14762468Y37819504D01*
X14890529Y37787426D01*
X15014847Y37742945D01*
X15134198Y37686496D01*
X15247445Y37618619D01*
X15353479Y37539978D01*
X15451310Y37451310D01*
X15539978Y37353479D01*
X15618619Y37247445D01*
X15686496Y37134198D01*
X15742945Y37014847D01*
X15787426Y36890529D01*
X15819504Y36762468D01*
X15838877Y36631860D01*
X15845357Y36500000D01*
X15838877Y36368140D01*
X15819504Y36237532D01*
X15787426Y36109471D01*
X15742945Y35985153D01*
X15686496Y35865802D01*
X15618619Y35752555D01*
X15539978Y35646521D01*
X15451310Y35548690D01*
X15353479Y35460022D01*
X15247445Y35381381D01*
X15134198Y35313504D01*
X15014847Y35257055D01*
X14890529Y35212574D01*
X14762468Y35180496D01*
X14631860Y35161123D01*
X14500000Y35154643D01*
D02*
G37*
%LPC*%
G36*
X9500000Y35154643D02*
X9368140Y35161123D01*
X9237532Y35180496D01*
X9109471Y35212574D01*
X8985153Y35257055D01*
X8865802Y35313504D01*
X8752555Y35381381D01*
X8646521Y35460022D01*
X8548690Y35548690D01*
X8460022Y35646521D01*
X8381381Y35752555D01*
X8313504Y35865802D01*
X8257055Y35985153D01*
X8212574Y36109471D01*
X8180496Y36237532D01*
X8161123Y36368140D01*
X8154643Y36500000D01*
X8161123Y36631860D01*
X8180496Y36762468D01*
X8212574Y36890529D01*
X8257055Y37014847D01*
X8313504Y37134198D01*
X8381381Y37247445D01*
X8460022Y37353479D01*
X8548690Y37451310D01*
X8646521Y37539978D01*
X8752555Y37618619D01*
X8865802Y37686496D01*
X8985153Y37742945D01*
X9109471Y37787426D01*
X9237532Y37819504D01*
X9368140Y37838877D01*
X9500000Y37845357D01*
X9631860Y37838877D01*
X9762468Y37819504D01*
X9890529Y37787426D01*
X10014847Y37742945D01*
X10134198Y37686496D01*
X10247445Y37618619D01*
X10353479Y37539978D01*
X10451310Y37451310D01*
X10539978Y37353479D01*
X10618619Y37247445D01*
X10686496Y37134198D01*
X10742945Y37014847D01*
X10787426Y36890529D01*
X10819504Y36762468D01*
X10838877Y36631860D01*
X10845357Y36500000D01*
X10838877Y36368140D01*
X10819504Y36237532D01*
X10787426Y36109471D01*
X10742945Y35985153D01*
X10686496Y35865802D01*
X10618619Y35752555D01*
X10539978Y35646521D01*
X10451310Y35548690D01*
X10353479Y35460022D01*
X10247445Y35381381D01*
X10134198Y35313504D01*
X10014847Y35257055D01*
X9890529Y35212574D01*
X9762468Y35180496D01*
X9631860Y35161123D01*
X9500000Y35154643D01*
D02*
G37*
%LPC*%
G36*
X48500000Y35154643D02*
X48368140Y35161123D01*
X48237532Y35180496D01*
X48109471Y35212574D01*
X47985153Y35257055D01*
X47865802Y35313504D01*
X47752555Y35381381D01*
X47646521Y35460022D01*
X47548690Y35548690D01*
X47460022Y35646521D01*
X47381381Y35752555D01*
X47313504Y35865802D01*
X47257055Y35985153D01*
X47212574Y36109471D01*
X47180496Y36237532D01*
X47161123Y36368140D01*
X47154643Y36500000D01*
X47161123Y36631860D01*
X47180496Y36762468D01*
X47212574Y36890529D01*
X47257055Y37014847D01*
X47313504Y37134198D01*
X47381381Y37247445D01*
X47460022Y37353479D01*
X47548690Y37451310D01*
X47646521Y37539978D01*
X47752555Y37618619D01*
X47865802Y37686496D01*
X47985153Y37742945D01*
X48109471Y37787426D01*
X48237532Y37819504D01*
X48368140Y37838877D01*
X48500000Y37845357D01*
X48631860Y37838877D01*
X48762468Y37819504D01*
X48890529Y37787426D01*
X49014847Y37742945D01*
X49134198Y37686496D01*
X49247445Y37618619D01*
X49353479Y37539978D01*
X49451310Y37451310D01*
X49539978Y37353479D01*
X49618619Y37247445D01*
X49686496Y37134198D01*
X49742945Y37014847D01*
X49787426Y36890529D01*
X49819504Y36762468D01*
X49838877Y36631860D01*
X49845357Y36500000D01*
X49838877Y36368140D01*
X49819504Y36237532D01*
X49787426Y36109471D01*
X49742945Y35985153D01*
X49686496Y35865802D01*
X49618619Y35752555D01*
X49539978Y35646521D01*
X49451310Y35548690D01*
X49353479Y35460022D01*
X49247445Y35381381D01*
X49134198Y35313504D01*
X49014847Y35257055D01*
X48890529Y35212574D01*
X48762468Y35180496D01*
X48631860Y35161123D01*
X48500000Y35154643D01*
D02*
G37*
%LPC*%
G36*
X4500000Y35154643D02*
X4368140Y35161123D01*
X4237532Y35180496D01*
X4109471Y35212574D01*
X3985153Y35257055D01*
X3865802Y35313504D01*
X3752555Y35381381D01*
X3646521Y35460022D01*
X3548690Y35548690D01*
X3460022Y35646521D01*
X3381381Y35752555D01*
X3313504Y35865802D01*
X3257055Y35985153D01*
X3212574Y36109471D01*
X3180496Y36237532D01*
X3161123Y36368140D01*
X3154643Y36500000D01*
X3161123Y36631860D01*
X3180496Y36762468D01*
X3212574Y36890529D01*
X3257055Y37014847D01*
X3313504Y37134198D01*
X3381381Y37247445D01*
X3460022Y37353479D01*
X3548690Y37451310D01*
X3646521Y37539978D01*
X3752555Y37618619D01*
X3865802Y37686496D01*
X3985153Y37742945D01*
X4109471Y37787426D01*
X4237532Y37819504D01*
X4368140Y37838877D01*
X4500000Y37845357D01*
X4631860Y37838877D01*
X4762468Y37819504D01*
X4890529Y37787426D01*
X5014847Y37742945D01*
X5134198Y37686496D01*
X5247445Y37618619D01*
X5353479Y37539978D01*
X5451310Y37451310D01*
X5539978Y37353479D01*
X5618619Y37247445D01*
X5686496Y37134198D01*
X5742945Y37014847D01*
X5787426Y36890529D01*
X5819504Y36762468D01*
X5838877Y36631860D01*
X5845357Y36500000D01*
X5838877Y36368140D01*
X5819504Y36237532D01*
X5787426Y36109471D01*
X5742945Y35985153D01*
X5686496Y35865802D01*
X5618619Y35752555D01*
X5539978Y35646521D01*
X5451310Y35548690D01*
X5353479Y35460022D01*
X5247445Y35381381D01*
X5134198Y35313504D01*
X5014847Y35257055D01*
X4890529Y35212574D01*
X4762468Y35180496D01*
X4631860Y35161123D01*
X4500000Y35154643D01*
D02*
G37*
%LPC*%
G36*
X35750000Y35404643D02*
X35642644Y35409919D01*
X35536304Y35425692D01*
X35432032Y35451811D01*
X35330829Y35488022D01*
X35233655Y35533982D01*
X35141454Y35589245D01*
X35055113Y35653280D01*
X34975467Y35725467D01*
X34903280Y35805113D01*
X34839245Y35891454D01*
X34783982Y35983655D01*
X34738022Y36080829D01*
X34701811Y36182032D01*
X34675692Y36286304D01*
X34659919Y36392644D01*
X34654643Y36500000D01*
X34659919Y36607356D01*
X34675692Y36713696D01*
X34701811Y36817968D01*
X34738022Y36919171D01*
X34783982Y37016345D01*
X34839245Y37108546D01*
X34903280Y37194887D01*
X34975467Y37274533D01*
X35055113Y37346720D01*
X35141454Y37410755D01*
X35233655Y37466018D01*
X35330829Y37511978D01*
X35432032Y37548189D01*
X35536304Y37574308D01*
X35642644Y37590081D01*
X35750000Y37595357D01*
X35857356Y37590081D01*
X35963696Y37574308D01*
X36067968Y37548189D01*
X36169171Y37511978D01*
X36266345Y37466018D01*
X36358546Y37410755D01*
X36444887Y37346720D01*
X36524533Y37274533D01*
X36596720Y37194887D01*
X36660755Y37108546D01*
X36716018Y37016345D01*
X36761978Y36919171D01*
X36798189Y36817968D01*
X36824308Y36713696D01*
X36840081Y36607356D01*
X36845357Y36500000D01*
X36840081Y36392644D01*
X36824308Y36286304D01*
X36798189Y36182032D01*
X36761978Y36080829D01*
X36716018Y35983655D01*
X36660755Y35891454D01*
X36596720Y35805113D01*
X36524533Y35725467D01*
X36444887Y35653280D01*
X36358546Y35589245D01*
X36266345Y35533982D01*
X36169171Y35488022D01*
X36067968Y35451811D01*
X35963696Y35425692D01*
X35857356Y35409919D01*
X35750000Y35404643D01*
D02*
G37*
%LPC*%
G36*
X38900000Y36650000D02*
X38072393Y36650000D01*
X38078799Y36693187D01*
X38102410Y36787447D01*
X38135147Y36878939D01*
X38176697Y36966792D01*
X38226656Y37050141D01*
X38284545Y37128196D01*
X38349803Y37200197D01*
X38421804Y37265455D01*
X38499859Y37323344D01*
X38583208Y37373303D01*
X38671061Y37414853D01*
X38762553Y37447590D01*
X38856813Y37471201D01*
X38900000Y37477607D01*
X38900000Y36650000D01*
D02*
G37*
%LPC*%
G36*
X40027607Y36650000D02*
X39200000Y36650000D01*
X39200000Y37477607D01*
X39243187Y37471201D01*
X39337447Y37447590D01*
X39428939Y37414853D01*
X39516792Y37373303D01*
X39600141Y37323344D01*
X39678196Y37265455D01*
X39750197Y37200197D01*
X39815455Y37128196D01*
X39873344Y37050141D01*
X39923303Y36966792D01*
X39964853Y36878939D01*
X39997590Y36787447D01*
X40021201Y36693187D01*
X40027607Y36650000D01*
D02*
G37*
%LPC*%
G36*
X39200000Y35522393D02*
X39200000Y36350000D01*
X40027607Y36350000D01*
X40021201Y36306813D01*
X39997590Y36212553D01*
X39964853Y36121061D01*
X39923303Y36033208D01*
X39873344Y35949859D01*
X39815455Y35871804D01*
X39750197Y35799803D01*
X39678196Y35734545D01*
X39600141Y35676656D01*
X39516792Y35626697D01*
X39428939Y35585147D01*
X39337447Y35552410D01*
X39243187Y35528799D01*
X39200000Y35522393D01*
D02*
G37*
%LPC*%
G36*
X38900000Y35522393D02*
X38856813Y35528799D01*
X38762553Y35552410D01*
X38671061Y35585147D01*
X38583208Y35626697D01*
X38499859Y35676656D01*
X38421804Y35734545D01*
X38349803Y35799803D01*
X38284545Y35871804D01*
X38226656Y35949859D01*
X38176697Y36033208D01*
X38135147Y36121061D01*
X38102410Y36212553D01*
X38078799Y36306813D01*
X38072393Y36350000D01*
X38900000Y36350000D01*
X38900000Y35522393D01*
D02*
G37*
%LPC*%
G36*
X26950000Y32874643D02*
X26842644Y32879919D01*
X26736304Y32895692D01*
X26632032Y32921811D01*
X26530829Y32958022D01*
X26433655Y33003982D01*
X26341454Y33059245D01*
X26255113Y33123280D01*
X26175467Y33195467D01*
X26103280Y33275113D01*
X26039245Y33361454D01*
X25983982Y33453655D01*
X25938022Y33550829D01*
X25901811Y33652032D01*
X25875692Y33756304D01*
X25859919Y33862644D01*
X25854643Y33970000D01*
X25859919Y34077356D01*
X25875692Y34183696D01*
X25901811Y34287968D01*
X25938022Y34389171D01*
X25983982Y34486345D01*
X26039245Y34578546D01*
X26103280Y34664887D01*
X26175467Y34744533D01*
X26255113Y34816720D01*
X26341454Y34880755D01*
X26433655Y34936018D01*
X26530829Y34981978D01*
X26632032Y35018189D01*
X26736304Y35044308D01*
X26842644Y35060081D01*
X26950000Y35065357D01*
X27057356Y35060081D01*
X27163696Y35044308D01*
X27267968Y35018189D01*
X27369171Y34981978D01*
X27466345Y34936018D01*
X27558546Y34880755D01*
X27644887Y34816720D01*
X27724533Y34744533D01*
X27796720Y34664887D01*
X27860755Y34578546D01*
X27916018Y34486345D01*
X27961978Y34389171D01*
X27998189Y34287968D01*
X28024308Y34183696D01*
X28040081Y34077356D01*
X28045357Y33970000D01*
X28040081Y33862644D01*
X28024308Y33756304D01*
X27998189Y33652032D01*
X27961978Y33550829D01*
X27916018Y33453655D01*
X27860755Y33361454D01*
X27796720Y33275113D01*
X27724533Y33195467D01*
X27644887Y33123280D01*
X27558546Y33059245D01*
X27466345Y33003982D01*
X27369171Y32958022D01*
X27267968Y32921811D01*
X27163696Y32895692D01*
X27057356Y32879919D01*
X26950000Y32874643D01*
D02*
G37*
%LPC*%
G36*
X31750000Y32874643D02*
X31642644Y32879919D01*
X31536304Y32895692D01*
X31432032Y32921811D01*
X31330829Y32958022D01*
X31233655Y33003982D01*
X31141454Y33059245D01*
X31055113Y33123280D01*
X30975467Y33195467D01*
X30903280Y33275113D01*
X30839245Y33361454D01*
X30783982Y33453655D01*
X30738022Y33550829D01*
X30701811Y33652032D01*
X30675692Y33756304D01*
X30659919Y33862644D01*
X30654643Y33970000D01*
X30659919Y34077356D01*
X30675692Y34183696D01*
X30701811Y34287968D01*
X30738022Y34389171D01*
X30783982Y34486345D01*
X30839245Y34578546D01*
X30903280Y34664887D01*
X30975467Y34744533D01*
X31055113Y34816720D01*
X31141454Y34880755D01*
X31233655Y34936018D01*
X31330829Y34981978D01*
X31432032Y35018189D01*
X31536304Y35044308D01*
X31642644Y35060081D01*
X31750000Y35065357D01*
X31857356Y35060081D01*
X31963696Y35044308D01*
X32067968Y35018189D01*
X32169171Y34981978D01*
X32266345Y34936018D01*
X32358546Y34880755D01*
X32444887Y34816720D01*
X32524533Y34744533D01*
X32596720Y34664887D01*
X32660755Y34578546D01*
X32716018Y34486345D01*
X32761978Y34389171D01*
X32798189Y34287968D01*
X32824308Y34183696D01*
X32840081Y34077356D01*
X32845357Y33970000D01*
X32840081Y33862644D01*
X32824308Y33756304D01*
X32798189Y33652032D01*
X32761978Y33550829D01*
X32716018Y33453655D01*
X32660755Y33361454D01*
X32596720Y33275113D01*
X32524533Y33195467D01*
X32444887Y33123280D01*
X32358546Y33059245D01*
X32266345Y33003982D01*
X32169171Y32958022D01*
X32067968Y32921811D01*
X31963696Y32895692D01*
X31857356Y32879919D01*
X31750000Y32874643D01*
D02*
G37*
%LPC*%
G36*
X26800000Y31580000D02*
X25972393Y31580000D01*
X25978799Y31623187D01*
X26002410Y31717447D01*
X26035147Y31808939D01*
X26076697Y31896792D01*
X26126656Y31980141D01*
X26184545Y32058196D01*
X26249803Y32130197D01*
X26321804Y32195455D01*
X26399859Y32253344D01*
X26483208Y32303303D01*
X26571061Y32344853D01*
X26662553Y32377590D01*
X26756813Y32401201D01*
X26800000Y32407607D01*
X26800000Y31580000D01*
D02*
G37*
%LPC*%
G36*
X27927607Y31580000D02*
X27100000Y31580000D01*
X27100000Y32407607D01*
X27143187Y32401201D01*
X27237447Y32377590D01*
X27328939Y32344853D01*
X27416792Y32303303D01*
X27500141Y32253344D01*
X27578196Y32195455D01*
X27650197Y32130197D01*
X27715455Y32058196D01*
X27773344Y31980141D01*
X27823303Y31896792D01*
X27864853Y31808939D01*
X27897590Y31717447D01*
X27921201Y31623187D01*
X27927607Y31580000D01*
D02*
G37*
%LPC*%
G36*
X31600000Y31580000D02*
X30772393Y31580000D01*
X30778799Y31623187D01*
X30802410Y31717447D01*
X30835147Y31808939D01*
X30876697Y31896792D01*
X30926656Y31980141D01*
X30984545Y32058196D01*
X31049803Y32130197D01*
X31121804Y32195455D01*
X31199859Y32253344D01*
X31283208Y32303303D01*
X31371061Y32344853D01*
X31462553Y32377590D01*
X31556813Y32401201D01*
X31600000Y32407607D01*
X31600000Y31580000D01*
D02*
G37*
%LPC*%
G36*
X32727607Y31580000D02*
X31900000Y31580000D01*
X31900000Y32407607D01*
X31943187Y32401201D01*
X32037447Y32377590D01*
X32128939Y32344853D01*
X32216792Y32303303D01*
X32300141Y32253344D01*
X32378196Y32195455D01*
X32450197Y32130197D01*
X32515455Y32058196D01*
X32573344Y31980141D01*
X32623303Y31896792D01*
X32664853Y31808939D01*
X32697590Y31717447D01*
X32721201Y31623187D01*
X32727607Y31580000D01*
D02*
G37*
%LPC*%
G36*
X31900000Y30452393D02*
X31900000Y31280000D01*
X32727607Y31280000D01*
X32721201Y31236813D01*
X32697590Y31142553D01*
X32664853Y31051061D01*
X32623303Y30963208D01*
X32573344Y30879859D01*
X32515455Y30801804D01*
X32450197Y30729803D01*
X32378196Y30664545D01*
X32300141Y30606656D01*
X32216792Y30556697D01*
X32128939Y30515147D01*
X32037447Y30482410D01*
X31943187Y30458799D01*
X31900000Y30452393D01*
D02*
G37*
%LPC*%
G36*
X26800000Y30452393D02*
X26756813Y30458799D01*
X26662553Y30482410D01*
X26571061Y30515147D01*
X26483208Y30556697D01*
X26399859Y30606656D01*
X26321804Y30664545D01*
X26249803Y30729803D01*
X26184545Y30801804D01*
X26126656Y30879859D01*
X26076697Y30963208D01*
X26035147Y31051061D01*
X26002410Y31142553D01*
X25978799Y31236813D01*
X25972393Y31280000D01*
X26800000Y31280000D01*
X26800000Y30452393D01*
D02*
G37*
%LPC*%
G36*
X27100000Y30452393D02*
X27100000Y31280000D01*
X27927607Y31280000D01*
X27921201Y31236813D01*
X27897590Y31142553D01*
X27864853Y31051061D01*
X27823303Y30963208D01*
X27773344Y30879859D01*
X27715455Y30801804D01*
X27650197Y30729803D01*
X27578196Y30664545D01*
X27500141Y30606656D01*
X27416792Y30556697D01*
X27328939Y30515147D01*
X27237447Y30482410D01*
X27143187Y30458799D01*
X27100000Y30452393D01*
D02*
G37*
%LPC*%
G36*
X31600000Y30452393D02*
X31556813Y30458799D01*
X31462553Y30482410D01*
X31371061Y30515147D01*
X31283208Y30556697D01*
X31199859Y30606656D01*
X31121804Y30664545D01*
X31049803Y30729803D01*
X30984545Y30801804D01*
X30926656Y30879859D01*
X30876697Y30963208D01*
X30835147Y31051061D01*
X30802410Y31142553D01*
X30778799Y31236813D01*
X30772393Y31280000D01*
X31600000Y31280000D01*
X31600000Y30452393D01*
D02*
G37*
%LPC*%
G36*
X25000000Y15094753D02*
X24911268Y15099113D01*
X24823388Y15112149D01*
X24737224Y15133731D01*
X24653579Y15163661D01*
X24573263Y15201648D01*
X24497079Y15247310D01*
X24425715Y15300237D01*
X24359894Y15359894D01*
X24300237Y15425715D01*
X24247310Y15497079D01*
X24201648Y15573263D01*
X24163661Y15653579D01*
X24133731Y15737224D01*
X24112149Y15823388D01*
X24099113Y15911268D01*
X24094753Y16000000D01*
X24099113Y16088732D01*
X24112149Y16176612D01*
X24133731Y16262776D01*
X24163661Y16346421D01*
X24201648Y16426737D01*
X24247310Y16502921D01*
X24300237Y16574285D01*
X24359894Y16640106D01*
X24425715Y16699763D01*
X24497079Y16752690D01*
X24573263Y16798352D01*
X24653579Y16836339D01*
X24737224Y16866269D01*
X24823388Y16887851D01*
X24911268Y16900887D01*
X25000000Y16905247D01*
X25088732Y16900887D01*
X25176612Y16887851D01*
X25262776Y16866269D01*
X25346421Y16836339D01*
X25426737Y16798352D01*
X25502921Y16752690D01*
X25574285Y16699763D01*
X25640106Y16640106D01*
X25699763Y16574285D01*
X25752690Y16502921D01*
X25798352Y16426737D01*
X25836339Y16346421D01*
X25866269Y16262776D01*
X25887851Y16176612D01*
X25900887Y16088732D01*
X25905247Y16000000D01*
X25900887Y15911268D01*
X25887851Y15823388D01*
X25866269Y15737224D01*
X25836339Y15653579D01*
X25798352Y15573263D01*
X25752690Y15497079D01*
X25699763Y15425715D01*
X25640106Y15359894D01*
X25574285Y15300237D01*
X25502921Y15247310D01*
X25426737Y15201648D01*
X25346421Y15163661D01*
X25262776Y15133731D01*
X25176612Y15112149D01*
X25088732Y15099113D01*
X25000000Y15094753D01*
D02*
G37*
%LPC*%
G36*
X38050000Y15024753D02*
X37961268Y15029113D01*
X37873388Y15042149D01*
X37787224Y15063731D01*
X37703579Y15093661D01*
X37623263Y15131648D01*
X37547079Y15177310D01*
X37475715Y15230237D01*
X37409894Y15289894D01*
X37350237Y15355715D01*
X37297310Y15427079D01*
X37251648Y15503263D01*
X37213661Y15583579D01*
X37183731Y15667224D01*
X37162149Y15753388D01*
X37149113Y15841268D01*
X37144753Y15930000D01*
X37149113Y16018732D01*
X37162149Y16106612D01*
X37183731Y16192776D01*
X37213661Y16276421D01*
X37251648Y16356737D01*
X37297310Y16432921D01*
X37350237Y16504285D01*
X37409894Y16570106D01*
X37475715Y16629763D01*
X37547079Y16682690D01*
X37623263Y16728352D01*
X37703579Y16766339D01*
X37787224Y16796269D01*
X37873388Y16817851D01*
X37961268Y16830887D01*
X38050000Y16835247D01*
X38138732Y16830887D01*
X38226612Y16817851D01*
X38312776Y16796269D01*
X38396421Y16766339D01*
X38476737Y16728352D01*
X38552921Y16682690D01*
X38624285Y16629763D01*
X38690106Y16570106D01*
X38749763Y16504285D01*
X38802690Y16432921D01*
X38848352Y16356737D01*
X38886339Y16276421D01*
X38916269Y16192776D01*
X38937851Y16106612D01*
X38950887Y16018732D01*
X38955247Y15930000D01*
X38950887Y15841268D01*
X38937851Y15753388D01*
X38916269Y15667224D01*
X38886339Y15583579D01*
X38848352Y15503263D01*
X38802690Y15427079D01*
X38749763Y15355715D01*
X38690106Y15289894D01*
X38624285Y15230237D01*
X38552921Y15177310D01*
X38476737Y15131648D01*
X38396421Y15093661D01*
X38312776Y15063731D01*
X38226612Y15042149D01*
X38138732Y15029113D01*
X38050000Y15024753D01*
D02*
G37*
%LPC*%
G36*
X25249000Y2094645D02*
X25136736Y2100160D01*
X25025547Y2116654D01*
X24916519Y2143964D01*
X24810695Y2181828D01*
X24709090Y2229883D01*
X24612672Y2287674D01*
X24522391Y2354631D01*
X24439112Y2430112D01*
X24363631Y2513391D01*
X24296674Y2603672D01*
X24238883Y2700090D01*
X24190828Y2801695D01*
X24152964Y2907519D01*
X24125654Y3016547D01*
X24109160Y3127736D01*
X24103645Y3240000D01*
X24109160Y3352264D01*
X24125654Y3463453D01*
X24152964Y3572481D01*
X24190828Y3678305D01*
X24238883Y3779910D01*
X24296674Y3876328D01*
X24417410Y4039124D01*
X20811533Y7645000D01*
X11876714Y7645000D01*
X11850429Y7467811D01*
X11823119Y7358782D01*
X11785255Y7252958D01*
X11737200Y7151353D01*
X11679409Y7054935D01*
X11612452Y6964654D01*
X11536971Y6881375D01*
X11453692Y6805894D01*
X11363411Y6738937D01*
X11266993Y6681146D01*
X11165388Y6633091D01*
X11059564Y6595227D01*
X10950536Y6567917D01*
X10839347Y6551423D01*
X10727083Y6545908D01*
X10614819Y6551423D01*
X10503630Y6567917D01*
X10394602Y6595227D01*
X10288778Y6633091D01*
X10187173Y6681146D01*
X10090755Y6738937D01*
X10000474Y6805894D01*
X9917195Y6881375D01*
X9841714Y6964654D01*
X9774757Y7054935D01*
X9716966Y7151353D01*
X9668911Y7252958D01*
X9631047Y7358782D01*
X9603737Y7467810D01*
X9587243Y7578999D01*
X9581728Y7691263D01*
X9587243Y7803527D01*
X9603737Y7914716D01*
X9631047Y8023744D01*
X9668911Y8129568D01*
X9716966Y8231173D01*
X9774757Y8327591D01*
X9841714Y8417872D01*
X9917195Y8501151D01*
X10000474Y8576632D01*
X10090755Y8643589D01*
X10187173Y8701380D01*
X10288778Y8749435D01*
X10394602Y8787299D01*
X10503630Y8814609D01*
X10614819Y8831103D01*
X10727083Y8836618D01*
X10839347Y8831103D01*
X10950536Y8814609D01*
X11059564Y8787299D01*
X11165388Y8749435D01*
X11266993Y8701380D01*
X11363411Y8643589D01*
X11482859Y8555000D01*
X21010075Y8555000D01*
X21088958Y8547230D01*
X21174502Y8521279D01*
X21253333Y8479144D01*
X21314611Y8428854D01*
X25364037Y4379429D01*
X25472452Y4363346D01*
X25581481Y4336036D01*
X25687305Y4298172D01*
X25788910Y4250117D01*
X25885328Y4192326D01*
X25975609Y4125369D01*
X26058888Y4049888D01*
X26134369Y3966609D01*
X26201326Y3876328D01*
X26259117Y3779910D01*
X26307172Y3678305D01*
X26345036Y3572481D01*
X26372346Y3463453D01*
X26388840Y3352264D01*
X26394355Y3240000D01*
X26388840Y3127736D01*
X26372346Y3016547D01*
X26345036Y2907519D01*
X26307172Y2801695D01*
X26259117Y2700090D01*
X26201326Y2603672D01*
X26134369Y2513391D01*
X26058888Y2430112D01*
X25975609Y2354631D01*
X25885328Y2287674D01*
X25788910Y2229883D01*
X25687305Y2181828D01*
X25581481Y2143964D01*
X25472453Y2116654D01*
X25361264Y2100160D01*
X25249000Y2094645D01*
D02*
G37*
%LPC*%
G36*
X37749000Y2094645D02*
X37636736Y2100160D01*
X37525547Y2116654D01*
X37416519Y2143964D01*
X37310695Y2181828D01*
X37209090Y2229883D01*
X37112672Y2287674D01*
X37022391Y2354631D01*
X36939112Y2430112D01*
X36863631Y2513391D01*
X36796674Y2603672D01*
X36738883Y2700090D01*
X36690828Y2801695D01*
X36652964Y2907519D01*
X36625654Y3016547D01*
X36609160Y3127736D01*
X36603645Y3240000D01*
X36609160Y3352264D01*
X36625654Y3463453D01*
X36652964Y3572481D01*
X36690828Y3678305D01*
X36738883Y3779910D01*
X36796674Y3876328D01*
X36863631Y3966609D01*
X36939112Y4049888D01*
X37022391Y4125369D01*
X37112672Y4192326D01*
X37209090Y4250117D01*
X37310695Y4298172D01*
X37416519Y4336036D01*
X37525547Y4363346D01*
X37636736Y4379840D01*
X37749000Y4385355D01*
X37861264Y4379840D01*
X37972445Y4363347D01*
X38028075Y4349409D01*
X39287758Y5609093D01*
X39294232Y5616862D01*
X39339998Y5654421D01*
X39392900Y5682698D01*
X39450300Y5700112D01*
X39499923Y5705000D01*
X52873665Y5705000D01*
X53985600Y6816935D01*
X53851714Y6964654D01*
X53784757Y7054935D01*
X53726966Y7151353D01*
X53678911Y7252958D01*
X53641047Y7358782D01*
X53613737Y7467810D01*
X53597243Y7578999D01*
X53591728Y7691263D01*
X53597243Y7803527D01*
X53613737Y7914716D01*
X53641047Y8023744D01*
X53678911Y8129568D01*
X53726966Y8231173D01*
X53784757Y8327591D01*
X53851714Y8417872D01*
X53927195Y8501151D01*
X54010474Y8576632D01*
X54100755Y8643589D01*
X54197173Y8701380D01*
X54298778Y8749435D01*
X54404602Y8787299D01*
X54513630Y8814609D01*
X54624819Y8831103D01*
X54737083Y8836618D01*
X54849347Y8831103D01*
X54960536Y8814609D01*
X55069564Y8787299D01*
X55175388Y8749435D01*
X55276993Y8701380D01*
X55373411Y8643589D01*
X55463692Y8576632D01*
X55546971Y8501151D01*
X55622452Y8417872D01*
X55689409Y8327591D01*
X55747200Y8231173D01*
X55795255Y8129568D01*
X55833119Y8023744D01*
X55860429Y7914716D01*
X55876923Y7803527D01*
X55882438Y7691263D01*
X55876923Y7578999D01*
X55860429Y7467810D01*
X55833119Y7358782D01*
X55795255Y7252958D01*
X55747200Y7151353D01*
X55689409Y7054935D01*
X55622452Y6964654D01*
X55546971Y6881375D01*
X55463692Y6805894D01*
X55373411Y6738937D01*
X55276993Y6681146D01*
X55175388Y6633091D01*
X55069564Y6595227D01*
X54960536Y6567917D01*
X54849347Y6551423D01*
X54737083Y6545908D01*
X54584726Y6553391D01*
X53222241Y5190906D01*
X53215767Y5183137D01*
X53170001Y5145578D01*
X53117098Y5117301D01*
X53059699Y5099887D01*
X53010066Y5095000D01*
X39636335Y5095000D01*
X38580533Y4039198D01*
X38701326Y3876328D01*
X38759117Y3779910D01*
X38807172Y3678305D01*
X38845036Y3572481D01*
X38872346Y3463453D01*
X38888840Y3352264D01*
X38894355Y3240000D01*
X38888840Y3127736D01*
X38872346Y3016547D01*
X38845036Y2907519D01*
X38807172Y2801695D01*
X38759117Y2700090D01*
X38701326Y2603672D01*
X38634369Y2513391D01*
X38558888Y2430112D01*
X38475609Y2354631D01*
X38385328Y2287674D01*
X38288910Y2229883D01*
X38187305Y2181828D01*
X38081481Y2143964D01*
X37972453Y2116654D01*
X37861264Y2100160D01*
X37749000Y2094645D01*
D02*
G37*
%LPC*%
G36*
X53265177Y7841263D02*
X52387083Y7841263D01*
X52387083Y8719357D01*
X52440025Y8711503D01*
X52539049Y8686698D01*
X52635162Y8652308D01*
X52727433Y8608668D01*
X52815006Y8556179D01*
X52897000Y8495368D01*
X52972635Y8426815D01*
X53041188Y8351180D01*
X53101999Y8269186D01*
X53154488Y8181613D01*
X53198128Y8089342D01*
X53232518Y7993229D01*
X53257323Y7894205D01*
X53265177Y7841263D01*
D02*
G37*
%LPC*%
G36*
X52087083Y7841263D02*
X51208989Y7841263D01*
X51216843Y7894205D01*
X51241648Y7993229D01*
X51276038Y8089342D01*
X51319678Y8181613D01*
X51372167Y8269186D01*
X51432978Y8351180D01*
X51501531Y8426815D01*
X51577166Y8495368D01*
X51659160Y8556179D01*
X51746733Y8608668D01*
X51839004Y8652308D01*
X51935117Y8686698D01*
X52034141Y8711503D01*
X52087083Y8719357D01*
X52087083Y7841263D01*
D02*
G37*
%LPC*%
G36*
X9255177Y7841263D02*
X8377083Y7841263D01*
X8377083Y8719357D01*
X8430025Y8711503D01*
X8529049Y8686698D01*
X8625162Y8652308D01*
X8717433Y8608668D01*
X8805006Y8556179D01*
X8887000Y8495368D01*
X8962635Y8426815D01*
X9031188Y8351180D01*
X9091999Y8269186D01*
X9144488Y8181613D01*
X9188128Y8089342D01*
X9222518Y7993229D01*
X9247323Y7894205D01*
X9255177Y7841263D01*
D02*
G37*
%LPC*%
G36*
X8077083Y7841263D02*
X7198989Y7841263D01*
X7206843Y7894205D01*
X7231648Y7993229D01*
X7266038Y8089342D01*
X7309678Y8181613D01*
X7362167Y8269186D01*
X7422978Y8351180D01*
X7491531Y8426815D01*
X7567166Y8495368D01*
X7649160Y8556179D01*
X7736733Y8608668D01*
X7829004Y8652308D01*
X7925117Y8686698D01*
X8024141Y8711503D01*
X8077083Y8719357D01*
X8077083Y7841263D01*
D02*
G37*
%LPC*%
G36*
X52387083Y6663169D02*
X52387083Y7541263D01*
X53265177Y7541263D01*
X53257323Y7488321D01*
X53232518Y7389297D01*
X53198128Y7293184D01*
X53154488Y7200913D01*
X53101999Y7113340D01*
X53041188Y7031346D01*
X52972635Y6955711D01*
X52897000Y6887158D01*
X52815006Y6826347D01*
X52727433Y6773858D01*
X52635162Y6730218D01*
X52539049Y6695828D01*
X52440025Y6671023D01*
X52387083Y6663169D01*
D02*
G37*
%LPC*%
G36*
X52087083Y6663169D02*
X52034141Y6671023D01*
X51935117Y6695828D01*
X51839004Y6730218D01*
X51746733Y6773858D01*
X51659160Y6826347D01*
X51577166Y6887158D01*
X51501531Y6955711D01*
X51432978Y7031346D01*
X51372167Y7113340D01*
X51319678Y7200913D01*
X51276038Y7293184D01*
X51241648Y7389297D01*
X51216843Y7488321D01*
X51208989Y7541263D01*
X52087083Y7541263D01*
X52087083Y6663169D01*
D02*
G37*
%LPC*%
G36*
X8377083Y6663169D02*
X8377083Y7541263D01*
X9255177Y7541263D01*
X9247323Y7488321D01*
X9222518Y7389297D01*
X9188128Y7293184D01*
X9144488Y7200913D01*
X9091999Y7113340D01*
X9031188Y7031346D01*
X8962635Y6955711D01*
X8887000Y6887158D01*
X8805006Y6826347D01*
X8717433Y6773858D01*
X8625162Y6730218D01*
X8529049Y6695828D01*
X8430025Y6671023D01*
X8377083Y6663169D01*
D02*
G37*
%LPC*%
G36*
X8077083Y6663169D02*
X8024141Y6671023D01*
X7925117Y6695828D01*
X7829004Y6730218D01*
X7736733Y6773858D01*
X7649160Y6826347D01*
X7567166Y6887158D01*
X7491531Y6955711D01*
X7422978Y7031346D01*
X7362167Y7113340D01*
X7309678Y7200913D01*
X7266038Y7293184D01*
X7231648Y7389297D01*
X7206843Y7488321D01*
X7198989Y7541263D01*
X8077083Y7541263D01*
X8077083Y6663169D01*
D02*
G37*
%LPC*%
G36*
X20249000Y2094645D02*
X20136736Y2100160D01*
X20025547Y2116654D01*
X19916519Y2143964D01*
X19810695Y2181828D01*
X19709090Y2229883D01*
X19612672Y2287674D01*
X19522391Y2354631D01*
X19439112Y2430112D01*
X19363631Y2513391D01*
X19296674Y2603672D01*
X19238883Y2700090D01*
X19190828Y2801695D01*
X19152964Y2907519D01*
X19125654Y3016547D01*
X19109160Y3127736D01*
X19103645Y3240000D01*
X19109160Y3352264D01*
X19125654Y3463453D01*
X19152964Y3572481D01*
X19190828Y3678305D01*
X19238883Y3779910D01*
X19296674Y3876328D01*
X19363631Y3966609D01*
X19439112Y4049888D01*
X19522391Y4125369D01*
X19612672Y4192326D01*
X19709090Y4250117D01*
X19810695Y4298172D01*
X19916519Y4336036D01*
X20025547Y4363346D01*
X20136736Y4379840D01*
X20249000Y4385355D01*
X20361264Y4379840D01*
X20472453Y4363346D01*
X20581481Y4336036D01*
X20687305Y4298172D01*
X20788910Y4250117D01*
X20885328Y4192326D01*
X20975609Y4125369D01*
X21058888Y4049888D01*
X21134369Y3966609D01*
X21201326Y3876328D01*
X21259117Y3779910D01*
X21307172Y3678305D01*
X21345036Y3572481D01*
X21372346Y3463453D01*
X21388840Y3352264D01*
X21394355Y3240000D01*
X21388840Y3127736D01*
X21372346Y3016547D01*
X21345036Y2907519D01*
X21307172Y2801695D01*
X21259117Y2700090D01*
X21201326Y2603672D01*
X21134369Y2513391D01*
X21058888Y2430112D01*
X20975609Y2354631D01*
X20885328Y2287674D01*
X20788910Y2229883D01*
X20687305Y2181828D01*
X20581481Y2143964D01*
X20472453Y2116654D01*
X20361264Y2100160D01*
X20249000Y2094645D01*
D02*
G37*
%LPC*%
G36*
X27749000Y2094645D02*
X27636736Y2100160D01*
X27525547Y2116654D01*
X27416519Y2143964D01*
X27310695Y2181828D01*
X27209090Y2229883D01*
X27112672Y2287674D01*
X27022391Y2354631D01*
X26939112Y2430112D01*
X26863631Y2513391D01*
X26796674Y2603672D01*
X26738883Y2700090D01*
X26690828Y2801695D01*
X26652964Y2907519D01*
X26625654Y3016547D01*
X26609160Y3127736D01*
X26603645Y3240000D01*
X26609160Y3352264D01*
X26625654Y3463453D01*
X26652964Y3572481D01*
X26690828Y3678305D01*
X26738883Y3779910D01*
X26796674Y3876328D01*
X26863631Y3966609D01*
X26939112Y4049888D01*
X27022391Y4125369D01*
X27112672Y4192326D01*
X27209090Y4250117D01*
X27310695Y4298172D01*
X27416519Y4336036D01*
X27525547Y4363346D01*
X27636736Y4379840D01*
X27749000Y4385355D01*
X27861264Y4379840D01*
X27972453Y4363346D01*
X28081481Y4336036D01*
X28187305Y4298172D01*
X28288910Y4250117D01*
X28385328Y4192326D01*
X28475609Y4125369D01*
X28558888Y4049888D01*
X28634369Y3966609D01*
X28701326Y3876328D01*
X28759117Y3779910D01*
X28807172Y3678305D01*
X28845036Y3572481D01*
X28872346Y3463453D01*
X28888840Y3352264D01*
X28894355Y3240000D01*
X28888840Y3127736D01*
X28872346Y3016547D01*
X28845036Y2907519D01*
X28807172Y2801695D01*
X28759117Y2700090D01*
X28701326Y2603672D01*
X28634369Y2513391D01*
X28558888Y2430112D01*
X28475609Y2354631D01*
X28385328Y2287674D01*
X28288910Y2229883D01*
X28187305Y2181828D01*
X28081481Y2143964D01*
X27972453Y2116654D01*
X27861264Y2100160D01*
X27749000Y2094645D01*
D02*
G37*
%LPC*%
G36*
X30249000Y2094645D02*
X30136736Y2100160D01*
X30025547Y2116654D01*
X29916519Y2143964D01*
X29810695Y2181828D01*
X29709090Y2229883D01*
X29612672Y2287674D01*
X29522391Y2354631D01*
X29439112Y2430112D01*
X29363631Y2513391D01*
X29296674Y2603672D01*
X29238883Y2700090D01*
X29190828Y2801695D01*
X29152964Y2907519D01*
X29125654Y3016547D01*
X29109160Y3127736D01*
X29103645Y3240000D01*
X29109160Y3352264D01*
X29125654Y3463453D01*
X29152964Y3572481D01*
X29190828Y3678305D01*
X29238883Y3779910D01*
X29296674Y3876328D01*
X29363631Y3966609D01*
X29439112Y4049888D01*
X29522391Y4125369D01*
X29612672Y4192326D01*
X29709090Y4250117D01*
X29810695Y4298172D01*
X29916519Y4336036D01*
X30025547Y4363346D01*
X30136736Y4379840D01*
X30249000Y4385355D01*
X30361264Y4379840D01*
X30472453Y4363346D01*
X30581481Y4336036D01*
X30687305Y4298172D01*
X30788910Y4250117D01*
X30885328Y4192326D01*
X30975609Y4125369D01*
X31058888Y4049888D01*
X31134369Y3966609D01*
X31201326Y3876328D01*
X31259117Y3779910D01*
X31307172Y3678305D01*
X31345036Y3572481D01*
X31372346Y3463453D01*
X31388840Y3352264D01*
X31394355Y3240000D01*
X31388840Y3127736D01*
X31372346Y3016547D01*
X31345036Y2907519D01*
X31307172Y2801695D01*
X31259117Y2700090D01*
X31201326Y2603672D01*
X31134369Y2513391D01*
X31058888Y2430112D01*
X30975609Y2354631D01*
X30885328Y2287674D01*
X30788910Y2229883D01*
X30687305Y2181828D01*
X30581481Y2143964D01*
X30472453Y2116654D01*
X30361264Y2100160D01*
X30249000Y2094645D01*
D02*
G37*
%LPC*%
G36*
X32749000Y2094645D02*
X32636736Y2100160D01*
X32525547Y2116654D01*
X32416519Y2143964D01*
X32310695Y2181828D01*
X32209090Y2229883D01*
X32112672Y2287674D01*
X32022391Y2354631D01*
X31939112Y2430112D01*
X31863631Y2513391D01*
X31796674Y2603672D01*
X31738883Y2700090D01*
X31690828Y2801695D01*
X31652964Y2907519D01*
X31625654Y3016547D01*
X31609160Y3127736D01*
X31603645Y3240000D01*
X31609160Y3352264D01*
X31625654Y3463453D01*
X31652964Y3572481D01*
X31690828Y3678305D01*
X31738883Y3779910D01*
X31796674Y3876328D01*
X31863631Y3966609D01*
X31939112Y4049888D01*
X32022391Y4125369D01*
X32112672Y4192326D01*
X32209090Y4250117D01*
X32310695Y4298172D01*
X32416519Y4336036D01*
X32525547Y4363346D01*
X32636736Y4379840D01*
X32749000Y4385355D01*
X32861264Y4379840D01*
X32972453Y4363346D01*
X33081481Y4336036D01*
X33187305Y4298172D01*
X33288910Y4250117D01*
X33385328Y4192326D01*
X33475609Y4125369D01*
X33558888Y4049888D01*
X33634369Y3966609D01*
X33701326Y3876328D01*
X33759117Y3779910D01*
X33807172Y3678305D01*
X33845036Y3572481D01*
X33872346Y3463453D01*
X33888840Y3352264D01*
X33894355Y3240000D01*
X33888840Y3127736D01*
X33872346Y3016547D01*
X33845036Y2907519D01*
X33807172Y2801695D01*
X33759117Y2700090D01*
X33701326Y2603672D01*
X33634369Y2513391D01*
X33558888Y2430112D01*
X33475609Y2354631D01*
X33385328Y2287674D01*
X33288910Y2229883D01*
X33187305Y2181828D01*
X33081481Y2143964D01*
X32972453Y2116654D01*
X32861264Y2100160D01*
X32749000Y2094645D01*
D02*
G37*
%LPC*%
G36*
X42749000Y2094645D02*
X42636736Y2100160D01*
X42525547Y2116654D01*
X42416519Y2143964D01*
X42310695Y2181828D01*
X42209090Y2229883D01*
X42112672Y2287674D01*
X42022391Y2354631D01*
X41939112Y2430112D01*
X41863631Y2513391D01*
X41796674Y2603672D01*
X41738883Y2700090D01*
X41690828Y2801695D01*
X41652964Y2907519D01*
X41625654Y3016547D01*
X41609160Y3127736D01*
X41603645Y3240000D01*
X41609160Y3352264D01*
X41625654Y3463453D01*
X41652964Y3572481D01*
X41690828Y3678305D01*
X41738883Y3779910D01*
X41796674Y3876328D01*
X41863631Y3966609D01*
X41939112Y4049888D01*
X42022391Y4125369D01*
X42112672Y4192326D01*
X42209090Y4250117D01*
X42310695Y4298172D01*
X42416519Y4336036D01*
X42525547Y4363346D01*
X42636736Y4379840D01*
X42749000Y4385355D01*
X42861264Y4379840D01*
X42972453Y4363346D01*
X43081481Y4336036D01*
X43187305Y4298172D01*
X43288910Y4250117D01*
X43385328Y4192326D01*
X43475609Y4125369D01*
X43558888Y4049888D01*
X43634369Y3966609D01*
X43701326Y3876328D01*
X43759117Y3779910D01*
X43807172Y3678305D01*
X43845036Y3572481D01*
X43872346Y3463453D01*
X43888840Y3352264D01*
X43894355Y3240000D01*
X43888840Y3127736D01*
X43872346Y3016547D01*
X43845036Y2907519D01*
X43807172Y2801695D01*
X43759117Y2700090D01*
X43701326Y2603672D01*
X43634369Y2513391D01*
X43558888Y2430112D01*
X43475609Y2354631D01*
X43385328Y2287674D01*
X43288910Y2229883D01*
X43187305Y2181828D01*
X43081481Y2143964D01*
X42972453Y2116654D01*
X42861264Y2100160D01*
X42749000Y2094645D01*
D02*
G37*
%LPC*%
G36*
X22599000Y3390000D02*
X21720906Y3390000D01*
X21728760Y3442942D01*
X21753565Y3541966D01*
X21787955Y3638079D01*
X21831595Y3730350D01*
X21884084Y3817923D01*
X21944895Y3899917D01*
X22013448Y3975552D01*
X22089083Y4044105D01*
X22171077Y4104916D01*
X22258650Y4157405D01*
X22350921Y4201045D01*
X22447034Y4235435D01*
X22546058Y4260240D01*
X22599000Y4268094D01*
X22599000Y3390000D01*
D02*
G37*
%LPC*%
G36*
X41277094Y3390000D02*
X40399000Y3390000D01*
X40399000Y4268094D01*
X40451942Y4260240D01*
X40550966Y4235435D01*
X40647079Y4201045D01*
X40739350Y4157405D01*
X40826923Y4104916D01*
X40908917Y4044105D01*
X40984552Y3975552D01*
X41053105Y3899917D01*
X41113916Y3817923D01*
X41166405Y3730350D01*
X41210045Y3638079D01*
X41244435Y3541966D01*
X41269240Y3442942D01*
X41277094Y3390000D01*
D02*
G37*
%LPC*%
G36*
X40099000Y3390000D02*
X39220906Y3390000D01*
X39228760Y3442942D01*
X39253565Y3541966D01*
X39287955Y3638079D01*
X39331595Y3730350D01*
X39384084Y3817923D01*
X39444895Y3899917D01*
X39513448Y3975552D01*
X39589083Y4044105D01*
X39671077Y4104916D01*
X39758650Y4157405D01*
X39850921Y4201045D01*
X39947034Y4235435D01*
X40046058Y4260240D01*
X40099000Y4268094D01*
X40099000Y3390000D01*
D02*
G37*
%LPC*%
G36*
X36277094Y3390000D02*
X35399000Y3390000D01*
X35399000Y4268094D01*
X35451942Y4260240D01*
X35550966Y4235435D01*
X35647079Y4201045D01*
X35739350Y4157405D01*
X35826923Y4104916D01*
X35908917Y4044105D01*
X35984552Y3975552D01*
X36053105Y3899917D01*
X36113916Y3817923D01*
X36166405Y3730350D01*
X36210045Y3638079D01*
X36244435Y3541966D01*
X36269240Y3442942D01*
X36277094Y3390000D01*
D02*
G37*
%LPC*%
G36*
X35099000Y3390000D02*
X34220906Y3390000D01*
X34228760Y3442942D01*
X34253565Y3541966D01*
X34287955Y3638079D01*
X34331595Y3730350D01*
X34384084Y3817923D01*
X34444895Y3899917D01*
X34513448Y3975552D01*
X34589083Y4044105D01*
X34671077Y4104916D01*
X34758650Y4157405D01*
X34850921Y4201045D01*
X34947034Y4235435D01*
X35046058Y4260240D01*
X35099000Y4268094D01*
X35099000Y3390000D01*
D02*
G37*
%LPC*%
G36*
X23777094Y3390000D02*
X22899000Y3390000D01*
X22899000Y4268094D01*
X22951942Y4260240D01*
X23050966Y4235435D01*
X23147079Y4201045D01*
X23239350Y4157405D01*
X23326923Y4104916D01*
X23408917Y4044105D01*
X23484552Y3975552D01*
X23553105Y3899917D01*
X23613916Y3817923D01*
X23666405Y3730350D01*
X23710045Y3638079D01*
X23744435Y3541966D01*
X23769240Y3442942D01*
X23777094Y3390000D01*
D02*
G37*
%LPC*%
G36*
X40399000Y2211906D02*
X40399000Y3090000D01*
X41277094Y3090000D01*
X41269240Y3037058D01*
X41244435Y2938034D01*
X41210045Y2841921D01*
X41166405Y2749650D01*
X41113916Y2662077D01*
X41053105Y2580083D01*
X40984552Y2504448D01*
X40908917Y2435895D01*
X40826923Y2375084D01*
X40739350Y2322595D01*
X40647079Y2278955D01*
X40550966Y2244565D01*
X40451942Y2219760D01*
X40399000Y2211906D01*
D02*
G37*
%LPC*%
G36*
X40099000Y2211906D02*
X40046058Y2219760D01*
X39947034Y2244565D01*
X39850921Y2278955D01*
X39758650Y2322595D01*
X39671077Y2375084D01*
X39589083Y2435895D01*
X39513448Y2504448D01*
X39444895Y2580083D01*
X39384084Y2662077D01*
X39331595Y2749650D01*
X39287955Y2841921D01*
X39253565Y2938034D01*
X39228760Y3037058D01*
X39220906Y3090000D01*
X40099000Y3090000D01*
X40099000Y2211906D01*
D02*
G37*
%LPC*%
G36*
X35399000Y2211906D02*
X35399000Y3090000D01*
X36277094Y3090000D01*
X36269240Y3037058D01*
X36244435Y2938034D01*
X36210045Y2841921D01*
X36166405Y2749650D01*
X36113916Y2662077D01*
X36053105Y2580083D01*
X35984552Y2504448D01*
X35908917Y2435895D01*
X35826923Y2375084D01*
X35739350Y2322595D01*
X35647079Y2278955D01*
X35550966Y2244565D01*
X35451942Y2219760D01*
X35399000Y2211906D01*
D02*
G37*
%LPC*%
G36*
X35099000Y2211906D02*
X35046058Y2219760D01*
X34947034Y2244565D01*
X34850921Y2278955D01*
X34758650Y2322595D01*
X34671077Y2375084D01*
X34589083Y2435895D01*
X34513448Y2504448D01*
X34444895Y2580083D01*
X34384084Y2662077D01*
X34331595Y2749650D01*
X34287955Y2841921D01*
X34253565Y2938034D01*
X34228760Y3037058D01*
X34220906Y3090000D01*
X35099000Y3090000D01*
X35099000Y2211906D01*
D02*
G37*
%LPC*%
G36*
X22899000Y2211906D02*
X22899000Y3090000D01*
X23777094Y3090000D01*
X23769240Y3037058D01*
X23744435Y2938034D01*
X23710045Y2841921D01*
X23666405Y2749650D01*
X23613916Y2662077D01*
X23553105Y2580083D01*
X23484552Y2504448D01*
X23408917Y2435895D01*
X23326923Y2375084D01*
X23239350Y2322595D01*
X23147079Y2278955D01*
X23050966Y2244565D01*
X22951942Y2219760D01*
X22899000Y2211906D01*
D02*
G37*
%LPC*%
G36*
X22599000Y2211906D02*
X22546058Y2219760D01*
X22447034Y2244565D01*
X22350921Y2278955D01*
X22258650Y2322595D01*
X22171077Y2375084D01*
X22089083Y2435895D01*
X22013448Y2504448D01*
X21944895Y2580083D01*
X21884084Y2662077D01*
X21831595Y2749650D01*
X21787955Y2841921D01*
X21753565Y2938034D01*
X21728760Y3037058D01*
X21720906Y3090000D01*
X22599000Y3090000D01*
X22599000Y2211906D01*
D02*
G37*
%LPD*%
G01*
%LPD*%
D10*
X25249000Y3851000D02*
X25249000Y3240000D01*
D11*
X37749000Y3639000D02*
X37749000Y3240000D01*
D10*
X21000000Y8100000D02*
X25249000Y3851000D01*
D12*
X14410000Y57590000D02*
X9500000Y62500000D01*
D12*
X16010000Y60990000D02*
X14500000Y62500000D01*
D10*
X11135820Y8100000D02*
X21000000Y8100000D01*
D12*
X14410000Y55930000D02*
X14410000Y57590000D01*
D11*
X39510000Y5400000D02*
X37749000Y3639000D01*
D11*
X53000000Y5400000D02*
X39510000Y5400000D01*
D11*
X54737083Y7137083D02*
X53000000Y5400000D01*
D10*
X10727083Y7691263D02*
X11135820Y8100000D01*
D12*
X16010000Y54660000D02*
X16010000Y60990000D01*
D11*
X54737083Y7691263D02*
X54737083Y7137083D01*
G75*
D13*
X4500000Y62500000D03*
D13*
X14500000Y62500000D03*
D13*
X9500000Y62500000D03*
D14*
X20249000Y3240000D03*
D14*
X37749000Y3240000D03*
D14*
X35249000Y3240000D03*
D14*
X32749000Y3240000D03*
D14*
X27749000Y3240000D03*
D14*
X42749000Y3240000D03*
D14*
X22749000Y3240000D03*
D14*
X25249000Y3240000D03*
D14*
X40249000Y3240000D03*
D14*
X30249000Y3240000D03*
D15*
X26100000Y68200000D03*
D15*
X26100000Y59000000D03*
D13*
X48500000Y36500000D03*
D13*
X58500000Y36500000D03*
D13*
X53500000Y36500000D03*
D16*
X31750000Y31430000D03*
D16*
X31750000Y33970000D03*
D17*
X39050000Y36500000D03*
D17*
X35750000Y39000000D03*
D17*
X35750000Y41500000D03*
D17*
X35750000Y36500000D03*
D17*
X39050000Y39000000D03*
D17*
X39050000Y41500000D03*
D18*
X33420000Y58980000D03*
D18*
X33420000Y65380000D03*
D19*
X10727083Y7691263D03*
D19*
X8227083Y7691263D03*
D13*
X4500000Y36500000D03*
D13*
X14500000Y36500000D03*
D13*
X9500000Y36500000D03*
D20*
X29890000Y59000000D03*
D20*
X29890000Y68200000D03*
D21*
X36670000Y65380000D03*
D21*
X36670000Y58980000D03*
D22*
X31500000Y52500000D03*
D22*
X36580000Y52500000D03*
D22*
X26420000Y52500000D03*
D13*
X48500000Y62500000D03*
D13*
X58500000Y62500000D03*
D13*
X53500000Y62500000D03*
D19*
X54737083Y7691263D03*
D19*
X52237083Y7691263D03*
D23*
X26950000Y33970000D03*
D23*
X26950000Y31430000D03*
D24*
X8680000Y57850000D03*
D25*
X1000000Y26200000D03*
D25*
X62000000Y64600000D03*
D24*
X54970000Y42460000D03*
D25*
X54375000Y71000000D03*
D25*
X46750000Y1000000D03*
D24*
X8625000Y39000000D03*
D24*
X54375000Y13400000D03*
D24*
X16250000Y64600000D03*
D24*
X39125000Y32600000D03*
D24*
X54375000Y51800000D03*
D24*
X39125000Y26200000D03*
D24*
X46750000Y58200000D03*
D24*
X54375000Y19800000D03*
D24*
X8625000Y19800000D03*
D25*
X1000000Y51800000D03*
D25*
X1000000Y32600000D03*
D24*
X54375000Y45400000D03*
D25*
X62000000Y13400000D03*
D24*
X43050000Y11280000D03*
D24*
X31500000Y19800000D03*
D24*
X23875000Y7000000D03*
D25*
X46750000Y71000000D03*
D24*
X16250000Y7000000D03*
D25*
X62000000Y51800000D03*
D26*
X16010000Y54660000D03*
D24*
X54375000Y32600000D03*
D25*
X62000000Y1000000D03*
D24*
X34500000Y15860000D03*
D25*
X8625000Y71000000D03*
D24*
X46750000Y7000000D03*
D24*
X8625000Y32600000D03*
D24*
X46750000Y51800000D03*
D24*
X45500000Y12930000D03*
D25*
X1000000Y19800000D03*
D25*
X62000000Y7000000D03*
D25*
X16250000Y1000000D03*
D25*
X62000000Y32600000D03*
D25*
X31500000Y1000000D03*
D25*
X62000000Y45400000D03*
D27*
X38050000Y15930000D03*
D25*
X1000000Y71000000D03*
D24*
X4000001Y47580000D03*
D24*
X23875000Y64600000D03*
D24*
X23875000Y51800000D03*
D24*
X49460000Y40530000D03*
D25*
X39125000Y71000000D03*
D25*
X62000000Y19800000D03*
D25*
X31500000Y71000000D03*
D25*
X62000000Y26200000D03*
D24*
X16250000Y19800000D03*
D24*
X19950000Y11280000D03*
D24*
X17500000Y12930000D03*
D24*
X31500000Y45400000D03*
D27*
X25000000Y16000000D03*
D24*
X16250000Y26200000D03*
D24*
X46750000Y26200000D03*
D25*
X62000000Y39000000D03*
D24*
X46750000Y64600000D03*
D25*
X62000000Y58200000D03*
D25*
X1000000Y1000000D03*
D25*
X8625000Y1000000D03*
D25*
X1000000Y7000000D03*
D25*
X1000000Y45400000D03*
D24*
X23875000Y39000000D03*
D24*
X8625000Y13400000D03*
D24*
X4600000Y41100000D03*
D25*
X1000000Y58200000D03*
D24*
X8625000Y64600000D03*
D25*
X23875000Y71000000D03*
D24*
X23875000Y32600000D03*
D24*
X39125000Y64600000D03*
D24*
X23875000Y45400000D03*
D24*
X8625000Y26200000D03*
D24*
X54375000Y26200000D03*
D24*
X19950000Y14580000D03*
D24*
X31560000Y42090000D03*
D26*
X14410000Y55930000D03*
D24*
X31500000Y26200000D03*
D24*
X39125000Y45400000D03*
D25*
X54375000Y1000000D03*
D27*
X22000000Y55930000D03*
D25*
X23875000Y1000000D03*
D24*
X54375000Y39000000D03*
D24*
X46750000Y19800000D03*
D25*
X1000000Y39000000D03*
D24*
X54375000Y58200000D03*
D24*
X39125000Y7000000D03*
D24*
X46750000Y32600000D03*
D25*
X1000000Y13400000D03*
D24*
X52480000Y54400000D03*
D24*
X16250000Y32600000D03*
D24*
X16250000Y39000000D03*
D25*
X16250000Y71000000D03*
D24*
X20150000Y53030000D03*
D27*
X10280000Y50930000D03*
D24*
X12540000Y52090000D03*
D24*
X23875000Y26200000D03*
D24*
X23875000Y58200000D03*
D24*
X54375000Y64600000D03*
D24*
X39125000Y58200000D03*
D25*
X39125000Y1000000D03*
D24*
X43050000Y14580000D03*
D24*
X31500000Y64600000D03*
D24*
X39125000Y51800000D03*
D25*
X62000000Y71000000D03*
D24*
X31500000Y58200000D03*
D24*
X46750000Y39000000D03*
D24*
X46750000Y45700000D03*
D27*
X51530000Y48510000D03*
D24*
X6410000Y51310000D03*
D25*
X1000000Y64600000D03*
M02*
