%FSLAX46Y46*%
%MOMM*%
%AMPS24*
21,1,0.600000,1.550000,0.000000,0.000000,90.000000*
%
%ADD24PS24*%
%AMPS25*
21,1,0.600000,1.550000,0.000000,0.000000,270.000000*
%
%ADD25PS25*%
%AMPS27*
21,1,1.600000,2.500000,0.000000,0.000000,0.000000*
%
%ADD27PS27*%
%AMPS29*
21,1,1.600000,2.500000,0.000000,0.000000,90.000000*
%
%ADD29PS29*%
%AMPS26*
21,1,1.600000,2.500000,0.000000,0.000000,180.000000*
%
%ADD26PS26*%
%AMPS28*
21,1,1.600000,2.500000,0.000000,0.000000,270.000000*
%
%ADD28PS28*%
%AMPS21*
21,1,0.900000,1.000000,0.000000,0.000000,0.000000*
%
%ADD21PS21*%
%AMPS20*
21,1,0.900000,1.000000,0.000000,0.000000,180.000000*
%
%ADD20PS20*%
%AMPS19*
21,1,1.600000,3.200000,0.000000,0.000000,90.000000*
%
%ADD19PS19*%
%AMPS18*
21,1,1.600000,3.200000,0.000000,0.000000,270.000000*
%
%ADD18PS18*%
%AMPS22*
21,1,1.450000,1.000000,0.000000,0.000000,90.000000*
%
%ADD22PS22*%
%AMPS23*
21,1,1.450000,1.000000,0.000000,0.000000,270.000000*
%
%ADD23PS23*%
%AMPS11*
21,1,1.500000,2.800000,0.000000,0.000000,90.000000*
%
%ADD11PS11*%
%AMPS10*
21,1,1.500000,2.800000,0.000000,0.000000,270.000000*
%
%ADD10PS10*%
%AMPS13*
21,1,1.800000,1.100000,0.000000,0.000000,90.000000*
%
%ADD13PS13*%
%AMPS12*
21,1,1.800000,1.100000,0.000000,0.000000,270.000000*
%
%ADD12PS12*%
%AMPS17*
21,1,1.000000,0.900000,0.000000,0.000000,0.000000*
%
%ADD17PS17*%
%AMPS15*
21,1,1.000000,0.900000,0.000000,0.000000,90.000000*
%
%ADD15PS15*%
%AMPS16*
21,1,1.000000,0.900000,0.000000,0.000000,180.000000*
%
%ADD16PS16*%
%AMPS14*
21,1,1.000000,0.900000,0.000000,0.000000,270.000000*
%
%ADD14PS14*%
G01*
%LPD*%
G01*
%LPD*%
G75*
D10*
X27050002Y39000000D03*
D11*
X31750000Y39000000D03*
D12*
X30000000Y10000000D03*
D13*
X33000000Y10000000D03*
D14*
X14410000Y59285000D03*
D15*
X16010000Y59285000D03*
D16*
X16340000Y49175000D03*
D17*
X16340000Y47575000D03*
D15*
X6410000Y52610000D03*
D14*
X4810000Y52610000D03*
D16*
X52480000Y53100000D03*
D17*
X52480000Y51500000D03*
D15*
X16010000Y51305000D03*
D14*
X14410000Y51305000D03*
D18*
X19950000Y12930000D03*
D19*
X24950000Y12930000D03*
D20*
X47860000Y48510000D03*
D21*
X48810000Y46310000D03*
D20*
X49760000Y48510000D03*
D16*
X14410000Y49175000D03*
D17*
X14410000Y47575000D03*
D14*
X8680000Y52730000D03*
D15*
X10280000Y52730000D03*
D18*
X38050000Y12930000D03*
D19*
X43050000Y12930000D03*
D17*
X53670000Y42460000D03*
D16*
X53670000Y44060000D03*
D22*
X49760000Y44060000D03*
D23*
X47860000Y44060000D03*
D17*
X20150000Y54330000D03*
D16*
X20150000Y55930000D03*
D11*
X11149999Y47580000D03*
D10*
X6450001Y47580000D03*
D14*
X31560000Y43390000D03*
D15*
X33160000Y43390000D03*
D16*
X51790000Y44060000D03*
D17*
X51790000Y42460000D03*
D14*
X8680000Y56550000D03*
D15*
X10280000Y56550000D03*
D24*
X17880000Y57200000D03*
D24*
X17880000Y54660000D03*
D24*
X17880000Y53390000D03*
D25*
X12540000Y53390000D03*
D25*
X12540000Y55930000D03*
D24*
X17880000Y55930000D03*
D25*
X12540000Y57200000D03*
D25*
X12540000Y54660000D03*
D26*
X48500000Y55000000D03*
D27*
X48500000Y51500000D03*
D22*
X6710000Y54840000D03*
D23*
X4810000Y54840000D03*
D13*
X33000000Y15860000D03*
D12*
X30000000Y15860000D03*
D15*
X49460000Y41830000D03*
D14*
X47860000Y41830000D03*
D13*
X33000000Y12930000D03*
D12*
X30000000Y12930000D03*
D15*
X27260000Y43430000D03*
D14*
X25660000Y43430000D03*
D15*
X10280000Y54660000D03*
D14*
X8680000Y54660000D03*
D28*
X7050000Y41100000D03*
D29*
X10550000Y41100000D03*
M02*
