%FSLAX46Y46*%
%MOMM*%
%ADD10C,0.300000*%
%ADD12C,0.500000*%
%ADD11C,0.600000*%
%AMPS15*
1,1,2.100000,0.000000,0.000000*
%
%ADD15PS15*%
%AMPS25*
1,1,1.600000,0.000000,0.000000*
%
%ADD25PS25*%
%AMPS28*
1,1,1.600000,0.000000,0.000000*
%
%ADD28PS28*%
%AMPS41*
1,1,1.600000,0.000000,0.000000*
%
%ADD41PS41*%
%AMPS38*
1,1,2.200000,0.000000,0.000000*
%
%ADD38PS38*%
%AMPS31*
1,1,1.400000,0.000000,0.000000*
%
%ADD31PS31*%
%AMPS37*
1,1,1.400000,0.000000,0.000000*
%
%ADD37PS37*%
%AMPS18*
1,1,1.400000,0.000000,0.000000*
%
%ADD18PS18*%
%AMPS36*
1,1,1.400000,0.000000,0.000000*
%
%ADD36PS36*%
%AMPS32*
21,1,0.600000,1.550000,0.000000,0.000000,90.000000*
%
%ADD32PS32*%
%AMPS33*
21,1,0.600000,1.550000,0.000000,0.000000,270.000000*
%
%ADD33PS33*%
%AMPS35*
21,1,1.600000,2.500000,0.000000,0.000000,0.000000*
%
%ADD35PS35*%
%AMPS40*
21,1,1.600000,2.500000,0.000000,0.000000,90.000000*
%
%ADD40PS40*%
%AMPS34*
21,1,1.600000,2.500000,0.000000,0.000000,180.000000*
%
%ADD34PS34*%
%AMPS39*
21,1,1.600000,2.500000,0.000000,0.000000,270.000000*
%
%ADD39PS39*%
%AMPS27*
21,1,0.900000,1.000000,0.000000,0.000000,0.000000*
%
%ADD27PS27*%
%AMPS26*
21,1,0.900000,1.000000,0.000000,0.000000,180.000000*
%
%ADD26PS26*%
%AMPS24*
21,1,1.600000,3.200000,0.000000,0.000000,90.000000*
%
%ADD24PS24*%
%AMPS23*
21,1,1.600000,3.200000,0.000000,0.000000,270.000000*
%
%ADD23PS23*%
%AMPS29*
21,1,1.450000,1.000000,0.000000,0.000000,90.000000*
%
%ADD29PS29*%
%AMPS30*
21,1,1.450000,1.000000,0.000000,0.000000,270.000000*
%
%ADD30PS30*%
%AMPS14*
21,1,1.500000,2.800000,0.000000,0.000000,90.000000*
%
%ADD14PS14*%
%AMPS13*
21,1,1.500000,2.800000,0.000000,0.000000,270.000000*
%
%ADD13PS13*%
%AMPS17*
21,1,1.800000,1.100000,0.000000,0.000000,90.000000*
%
%ADD17PS17*%
%AMPS16*
21,1,1.800000,1.100000,0.000000,0.000000,270.000000*
%
%ADD16PS16*%
%AMPS22*
21,1,1.000000,0.900000,0.000000,0.000000,0.000000*
%
%ADD22PS22*%
%AMPS20*
21,1,1.000000,0.900000,0.000000,0.000000,90.000000*
%
%ADD20PS20*%
%AMPS21*
21,1,1.000000,0.900000,0.000000,0.000000,180.000000*
%
%ADD21PS21*%
%AMPS19*
21,1,1.000000,0.900000,0.000000,0.000000,270.000000*
%
%ADD19PS19*%
%AMPS44*
1,1,0.800000,0.000000,0.000000*
%
%ADD44PS44*%
%AMPS43*
1,1,0.700000,0.000000,0.000000*
%
%ADD43PS43*%
%AMPS45*
1,1,1.000000,0.000000,0.000000*
%
%ADD45PS45*%
%AMPS42*
1,1,0.700000,0.000000,0.000000*
%
%ADD42PS42*%
G01*
%LPD*%
G36*
X62640000Y360000D02*
X62640000Y71640000D01*
X360000Y71640000D01*
X360000Y360000D01*
X62640000Y360000D01*
D02*
G37*
%LPC*%
G36*
X30766635Y68350000D02*
X30040000Y68350000D01*
X30040000Y69076635D01*
X30063679Y69073122D01*
X30148413Y69051897D01*
X30230680Y69022462D01*
X30309653Y68985110D01*
X30384582Y68940200D01*
X30454758Y68888154D01*
X30519486Y68829486D01*
X30578154Y68764758D01*
X30630200Y68694582D01*
X30675110Y68619653D01*
X30712462Y68540680D01*
X30741897Y68458413D01*
X30763122Y68373679D01*
X30766635Y68350000D01*
D02*
G37*
%LPC*%
G36*
X25950000Y68350000D02*
X25223365Y68350000D01*
X25226878Y68373679D01*
X25248103Y68458413D01*
X25277538Y68540680D01*
X25314890Y68619653D01*
X25359800Y68694582D01*
X25411846Y68764758D01*
X25470514Y68829486D01*
X25535242Y68888154D01*
X25605418Y68940200D01*
X25680347Y68985110D01*
X25759320Y69022462D01*
X25841587Y69051897D01*
X25926321Y69073122D01*
X25950000Y69076635D01*
X25950000Y68350000D01*
D02*
G37*
%LPC*%
G36*
X29740000Y68350000D02*
X29013365Y68350000D01*
X29016878Y68373679D01*
X29038103Y68458413D01*
X29067538Y68540680D01*
X29104890Y68619653D01*
X29149800Y68694582D01*
X29201846Y68764758D01*
X29260514Y68829486D01*
X29325242Y68888154D01*
X29395418Y68940200D01*
X29470347Y68985110D01*
X29549320Y69022462D01*
X29631587Y69051897D01*
X29716321Y69073122D01*
X29740000Y69076635D01*
X29740000Y68350000D01*
D02*
G37*
%LPC*%
G36*
X26976635Y68350000D02*
X26250000Y68350000D01*
X26250000Y69076635D01*
X26273679Y69073122D01*
X26358413Y69051897D01*
X26440680Y69022462D01*
X26519653Y68985110D01*
X26594582Y68940200D01*
X26664758Y68888154D01*
X26729486Y68829486D01*
X26788154Y68764758D01*
X26840200Y68694582D01*
X26885110Y68619653D01*
X26922462Y68540680D01*
X26951897Y68458413D01*
X26973122Y68373679D01*
X26976635Y68350000D01*
D02*
G37*
%LPC*%
G36*
X29740000Y67323365D02*
X29716321Y67326878D01*
X29631587Y67348103D01*
X29549320Y67377538D01*
X29470347Y67414890D01*
X29395418Y67459800D01*
X29325242Y67511846D01*
X29260514Y67570514D01*
X29201846Y67635242D01*
X29149800Y67705418D01*
X29104890Y67780347D01*
X29067538Y67859320D01*
X29038103Y67941587D01*
X29016878Y68026321D01*
X29013365Y68050000D01*
X29740000Y68050000D01*
X29740000Y67323365D01*
D02*
G37*
%LPC*%
G36*
X30040000Y67323365D02*
X30040000Y68050000D01*
X30766635Y68050000D01*
X30763122Y68026321D01*
X30741897Y67941587D01*
X30712462Y67859320D01*
X30675110Y67780347D01*
X30630200Y67705418D01*
X30578154Y67635242D01*
X30519486Y67570514D01*
X30454758Y67511846D01*
X30384582Y67459800D01*
X30309653Y67414890D01*
X30230680Y67377538D01*
X30148413Y67348103D01*
X30063679Y67326878D01*
X30040000Y67323365D01*
D02*
G37*
%LPC*%
G36*
X26250000Y67323365D02*
X26250000Y68050000D01*
X26976635Y68050000D01*
X26973122Y68026321D01*
X26951897Y67941587D01*
X26922462Y67859320D01*
X26885110Y67780347D01*
X26840200Y67705418D01*
X26788154Y67635242D01*
X26729486Y67570514D01*
X26664758Y67511846D01*
X26594582Y67459800D01*
X26519653Y67414890D01*
X26440680Y67377538D01*
X26358413Y67348103D01*
X26273679Y67326878D01*
X26250000Y67323365D01*
D02*
G37*
%LPC*%
G36*
X25950000Y67323365D02*
X25926321Y67326878D01*
X25841587Y67348103D01*
X25759320Y67377538D01*
X25680347Y67414890D01*
X25605418Y67459800D01*
X25535242Y67511846D01*
X25470514Y67570514D01*
X25411846Y67635242D01*
X25359800Y67705418D01*
X25314890Y67780347D01*
X25277538Y67859320D01*
X25248103Y67941587D01*
X25226878Y68026321D01*
X25223365Y68050000D01*
X25950000Y68050000D01*
X25950000Y67323365D01*
D02*
G37*
%LPC*%
G36*
X37546635Y65530000D02*
X36820000Y65530000D01*
X36820000Y66256635D01*
X36843679Y66253122D01*
X36928413Y66231897D01*
X37010680Y66202462D01*
X37089653Y66165110D01*
X37164582Y66120200D01*
X37234758Y66068154D01*
X37299486Y66009486D01*
X37358154Y65944758D01*
X37410200Y65874582D01*
X37455110Y65799653D01*
X37492462Y65720680D01*
X37521897Y65638413D01*
X37543122Y65553679D01*
X37546635Y65530000D01*
D02*
G37*
%LPC*%
G36*
X33270000Y65530000D02*
X32543365Y65530000D01*
X32546878Y65553679D01*
X32568103Y65638413D01*
X32597538Y65720680D01*
X32634890Y65799653D01*
X32679800Y65874582D01*
X32731846Y65944758D01*
X32790514Y66009486D01*
X32855242Y66068154D01*
X32925418Y66120200D01*
X33000347Y66165110D01*
X33079320Y66202462D01*
X33161587Y66231897D01*
X33246321Y66253122D01*
X33270000Y66256635D01*
X33270000Y65530000D01*
D02*
G37*
%LPC*%
G36*
X34296635Y65530000D02*
X33570000Y65530000D01*
X33570000Y66256635D01*
X33593679Y66253122D01*
X33678413Y66231897D01*
X33760680Y66202462D01*
X33839653Y66165110D01*
X33914582Y66120200D01*
X33984758Y66068154D01*
X34049486Y66009486D01*
X34108154Y65944758D01*
X34160200Y65874582D01*
X34205110Y65799653D01*
X34242462Y65720680D01*
X34271897Y65638413D01*
X34293122Y65553679D01*
X34296635Y65530000D01*
D02*
G37*
%LPC*%
G36*
X36520000Y65530000D02*
X35793365Y65530000D01*
X35796878Y65553679D01*
X35818103Y65638413D01*
X35847538Y65720680D01*
X35884890Y65799653D01*
X35929800Y65874582D01*
X35981846Y65944758D01*
X36040514Y66009486D01*
X36105242Y66068154D01*
X36175418Y66120200D01*
X36250347Y66165110D01*
X36329320Y66202462D01*
X36411587Y66231897D01*
X36496321Y66253122D01*
X36520000Y66256635D01*
X36520000Y65530000D01*
D02*
G37*
%LPC*%
G36*
X36820000Y64503365D02*
X36820000Y65230000D01*
X37546635Y65230000D01*
X37543122Y65206321D01*
X37521897Y65121587D01*
X37492462Y65039320D01*
X37455110Y64960347D01*
X37410200Y64885418D01*
X37358154Y64815242D01*
X37299486Y64750514D01*
X37234758Y64691846D01*
X37164582Y64639800D01*
X37089653Y64594890D01*
X37010680Y64557538D01*
X36928413Y64528103D01*
X36843679Y64506878D01*
X36820000Y64503365D01*
D02*
G37*
%LPC*%
G36*
X36520000Y64503365D02*
X36496321Y64506878D01*
X36411587Y64528103D01*
X36329320Y64557538D01*
X36250347Y64594890D01*
X36175418Y64639800D01*
X36105242Y64691846D01*
X36040514Y64750514D01*
X35981846Y64815242D01*
X35929800Y64885418D01*
X35884890Y64960347D01*
X35847538Y65039320D01*
X35818103Y65121587D01*
X35796878Y65206321D01*
X35793365Y65230000D01*
X36520000Y65230000D01*
X36520000Y64503365D01*
D02*
G37*
%LPC*%
G36*
X33570000Y64503365D02*
X33570000Y65230000D01*
X34296635Y65230000D01*
X34293122Y65206321D01*
X34271897Y65121587D01*
X34242462Y65039320D01*
X34205110Y64960347D01*
X34160200Y64885418D01*
X34108154Y64815242D01*
X34049486Y64750514D01*
X33984758Y64691846D01*
X33914582Y64639800D01*
X33839653Y64594890D01*
X33760680Y64557538D01*
X33678413Y64528103D01*
X33593679Y64506878D01*
X33570000Y64503365D01*
D02*
G37*
%LPC*%
G36*
X33270000Y64503365D02*
X33246321Y64506878D01*
X33161587Y64528103D01*
X33079320Y64557538D01*
X33000347Y64594890D01*
X32925418Y64639800D01*
X32855242Y64691846D01*
X32790514Y64750514D01*
X32731846Y64815242D01*
X32679800Y64885418D01*
X32634890Y64960347D01*
X32597538Y65039320D01*
X32568103Y65121587D01*
X32546878Y65206321D01*
X32543365Y65230000D01*
X33270000Y65230000D01*
X33270000Y64503365D01*
D02*
G37*
%LPC*%
G36*
X9500000Y61254764D02*
X9377953Y61260762D01*
X9257065Y61278693D01*
X9138526Y61308385D01*
X9023471Y61349552D01*
X8913002Y61401800D01*
X8808185Y61464625D01*
X8710033Y61537421D01*
X8619486Y61619486D01*
X8537421Y61710033D01*
X8464625Y61808185D01*
X8401800Y61913002D01*
X8349552Y62023471D01*
X8306069Y62145000D01*
X5693931Y62145000D01*
X5650448Y62023471D01*
X5598200Y61913002D01*
X5535375Y61808185D01*
X5462579Y61710033D01*
X5380514Y61619486D01*
X5289967Y61537421D01*
X5191815Y61464625D01*
X5086998Y61401800D01*
X4976529Y61349552D01*
X4861474Y61308385D01*
X4742935Y61278693D01*
X4622047Y61260762D01*
X4500000Y61254764D01*
X4377953Y61260762D01*
X4257065Y61278693D01*
X4138526Y61308385D01*
X4023471Y61349552D01*
X3913002Y61401800D01*
X3808185Y61464625D01*
X3710033Y61537421D01*
X3619486Y61619486D01*
X3537421Y61710033D01*
X3464625Y61808185D01*
X3401800Y61913002D01*
X3349552Y62023471D01*
X3308385Y62138526D01*
X3278693Y62257065D01*
X3260762Y62377953D01*
X3254764Y62500000D01*
X3260762Y62622047D01*
X3278693Y62742935D01*
X3308385Y62861474D01*
X3349552Y62976529D01*
X3401800Y63086998D01*
X3464625Y63191815D01*
X3537421Y63289967D01*
X3619486Y63380514D01*
X3710033Y63462579D01*
X3808185Y63535375D01*
X3913002Y63598200D01*
X4023471Y63650448D01*
X4138526Y63691615D01*
X4257065Y63721307D01*
X4377953Y63739238D01*
X4500000Y63745236D01*
X4622047Y63739238D01*
X4742935Y63721307D01*
X4861474Y63691615D01*
X4976529Y63650448D01*
X5086998Y63598200D01*
X5191815Y63535375D01*
X5289967Y63462579D01*
X5380514Y63380514D01*
X5462579Y63289967D01*
X5535375Y63191815D01*
X5598200Y63086998D01*
X5650448Y62976529D01*
X5693931Y62855000D01*
X8306069Y62855000D01*
X8349552Y62976529D01*
X8401800Y63086998D01*
X8464625Y63191815D01*
X8537421Y63289967D01*
X8619486Y63380514D01*
X8710033Y63462579D01*
X8808185Y63535375D01*
X8913002Y63598200D01*
X9023471Y63650448D01*
X9138526Y63691615D01*
X9257065Y63721307D01*
X9377953Y63739238D01*
X9500000Y63745236D01*
X9622047Y63739238D01*
X9742935Y63721307D01*
X9861474Y63691615D01*
X9976529Y63650448D01*
X10086998Y63598200D01*
X10191815Y63535375D01*
X10289967Y63462579D01*
X10380514Y63380514D01*
X10462579Y63289967D01*
X10535375Y63191815D01*
X10598200Y63086998D01*
X10650448Y62976529D01*
X10691615Y62861474D01*
X10721307Y62742935D01*
X10739238Y62622047D01*
X10745236Y62500000D01*
X10739238Y62377953D01*
X10721307Y62257065D01*
X10691615Y62138526D01*
X10650448Y62023471D01*
X10598200Y61913002D01*
X10535375Y61808185D01*
X10462579Y61710033D01*
X10380514Y61619486D01*
X10289967Y61537421D01*
X10191815Y61464625D01*
X10086998Y61401800D01*
X9976529Y61349552D01*
X9861474Y61308385D01*
X9742935Y61278693D01*
X9622047Y61260762D01*
X9500000Y61254764D01*
D02*
G37*
%LPC*%
G36*
X14500000Y61254764D02*
X14377953Y61260762D01*
X14257065Y61278693D01*
X14138526Y61308385D01*
X14023471Y61349552D01*
X13913002Y61401800D01*
X13808185Y61464625D01*
X13710033Y61537421D01*
X13619486Y61619486D01*
X13537421Y61710033D01*
X13464625Y61808185D01*
X13401800Y61913002D01*
X13349552Y62023471D01*
X13308385Y62138526D01*
X13278693Y62257065D01*
X13260762Y62377953D01*
X13254764Y62500000D01*
X13260762Y62622047D01*
X13278693Y62742935D01*
X13308385Y62861474D01*
X13349552Y62976529D01*
X13401800Y63086998D01*
X13464625Y63191815D01*
X13537421Y63289967D01*
X13619486Y63380514D01*
X13710033Y63462579D01*
X13808185Y63535375D01*
X13913002Y63598200D01*
X14023471Y63650448D01*
X14138526Y63691615D01*
X14257065Y63721307D01*
X14377953Y63739238D01*
X14500000Y63745236D01*
X14622047Y63739238D01*
X14742935Y63721307D01*
X14861474Y63691615D01*
X14976529Y63650448D01*
X15086998Y63598200D01*
X15191815Y63535375D01*
X15289967Y63462579D01*
X15380514Y63380514D01*
X15462579Y63289967D01*
X15535375Y63191815D01*
X15598200Y63086998D01*
X15650448Y62976529D01*
X15691615Y62861474D01*
X15721307Y62742935D01*
X15739238Y62622047D01*
X15745236Y62500000D01*
X15739238Y62377953D01*
X15721307Y62257065D01*
X15691615Y62138526D01*
X15650448Y62023471D01*
X15598200Y61913002D01*
X15535375Y61808185D01*
X15462579Y61710033D01*
X15380514Y61619486D01*
X15289967Y61537421D01*
X15191815Y61464625D01*
X15086998Y61401800D01*
X14976529Y61349552D01*
X14861474Y61308385D01*
X14742935Y61278693D01*
X14622047Y61260762D01*
X14500000Y61254764D01*
D02*
G37*
%LPC*%
G36*
X49495000Y53555000D02*
X47505000Y53555000D01*
X47505000Y56445000D01*
X48145000Y56445000D01*
X48145000Y61306069D01*
X48023471Y61349552D01*
X47913002Y61401800D01*
X47808185Y61464625D01*
X47710033Y61537421D01*
X47619486Y61619486D01*
X47537421Y61710033D01*
X47464625Y61808185D01*
X47401800Y61913002D01*
X47349552Y62023471D01*
X47308385Y62138526D01*
X47278693Y62257065D01*
X47260762Y62377953D01*
X47254764Y62500000D01*
X47260762Y62622047D01*
X47278693Y62742935D01*
X47308385Y62861474D01*
X47349552Y62976529D01*
X47401800Y63086998D01*
X47464625Y63191815D01*
X47537421Y63289967D01*
X47619486Y63380514D01*
X47710033Y63462579D01*
X47808185Y63535375D01*
X47913002Y63598200D01*
X48023471Y63650448D01*
X48138526Y63691615D01*
X48257065Y63721307D01*
X48377953Y63739238D01*
X48500000Y63745236D01*
X48622047Y63739238D01*
X48742935Y63721307D01*
X48861474Y63691615D01*
X48976529Y63650448D01*
X49086998Y63598200D01*
X49191815Y63535375D01*
X49289967Y63462579D01*
X49380514Y63380514D01*
X49462579Y63289967D01*
X49535375Y63191815D01*
X49598200Y63086998D01*
X49650448Y62976529D01*
X49691615Y62861474D01*
X49721307Y62742935D01*
X49739238Y62622047D01*
X49745236Y62500000D01*
X49739238Y62377953D01*
X49721307Y62257065D01*
X49691615Y62138526D01*
X49650448Y62023471D01*
X49598200Y61913002D01*
X49535375Y61808185D01*
X49462579Y61710033D01*
X49380514Y61619486D01*
X49289967Y61537421D01*
X49191815Y61464625D01*
X49086998Y61401800D01*
X48976529Y61349552D01*
X48855000Y61306069D01*
X48855000Y56445000D01*
X49495000Y56445000D01*
X49495000Y53555000D01*
D02*
G37*
%LPC*%
G36*
X40502917Y2174501D02*
X40415177Y2178813D01*
X40328261Y2191705D01*
X40243046Y2213050D01*
X40160324Y2242650D01*
X40080907Y2280210D01*
X40005554Y2325375D01*
X39934990Y2377709D01*
X39869891Y2436711D01*
X39810889Y2501810D01*
X39758555Y2572374D01*
X39713390Y2647727D01*
X39675830Y2727144D01*
X39646230Y2809866D01*
X39624885Y2895081D01*
X39611993Y2981997D01*
X39607681Y3069737D01*
X39611993Y3157477D01*
X39624885Y3244393D01*
X39646230Y3329608D01*
X39675830Y3412330D01*
X39713390Y3491747D01*
X39758555Y3567100D01*
X39810889Y3637664D01*
X39869891Y3702763D01*
X39934990Y3761765D01*
X40005554Y3814099D01*
X40080907Y3859264D01*
X40160324Y3896824D01*
X40243046Y3926424D01*
X40328261Y3947769D01*
X40415177Y3960661D01*
X40502917Y3964973D01*
X40590657Y3960661D01*
X40677573Y3947769D01*
X40762788Y3926424D01*
X40832584Y3901450D01*
X60445000Y23513867D01*
X60445000Y55052953D01*
X54093213Y61404741D01*
X53976524Y61349551D01*
X53861474Y61308385D01*
X53742935Y61278693D01*
X53622047Y61260762D01*
X53500000Y61254764D01*
X53377953Y61260762D01*
X53257065Y61278693D01*
X53138526Y61308385D01*
X53023471Y61349552D01*
X52913002Y61401800D01*
X52808185Y61464625D01*
X52710033Y61537421D01*
X52619486Y61619486D01*
X52537421Y61710033D01*
X52464625Y61808185D01*
X52401800Y61913002D01*
X52349552Y62023471D01*
X52308385Y62138526D01*
X52278693Y62257065D01*
X52260762Y62377953D01*
X52254764Y62500000D01*
X52260762Y62622047D01*
X52278693Y62742935D01*
X52308385Y62861474D01*
X52349552Y62976529D01*
X52401800Y63086998D01*
X52464625Y63191815D01*
X52537421Y63289967D01*
X52619486Y63380514D01*
X52710033Y63462579D01*
X52808185Y63535375D01*
X52913002Y63598200D01*
X53023471Y63650448D01*
X53138526Y63691615D01*
X53257065Y63721307D01*
X53377953Y63739238D01*
X53500000Y63745236D01*
X53622047Y63739238D01*
X53742935Y63721307D01*
X53861474Y63691615D01*
X53976529Y63650448D01*
X54086998Y63598200D01*
X54191815Y63535375D01*
X54289967Y63462579D01*
X54380514Y63380514D01*
X54462579Y63289967D01*
X54535375Y63191815D01*
X54598200Y63086998D01*
X54650448Y62976529D01*
X54691615Y62861474D01*
X54721307Y62742935D01*
X54739238Y62622047D01*
X54745236Y62500000D01*
X54739238Y62377953D01*
X54721307Y62257065D01*
X54691615Y62138526D01*
X54650449Y62023476D01*
X54595259Y61906787D01*
X61058148Y55443897D01*
X61095996Y55397776D01*
X61128893Y55336229D01*
X61149151Y55269451D01*
X61155000Y55210077D01*
X61155000Y23356743D01*
X61149151Y23297368D01*
X61128893Y23230590D01*
X61095996Y23169042D01*
X61052220Y23115697D01*
X61044448Y23109221D01*
X41334630Y3399404D01*
X41359604Y3329608D01*
X41380949Y3244393D01*
X41393841Y3157477D01*
X41398153Y3069737D01*
X41393841Y2981997D01*
X41380949Y2895081D01*
X41359604Y2809866D01*
X41330004Y2727144D01*
X41292444Y2647727D01*
X41247279Y2572374D01*
X41194945Y2501810D01*
X41135943Y2436711D01*
X41070844Y2377709D01*
X41000280Y2325375D01*
X40924927Y2280210D01*
X40845510Y2242650D01*
X40762788Y2213050D01*
X40677573Y2191705D01*
X40590657Y2178813D01*
X40502917Y2174501D01*
D02*
G37*
%LPC*%
G36*
X58350000Y62650000D02*
X57269963Y62650000D01*
X57283603Y62741959D01*
X57313176Y62860021D01*
X57354177Y62974613D01*
X57406213Y63084634D01*
X57468794Y63189044D01*
X57541286Y63286786D01*
X57623026Y63376974D01*
X57713214Y63458714D01*
X57810956Y63531206D01*
X57915366Y63593787D01*
X58025387Y63645823D01*
X58139979Y63686824D01*
X58258041Y63716397D01*
X58350000Y63730037D01*
X58350000Y62650000D01*
D02*
G37*
%LPC*%
G36*
X59730037Y62650000D02*
X58650000Y62650000D01*
X58650000Y63730037D01*
X58741959Y63716397D01*
X58860021Y63686824D01*
X58974613Y63645823D01*
X59084634Y63593787D01*
X59189044Y63531206D01*
X59286786Y63458714D01*
X59376974Y63376974D01*
X59458714Y63286786D01*
X59531206Y63189044D01*
X59593787Y63084634D01*
X59645823Y62974613D01*
X59686824Y62860021D01*
X59716397Y62741959D01*
X59730037Y62650000D01*
D02*
G37*
%LPC*%
G36*
X58650000Y61269963D02*
X58650000Y62350000D01*
X59730037Y62350000D01*
X59716397Y62258041D01*
X59686824Y62139979D01*
X59645823Y62025387D01*
X59593787Y61915366D01*
X59531206Y61810956D01*
X59458714Y61713214D01*
X59376974Y61623026D01*
X59286786Y61541286D01*
X59189044Y61468794D01*
X59084634Y61406213D01*
X58974613Y61354177D01*
X58860021Y61313176D01*
X58741959Y61283603D01*
X58650000Y61269963D01*
D02*
G37*
%LPC*%
G36*
X58350000Y61269963D02*
X58258041Y61283603D01*
X58139979Y61313176D01*
X58025387Y61354177D01*
X57915366Y61406213D01*
X57810956Y61468794D01*
X57713214Y61541286D01*
X57623026Y61623026D01*
X57541286Y61713214D01*
X57468794Y61810956D01*
X57406213Y61915366D01*
X57354177Y62025387D01*
X57313176Y62139979D01*
X57283603Y62258041D01*
X57269963Y62350000D01*
X58350000Y62350000D01*
X58350000Y61269963D01*
D02*
G37*
%LPC*%
G36*
X18850000Y56705000D02*
X16910000Y56705000D01*
X16910000Y57507953D01*
X15827953Y58590000D01*
X15365000Y58590000D01*
X15365000Y59980000D01*
X16655000Y59980000D01*
X16655000Y58767047D01*
X17727047Y57695000D01*
X18850000Y57695000D01*
X18850000Y56705000D01*
D02*
G37*
%LPC*%
G36*
X13510000Y56705000D02*
X11570000Y56705000D01*
X11570000Y57695000D01*
X12692953Y57695000D01*
X13765000Y58767047D01*
X13765000Y59980000D01*
X15055000Y59980000D01*
X15055000Y58590000D01*
X14592047Y58590000D01*
X13510000Y57507953D01*
X13510000Y56705000D01*
D02*
G37*
%LPC*%
G36*
X26420000Y51204765D02*
X26293044Y51211003D01*
X26167308Y51229654D01*
X26044011Y51260538D01*
X25924337Y51303358D01*
X25809436Y51357702D01*
X25700404Y51423054D01*
X25598310Y51498772D01*
X25504131Y51584131D01*
X25418772Y51678310D01*
X25343054Y51780404D01*
X25277702Y51889436D01*
X25223358Y52004337D01*
X25180538Y52124011D01*
X25149654Y52247308D01*
X25131003Y52373044D01*
X25124765Y52500000D01*
X25131003Y52626956D01*
X25149654Y52752692D01*
X25180538Y52875989D01*
X25223358Y52995663D01*
X25277702Y53110564D01*
X25343054Y53219596D01*
X25418772Y53321690D01*
X25504131Y53415869D01*
X25598310Y53501228D01*
X25700452Y53576982D01*
X25745000Y53603751D01*
X25745000Y58178782D01*
X25677989Y58210474D01*
X25602637Y58255638D01*
X25532073Y58307972D01*
X25466974Y58366974D01*
X25407972Y58432073D01*
X25355638Y58502637D01*
X25310473Y58577990D01*
X25272913Y58657407D01*
X25243313Y58740129D01*
X25221968Y58825344D01*
X25209076Y58912260D01*
X25204764Y59000000D01*
X25209076Y59087740D01*
X25221968Y59174656D01*
X25243313Y59259871D01*
X25272913Y59342593D01*
X25310473Y59422010D01*
X25355638Y59497363D01*
X25407972Y59567927D01*
X25466974Y59633026D01*
X25532073Y59692028D01*
X25602637Y59744362D01*
X25677990Y59789527D01*
X25757407Y59827087D01*
X25840129Y59856687D01*
X25925344Y59878032D01*
X26012260Y59890924D01*
X26100000Y59895236D01*
X26187740Y59890924D01*
X26274656Y59878032D01*
X26359871Y59856687D01*
X26442593Y59827087D01*
X26522010Y59789527D01*
X26597363Y59744362D01*
X26667927Y59692028D01*
X26733026Y59633026D01*
X26792028Y59567927D01*
X26844362Y59497363D01*
X26889526Y59422011D01*
X26921218Y59355000D01*
X29068782Y59355000D01*
X29100474Y59422011D01*
X29145638Y59497363D01*
X29197972Y59567927D01*
X29256974Y59633026D01*
X29322073Y59692028D01*
X29392637Y59744362D01*
X29467990Y59789527D01*
X29547407Y59827087D01*
X29630129Y59856687D01*
X29715344Y59878032D01*
X29802260Y59890924D01*
X29890000Y59895236D01*
X29977740Y59890924D01*
X30064656Y59878032D01*
X30149871Y59856687D01*
X30232593Y59827087D01*
X30312010Y59789527D01*
X30387363Y59744362D01*
X30457927Y59692028D01*
X30523026Y59633026D01*
X30582028Y59567927D01*
X30634362Y59497363D01*
X30679527Y59422010D01*
X30717087Y59342593D01*
X30746687Y59259871D01*
X30768032Y59174656D01*
X30780924Y59087740D01*
X30785236Y59000000D01*
X30780924Y58912260D01*
X30768032Y58825344D01*
X30746687Y58740129D01*
X30717087Y58657407D01*
X30679527Y58577990D01*
X30634362Y58502637D01*
X30582028Y58432073D01*
X30523026Y58366974D01*
X30457927Y58307972D01*
X30387363Y58255638D01*
X30312010Y58210473D01*
X30232593Y58172913D01*
X30149871Y58143313D01*
X30064656Y58121968D01*
X29977740Y58109076D01*
X29890000Y58104764D01*
X29802260Y58109076D01*
X29715344Y58121968D01*
X29630129Y58143313D01*
X29547407Y58172913D01*
X29467990Y58210473D01*
X29392637Y58255638D01*
X29322073Y58307972D01*
X29256974Y58366974D01*
X29197972Y58432073D01*
X29145638Y58502637D01*
X29100474Y58577989D01*
X29068782Y58645000D01*
X26921218Y58645000D01*
X26889526Y58577989D01*
X26844362Y58502637D01*
X26792028Y58432073D01*
X26733026Y58366974D01*
X26667927Y58307972D01*
X26597363Y58255638D01*
X26522011Y58210474D01*
X26455000Y58178782D01*
X26455000Y53793520D01*
X26546947Y53788998D01*
X26672692Y53770346D01*
X26795989Y53739462D01*
X26915663Y53696642D01*
X27030564Y53642298D01*
X27139596Y53576946D01*
X27241690Y53501228D01*
X27335869Y53415869D01*
X27421228Y53321690D01*
X27496946Y53219596D01*
X27562298Y53110564D01*
X27616642Y52995663D01*
X27659462Y52875989D01*
X27690346Y52752692D01*
X27708997Y52626956D01*
X27715235Y52500000D01*
X27708997Y52373044D01*
X27690346Y52247308D01*
X27659462Y52124011D01*
X27616642Y52004337D01*
X27562298Y51889436D01*
X27496946Y51780404D01*
X27421228Y51678310D01*
X27335869Y51584131D01*
X27241690Y51498772D01*
X27139596Y51423054D01*
X27030564Y51357702D01*
X26915663Y51303358D01*
X26795989Y51260538D01*
X26672692Y51229654D01*
X26546956Y51211003D01*
X26420000Y51204765D01*
D02*
G37*
%LPC*%
G36*
X36580000Y51204765D02*
X36453044Y51211003D01*
X36327308Y51229654D01*
X36204011Y51260538D01*
X36084337Y51303358D01*
X35969436Y51357702D01*
X35860404Y51423054D01*
X35758310Y51498772D01*
X35664131Y51584131D01*
X35578772Y51678310D01*
X35503054Y51780404D01*
X35437702Y51889436D01*
X35383358Y52004337D01*
X35340538Y52124011D01*
X35309654Y52247308D01*
X35291003Y52373044D01*
X35284765Y52500000D01*
X35291003Y52626956D01*
X35309654Y52752692D01*
X35340538Y52875989D01*
X35383358Y52995663D01*
X35437702Y53110564D01*
X35503054Y53219596D01*
X35578772Y53321690D01*
X35664131Y53415869D01*
X35758310Y53501228D01*
X35860404Y53576946D01*
X35969436Y53642298D01*
X36084337Y53696642D01*
X36204011Y53739462D01*
X36315000Y53767263D01*
X36315000Y58158782D01*
X36247989Y58190474D01*
X36172637Y58235638D01*
X36102073Y58287972D01*
X36036974Y58346974D01*
X35977972Y58412073D01*
X35925638Y58482637D01*
X35880474Y58557989D01*
X35848782Y58625000D01*
X34241218Y58625000D01*
X34209526Y58557989D01*
X34164362Y58482637D01*
X34112028Y58412073D01*
X34053026Y58346974D01*
X33987927Y58287972D01*
X33917363Y58235638D01*
X33842010Y58190473D01*
X33762593Y58152913D01*
X33679871Y58123313D01*
X33594656Y58101968D01*
X33507740Y58089076D01*
X33420000Y58084764D01*
X33332260Y58089076D01*
X33245344Y58101968D01*
X33160129Y58123313D01*
X33077407Y58152913D01*
X32997990Y58190473D01*
X32922637Y58235638D01*
X32852073Y58287972D01*
X32786974Y58346974D01*
X32727972Y58412073D01*
X32675638Y58482637D01*
X32630473Y58557990D01*
X32592913Y58637407D01*
X32563313Y58720129D01*
X32541968Y58805344D01*
X32529076Y58892260D01*
X32524764Y58980000D01*
X32529076Y59067740D01*
X32541968Y59154656D01*
X32563313Y59239871D01*
X32592913Y59322593D01*
X32630473Y59402010D01*
X32675638Y59477363D01*
X32727972Y59547927D01*
X32786974Y59613026D01*
X32852073Y59672028D01*
X32922637Y59724362D01*
X32997990Y59769527D01*
X33077407Y59807087D01*
X33160129Y59836687D01*
X33245344Y59858032D01*
X33332260Y59870924D01*
X33420000Y59875236D01*
X33507740Y59870924D01*
X33594656Y59858032D01*
X33679871Y59836687D01*
X33762593Y59807087D01*
X33842010Y59769527D01*
X33917363Y59724362D01*
X33987927Y59672028D01*
X34053026Y59613026D01*
X34112028Y59547927D01*
X34164362Y59477363D01*
X34209526Y59402011D01*
X34241218Y59335000D01*
X35848782Y59335000D01*
X35880474Y59402011D01*
X35925638Y59477363D01*
X35977972Y59547927D01*
X36036974Y59613026D01*
X36102073Y59672028D01*
X36172637Y59724362D01*
X36247990Y59769527D01*
X36327407Y59807087D01*
X36410129Y59836687D01*
X36495344Y59858032D01*
X36582260Y59870924D01*
X36670000Y59875236D01*
X36757740Y59870924D01*
X36844656Y59858032D01*
X36929871Y59836687D01*
X37012593Y59807087D01*
X37092010Y59769527D01*
X37167363Y59724362D01*
X37237927Y59672028D01*
X37303026Y59613026D01*
X37362028Y59547927D01*
X37414362Y59477363D01*
X37459527Y59402010D01*
X37497087Y59322593D01*
X37526687Y59239871D01*
X37548032Y59154656D01*
X37560924Y59067740D01*
X37565236Y58980000D01*
X37560924Y58892260D01*
X37548032Y58805344D01*
X37526687Y58720129D01*
X37497087Y58637407D01*
X37459527Y58557990D01*
X37414362Y58482637D01*
X37362028Y58412073D01*
X37303026Y58346974D01*
X37237927Y58287972D01*
X37167363Y58235638D01*
X37092011Y58190474D01*
X37025000Y58158782D01*
X37025000Y53720604D01*
X37190563Y53642299D01*
X37299596Y53576946D01*
X37401690Y53501228D01*
X37495869Y53415869D01*
X37581228Y53321690D01*
X37656946Y53219596D01*
X37722298Y53110564D01*
X37776642Y52995663D01*
X37819462Y52875989D01*
X37850346Y52752692D01*
X37868997Y52626956D01*
X37875235Y52500000D01*
X37868997Y52373044D01*
X37850346Y52247308D01*
X37819462Y52124011D01*
X37776642Y52004337D01*
X37722298Y51889436D01*
X37656946Y51780404D01*
X37581228Y51678310D01*
X37495869Y51584131D01*
X37401690Y51498772D01*
X37299596Y51423054D01*
X37190564Y51357702D01*
X37075663Y51303358D01*
X36955989Y51260538D01*
X36832692Y51229654D01*
X36706956Y51211003D01*
X36580000Y51204765D01*
D02*
G37*
%LPC*%
G36*
X10925000Y53965000D02*
X9635000Y53965000D01*
X9635000Y55355000D01*
X9925000Y55355000D01*
X9925000Y55855000D01*
X9635000Y55855000D01*
X9635000Y57245000D01*
X10925000Y57245000D01*
X10925000Y55855000D01*
X10635000Y55855000D01*
X10635000Y55355000D01*
X10925000Y55355000D01*
X10925000Y55015000D01*
X11570000Y55015000D01*
X11570000Y55155000D01*
X13510000Y55155000D01*
X13510000Y54165000D01*
X11570000Y54165000D01*
X11570000Y54305000D01*
X10925000Y54305000D01*
X10925000Y53965000D01*
D02*
G37*
%LPC*%
G36*
X8530000Y56700000D02*
X8040000Y56700000D01*
X8040000Y57240000D01*
X8530000Y57240000D01*
X8530000Y56700000D01*
D02*
G37*
%LPC*%
G36*
X9320000Y56700000D02*
X8830000Y56700000D01*
X8830000Y57240000D01*
X9320000Y57240000D01*
X9320000Y56700000D01*
D02*
G37*
%LPC*%
G36*
X22000000Y55224752D02*
X21930883Y55228148D01*
X21862405Y55238307D01*
X21795284Y55255118D01*
X21730114Y55278438D01*
X21667551Y55308027D01*
X21608179Y55343614D01*
X21552600Y55384834D01*
X21508284Y55425000D01*
X20845000Y55425000D01*
X20845000Y55285000D01*
X19455000Y55285000D01*
X19455000Y55475000D01*
X18850000Y55475000D01*
X18850000Y55435000D01*
X16910000Y55435000D01*
X16910000Y56425000D01*
X18850000Y56425000D01*
X18850000Y56385000D01*
X19455000Y56385000D01*
X19455000Y56575000D01*
X20845000Y56575000D01*
X20845000Y56435000D01*
X21508284Y56435000D01*
X21552600Y56475166D01*
X21608179Y56516386D01*
X21667551Y56551973D01*
X21730114Y56581562D01*
X21795284Y56604882D01*
X21862405Y56621693D01*
X21930883Y56631852D01*
X22000000Y56635248D01*
X22069117Y56631852D01*
X22137595Y56621693D01*
X22204716Y56604882D01*
X22269886Y56581562D01*
X22332449Y56551973D01*
X22391821Y56516386D01*
X22447401Y56475166D01*
X22498685Y56428685D01*
X22545166Y56377401D01*
X22586386Y56321821D01*
X22621973Y56262449D01*
X22651562Y56199886D01*
X22674882Y56134716D01*
X22691693Y56067595D01*
X22701852Y55999117D01*
X22705248Y55930000D01*
X22701852Y55860883D01*
X22691693Y55792405D01*
X22674882Y55725284D01*
X22651562Y55660114D01*
X22621973Y55597551D01*
X22586386Y55538179D01*
X22545166Y55482599D01*
X22498685Y55431315D01*
X22447401Y55384834D01*
X22391821Y55343614D01*
X22332449Y55308027D01*
X22269886Y55278438D01*
X22204716Y55255118D01*
X22137595Y55238307D01*
X22069117Y55228148D01*
X22000000Y55224752D01*
D02*
G37*
%LPC*%
G36*
X15105000Y48530000D02*
X13715000Y48530000D01*
X13715000Y49820000D01*
X14055000Y49820000D01*
X14055000Y50610000D01*
X13765000Y50610000D01*
X13765000Y52000000D01*
X14055000Y52000000D01*
X14055000Y55435884D01*
X13982027Y55502027D01*
X13915884Y55575000D01*
X13510000Y55575000D01*
X13510000Y55435000D01*
X11570000Y55435000D01*
X11570000Y56425000D01*
X13510000Y56425000D01*
X13510000Y56285000D01*
X13915884Y56285000D01*
X13982027Y56357973D01*
X14026037Y56397864D01*
X14073741Y56433243D01*
X14124686Y56463778D01*
X14178382Y56489174D01*
X14234308Y56509185D01*
X14291924Y56523618D01*
X14350681Y56532332D01*
X14410000Y56535248D01*
X14469319Y56532332D01*
X14528076Y56523618D01*
X14585692Y56509185D01*
X14641618Y56489174D01*
X14695314Y56463778D01*
X14746259Y56433243D01*
X14793963Y56397864D01*
X14837973Y56357973D01*
X14877864Y56313963D01*
X14913243Y56266259D01*
X14943778Y56215314D01*
X14969174Y56161618D01*
X14989185Y56105692D01*
X15003618Y56048076D01*
X15012332Y55989319D01*
X15015248Y55930000D01*
X15012332Y55870681D01*
X15003618Y55811924D01*
X14989185Y55754308D01*
X14969174Y55698382D01*
X14943778Y55644686D01*
X14913243Y55593741D01*
X14877864Y55546037D01*
X14837973Y55502027D01*
X14765000Y55435884D01*
X14765000Y52000000D01*
X15055000Y52000000D01*
X15055000Y50610000D01*
X14765000Y50610000D01*
X14765000Y49820000D01*
X15105000Y49820000D01*
X15105000Y49530000D01*
X15645000Y49530000D01*
X15645000Y49820000D01*
X17035000Y49820000D01*
X17035000Y48530000D01*
X15645000Y48530000D01*
X15645000Y48820000D01*
X15105000Y48820000D01*
X15105000Y48530000D01*
D02*
G37*
%LPC*%
G36*
X9320000Y55860000D02*
X8830000Y55860000D01*
X8830000Y56400000D01*
X9320000Y56400000D01*
X9320000Y55860000D01*
D02*
G37*
%LPC*%
G36*
X8530000Y55860000D02*
X8040000Y55860000D01*
X8040000Y56400000D01*
X8530000Y56400000D01*
X8530000Y55860000D01*
D02*
G37*
%LPC*%
G36*
X22502917Y2174501D02*
X22415177Y2178813D01*
X22328261Y2191705D01*
X22243046Y2213050D01*
X22160324Y2242650D01*
X22080907Y2280210D01*
X22005554Y2325375D01*
X21934990Y2377709D01*
X21869891Y2436711D01*
X21810889Y2501810D01*
X21758555Y2572374D01*
X21713390Y2647727D01*
X21675830Y2727144D01*
X21646230Y2809866D01*
X21624885Y2895081D01*
X21611993Y2981997D01*
X21607681Y3069737D01*
X21611993Y3157477D01*
X21624885Y3244393D01*
X21646230Y3329608D01*
X21671204Y3399404D01*
X1956215Y23114392D01*
X1948372Y23120809D01*
X1904003Y23174877D01*
X1871106Y23236424D01*
X1850849Y23303202D01*
X1845000Y23362589D01*
X1845000Y50010066D01*
X1850849Y50069451D01*
X1871106Y50136229D01*
X1904003Y50197777D01*
X1947779Y50251122D01*
X1955551Y50257598D01*
X4165000Y52467047D01*
X4165000Y53305000D01*
X4455000Y53305000D01*
X4455000Y53920000D01*
X4115000Y53920000D01*
X4115000Y55760000D01*
X5505000Y55760000D01*
X5505000Y53920000D01*
X5165000Y53920000D01*
X5165000Y53305000D01*
X5455000Y53305000D01*
X5455000Y51915000D01*
X4617047Y51915000D01*
X2555000Y49852953D01*
X2555000Y23519701D01*
X22173250Y3901450D01*
X22243046Y3926424D01*
X22328261Y3947769D01*
X22415177Y3960661D01*
X22502917Y3964973D01*
X22590657Y3960661D01*
X22677573Y3947769D01*
X22762788Y3926424D01*
X22845510Y3896824D01*
X22924927Y3859264D01*
X23000280Y3814099D01*
X23070844Y3761765D01*
X23135943Y3702763D01*
X23194945Y3637664D01*
X23247279Y3567100D01*
X23292444Y3491747D01*
X23330004Y3412330D01*
X23359604Y3329608D01*
X23380949Y3244393D01*
X23393841Y3157477D01*
X23398153Y3069737D01*
X23393841Y2981997D01*
X23380949Y2895081D01*
X23359604Y2809866D01*
X23330004Y2727144D01*
X23292444Y2647727D01*
X23247279Y2572374D01*
X23194945Y2501810D01*
X23135943Y2436711D01*
X23070844Y2377709D01*
X23000280Y2325375D01*
X22924927Y2280210D01*
X22845510Y2242650D01*
X22762788Y2213050D01*
X22677573Y2191705D01*
X22590657Y2178813D01*
X22502917Y2174501D01*
D02*
G37*
%LPC*%
G36*
X9325000Y52035000D02*
X8035000Y52035000D01*
X8035000Y53425000D01*
X8325000Y53425000D01*
X8325000Y53965000D01*
X8035000Y53965000D01*
X8035000Y54305000D01*
X7405000Y54305000D01*
X7405000Y53920000D01*
X6015000Y53920000D01*
X6015000Y55760000D01*
X7405000Y55760000D01*
X7405000Y55015000D01*
X8035000Y55015000D01*
X8035000Y55355000D01*
X9325000Y55355000D01*
X9325000Y53965000D01*
X9035000Y53965000D01*
X9035000Y53425000D01*
X9325000Y53425000D01*
X9325000Y52035000D01*
D02*
G37*
%LPC*%
G36*
X26305000Y42735000D02*
X25015000Y42735000D01*
X25015000Y44125000D01*
X25305000Y44125000D01*
X25305000Y45092953D01*
X19447953Y50950000D01*
X16655000Y50950000D01*
X16655000Y50610000D01*
X15365000Y50610000D01*
X15365000Y52000000D01*
X15655000Y52000000D01*
X15655000Y54165884D01*
X15582027Y54232027D01*
X15542136Y54276037D01*
X15506757Y54323741D01*
X15476222Y54374686D01*
X15450826Y54428382D01*
X15430815Y54484308D01*
X15416382Y54541924D01*
X15407668Y54600681D01*
X15404752Y54660000D01*
X15407668Y54719319D01*
X15416382Y54778076D01*
X15430815Y54835692D01*
X15450826Y54891618D01*
X15476222Y54945314D01*
X15506757Y54996259D01*
X15542136Y55043963D01*
X15582027Y55087973D01*
X15626037Y55127864D01*
X15673741Y55163243D01*
X15724686Y55193778D01*
X15778382Y55219174D01*
X15834308Y55239185D01*
X15891924Y55253618D01*
X15950681Y55262332D01*
X16010000Y55265248D01*
X16069319Y55262332D01*
X16128076Y55253618D01*
X16185692Y55239185D01*
X16241618Y55219174D01*
X16295314Y55193778D01*
X16346259Y55163243D01*
X16393963Y55127864D01*
X16437973Y55087973D01*
X16504116Y55015000D01*
X16910000Y55015000D01*
X16910000Y55155000D01*
X18850000Y55155000D01*
X18850000Y54165000D01*
X16910000Y54165000D01*
X16910000Y54305000D01*
X16504116Y54305000D01*
X16437973Y54232027D01*
X16365000Y54165884D01*
X16365000Y52000000D01*
X16655000Y52000000D01*
X16655000Y51660000D01*
X19605077Y51660000D01*
X19664451Y51654151D01*
X19731229Y51633893D01*
X19792776Y51600996D01*
X19838897Y51563148D01*
X25918148Y45483897D01*
X25955996Y45437776D01*
X25988893Y45376229D01*
X26009151Y45309451D01*
X26015000Y45250077D01*
X26015000Y44125000D01*
X26305000Y44125000D01*
X26305000Y42735000D01*
D02*
G37*
%LPC*%
G36*
X20000000Y54480000D02*
X19460000Y54480000D01*
X19460000Y54970000D01*
X20000000Y54970000D01*
X20000000Y54480000D01*
D02*
G37*
%LPC*%
G36*
X20840000Y54480000D02*
X20300000Y54480000D01*
X20300000Y54970000D01*
X20840000Y54970000D01*
X20840000Y54480000D01*
D02*
G37*
%LPC*%
G36*
X20000000Y53690000D02*
X19460000Y53690000D01*
X19460000Y54180000D01*
X20000000Y54180000D01*
X20000000Y53690000D01*
D02*
G37*
%LPC*%
G36*
X20840000Y53690000D02*
X20300000Y53690000D01*
X20300000Y54180000D01*
X20840000Y54180000D01*
X20840000Y53690000D01*
D02*
G37*
%LPC*%
G36*
X18850000Y52895000D02*
X16910000Y52895000D01*
X16910000Y53885000D01*
X18850000Y53885000D01*
X18850000Y52895000D01*
D02*
G37*
%LPC*%
G36*
X13505000Y53540000D02*
X12690000Y53540000D01*
X12690000Y53880000D01*
X13505000Y53880000D01*
X13505000Y53540000D01*
D02*
G37*
%LPC*%
G36*
X12390000Y53540000D02*
X11575000Y53540000D01*
X11575000Y53880000D01*
X12390000Y53880000D01*
X12390000Y53540000D01*
D02*
G37*
%LPC*%
G36*
X31750000Y32974764D02*
X31652457Y32979558D01*
X31555837Y32993889D01*
X31461100Y33017619D01*
X31369136Y33050525D01*
X31280855Y33092278D01*
X31197079Y33142492D01*
X31118628Y33200675D01*
X31046263Y33266263D01*
X30980675Y33338628D01*
X30922492Y33417079D01*
X30872280Y33500851D01*
X30818293Y33615000D01*
X27881707Y33615000D01*
X27827720Y33500851D01*
X27777508Y33417079D01*
X27719325Y33338628D01*
X27653737Y33266263D01*
X27581372Y33200675D01*
X27502921Y33142492D01*
X27419145Y33092278D01*
X27330864Y33050525D01*
X27238900Y33017619D01*
X27144163Y32993889D01*
X27047543Y32979558D01*
X26950000Y32974764D01*
X26852457Y32979558D01*
X26755837Y32993889D01*
X26661100Y33017619D01*
X26569136Y33050525D01*
X26480855Y33092278D01*
X26397079Y33142492D01*
X26318628Y33200675D01*
X26246263Y33266263D01*
X26180675Y33338628D01*
X26122492Y33417079D01*
X26072278Y33500855D01*
X26030525Y33589136D01*
X25997619Y33681100D01*
X25973889Y33775837D01*
X25959558Y33872457D01*
X25954764Y33970000D01*
X25959558Y34067543D01*
X25973889Y34164163D01*
X25997619Y34258900D01*
X26030525Y34350864D01*
X26072278Y34439145D01*
X26122492Y34522921D01*
X26180675Y34601372D01*
X26246263Y34673737D01*
X26318628Y34739325D01*
X26397079Y34797508D01*
X26480855Y34847722D01*
X26569136Y34889475D01*
X26661100Y34922381D01*
X26755837Y34946111D01*
X26852457Y34960442D01*
X26950000Y34965236D01*
X27047543Y34960442D01*
X27144163Y34946111D01*
X27238900Y34922381D01*
X27330864Y34889475D01*
X27419145Y34847722D01*
X27502921Y34797508D01*
X27581372Y34739325D01*
X27653737Y34673737D01*
X27719325Y34601372D01*
X27777508Y34522921D01*
X27827720Y34439149D01*
X27881707Y34325000D01*
X30818293Y34325000D01*
X30872280Y34439149D01*
X30922492Y34522921D01*
X30980675Y34601372D01*
X31046263Y34673737D01*
X31118628Y34739325D01*
X31197079Y34797508D01*
X31280851Y34847720D01*
X31395000Y34901707D01*
X31395000Y38055000D01*
X30155000Y38055000D01*
X30155000Y39452953D01*
X29556215Y40051738D01*
X29548372Y40058155D01*
X29504003Y40112223D01*
X29471106Y40173770D01*
X29450849Y40240548D01*
X29445000Y40299935D01*
X29445000Y50810066D01*
X29450849Y50869451D01*
X29471106Y50936229D01*
X29504003Y50997777D01*
X29547779Y51051122D01*
X29555551Y51057598D01*
X30367235Y51869281D01*
X30303358Y52004338D01*
X30260538Y52124011D01*
X30229654Y52247308D01*
X30211003Y52373044D01*
X30204765Y52500000D01*
X30211003Y52626956D01*
X30229654Y52752692D01*
X30260538Y52875989D01*
X30303358Y52995663D01*
X30357702Y53110564D01*
X30423054Y53219596D01*
X30498772Y53321690D01*
X30584131Y53415869D01*
X30678310Y53501228D01*
X30780404Y53576946D01*
X30889436Y53642298D01*
X31004337Y53696642D01*
X31124011Y53739462D01*
X31247308Y53770346D01*
X31373044Y53788997D01*
X31500000Y53795235D01*
X31626956Y53788997D01*
X31752692Y53770346D01*
X31875989Y53739462D01*
X31995663Y53696642D01*
X32110564Y53642298D01*
X32219596Y53576946D01*
X32321690Y53501228D01*
X32415869Y53415869D01*
X32501228Y53321690D01*
X32576946Y53219596D01*
X32642298Y53110564D01*
X32696642Y52995663D01*
X32739462Y52875989D01*
X32770346Y52752692D01*
X32788997Y52626956D01*
X32795235Y52500000D01*
X32788997Y52373044D01*
X32770346Y52247308D01*
X32739462Y52124011D01*
X32696642Y52004337D01*
X32642298Y51889436D01*
X32576946Y51780404D01*
X32501228Y51678310D01*
X32415869Y51584131D01*
X32321690Y51498772D01*
X32219596Y51423054D01*
X32110564Y51357702D01*
X31995663Y51303358D01*
X31875989Y51260538D01*
X31752692Y51229654D01*
X31626956Y51211003D01*
X31500000Y51204765D01*
X31373044Y51211003D01*
X31247308Y51229654D01*
X31124011Y51260538D01*
X31004338Y51303358D01*
X30869281Y51367235D01*
X30155000Y50652953D01*
X30155000Y40457047D01*
X30667047Y39945000D01*
X33345000Y39945000D01*
X33345000Y39355000D01*
X34818293Y39355000D01*
X34872280Y39469149D01*
X34922492Y39552921D01*
X34980675Y39631372D01*
X35046263Y39703737D01*
X35118628Y39769325D01*
X35197079Y39827508D01*
X35280855Y39877722D01*
X35369136Y39919475D01*
X35461100Y39952381D01*
X35555837Y39976111D01*
X35652457Y39990442D01*
X35750000Y39995236D01*
X35847543Y39990442D01*
X35944163Y39976111D01*
X36038900Y39952381D01*
X36130864Y39919475D01*
X36219145Y39877722D01*
X36302921Y39827508D01*
X36381372Y39769325D01*
X36453737Y39703737D01*
X36519325Y39631372D01*
X36577508Y39552921D01*
X36627722Y39469145D01*
X36669475Y39380864D01*
X36702381Y39288900D01*
X36726111Y39194163D01*
X36740442Y39097543D01*
X36745236Y39000000D01*
X36740442Y38902457D01*
X36726111Y38805837D01*
X36702381Y38711100D01*
X36669475Y38619136D01*
X36627722Y38530855D01*
X36577508Y38447079D01*
X36519325Y38368628D01*
X36453737Y38296263D01*
X36381372Y38230675D01*
X36302921Y38172492D01*
X36219145Y38122278D01*
X36130864Y38080525D01*
X36038900Y38047619D01*
X35944163Y38023889D01*
X35847543Y38009558D01*
X35750000Y38004764D01*
X35652457Y38009558D01*
X35555837Y38023889D01*
X35461100Y38047619D01*
X35369136Y38080525D01*
X35280855Y38122278D01*
X35197079Y38172492D01*
X35118628Y38230675D01*
X35046263Y38296263D01*
X34980675Y38368628D01*
X34922492Y38447079D01*
X34872280Y38530851D01*
X34818293Y38645000D01*
X33345000Y38645000D01*
X33345000Y38055000D01*
X32105000Y38055000D01*
X32105000Y34901707D01*
X32219149Y34847720D01*
X32302921Y34797508D01*
X32381372Y34739325D01*
X32453737Y34673737D01*
X32519325Y34601372D01*
X32577508Y34522921D01*
X32627720Y34439149D01*
X32681707Y34325000D01*
X55822953Y34325000D01*
X57404741Y35906787D01*
X57349551Y36023476D01*
X57308385Y36138526D01*
X57278693Y36257065D01*
X57260762Y36377953D01*
X57254764Y36500000D01*
X57260762Y36622047D01*
X57278693Y36742935D01*
X57308385Y36861474D01*
X57349552Y36976529D01*
X57401800Y37086998D01*
X57464625Y37191815D01*
X57537421Y37289967D01*
X57619486Y37380514D01*
X57710033Y37462579D01*
X57808185Y37535375D01*
X57913002Y37598200D01*
X58023471Y37650448D01*
X58138526Y37691615D01*
X58257065Y37721307D01*
X58377953Y37739238D01*
X58500000Y37745236D01*
X58622047Y37739238D01*
X58742935Y37721307D01*
X58861474Y37691615D01*
X58976529Y37650448D01*
X59086998Y37598200D01*
X59191815Y37535375D01*
X59289967Y37462579D01*
X59380514Y37380514D01*
X59462579Y37289967D01*
X59535375Y37191815D01*
X59598200Y37086998D01*
X59650448Y36976529D01*
X59691615Y36861474D01*
X59721307Y36742935D01*
X59739238Y36622047D01*
X59745236Y36500000D01*
X59739238Y36377953D01*
X59721307Y36257065D01*
X59691615Y36138526D01*
X59650448Y36023471D01*
X59598200Y35913002D01*
X59535375Y35808185D01*
X59462579Y35710033D01*
X59380514Y35619486D01*
X59289967Y35537421D01*
X59191815Y35464625D01*
X59086998Y35401800D01*
X58976529Y35349552D01*
X58861474Y35308385D01*
X58742935Y35278693D01*
X58622047Y35260762D01*
X58500000Y35254764D01*
X58377953Y35260762D01*
X58257065Y35278693D01*
X58138526Y35308385D01*
X58023476Y35349551D01*
X57906787Y35404741D01*
X56227598Y33725551D01*
X56221122Y33717779D01*
X56167777Y33674003D01*
X56106229Y33641106D01*
X56039451Y33620849D01*
X55980066Y33615000D01*
X32681707Y33615000D01*
X32627720Y33500851D01*
X32577508Y33417079D01*
X32519325Y33338628D01*
X32453737Y33266263D01*
X32381372Y33200675D01*
X32302921Y33142492D01*
X32219145Y33092278D01*
X32130864Y33050525D01*
X32038900Y33017619D01*
X31944163Y32993889D01*
X31847543Y32979558D01*
X31750000Y32974764D01*
D02*
G37*
%LPC*%
G36*
X52330000Y53250000D02*
X51790000Y53250000D01*
X51790000Y53740000D01*
X52330000Y53740000D01*
X52330000Y53250000D01*
D02*
G37*
%LPC*%
G36*
X53170000Y53250000D02*
X52630000Y53250000D01*
X52630000Y53740000D01*
X53170000Y53740000D01*
X53170000Y53250000D01*
D02*
G37*
%LPC*%
G36*
X10280000Y50224752D02*
X10210883Y50228148D01*
X10142405Y50238307D01*
X10075284Y50255118D01*
X10010114Y50278438D01*
X9947551Y50308027D01*
X9888179Y50343614D01*
X9832599Y50384834D01*
X9781315Y50431315D01*
X9734834Y50482599D01*
X9693614Y50538179D01*
X9658027Y50597551D01*
X9628438Y50660114D01*
X9605118Y50725284D01*
X9588307Y50792405D01*
X9578148Y50860883D01*
X9574752Y50930000D01*
X9578148Y50999117D01*
X9588307Y51067595D01*
X9605118Y51134716D01*
X9628438Y51199886D01*
X9658027Y51262449D01*
X9693614Y51321821D01*
X9734834Y51377400D01*
X9775000Y51421716D01*
X9775000Y52035000D01*
X9635000Y52035000D01*
X9635000Y53425000D01*
X10925000Y53425000D01*
X10925000Y52035000D01*
X10785000Y52035000D01*
X10785000Y51421716D01*
X10825166Y51377400D01*
X10866386Y51321821D01*
X10901973Y51262449D01*
X10931562Y51199886D01*
X10954882Y51134716D01*
X10971693Y51067595D01*
X10981852Y50999117D01*
X10985248Y50930000D01*
X10981852Y50860883D01*
X10971693Y50792405D01*
X10954882Y50725284D01*
X10931562Y50660114D01*
X10901973Y50597551D01*
X10866386Y50538179D01*
X10825166Y50482599D01*
X10778685Y50431315D01*
X10727401Y50384834D01*
X10671821Y50343614D01*
X10612449Y50308027D01*
X10549886Y50278438D01*
X10484716Y50255118D01*
X10417595Y50238307D01*
X10349117Y50228148D01*
X10280000Y50224752D01*
D02*
G37*
%LPC*%
G36*
X7050000Y52760000D02*
X6560000Y52760000D01*
X6560000Y53300000D01*
X7050000Y53300000D01*
X7050000Y52760000D01*
D02*
G37*
%LPC*%
G36*
X6260000Y52760000D02*
X5770000Y52760000D01*
X5770000Y53300000D01*
X6260000Y53300000D01*
X6260000Y52760000D01*
D02*
G37*
%LPC*%
G36*
X13505000Y52900000D02*
X12690000Y52900000D01*
X12690000Y53240000D01*
X13505000Y53240000D01*
X13505000Y52900000D01*
D02*
G37*
%LPC*%
G36*
X12390000Y52900000D02*
X11575000Y52900000D01*
X11575000Y53240000D01*
X12390000Y53240000D01*
X12390000Y52900000D01*
D02*
G37*
%LPC*%
G36*
X53170000Y52460000D02*
X52630000Y52460000D01*
X52630000Y52950000D01*
X53170000Y52950000D01*
X53170000Y52460000D01*
D02*
G37*
%LPC*%
G36*
X52330000Y52460000D02*
X51790000Y52460000D01*
X51790000Y52950000D01*
X52330000Y52950000D01*
X52330000Y52460000D01*
D02*
G37*
%LPC*%
G36*
X48505000Y47815000D02*
X47215000Y47815000D01*
X47215000Y49205000D01*
X47505000Y49205000D01*
X47505000Y52945000D01*
X49495000Y52945000D01*
X49495000Y51855000D01*
X51785000Y51855000D01*
X51785000Y52145000D01*
X53175000Y52145000D01*
X53175000Y50855000D01*
X51785000Y50855000D01*
X51785000Y51145000D01*
X49495000Y51145000D01*
X49495000Y50055000D01*
X48215000Y50055000D01*
X48215000Y49205000D01*
X48505000Y49205000D01*
X48505000Y47815000D01*
D02*
G37*
%LPC*%
G36*
X7050000Y51920000D02*
X6560000Y51920000D01*
X6560000Y52460000D01*
X7050000Y52460000D01*
X7050000Y51920000D01*
D02*
G37*
%LPC*%
G36*
X6260000Y51920000D02*
X5770000Y51920000D01*
X5770000Y52460000D01*
X6260000Y52460000D01*
X6260000Y51920000D01*
D02*
G37*
%LPC*%
G36*
X51530000Y47804752D02*
X51460883Y47808148D01*
X51392405Y47818307D01*
X51325284Y47835118D01*
X51260114Y47858438D01*
X51197551Y47888027D01*
X51138179Y47923614D01*
X51082600Y47964834D01*
X51038284Y48005000D01*
X50405000Y48005000D01*
X50405000Y47815000D01*
X49115000Y47815000D01*
X49115000Y49205000D01*
X50405000Y49205000D01*
X50405000Y49015000D01*
X51038284Y49015000D01*
X51082600Y49055166D01*
X51138179Y49096386D01*
X51197551Y49131973D01*
X51260114Y49161562D01*
X51325284Y49184882D01*
X51392405Y49201693D01*
X51460883Y49211852D01*
X51530000Y49215248D01*
X51599117Y49211852D01*
X51667595Y49201693D01*
X51734716Y49184882D01*
X51799886Y49161562D01*
X51862449Y49131973D01*
X51921821Y49096386D01*
X51977401Y49055166D01*
X52028685Y49008685D01*
X52075166Y48957401D01*
X52116386Y48901821D01*
X52151973Y48842449D01*
X52181562Y48779886D01*
X52204882Y48714716D01*
X52221693Y48647595D01*
X52231852Y48579117D01*
X52235248Y48510000D01*
X52231852Y48440883D01*
X52221693Y48372405D01*
X52204882Y48305284D01*
X52181562Y48240114D01*
X52151973Y48177551D01*
X52116386Y48118179D01*
X52075166Y48062599D01*
X52028685Y48011315D01*
X51977401Y47964834D01*
X51921821Y47923614D01*
X51862449Y47888027D01*
X51799886Y47858438D01*
X51734716Y47835118D01*
X51667595Y47818307D01*
X51599117Y47808148D01*
X51530000Y47804752D01*
D02*
G37*
%LPC*%
G36*
X12744999Y46635000D02*
X9554999Y46635000D01*
X9554999Y48525000D01*
X12744999Y48525000D01*
X12744999Y47930000D01*
X13715000Y47930000D01*
X13715000Y48220000D01*
X15105000Y48220000D01*
X15105000Y46930000D01*
X13715000Y46930000D01*
X13715000Y47220000D01*
X12744999Y47220000D01*
X12744999Y46635000D01*
D02*
G37*
%LPC*%
G36*
X8040001Y47730000D02*
X6600001Y47730000D01*
X6600001Y48520000D01*
X8040001Y48520000D01*
X8040001Y47730000D01*
D02*
G37*
%LPC*%
G36*
X6300001Y47730000D02*
X4860001Y47730000D01*
X4860001Y48520000D01*
X6300001Y48520000D01*
X6300001Y47730000D01*
D02*
G37*
%LPC*%
G36*
X14500000Y35254764D02*
X14377953Y35260762D01*
X14257065Y35278693D01*
X14138526Y35308385D01*
X14023471Y35349552D01*
X13913002Y35401800D01*
X13808185Y35464625D01*
X13710033Y35537421D01*
X13619486Y35619486D01*
X13537421Y35710033D01*
X13464625Y35808185D01*
X13401800Y35913002D01*
X13349552Y36023471D01*
X13308385Y36138526D01*
X13278693Y36257065D01*
X13260762Y36377953D01*
X13254764Y36500000D01*
X13260762Y36622047D01*
X13278693Y36742935D01*
X13308385Y36861474D01*
X13349552Y36976529D01*
X13401800Y37086998D01*
X13464625Y37191815D01*
X13537421Y37289967D01*
X13619486Y37380514D01*
X13710033Y37462579D01*
X13808185Y37535375D01*
X13913002Y37598200D01*
X14023471Y37650448D01*
X14145000Y37693931D01*
X14145000Y41610066D01*
X14150849Y41669451D01*
X14171106Y41736229D01*
X14204003Y41797777D01*
X14247779Y41851122D01*
X14255551Y41857598D01*
X15985000Y43587047D01*
X15985000Y46930000D01*
X15645000Y46930000D01*
X15645000Y48220000D01*
X17035000Y48220000D01*
X17035000Y46930000D01*
X16695000Y46930000D01*
X16695000Y43429923D01*
X16689151Y43370548D01*
X16668893Y43303770D01*
X16635996Y43242222D01*
X16592220Y43188877D01*
X16584448Y43182401D01*
X14855000Y41452953D01*
X14855000Y37693931D01*
X14976529Y37650448D01*
X15086998Y37598200D01*
X15191815Y37535375D01*
X15289967Y37462579D01*
X15380514Y37380514D01*
X15462579Y37289967D01*
X15535375Y37191815D01*
X15598200Y37086998D01*
X15650448Y36976529D01*
X15691615Y36861474D01*
X15721307Y36742935D01*
X15739238Y36622047D01*
X15745236Y36500000D01*
X15739238Y36377953D01*
X15721307Y36257065D01*
X15691615Y36138526D01*
X15650448Y36023471D01*
X15598200Y35913002D01*
X15535375Y35808185D01*
X15462579Y35710033D01*
X15380514Y35619486D01*
X15289967Y35537421D01*
X15191815Y35464625D01*
X15086998Y35401800D01*
X14976529Y35349552D01*
X14861474Y35308385D01*
X14742935Y35278693D01*
X14622047Y35260762D01*
X14500000Y35254764D01*
D02*
G37*
%LPC*%
G36*
X8040001Y46640000D02*
X6600001Y46640000D01*
X6600001Y47430000D01*
X8040001Y47430000D01*
X8040001Y46640000D01*
D02*
G37*
%LPC*%
G36*
X6300001Y46640000D02*
X4860001Y46640000D01*
X4860001Y47430000D01*
X6300001Y47430000D01*
X6300001Y46640000D01*
D02*
G37*
%LPC*%
G36*
X48505000Y41135000D02*
X47215000Y41135000D01*
X47215000Y42525000D01*
X47505000Y42525000D01*
X47505000Y43140000D01*
X47165000Y43140000D01*
X47165000Y44980000D01*
X47565828Y44980000D01*
X47607780Y45031122D01*
X47615551Y45037598D01*
X48165000Y45587047D01*
X48165000Y47005000D01*
X49455000Y47005000D01*
X49455000Y45615000D01*
X49150242Y45615000D01*
X49105999Y45532226D01*
X49062220Y45478877D01*
X49054448Y45472401D01*
X48555000Y44972953D01*
X48555000Y43140000D01*
X48215000Y43140000D01*
X48215000Y42525000D01*
X48505000Y42525000D01*
X48505000Y41135000D01*
D02*
G37*
%LPC*%
G36*
X50455000Y43140000D02*
X49065000Y43140000D01*
X49065000Y44980000D01*
X50455000Y44980000D01*
X50455000Y44415000D01*
X51095000Y44415000D01*
X51095000Y44705000D01*
X52485000Y44705000D01*
X52485000Y44415000D01*
X52975000Y44415000D01*
X52975000Y44705000D01*
X54365000Y44705000D01*
X54365000Y43415000D01*
X52975000Y43415000D01*
X52975000Y43705000D01*
X52485000Y43705000D01*
X52485000Y43415000D01*
X51095000Y43415000D01*
X51095000Y43705000D01*
X50455000Y43705000D01*
X50455000Y43140000D01*
D02*
G37*
%LPC*%
G36*
X28645002Y38055000D02*
X25455002Y38055000D01*
X25455002Y39945000D01*
X26905000Y39945000D01*
X26905000Y42735000D01*
X26615000Y42735000D01*
X26615000Y44125000D01*
X27905000Y44125000D01*
X27905000Y42735000D01*
X27615000Y42735000D01*
X27615000Y39945000D01*
X28645002Y39945000D01*
X28645002Y38055000D01*
D02*
G37*
%LPC*%
G36*
X35750000Y40504764D02*
X35652457Y40509558D01*
X35555837Y40523889D01*
X35461100Y40547619D01*
X35369136Y40580525D01*
X35280855Y40622278D01*
X35197079Y40672492D01*
X35118628Y40730675D01*
X35046263Y40796263D01*
X34980675Y40868628D01*
X34922492Y40947079D01*
X34872278Y41030855D01*
X34830525Y41119136D01*
X34797619Y41211100D01*
X34784507Y41263446D01*
X33352954Y42695000D01*
X32515000Y42695000D01*
X32515000Y44085000D01*
X33805000Y44085000D01*
X33805000Y43247046D01*
X34952150Y42099897D01*
X35046264Y42203738D01*
X35118628Y42269325D01*
X35197079Y42327508D01*
X35280855Y42377722D01*
X35369136Y42419475D01*
X35461100Y42452381D01*
X35555837Y42476111D01*
X35652457Y42490442D01*
X35750000Y42495236D01*
X35847543Y42490442D01*
X35944163Y42476111D01*
X36038900Y42452381D01*
X36130864Y42419475D01*
X36219145Y42377722D01*
X36302921Y42327508D01*
X36381372Y42269325D01*
X36453737Y42203737D01*
X36519325Y42131372D01*
X36577508Y42052921D01*
X36627722Y41969145D01*
X36669475Y41880864D01*
X36702381Y41788900D01*
X36726111Y41694163D01*
X36740442Y41597543D01*
X36745236Y41500000D01*
X36740442Y41402457D01*
X36726111Y41305837D01*
X36702381Y41211100D01*
X36669475Y41119136D01*
X36627722Y41030855D01*
X36577508Y40947079D01*
X36519325Y40868628D01*
X36453737Y40796263D01*
X36381372Y40730675D01*
X36302921Y40672492D01*
X36219145Y40622278D01*
X36130864Y40580525D01*
X36038900Y40547619D01*
X35944163Y40523889D01*
X35847543Y40509558D01*
X35750000Y40504764D01*
D02*
G37*
%LPC*%
G36*
X32200000Y43540000D02*
X31710000Y43540000D01*
X31710000Y44080000D01*
X32200000Y44080000D01*
X32200000Y43540000D01*
D02*
G37*
%LPC*%
G36*
X31410000Y43540000D02*
X30920000Y43540000D01*
X30920000Y44080000D01*
X31410000Y44080000D01*
X31410000Y43540000D01*
D02*
G37*
%LPC*%
G36*
X32200000Y42700000D02*
X31710000Y42700000D01*
X31710000Y43240000D01*
X32200000Y43240000D01*
X32200000Y42700000D01*
D02*
G37*
%LPC*%
G36*
X31410000Y42700000D02*
X30920000Y42700000D01*
X30920000Y43240000D01*
X31410000Y43240000D01*
X31410000Y42700000D01*
D02*
G37*
%LPC*%
G36*
X53500000Y35254764D02*
X53377953Y35260762D01*
X53257065Y35278693D01*
X53138526Y35308385D01*
X53023471Y35349552D01*
X52913002Y35401800D01*
X52808185Y35464625D01*
X52710033Y35537421D01*
X52619486Y35619486D01*
X52537421Y35710033D01*
X52464625Y35808185D01*
X52401800Y35913002D01*
X52349552Y36023471D01*
X52306069Y36145000D01*
X49693931Y36145000D01*
X49650448Y36023471D01*
X49598200Y35913002D01*
X49535375Y35808185D01*
X49462579Y35710033D01*
X49380514Y35619486D01*
X49289967Y35537421D01*
X49191815Y35464625D01*
X49086998Y35401800D01*
X48976529Y35349552D01*
X48861474Y35308385D01*
X48742935Y35278693D01*
X48622047Y35260762D01*
X48500000Y35254764D01*
X48377953Y35260762D01*
X48257065Y35278693D01*
X48138526Y35308385D01*
X48023471Y35349552D01*
X47913002Y35401800D01*
X47808185Y35464625D01*
X47710033Y35537421D01*
X47619486Y35619486D01*
X47537421Y35710033D01*
X47464625Y35808185D01*
X47401800Y35913002D01*
X47349552Y36023471D01*
X47308385Y36138526D01*
X47278693Y36257065D01*
X47260762Y36377953D01*
X47254764Y36500000D01*
X47260762Y36622047D01*
X47278693Y36742935D01*
X47308385Y36861474D01*
X47349552Y36976529D01*
X47401800Y37086998D01*
X47464625Y37191815D01*
X47537421Y37289967D01*
X47619486Y37380514D01*
X47710033Y37462579D01*
X47808185Y37535375D01*
X47913002Y37598200D01*
X48023471Y37650448D01*
X48138526Y37691615D01*
X48257065Y37721307D01*
X48377953Y37739238D01*
X48500000Y37745236D01*
X48622047Y37739238D01*
X48742935Y37721307D01*
X48861474Y37691615D01*
X48976529Y37650448D01*
X49086998Y37598200D01*
X49191815Y37535375D01*
X49289967Y37462579D01*
X49380514Y37380514D01*
X49462579Y37289967D01*
X49535375Y37191815D01*
X49598200Y37086998D01*
X49650448Y36976529D01*
X49693931Y36855000D01*
X52306069Y36855000D01*
X52349552Y36976529D01*
X52401800Y37086998D01*
X52464625Y37191815D01*
X52537421Y37289967D01*
X52619486Y37380514D01*
X52710033Y37462579D01*
X52808185Y37535375D01*
X52913002Y37598200D01*
X53023471Y37650448D01*
X53145000Y37693931D01*
X53145000Y38152953D01*
X51546215Y39751738D01*
X51538372Y39758155D01*
X51494003Y39812223D01*
X51461106Y39873770D01*
X51440849Y39940548D01*
X51435000Y39999935D01*
X51435000Y41815000D01*
X51095000Y41815000D01*
X51095000Y43105000D01*
X52485000Y43105000D01*
X52485000Y41815000D01*
X52145000Y41815000D01*
X52145000Y40157047D01*
X53758148Y38543897D01*
X53795996Y38497776D01*
X53828893Y38436229D01*
X53849151Y38369451D01*
X53855000Y38310077D01*
X53855000Y37693931D01*
X53976529Y37650448D01*
X54086998Y37598200D01*
X54191815Y37535375D01*
X54289967Y37462579D01*
X54380514Y37380514D01*
X54462579Y37289967D01*
X54535375Y37191815D01*
X54598200Y37086998D01*
X54650448Y36976529D01*
X54691615Y36861474D01*
X54721307Y36742935D01*
X54739238Y36622047D01*
X54745236Y36500000D01*
X54739238Y36377953D01*
X54721307Y36257065D01*
X54691615Y36138526D01*
X54650448Y36023471D01*
X54598200Y35913002D01*
X54535375Y35808185D01*
X54462579Y35710033D01*
X54380514Y35619486D01*
X54289967Y35537421D01*
X54191815Y35464625D01*
X54086998Y35401800D01*
X53976529Y35349552D01*
X53861474Y35308385D01*
X53742935Y35278693D01*
X53622047Y35260762D01*
X53500000Y35254764D01*
D02*
G37*
%LPC*%
G36*
X54360000Y42610000D02*
X53820000Y42610000D01*
X53820000Y43100000D01*
X54360000Y43100000D01*
X54360000Y42610000D01*
D02*
G37*
%LPC*%
G36*
X53520000Y42610000D02*
X52980000Y42610000D01*
X52980000Y43100000D01*
X53520000Y43100000D01*
X53520000Y42610000D01*
D02*
G37*
%LPC*%
G36*
X50100000Y41980000D02*
X49610000Y41980000D01*
X49610000Y42520000D01*
X50100000Y42520000D01*
X50100000Y41980000D01*
D02*
G37*
%LPC*%
G36*
X49310000Y41980000D02*
X48820000Y41980000D01*
X48820000Y42520000D01*
X49310000Y42520000D01*
X49310000Y41980000D01*
D02*
G37*
%LPC*%
G36*
X40027607Y41650000D02*
X39200000Y41650000D01*
X39200000Y42477607D01*
X39243187Y42471201D01*
X39337447Y42447590D01*
X39428939Y42414853D01*
X39516792Y42373303D01*
X39600141Y42323344D01*
X39678196Y42265455D01*
X39750197Y42200197D01*
X39815455Y42128196D01*
X39873344Y42050141D01*
X39923303Y41966792D01*
X39964853Y41878939D01*
X39997590Y41787447D01*
X40021201Y41693187D01*
X40027607Y41650000D01*
D02*
G37*
%LPC*%
G36*
X38900000Y41650000D02*
X38072393Y41650000D01*
X38078799Y41693187D01*
X38102410Y41787447D01*
X38135147Y41878939D01*
X38176697Y41966792D01*
X38226656Y42050141D01*
X38284545Y42128196D01*
X38349803Y42200197D01*
X38421804Y42265455D01*
X38499859Y42323344D01*
X38583208Y42373303D01*
X38671061Y42414853D01*
X38762553Y42447590D01*
X38856813Y42471201D01*
X38900000Y42477607D01*
X38900000Y41650000D01*
D02*
G37*
%LPC*%
G36*
X53520000Y41820000D02*
X52980000Y41820000D01*
X52980000Y42310000D01*
X53520000Y42310000D01*
X53520000Y41820000D01*
D02*
G37*
%LPC*%
G36*
X54360000Y41820000D02*
X53820000Y41820000D01*
X53820000Y42310000D01*
X54360000Y42310000D01*
X54360000Y41820000D01*
D02*
G37*
%LPC*%
G36*
X9500000Y35254764D02*
X9377953Y35260762D01*
X9257065Y35278693D01*
X9138526Y35308385D01*
X9023471Y35349552D01*
X8913002Y35401800D01*
X8808185Y35464625D01*
X8710033Y35537421D01*
X8619486Y35619486D01*
X8537421Y35710033D01*
X8464625Y35808185D01*
X8401800Y35913002D01*
X8349552Y36023471D01*
X8306069Y36145000D01*
X5693931Y36145000D01*
X5650448Y36023471D01*
X5598200Y35913002D01*
X5535375Y35808185D01*
X5462579Y35710033D01*
X5380514Y35619486D01*
X5289967Y35537421D01*
X5191815Y35464625D01*
X5086998Y35401800D01*
X4976529Y35349552D01*
X4861474Y35308385D01*
X4742935Y35278693D01*
X4622047Y35260762D01*
X4500000Y35254764D01*
X4377953Y35260762D01*
X4257065Y35278693D01*
X4138526Y35308385D01*
X4023471Y35349552D01*
X3913002Y35401800D01*
X3808185Y35464625D01*
X3710033Y35537421D01*
X3619486Y35619486D01*
X3537421Y35710033D01*
X3464625Y35808185D01*
X3401800Y35913002D01*
X3349552Y36023471D01*
X3308385Y36138526D01*
X3278693Y36257065D01*
X3260762Y36377953D01*
X3254764Y36500000D01*
X3260762Y36622047D01*
X3278693Y36742935D01*
X3308385Y36861474D01*
X3349552Y36976529D01*
X3401800Y37086998D01*
X3464625Y37191815D01*
X3537421Y37289967D01*
X3619486Y37380514D01*
X3710033Y37462579D01*
X3808185Y37535375D01*
X3913002Y37598200D01*
X4023471Y37650448D01*
X4138526Y37691615D01*
X4257065Y37721307D01*
X4377953Y37739238D01*
X4500000Y37745236D01*
X4622047Y37739238D01*
X4742935Y37721307D01*
X4861474Y37691615D01*
X4976529Y37650448D01*
X5086998Y37598200D01*
X5191815Y37535375D01*
X5289967Y37462579D01*
X5380514Y37380514D01*
X5462579Y37289967D01*
X5535375Y37191815D01*
X5598200Y37086998D01*
X5650448Y36976529D01*
X5693931Y36855000D01*
X8306069Y36855000D01*
X8349552Y36976529D01*
X8401800Y37086998D01*
X8464625Y37191815D01*
X8537421Y37289967D01*
X8619486Y37380514D01*
X8710033Y37462579D01*
X8808185Y37535375D01*
X8913002Y37598200D01*
X9023471Y37650448D01*
X9138526Y37691615D01*
X9257065Y37721307D01*
X9365318Y37737364D01*
X10195000Y38567047D01*
X10195000Y40105000D01*
X9105000Y40105000D01*
X9105000Y42095000D01*
X11995000Y42095000D01*
X11995000Y40105000D01*
X10905000Y40105000D01*
X10905000Y38409923D01*
X10899151Y38350548D01*
X10878893Y38283770D01*
X10845996Y38222222D01*
X10802220Y38168877D01*
X10794448Y38162401D01*
X10177807Y37545761D01*
X10289965Y37462581D01*
X10380514Y37380514D01*
X10462579Y37289967D01*
X10535375Y37191815D01*
X10598200Y37086998D01*
X10650448Y36976529D01*
X10691615Y36861474D01*
X10721307Y36742935D01*
X10739238Y36622047D01*
X10745236Y36500000D01*
X10739238Y36377953D01*
X10721307Y36257065D01*
X10691615Y36138526D01*
X10650448Y36023471D01*
X10598200Y35913002D01*
X10535375Y35808185D01*
X10462579Y35710033D01*
X10380514Y35619486D01*
X10289967Y35537421D01*
X10191815Y35464625D01*
X10086998Y35401800D01*
X9976529Y35349552D01*
X9861474Y35308385D01*
X9742935Y35278693D01*
X9622047Y35260762D01*
X9500000Y35254764D01*
D02*
G37*
%LPC*%
G36*
X8490000Y41250000D02*
X7200000Y41250000D01*
X7200000Y42090000D01*
X8490000Y42090000D01*
X8490000Y41250000D01*
D02*
G37*
%LPC*%
G36*
X6900000Y41250000D02*
X5610000Y41250000D01*
X5610000Y42090000D01*
X6900000Y42090000D01*
X6900000Y41250000D01*
D02*
G37*
%LPC*%
G36*
X50100000Y41140000D02*
X49610000Y41140000D01*
X49610000Y41680000D01*
X50100000Y41680000D01*
X50100000Y41140000D01*
D02*
G37*
%LPC*%
G36*
X49310000Y41140000D02*
X48820000Y41140000D01*
X48820000Y41680000D01*
X49310000Y41680000D01*
X49310000Y41140000D01*
D02*
G37*
%LPC*%
G36*
X39200000Y40522393D02*
X39200000Y41350000D01*
X40027607Y41350000D01*
X40021201Y41306813D01*
X39997590Y41212553D01*
X39964853Y41121061D01*
X39923303Y41033208D01*
X39873344Y40949859D01*
X39815455Y40871804D01*
X39750197Y40799803D01*
X39678196Y40734545D01*
X39600141Y40676656D01*
X39516792Y40626697D01*
X39428939Y40585147D01*
X39337447Y40552410D01*
X39243187Y40528799D01*
X39200000Y40522393D01*
D02*
G37*
%LPC*%
G36*
X38900000Y40522393D02*
X38856813Y40528799D01*
X38762553Y40552410D01*
X38671061Y40585147D01*
X38583208Y40626697D01*
X38499859Y40676656D01*
X38421804Y40734545D01*
X38349803Y40799803D01*
X38284545Y40871804D01*
X38226656Y40949859D01*
X38176697Y41033208D01*
X38135147Y41121061D01*
X38102410Y41212553D01*
X38078799Y41306813D01*
X38072393Y41350000D01*
X38900000Y41350000D01*
X38900000Y40522393D01*
D02*
G37*
%LPC*%
G36*
X6900000Y40110000D02*
X5610000Y40110000D01*
X5610000Y40950000D01*
X6900000Y40950000D01*
X6900000Y40110000D01*
D02*
G37*
%LPC*%
G36*
X8490000Y40110000D02*
X7200000Y40110000D01*
X7200000Y40950000D01*
X8490000Y40950000D01*
X8490000Y40110000D01*
D02*
G37*
%LPC*%
G36*
X38900000Y39150000D02*
X38072393Y39150000D01*
X38078799Y39193187D01*
X38102410Y39287447D01*
X38135147Y39378939D01*
X38176697Y39466792D01*
X38226656Y39550141D01*
X38284545Y39628196D01*
X38349803Y39700197D01*
X38421804Y39765455D01*
X38499859Y39823344D01*
X38583208Y39873303D01*
X38671061Y39914853D01*
X38762553Y39947590D01*
X38856813Y39971201D01*
X38900000Y39977607D01*
X38900000Y39150000D01*
D02*
G37*
%LPC*%
G36*
X40027607Y39150000D02*
X39200000Y39150000D01*
X39200000Y39977607D01*
X39243187Y39971201D01*
X39337447Y39947590D01*
X39428939Y39914853D01*
X39516792Y39873303D01*
X39600141Y39823344D01*
X39678196Y39765455D01*
X39750197Y39700197D01*
X39815455Y39628196D01*
X39873344Y39550141D01*
X39923303Y39466792D01*
X39964853Y39378939D01*
X39997590Y39287447D01*
X40021201Y39193187D01*
X40027607Y39150000D01*
D02*
G37*
%LPC*%
G36*
X39200000Y38022393D02*
X39200000Y38850000D01*
X40027607Y38850000D01*
X40021201Y38806813D01*
X39997590Y38712553D01*
X39964853Y38621061D01*
X39923303Y38533208D01*
X39873344Y38449859D01*
X39815455Y38371804D01*
X39750197Y38299803D01*
X39678196Y38234545D01*
X39600141Y38176656D01*
X39516792Y38126697D01*
X39428939Y38085147D01*
X39337447Y38052410D01*
X39243187Y38028799D01*
X39200000Y38022393D01*
D02*
G37*
%LPC*%
G36*
X38900000Y38022393D02*
X38856813Y38028799D01*
X38762553Y38052410D01*
X38671061Y38085147D01*
X38583208Y38126697D01*
X38499859Y38176656D01*
X38421804Y38234545D01*
X38349803Y38299803D01*
X38284545Y38371804D01*
X38226656Y38449859D01*
X38176697Y38533208D01*
X38135147Y38621061D01*
X38102410Y38712553D01*
X38078799Y38806813D01*
X38072393Y38850000D01*
X38900000Y38850000D01*
X38900000Y38022393D01*
D02*
G37*
%LPC*%
G36*
X35750000Y35504764D02*
X35652457Y35509558D01*
X35555837Y35523889D01*
X35461100Y35547619D01*
X35369136Y35580525D01*
X35280855Y35622278D01*
X35197079Y35672492D01*
X35118628Y35730675D01*
X35046263Y35796263D01*
X34980675Y35868628D01*
X34922492Y35947079D01*
X34872278Y36030855D01*
X34830525Y36119136D01*
X34797619Y36211100D01*
X34773889Y36305837D01*
X34759558Y36402457D01*
X34754764Y36500000D01*
X34759558Y36597543D01*
X34773889Y36694163D01*
X34797619Y36788900D01*
X34830525Y36880864D01*
X34872278Y36969145D01*
X34922492Y37052921D01*
X34980675Y37131372D01*
X35046263Y37203737D01*
X35118628Y37269325D01*
X35197079Y37327508D01*
X35280855Y37377722D01*
X35369136Y37419475D01*
X35461100Y37452381D01*
X35555837Y37476111D01*
X35652457Y37490442D01*
X35750000Y37495236D01*
X35847543Y37490442D01*
X35944163Y37476111D01*
X36038900Y37452381D01*
X36130864Y37419475D01*
X36219145Y37377722D01*
X36302921Y37327508D01*
X36381372Y37269325D01*
X36453737Y37203737D01*
X36519325Y37131372D01*
X36577508Y37052921D01*
X36627722Y36969145D01*
X36669475Y36880864D01*
X36702381Y36788900D01*
X36726111Y36694163D01*
X36740442Y36597543D01*
X36745236Y36500000D01*
X36740442Y36402457D01*
X36726111Y36305837D01*
X36702381Y36211100D01*
X36669475Y36119136D01*
X36627722Y36030855D01*
X36577508Y35947079D01*
X36519325Y35868628D01*
X36453737Y35796263D01*
X36381372Y35730675D01*
X36302921Y35672492D01*
X36219145Y35622278D01*
X36130864Y35580525D01*
X36038900Y35547619D01*
X35944163Y35523889D01*
X35847543Y35509558D01*
X35750000Y35504764D01*
D02*
G37*
%LPC*%
G36*
X38900000Y36650000D02*
X38072393Y36650000D01*
X38078799Y36693187D01*
X38102410Y36787447D01*
X38135147Y36878939D01*
X38176697Y36966792D01*
X38226656Y37050141D01*
X38284545Y37128196D01*
X38349803Y37200197D01*
X38421804Y37265455D01*
X38499859Y37323344D01*
X38583208Y37373303D01*
X38671061Y37414853D01*
X38762553Y37447590D01*
X38856813Y37471201D01*
X38900000Y37477607D01*
X38900000Y36650000D01*
D02*
G37*
%LPC*%
G36*
X40027607Y36650000D02*
X39200000Y36650000D01*
X39200000Y37477607D01*
X39243187Y37471201D01*
X39337447Y37447590D01*
X39428939Y37414853D01*
X39516792Y37373303D01*
X39600141Y37323344D01*
X39678196Y37265455D01*
X39750197Y37200197D01*
X39815455Y37128196D01*
X39873344Y37050141D01*
X39923303Y36966792D01*
X39964853Y36878939D01*
X39997590Y36787447D01*
X40021201Y36693187D01*
X40027607Y36650000D01*
D02*
G37*
%LPC*%
G36*
X39200000Y35522393D02*
X39200000Y36350000D01*
X40027607Y36350000D01*
X40021201Y36306813D01*
X39997590Y36212553D01*
X39964853Y36121061D01*
X39923303Y36033208D01*
X39873344Y35949859D01*
X39815455Y35871804D01*
X39750197Y35799803D01*
X39678196Y35734545D01*
X39600141Y35676656D01*
X39516792Y35626697D01*
X39428939Y35585147D01*
X39337447Y35552410D01*
X39243187Y35528799D01*
X39200000Y35522393D01*
D02*
G37*
%LPC*%
G36*
X38900000Y35522393D02*
X38856813Y35528799D01*
X38762553Y35552410D01*
X38671061Y35585147D01*
X38583208Y35626697D01*
X38499859Y35676656D01*
X38421804Y35734545D01*
X38349803Y35799803D01*
X38284545Y35871804D01*
X38226656Y35949859D01*
X38176697Y36033208D01*
X38135147Y36121061D01*
X38102410Y36212553D01*
X38078799Y36306813D01*
X38072393Y36350000D01*
X38900000Y36350000D01*
X38900000Y35522393D01*
D02*
G37*
%LPC*%
G36*
X26800000Y31580000D02*
X25972393Y31580000D01*
X25978799Y31623187D01*
X26002410Y31717447D01*
X26035147Y31808939D01*
X26076697Y31896792D01*
X26126656Y31980141D01*
X26184545Y32058196D01*
X26249803Y32130197D01*
X26321804Y32195455D01*
X26399859Y32253344D01*
X26483208Y32303303D01*
X26571061Y32344853D01*
X26662553Y32377590D01*
X26756813Y32401201D01*
X26800000Y32407607D01*
X26800000Y31580000D01*
D02*
G37*
%LPC*%
G36*
X27927607Y31580000D02*
X27100000Y31580000D01*
X27100000Y32407607D01*
X27143187Y32401201D01*
X27237447Y32377590D01*
X27328939Y32344853D01*
X27416792Y32303303D01*
X27500141Y32253344D01*
X27578196Y32195455D01*
X27650197Y32130197D01*
X27715455Y32058196D01*
X27773344Y31980141D01*
X27823303Y31896792D01*
X27864853Y31808939D01*
X27897590Y31717447D01*
X27921201Y31623187D01*
X27927607Y31580000D01*
D02*
G37*
%LPC*%
G36*
X31600000Y31580000D02*
X30772393Y31580000D01*
X30778799Y31623187D01*
X30802410Y31717447D01*
X30835147Y31808939D01*
X30876697Y31896792D01*
X30926656Y31980141D01*
X30984545Y32058196D01*
X31049803Y32130197D01*
X31121804Y32195455D01*
X31199859Y32253344D01*
X31283208Y32303303D01*
X31371061Y32344853D01*
X31462553Y32377590D01*
X31556813Y32401201D01*
X31600000Y32407607D01*
X31600000Y31580000D01*
D02*
G37*
%LPC*%
G36*
X32727607Y31580000D02*
X31900000Y31580000D01*
X31900000Y32407607D01*
X31943187Y32401201D01*
X32037447Y32377590D01*
X32128939Y32344853D01*
X32216792Y32303303D01*
X32300141Y32253344D01*
X32378196Y32195455D01*
X32450197Y32130197D01*
X32515455Y32058196D01*
X32573344Y31980141D01*
X32623303Y31896792D01*
X32664853Y31808939D01*
X32697590Y31717447D01*
X32721201Y31623187D01*
X32727607Y31580000D01*
D02*
G37*
%LPC*%
G36*
X31900000Y30452393D02*
X31900000Y31280000D01*
X32727607Y31280000D01*
X32721201Y31236813D01*
X32697590Y31142553D01*
X32664853Y31051061D01*
X32623303Y30963208D01*
X32573344Y30879859D01*
X32515455Y30801804D01*
X32450197Y30729803D01*
X32378196Y30664545D01*
X32300141Y30606656D01*
X32216792Y30556697D01*
X32128939Y30515147D01*
X32037447Y30482410D01*
X31943187Y30458799D01*
X31900000Y30452393D01*
D02*
G37*
%LPC*%
G36*
X31600000Y30452393D02*
X31556813Y30458799D01*
X31462553Y30482410D01*
X31371061Y30515147D01*
X31283208Y30556697D01*
X31199859Y30606656D01*
X31121804Y30664545D01*
X31049803Y30729803D01*
X30984545Y30801804D01*
X30926656Y30879859D01*
X30876697Y30963208D01*
X30835147Y31051061D01*
X30802410Y31142553D01*
X30778799Y31236813D01*
X30772393Y31280000D01*
X31600000Y31280000D01*
X31600000Y30452393D01*
D02*
G37*
%LPC*%
G36*
X27100000Y30452393D02*
X27100000Y31280000D01*
X27927607Y31280000D01*
X27921201Y31236813D01*
X27897590Y31142553D01*
X27864853Y31051061D01*
X27823303Y30963208D01*
X27773344Y30879859D01*
X27715455Y30801804D01*
X27650197Y30729803D01*
X27578196Y30664545D01*
X27500141Y30606656D01*
X27416792Y30556697D01*
X27328939Y30515147D01*
X27237447Y30482410D01*
X27143187Y30458799D01*
X27100000Y30452393D01*
D02*
G37*
%LPC*%
G36*
X26800000Y30452393D02*
X26756813Y30458799D01*
X26662553Y30482410D01*
X26571061Y30515147D01*
X26483208Y30556697D01*
X26399859Y30606656D01*
X26321804Y30664545D01*
X26249803Y30729803D01*
X26184545Y30801804D01*
X26126656Y30879859D01*
X26076697Y30963208D01*
X26035147Y31051061D01*
X26002410Y31142553D01*
X25978799Y31236813D01*
X25972393Y31280000D01*
X26800000Y31280000D01*
X26800000Y30452393D01*
D02*
G37*
%LPC*%
G36*
X40255000Y8645000D02*
X31745000Y8645000D01*
X31745000Y14285000D01*
X35745000Y14285000D01*
X35745000Y17555000D01*
X40255000Y17555000D01*
X40255000Y8645000D01*
D02*
G37*
%LPD*%
G36*
X40000000Y8900000D02*
X40000000Y17300000D01*
X36000000Y17300000D01*
X36000000Y14030000D01*
X32000000Y14030000D01*
X32000000Y8900000D01*
X40000000Y8900000D01*
D02*
G37*
%LPC*%
G36*
X31255000Y11575000D02*
X22745000Y11575000D01*
X22745000Y17555000D01*
X31255000Y17555000D01*
X31255000Y11575000D01*
D02*
G37*
%LPD*%
G36*
X31000000Y11830000D02*
X31000000Y17300000D01*
X23000000Y17300000D01*
X23000000Y11830000D01*
X31000000Y11830000D01*
D02*
G37*
%LPC*%
G36*
X33740000Y16010000D02*
X33150000Y16010000D01*
X33150000Y16950000D01*
X33740000Y16950000D01*
X33740000Y16010000D01*
D02*
G37*
%LPC*%
G36*
X32850000Y16010000D02*
X32260000Y16010000D01*
X32260000Y16950000D01*
X32850000Y16950000D01*
X32850000Y16010000D01*
D02*
G37*
%LPC*%
G36*
X33740000Y14770000D02*
X33150000Y14770000D01*
X33150000Y15710000D01*
X33740000Y15710000D01*
X33740000Y14770000D01*
D02*
G37*
%LPC*%
G36*
X32850000Y14770000D02*
X32260000Y14770000D01*
X32260000Y15710000D01*
X32850000Y15710000D01*
X32850000Y14770000D01*
D02*
G37*
%LPC*%
G36*
X44840000Y13080000D02*
X43200000Y13080000D01*
X43200000Y13920000D01*
X44840000Y13920000D01*
X44840000Y13080000D01*
D02*
G37*
%LPC*%
G36*
X42900000Y13080000D02*
X41260000Y13080000D01*
X41260000Y13920000D01*
X42900000Y13920000D01*
X42900000Y13080000D01*
D02*
G37*
%LPC*%
G36*
X21740000Y13080000D02*
X20100000Y13080000D01*
X20100000Y13920000D01*
X21740000Y13920000D01*
X21740000Y13080000D01*
D02*
G37*
%LPC*%
G36*
X19800000Y13080000D02*
X18160000Y13080000D01*
X18160000Y13920000D01*
X19800000Y13920000D01*
X19800000Y13080000D01*
D02*
G37*
%LPC*%
G36*
X44840000Y11940000D02*
X43200000Y11940000D01*
X43200000Y12780000D01*
X44840000Y12780000D01*
X44840000Y11940000D01*
D02*
G37*
%LPC*%
G36*
X42900000Y11940000D02*
X41260000Y11940000D01*
X41260000Y12780000D01*
X42900000Y12780000D01*
X42900000Y11940000D01*
D02*
G37*
%LPC*%
G36*
X21740000Y11940000D02*
X20100000Y11940000D01*
X20100000Y12780000D01*
X21740000Y12780000D01*
X21740000Y11940000D01*
D02*
G37*
%LPC*%
G36*
X19800000Y11940000D02*
X18160000Y11940000D01*
X18160000Y12780000D01*
X19800000Y12780000D01*
X19800000Y11940000D01*
D02*
G37*
%LPC*%
G36*
X31405000Y1745000D02*
X29595000Y1745000D01*
X29595000Y5445000D01*
X28844859Y5445000D01*
X28848141Y11355000D01*
X31155000Y11355000D01*
X31155000Y7855000D01*
X31405000Y7855000D01*
X31405000Y1745000D01*
D02*
G37*
%LPD*%
G36*
X31150000Y2000000D02*
X31150000Y7600000D01*
X30900000Y7600000D01*
X30900000Y11100000D01*
X29103000Y11100000D01*
X29100000Y5700000D01*
X29850000Y5700000D01*
X29850000Y2000000D01*
X31150000Y2000000D01*
D02*
G37*
%LPC*%
G36*
X10477083Y5646027D02*
X10389343Y5650339D01*
X10302427Y5663231D01*
X10217212Y5684576D01*
X10134490Y5714176D01*
X10055073Y5751736D01*
X9979720Y5796901D01*
X9909156Y5849235D01*
X9844057Y5908237D01*
X9785055Y5973336D01*
X9732721Y6043900D01*
X9687556Y6119253D01*
X9649996Y6198670D01*
X9620396Y6281392D01*
X9599051Y6366607D01*
X9586159Y6453523D01*
X9581847Y6541263D01*
X9586159Y6629003D01*
X9599051Y6715919D01*
X9620396Y6801134D01*
X9649996Y6883856D01*
X9687556Y6963273D01*
X9732721Y7038626D01*
X9785055Y7109190D01*
X9844057Y7174289D01*
X9909156Y7233291D01*
X9979720Y7285625D01*
X10055073Y7330790D01*
X10134490Y7368350D01*
X10217212Y7397950D01*
X10302427Y7419295D01*
X10389343Y7432187D01*
X10477083Y7436499D01*
X10564823Y7432187D01*
X10651739Y7419295D01*
X10736954Y7397950D01*
X10819676Y7368350D01*
X10899093Y7330790D01*
X10974446Y7285625D01*
X11045010Y7233291D01*
X11110109Y7174289D01*
X11169111Y7109190D01*
X11221445Y7038626D01*
X11266610Y6963273D01*
X11304170Y6883856D01*
X11333770Y6801134D01*
X11355115Y6715919D01*
X11368007Y6629003D01*
X11372319Y6541263D01*
X11368007Y6453523D01*
X11355115Y6366607D01*
X11333770Y6281392D01*
X11304170Y6198670D01*
X11266610Y6119253D01*
X11221445Y6043900D01*
X11169111Y5973336D01*
X11110109Y5908237D01*
X11045010Y5849235D01*
X10974446Y5796901D01*
X10899093Y5751736D01*
X10819676Y5714176D01*
X10736954Y5684576D01*
X10651739Y5663231D01*
X10564823Y5650339D01*
X10477083Y5646027D01*
D02*
G37*
%LPC*%
G36*
X54477083Y5646027D02*
X54389343Y5650339D01*
X54302427Y5663231D01*
X54217212Y5684576D01*
X54134490Y5714176D01*
X54055073Y5751736D01*
X53979720Y5796901D01*
X53909156Y5849235D01*
X53844057Y5908237D01*
X53785055Y5973336D01*
X53732721Y6043900D01*
X53687556Y6119253D01*
X53649996Y6198670D01*
X53620396Y6281392D01*
X53599051Y6366607D01*
X53586159Y6453523D01*
X53581847Y6541263D01*
X53586159Y6629003D01*
X53599051Y6715919D01*
X53620396Y6801134D01*
X53649996Y6883856D01*
X53687556Y6963273D01*
X53732721Y7038626D01*
X53785055Y7109190D01*
X53844057Y7174289D01*
X53909156Y7233291D01*
X53979720Y7285625D01*
X54055073Y7330790D01*
X54134490Y7368350D01*
X54217212Y7397950D01*
X54302427Y7419295D01*
X54389343Y7432187D01*
X54477083Y7436499D01*
X54564823Y7432187D01*
X54651739Y7419295D01*
X54736954Y7397950D01*
X54819676Y7368350D01*
X54899093Y7330790D01*
X54974446Y7285625D01*
X55045010Y7233291D01*
X55110109Y7174289D01*
X55169111Y7109190D01*
X55221445Y7038626D01*
X55266610Y6963273D01*
X55304170Y6883856D01*
X55333770Y6801134D01*
X55355115Y6715919D01*
X55368007Y6629003D01*
X55372319Y6541263D01*
X55368007Y6453523D01*
X55355115Y6366607D01*
X55333770Y6281392D01*
X55304170Y6198670D01*
X55266610Y6119253D01*
X55221445Y6043900D01*
X55169111Y5973336D01*
X55110109Y5908237D01*
X55045010Y5849235D01*
X54974446Y5796901D01*
X54899093Y5751736D01*
X54819676Y5714176D01*
X54736954Y5684576D01*
X54651739Y5663231D01*
X54564823Y5650339D01*
X54477083Y5646027D01*
D02*
G37*
%LPC*%
G36*
X53353718Y6691263D02*
X52627083Y6691263D01*
X52627083Y7417898D01*
X52650762Y7414385D01*
X52735496Y7393160D01*
X52817763Y7363725D01*
X52896736Y7326373D01*
X52971665Y7281463D01*
X53041841Y7229417D01*
X53106569Y7170749D01*
X53165237Y7106021D01*
X53217283Y7035845D01*
X53262193Y6960916D01*
X53299545Y6881943D01*
X53328980Y6799676D01*
X53350205Y6714942D01*
X53353718Y6691263D01*
D02*
G37*
%LPC*%
G36*
X52327083Y6691263D02*
X51600448Y6691263D01*
X51603961Y6714942D01*
X51625186Y6799676D01*
X51654621Y6881943D01*
X51691973Y6960916D01*
X51736883Y7035845D01*
X51788929Y7106021D01*
X51847597Y7170749D01*
X51912325Y7229417D01*
X51982501Y7281463D01*
X52057430Y7326373D01*
X52136403Y7363725D01*
X52218670Y7393160D01*
X52303404Y7414385D01*
X52327083Y7417898D01*
X52327083Y6691263D01*
D02*
G37*
%LPC*%
G36*
X8327083Y6691263D02*
X7600448Y6691263D01*
X7603961Y6714942D01*
X7625186Y6799676D01*
X7654621Y6881943D01*
X7691973Y6960916D01*
X7736883Y7035845D01*
X7788929Y7106021D01*
X7847597Y7170749D01*
X7912325Y7229417D01*
X7982501Y7281463D01*
X8057430Y7326373D01*
X8136403Y7363725D01*
X8218670Y7393160D01*
X8303404Y7414385D01*
X8327083Y7417898D01*
X8327083Y6691263D01*
D02*
G37*
%LPC*%
G36*
X9353718Y6691263D02*
X8627083Y6691263D01*
X8627083Y7417898D01*
X8650762Y7414385D01*
X8735496Y7393160D01*
X8817763Y7363725D01*
X8896736Y7326373D01*
X8971665Y7281463D01*
X9041841Y7229417D01*
X9106569Y7170749D01*
X9165237Y7106021D01*
X9217283Y7035845D01*
X9262193Y6960916D01*
X9299545Y6881943D01*
X9328980Y6799676D01*
X9350205Y6714942D01*
X9353718Y6691263D01*
D02*
G37*
%LPC*%
G36*
X52627083Y5664628D02*
X52627083Y6391263D01*
X53353718Y6391263D01*
X53350205Y6367584D01*
X53328980Y6282850D01*
X53299545Y6200583D01*
X53262193Y6121610D01*
X53217283Y6046681D01*
X53165237Y5976505D01*
X53106569Y5911777D01*
X53041841Y5853109D01*
X52971665Y5801063D01*
X52896736Y5756153D01*
X52817763Y5718801D01*
X52735496Y5689366D01*
X52650762Y5668141D01*
X52627083Y5664628D01*
D02*
G37*
%LPC*%
G36*
X52327083Y5664628D02*
X52303404Y5668141D01*
X52218670Y5689366D01*
X52136403Y5718801D01*
X52057430Y5756153D01*
X51982501Y5801063D01*
X51912325Y5853109D01*
X51847597Y5911777D01*
X51788929Y5976505D01*
X51736883Y6046681D01*
X51691973Y6121610D01*
X51654621Y6200583D01*
X51625186Y6282850D01*
X51603961Y6367584D01*
X51600448Y6391263D01*
X52327083Y6391263D01*
X52327083Y5664628D01*
D02*
G37*
%LPC*%
G36*
X8627083Y5664628D02*
X8627083Y6391263D01*
X9353718Y6391263D01*
X9350205Y6367584D01*
X9328980Y6282850D01*
X9299545Y6200583D01*
X9262193Y6121610D01*
X9217283Y6046681D01*
X9165237Y5976505D01*
X9106569Y5911777D01*
X9041841Y5853109D01*
X8971665Y5801063D01*
X8896736Y5756153D01*
X8817763Y5718801D01*
X8735496Y5689366D01*
X8650762Y5668141D01*
X8627083Y5664628D01*
D02*
G37*
%LPC*%
G36*
X8327083Y5664628D02*
X8303404Y5668141D01*
X8218670Y5689366D01*
X8136403Y5718801D01*
X8057430Y5756153D01*
X7982501Y5801063D01*
X7912325Y5853109D01*
X7847597Y5911777D01*
X7788929Y5976505D01*
X7736883Y6046681D01*
X7691973Y6121610D01*
X7654621Y6200583D01*
X7625186Y6282850D01*
X7603961Y6367584D01*
X7600448Y6391263D01*
X8327083Y6391263D01*
X8327083Y5664628D01*
D02*
G37*
%LPC*%
G36*
X36502917Y2174501D02*
X36415177Y2178813D01*
X36328261Y2191705D01*
X36243046Y2213050D01*
X36160324Y2242650D01*
X36080907Y2280210D01*
X36005554Y2325375D01*
X35934990Y2377709D01*
X35869891Y2436711D01*
X35810889Y2501810D01*
X35758555Y2572374D01*
X35713390Y2647727D01*
X35675830Y2727144D01*
X35646230Y2809866D01*
X35624885Y2895081D01*
X35611993Y2981997D01*
X35607681Y3069737D01*
X35611993Y3157477D01*
X35624885Y3244393D01*
X35646230Y3329608D01*
X35675830Y3412330D01*
X35713390Y3491747D01*
X35758555Y3567100D01*
X35810889Y3637664D01*
X35869891Y3702763D01*
X35934990Y3761765D01*
X36005554Y3814099D01*
X36080907Y3859264D01*
X36160324Y3896824D01*
X36243046Y3926424D01*
X36328261Y3947769D01*
X36415177Y3960661D01*
X36502917Y3964973D01*
X36590657Y3960661D01*
X36677573Y3947769D01*
X36762788Y3926424D01*
X36845510Y3896824D01*
X36924927Y3859264D01*
X37000280Y3814099D01*
X37070844Y3761765D01*
X37135943Y3702763D01*
X37194945Y3637664D01*
X37247279Y3567100D01*
X37292444Y3491747D01*
X37330004Y3412330D01*
X37359604Y3329608D01*
X37380949Y3244393D01*
X37393841Y3157477D01*
X37398153Y3069737D01*
X37393841Y2981997D01*
X37380949Y2895081D01*
X37359604Y2809866D01*
X37330004Y2727144D01*
X37292444Y2647727D01*
X37247279Y2572374D01*
X37194945Y2501810D01*
X37135943Y2436711D01*
X37070844Y2377709D01*
X37000280Y2325375D01*
X36924927Y2280210D01*
X36845510Y2242650D01*
X36762788Y2213050D01*
X36677573Y2191705D01*
X36590657Y2178813D01*
X36502917Y2174501D01*
D02*
G37*
%LPC*%
G36*
X34502917Y2174501D02*
X34415177Y2178813D01*
X34328261Y2191705D01*
X34243046Y2213050D01*
X34160324Y2242650D01*
X34080907Y2280210D01*
X34005554Y2325375D01*
X33934990Y2377709D01*
X33869891Y2436711D01*
X33810889Y2501810D01*
X33758555Y2572374D01*
X33713390Y2647727D01*
X33675830Y2727144D01*
X33646230Y2809866D01*
X33624885Y2895081D01*
X33611993Y2981997D01*
X33607681Y3069737D01*
X33611993Y3157477D01*
X33624885Y3244393D01*
X33646230Y3329608D01*
X33675830Y3412330D01*
X33713390Y3491747D01*
X33758555Y3567100D01*
X33810889Y3637664D01*
X33869891Y3702763D01*
X33934990Y3761765D01*
X34005554Y3814099D01*
X34080907Y3859264D01*
X34160324Y3896824D01*
X34243046Y3926424D01*
X34328261Y3947769D01*
X34415177Y3960661D01*
X34502917Y3964973D01*
X34590657Y3960661D01*
X34677573Y3947769D01*
X34762788Y3926424D01*
X34845510Y3896824D01*
X34924927Y3859264D01*
X35000280Y3814099D01*
X35070844Y3761765D01*
X35135943Y3702763D01*
X35194945Y3637664D01*
X35247279Y3567100D01*
X35292444Y3491747D01*
X35330004Y3412330D01*
X35359604Y3329608D01*
X35380949Y3244393D01*
X35393841Y3157477D01*
X35398153Y3069737D01*
X35393841Y2981997D01*
X35380949Y2895081D01*
X35359604Y2809866D01*
X35330004Y2727144D01*
X35292444Y2647727D01*
X35247279Y2572374D01*
X35194945Y2501810D01*
X35135943Y2436711D01*
X35070844Y2377709D01*
X35000280Y2325375D01*
X34924927Y2280210D01*
X34845510Y2242650D01*
X34762788Y2213050D01*
X34677573Y2191705D01*
X34590657Y2178813D01*
X34502917Y2174501D01*
D02*
G37*
%LPC*%
G36*
X32502917Y2174501D02*
X32415177Y2178813D01*
X32328261Y2191705D01*
X32243046Y2213050D01*
X32160324Y2242650D01*
X32080907Y2280210D01*
X32005554Y2325375D01*
X31934990Y2377709D01*
X31869891Y2436711D01*
X31810889Y2501810D01*
X31758555Y2572374D01*
X31713390Y2647727D01*
X31675830Y2727144D01*
X31646230Y2809866D01*
X31624885Y2895081D01*
X31611993Y2981997D01*
X31607681Y3069737D01*
X31611993Y3157477D01*
X31624885Y3244393D01*
X31646230Y3329608D01*
X31675830Y3412330D01*
X31713390Y3491747D01*
X31758555Y3567100D01*
X31810889Y3637664D01*
X31869891Y3702763D01*
X31934990Y3761765D01*
X32005554Y3814099D01*
X32080907Y3859264D01*
X32160324Y3896824D01*
X32243046Y3926424D01*
X32328261Y3947769D01*
X32415177Y3960661D01*
X32502917Y3964973D01*
X32590657Y3960661D01*
X32677573Y3947769D01*
X32762788Y3926424D01*
X32845510Y3896824D01*
X32924927Y3859264D01*
X33000280Y3814099D01*
X33070844Y3761765D01*
X33135943Y3702763D01*
X33194945Y3637664D01*
X33247279Y3567100D01*
X33292444Y3491747D01*
X33330004Y3412330D01*
X33359604Y3329608D01*
X33380949Y3244393D01*
X33393841Y3157477D01*
X33398153Y3069737D01*
X33393841Y2981997D01*
X33380949Y2895081D01*
X33359604Y2809866D01*
X33330004Y2727144D01*
X33292444Y2647727D01*
X33247279Y2572374D01*
X33194945Y2501810D01*
X33135943Y2436711D01*
X33070844Y2377709D01*
X33000280Y2325375D01*
X32924927Y2280210D01*
X32845510Y2242650D01*
X32762788Y2213050D01*
X32677573Y2191705D01*
X32590657Y2178813D01*
X32502917Y2174501D01*
D02*
G37*
%LPC*%
G36*
X26502917Y2174501D02*
X26415177Y2178813D01*
X26328261Y2191705D01*
X26243046Y2213050D01*
X26160324Y2242650D01*
X26080907Y2280210D01*
X26005554Y2325375D01*
X25934990Y2377709D01*
X25869891Y2436711D01*
X25810889Y2501810D01*
X25758555Y2572374D01*
X25713390Y2647727D01*
X25675830Y2727144D01*
X25646230Y2809866D01*
X25624885Y2895081D01*
X25611993Y2981997D01*
X25607681Y3069737D01*
X25611993Y3157477D01*
X25624885Y3244393D01*
X25646230Y3329608D01*
X25675830Y3412330D01*
X25713390Y3491747D01*
X25758555Y3567100D01*
X25810889Y3637664D01*
X25869891Y3702763D01*
X25934990Y3761765D01*
X26005554Y3814099D01*
X26080907Y3859264D01*
X26160324Y3896824D01*
X26243046Y3926424D01*
X26328261Y3947769D01*
X26415177Y3960661D01*
X26502917Y3964973D01*
X26590657Y3960661D01*
X26677573Y3947769D01*
X26762788Y3926424D01*
X26845510Y3896824D01*
X26924927Y3859264D01*
X27000280Y3814099D01*
X27070844Y3761765D01*
X27135943Y3702763D01*
X27194945Y3637664D01*
X27247279Y3567100D01*
X27292444Y3491747D01*
X27330004Y3412330D01*
X27359604Y3329608D01*
X27380949Y3244393D01*
X27393841Y3157477D01*
X27398153Y3069737D01*
X27393841Y2981997D01*
X27380949Y2895081D01*
X27359604Y2809866D01*
X27330004Y2727144D01*
X27292444Y2647727D01*
X27247279Y2572374D01*
X27194945Y2501810D01*
X27135943Y2436711D01*
X27070844Y2377709D01*
X27000280Y2325375D01*
X26924927Y2280210D01*
X26845510Y2242650D01*
X26762788Y2213050D01*
X26677573Y2191705D01*
X26590657Y2178813D01*
X26502917Y2174501D01*
D02*
G37*
%LPC*%
G36*
X24352917Y3219737D02*
X23626282Y3219737D01*
X23629795Y3243416D01*
X23651020Y3328150D01*
X23680455Y3410417D01*
X23717807Y3489390D01*
X23762717Y3564319D01*
X23814763Y3634495D01*
X23873431Y3699223D01*
X23938159Y3757891D01*
X24008335Y3809937D01*
X24083264Y3854847D01*
X24162237Y3892199D01*
X24244504Y3921634D01*
X24329238Y3942859D01*
X24352917Y3946372D01*
X24352917Y3219737D01*
D02*
G37*
%LPC*%
G36*
X25379552Y3219737D02*
X24652917Y3219737D01*
X24652917Y3946372D01*
X24676596Y3942859D01*
X24761330Y3921634D01*
X24843597Y3892199D01*
X24922570Y3854847D01*
X24997499Y3809937D01*
X25067675Y3757891D01*
X25132403Y3699223D01*
X25191071Y3634495D01*
X25243117Y3564319D01*
X25288027Y3489390D01*
X25325379Y3410417D01*
X25354814Y3328150D01*
X25376039Y3243416D01*
X25379552Y3219737D01*
D02*
G37*
%LPC*%
G36*
X28352917Y3219737D02*
X27626282Y3219737D01*
X27629795Y3243416D01*
X27651020Y3328150D01*
X27680455Y3410417D01*
X27717807Y3489390D01*
X27762717Y3564319D01*
X27814763Y3634495D01*
X27873431Y3699223D01*
X27938159Y3757891D01*
X28008335Y3809937D01*
X28083264Y3854847D01*
X28162237Y3892199D01*
X28244504Y3921634D01*
X28329238Y3942859D01*
X28352917Y3946372D01*
X28352917Y3219737D01*
D02*
G37*
%LPC*%
G36*
X29379552Y3219737D02*
X28652917Y3219737D01*
X28652917Y3946372D01*
X28676596Y3942859D01*
X28761330Y3921634D01*
X28843597Y3892199D01*
X28922570Y3854847D01*
X28997499Y3809937D01*
X29067675Y3757891D01*
X29132403Y3699223D01*
X29191071Y3634495D01*
X29243117Y3564319D01*
X29288027Y3489390D01*
X29325379Y3410417D01*
X29354814Y3328150D01*
X29376039Y3243416D01*
X29379552Y3219737D01*
D02*
G37*
%LPC*%
G36*
X38352917Y3219737D02*
X37626282Y3219737D01*
X37629795Y3243416D01*
X37651020Y3328150D01*
X37680455Y3410417D01*
X37717807Y3489390D01*
X37762717Y3564319D01*
X37814763Y3634495D01*
X37873431Y3699223D01*
X37938159Y3757891D01*
X38008335Y3809937D01*
X38083264Y3854847D01*
X38162237Y3892199D01*
X38244504Y3921634D01*
X38329238Y3942859D01*
X38352917Y3946372D01*
X38352917Y3219737D01*
D02*
G37*
%LPC*%
G36*
X39379552Y3219737D02*
X38652917Y3219737D01*
X38652917Y3946372D01*
X38676596Y3942859D01*
X38761330Y3921634D01*
X38843597Y3892199D01*
X38922570Y3854847D01*
X38997499Y3809937D01*
X39067675Y3757891D01*
X39132403Y3699223D01*
X39191071Y3634495D01*
X39243117Y3564319D01*
X39288027Y3489390D01*
X39325379Y3410417D01*
X39354814Y3328150D01*
X39376039Y3243416D01*
X39379552Y3219737D01*
D02*
G37*
%LPC*%
G36*
X38652917Y2193102D02*
X38652917Y2919737D01*
X39379552Y2919737D01*
X39376039Y2896058D01*
X39354814Y2811324D01*
X39325379Y2729057D01*
X39288027Y2650084D01*
X39243117Y2575155D01*
X39191071Y2504979D01*
X39132403Y2440251D01*
X39067675Y2381583D01*
X38997499Y2329537D01*
X38922570Y2284627D01*
X38843597Y2247275D01*
X38761330Y2217840D01*
X38676596Y2196615D01*
X38652917Y2193102D01*
D02*
G37*
%LPC*%
G36*
X38352917Y2193102D02*
X38329238Y2196615D01*
X38244504Y2217840D01*
X38162237Y2247275D01*
X38083264Y2284627D01*
X38008335Y2329537D01*
X37938159Y2381583D01*
X37873431Y2440251D01*
X37814763Y2504979D01*
X37762717Y2575155D01*
X37717807Y2650084D01*
X37680455Y2729057D01*
X37651020Y2811324D01*
X37629795Y2896058D01*
X37626282Y2919737D01*
X38352917Y2919737D01*
X38352917Y2193102D01*
D02*
G37*
%LPC*%
G36*
X28652917Y2193102D02*
X28652917Y2919737D01*
X29379552Y2919737D01*
X29376039Y2896058D01*
X29354814Y2811324D01*
X29325379Y2729057D01*
X29288027Y2650084D01*
X29243117Y2575155D01*
X29191071Y2504979D01*
X29132403Y2440251D01*
X29067675Y2381583D01*
X28997499Y2329537D01*
X28922570Y2284627D01*
X28843597Y2247275D01*
X28761330Y2217840D01*
X28676596Y2196615D01*
X28652917Y2193102D01*
D02*
G37*
%LPC*%
G36*
X28352917Y2193102D02*
X28329238Y2196615D01*
X28244504Y2217840D01*
X28162237Y2247275D01*
X28083264Y2284627D01*
X28008335Y2329537D01*
X27938159Y2381583D01*
X27873431Y2440251D01*
X27814763Y2504979D01*
X27762717Y2575155D01*
X27717807Y2650084D01*
X27680455Y2729057D01*
X27651020Y2811324D01*
X27629795Y2896058D01*
X27626282Y2919737D01*
X28352917Y2919737D01*
X28352917Y2193102D01*
D02*
G37*
%LPC*%
G36*
X24652917Y2193102D02*
X24652917Y2919737D01*
X25379552Y2919737D01*
X25376039Y2896058D01*
X25354814Y2811324D01*
X25325379Y2729057D01*
X25288027Y2650084D01*
X25243117Y2575155D01*
X25191071Y2504979D01*
X25132403Y2440251D01*
X25067675Y2381583D01*
X24997499Y2329537D01*
X24922570Y2284627D01*
X24843597Y2247275D01*
X24761330Y2217840D01*
X24676596Y2196615D01*
X24652917Y2193102D01*
D02*
G37*
%LPC*%
G36*
X24352917Y2193102D02*
X24329238Y2196615D01*
X24244504Y2217840D01*
X24162237Y2247275D01*
X24083264Y2284627D01*
X24008335Y2329537D01*
X23938159Y2381583D01*
X23873431Y2440251D01*
X23814763Y2504979D01*
X23762717Y2575155D01*
X23717807Y2650084D01*
X23680455Y2729057D01*
X23651020Y2811324D01*
X23629795Y2896058D01*
X23626282Y2919737D01*
X24352917Y2919737D01*
X24352917Y2193102D01*
D02*
G37*
%LPD*%
G01*
%LPD*%
D10*
X10280000Y54660000D02*
X12540000Y54660000D01*
D10*
X47860000Y48510000D02*
X47860000Y50860000D01*
D10*
X25660000Y45240000D02*
X25660000Y43430000D01*
D10*
X14500000Y36500000D02*
X14500000Y41600000D01*
D10*
X27260000Y43430000D02*
X27260000Y39209998D01*
D10*
X4500000Y36500000D02*
X9500000Y36500000D01*
D10*
X47860000Y44060000D02*
X47860000Y44780000D01*
D10*
X14410000Y58910000D02*
X14410000Y59285000D01*
D10*
X60800000Y23366820D02*
X40502917Y3069737D01*
D10*
X4500000Y62500000D02*
X9500000Y62500000D01*
D10*
X55970000Y33970000D02*
X58500000Y36500000D01*
D10*
X14410000Y49175000D02*
X14410000Y51305000D01*
D10*
X47860000Y41830000D02*
X47860000Y44060000D01*
D11*
X22000000Y55930000D02*
X20150000Y55930000D01*
D10*
X16340000Y43440000D02*
X16340000Y47575000D01*
D10*
X53670000Y44060000D02*
X51790000Y44060000D01*
D10*
X2200000Y50000000D02*
X2200000Y23372654D01*
D10*
X31110000Y39000000D02*
X29800000Y40310000D01*
D10*
X48500000Y36500000D02*
X53500000Y36500000D01*
D10*
X17720000Y57200000D02*
X16010000Y58910000D01*
D10*
X53500000Y36500000D02*
X53500000Y38300000D01*
D10*
X16010000Y51305000D02*
X19595000Y51305000D01*
D10*
X31750000Y39000000D02*
X31110000Y39000000D01*
D12*
X20150000Y55930000D02*
X17880000Y55930000D01*
D10*
X10280000Y56550000D02*
X10280000Y54660000D01*
D10*
X12700000Y57200000D02*
X14410000Y58910000D01*
D10*
X6890000Y54660000D02*
X6710000Y54840000D01*
D10*
X60800000Y55200000D02*
X60800000Y23366820D01*
D10*
X9500000Y37370000D02*
X9500000Y36500000D01*
D10*
X4810000Y52610000D02*
X4810000Y54840000D01*
D10*
X4810000Y52610000D02*
X2200000Y50000000D01*
D10*
X36670000Y52590000D02*
X36580000Y52500000D01*
D10*
X12540000Y55930000D02*
X14410000Y55930000D01*
D10*
X26100000Y59000000D02*
X29890000Y59000000D01*
D10*
X26950000Y33970000D02*
X31750000Y33970000D01*
D10*
X29800000Y40310000D02*
X29800000Y50800000D01*
D10*
X53500000Y62500000D02*
X60800000Y55200000D01*
D10*
X35750000Y39000000D02*
X31750000Y39000000D01*
D10*
X12540000Y57200000D02*
X12700000Y57200000D01*
D10*
X47860000Y44780000D02*
X48810000Y45730000D01*
D10*
X29800000Y50800000D02*
X31500000Y52500000D01*
D10*
X47860000Y50860000D02*
X48500000Y51500000D01*
D10*
X51790000Y40010000D02*
X51790000Y42460000D01*
D10*
X26100000Y52820000D02*
X26420000Y52500000D01*
D10*
X14500000Y41600000D02*
X16340000Y43440000D01*
D10*
X33420000Y58980000D02*
X36670000Y58980000D01*
D10*
X17880000Y57200000D02*
X17720000Y57200000D01*
D10*
X16010000Y54660000D02*
X16010000Y51305000D01*
D10*
X2200000Y23372654D02*
X22502917Y3069737D01*
D10*
X48500000Y51500000D02*
X52480000Y51500000D01*
D10*
X17880000Y54660000D02*
X16010000Y54660000D01*
D10*
X26100000Y59000000D02*
X26100000Y52820000D01*
D10*
X14410000Y55930000D02*
X14410000Y51305000D01*
D10*
X19595000Y51305000D02*
X25660000Y45240000D01*
D10*
X8680000Y54660000D02*
X8680000Y52730000D01*
D10*
X48810000Y45730000D02*
X48810000Y46310000D01*
D10*
X11154999Y47575000D02*
X11149999Y47580000D01*
D10*
X8680000Y54660000D02*
X6890000Y54660000D01*
D10*
X16010000Y58910000D02*
X16010000Y59285000D01*
D10*
X10550000Y38420000D02*
X9500000Y37370000D01*
D10*
X31750000Y33970000D02*
X31750000Y39000000D01*
D10*
X53500000Y38300000D02*
X51790000Y40010000D01*
D10*
X33160000Y43390000D02*
X35050000Y41500000D01*
D10*
X49760000Y44060000D02*
X51790000Y44060000D01*
D10*
X14410000Y49175000D02*
X16340000Y49175000D01*
D10*
X27260000Y39209998D02*
X27050002Y39000000D01*
D10*
X35050000Y41500000D02*
X35750000Y41500000D01*
D10*
X10550000Y41100000D02*
X10550000Y38420000D01*
D11*
X51530000Y48510000D02*
X49760000Y48510000D01*
D11*
X10280000Y50930000D02*
X10280000Y52730000D01*
D10*
X48500000Y62500000D02*
X48500000Y55000000D01*
D10*
X36670000Y58980000D02*
X36670000Y52590000D01*
D10*
X14410000Y47575000D02*
X11154999Y47575000D01*
D10*
X31750000Y33970000D02*
X55970000Y33970000D01*
G75*
D13*
X27050002Y39000000D03*
D14*
X31750000Y39000000D03*
D15*
X4500000Y62500000D03*
D15*
X14500000Y62500000D03*
D15*
X9500000Y62500000D03*
D16*
X30000000Y10000000D03*
D17*
X33000000Y10000000D03*
D18*
X26100000Y68200000D03*
D18*
X26100000Y59000000D03*
D19*
X14410000Y59285000D03*
D20*
X16010000Y59285000D03*
D21*
X16340000Y49175000D03*
D22*
X16340000Y47575000D03*
D20*
X6410000Y52610000D03*
D19*
X4810000Y52610000D03*
D21*
X52480000Y53100000D03*
D22*
X52480000Y51500000D03*
D15*
X48500000Y36500000D03*
D15*
X58500000Y36500000D03*
D15*
X53500000Y36500000D03*
D20*
X16010000Y51305000D03*
D19*
X14410000Y51305000D03*
D23*
X19950000Y12930000D03*
D24*
X24950000Y12930000D03*
D25*
X31750000Y31430000D03*
D25*
X31750000Y33970000D03*
D18*
X10477083Y6541263D03*
D18*
X8477083Y6541263D03*
D26*
X47860000Y48510000D03*
D27*
X48810000Y46310000D03*
D26*
X49760000Y48510000D03*
D21*
X14410000Y49175000D03*
D22*
X14410000Y47575000D03*
D28*
X39050000Y36500000D03*
D28*
X35750000Y39000000D03*
D28*
X35750000Y41500000D03*
D28*
X35750000Y36500000D03*
D28*
X39050000Y39000000D03*
D28*
X39050000Y41500000D03*
D19*
X8680000Y52730000D03*
D20*
X10280000Y52730000D03*
D23*
X38050000Y12930000D03*
D24*
X43050000Y12930000D03*
D22*
X53670000Y42460000D03*
D21*
X53670000Y44060000D03*
D29*
X49760000Y44060000D03*
D30*
X47860000Y44060000D03*
D22*
X20150000Y54330000D03*
D21*
X20150000Y55930000D03*
D14*
X11149999Y47580000D03*
D13*
X6450001Y47580000D03*
D19*
X31560000Y43390000D03*
D20*
X33160000Y43390000D03*
D31*
X33420000Y58980000D03*
D31*
X33420000Y65380000D03*
D21*
X51790000Y44060000D03*
D22*
X51790000Y42460000D03*
D19*
X8680000Y56550000D03*
D20*
X10280000Y56550000D03*
D32*
X17880000Y57200000D03*
D32*
X17880000Y54660000D03*
D32*
X17880000Y53390000D03*
D33*
X12540000Y53390000D03*
D33*
X12540000Y55930000D03*
D32*
X17880000Y55930000D03*
D33*
X12540000Y57200000D03*
D33*
X12540000Y54660000D03*
D34*
X48500000Y55000000D03*
D35*
X48500000Y51500000D03*
D15*
X4500000Y36500000D03*
D15*
X14500000Y36500000D03*
D15*
X9500000Y36500000D03*
D29*
X6710000Y54840000D03*
D30*
X4810000Y54840000D03*
D17*
X33000000Y15860000D03*
D16*
X30000000Y15860000D03*
D20*
X49460000Y41830000D03*
D19*
X47860000Y41830000D03*
D36*
X29890000Y59000000D03*
D36*
X29890000Y68200000D03*
D17*
X33000000Y12930000D03*
D16*
X30000000Y12930000D03*
D20*
X27260000Y43430000D03*
D19*
X25660000Y43430000D03*
D20*
X10280000Y54660000D03*
D19*
X8680000Y54660000D03*
D37*
X36670000Y65380000D03*
D37*
X36670000Y58980000D03*
D18*
X54477083Y6541263D03*
D18*
X52477083Y6541263D03*
D38*
X31500000Y52500000D03*
D38*
X36580000Y52500000D03*
D38*
X26420000Y52500000D03*
D15*
X48500000Y62500000D03*
D15*
X58500000Y62500000D03*
D15*
X53500000Y62500000D03*
D39*
X7050000Y41100000D03*
D40*
X10550000Y41100000D03*
D41*
X26950000Y33970000D03*
D41*
X26950000Y31430000D03*
D36*
X24502917Y3069737D03*
D36*
X38502917Y3069737D03*
D36*
X30502917Y3069737D03*
D36*
X28502917Y3069737D03*
D36*
X22502917Y3069737D03*
D36*
X36502917Y3069737D03*
D36*
X26502917Y3069737D03*
D36*
X32502917Y3069737D03*
D36*
X34502917Y3069737D03*
D36*
X40502917Y3069737D03*
D42*
X8680000Y57850000D03*
D43*
X1000000Y26200000D03*
D43*
X62000000Y64600000D03*
D42*
X54970000Y42460000D03*
D43*
X54375000Y71000000D03*
D43*
X46750000Y1000000D03*
D42*
X8625000Y39000000D03*
D42*
X54375000Y13400000D03*
D42*
X16250000Y64600000D03*
D42*
X39125000Y32600000D03*
D42*
X54375000Y51800000D03*
D42*
X39125000Y26200000D03*
D42*
X46750000Y58200000D03*
D42*
X54375000Y19800000D03*
D42*
X8625000Y19800000D03*
D43*
X1000000Y51800000D03*
D43*
X1000000Y32600000D03*
D42*
X54375000Y45400000D03*
D43*
X62000000Y13400000D03*
D42*
X43050000Y11280000D03*
D42*
X31500000Y19800000D03*
D42*
X23875000Y7000000D03*
D43*
X46750000Y71000000D03*
D42*
X16250000Y7000000D03*
D43*
X62000000Y51800000D03*
D44*
X16010000Y54660000D03*
D42*
X54375000Y32600000D03*
D43*
X62000000Y1000000D03*
D42*
X34500000Y15860000D03*
D43*
X8625000Y71000000D03*
D42*
X46750000Y7000000D03*
D42*
X8625000Y32600000D03*
D42*
X46750000Y51800000D03*
D42*
X45500000Y12930000D03*
D43*
X1000000Y19800000D03*
D43*
X62000000Y7000000D03*
D43*
X16250000Y1000000D03*
D43*
X62000000Y32600000D03*
D43*
X31500000Y1000000D03*
D43*
X62000000Y45400000D03*
D45*
X38050000Y15930000D03*
D43*
X1000000Y71000000D03*
D42*
X4000001Y47580000D03*
D42*
X23875000Y64600000D03*
D42*
X23875000Y51800000D03*
D42*
X49460000Y40530000D03*
D43*
X39125000Y71000000D03*
D43*
X62000000Y19800000D03*
D43*
X31500000Y71000000D03*
D43*
X62000000Y26200000D03*
D42*
X16250000Y19800000D03*
D42*
X19950000Y11280000D03*
D42*
X17500000Y12930000D03*
D42*
X31500000Y45400000D03*
D45*
X25000000Y16000000D03*
D42*
X16250000Y26200000D03*
D42*
X46750000Y26200000D03*
D43*
X62000000Y39000000D03*
D42*
X46750000Y64600000D03*
D43*
X62000000Y58200000D03*
D43*
X1000000Y1000000D03*
D43*
X8625000Y1000000D03*
D43*
X1000000Y7000000D03*
D43*
X1000000Y45400000D03*
D42*
X23875000Y39000000D03*
D42*
X8625000Y13400000D03*
D42*
X4600000Y41100000D03*
D43*
X1000000Y58200000D03*
D42*
X8625000Y64600000D03*
D43*
X23875000Y71000000D03*
D42*
X23875000Y32600000D03*
D42*
X39125000Y64600000D03*
D42*
X23875000Y45400000D03*
D42*
X8625000Y26200000D03*
D42*
X54375000Y26200000D03*
D42*
X19950000Y14580000D03*
D42*
X31560000Y42090000D03*
D44*
X14410000Y55930000D03*
D42*
X31500000Y26200000D03*
D42*
X39125000Y45400000D03*
D43*
X54375000Y1000000D03*
D45*
X22000000Y55930000D03*
D43*
X23875000Y1000000D03*
D42*
X54375000Y39000000D03*
D42*
X46750000Y19800000D03*
D43*
X1000000Y39000000D03*
D42*
X54375000Y58200000D03*
D42*
X39125000Y7000000D03*
D42*
X46750000Y32600000D03*
D43*
X1000000Y13400000D03*
D42*
X52480000Y54400000D03*
D42*
X16250000Y32600000D03*
D42*
X16250000Y39000000D03*
D43*
X16250000Y71000000D03*
D42*
X20150000Y53030000D03*
D45*
X10280000Y50930000D03*
D42*
X12540000Y52090000D03*
D42*
X23875000Y26200000D03*
D42*
X23875000Y58200000D03*
D42*
X54375000Y64600000D03*
D42*
X39125000Y58200000D03*
D43*
X39125000Y1000000D03*
D42*
X43050000Y14580000D03*
D42*
X31500000Y64600000D03*
D42*
X39125000Y51800000D03*
D43*
X62000000Y71000000D03*
D42*
X31500000Y58200000D03*
D42*
X46750000Y39000000D03*
D42*
X46750000Y45700000D03*
D45*
X51530000Y48510000D03*
D42*
X6410000Y51310000D03*
D43*
X1000000Y64600000D03*
M02*
