%FSLAX46Y46*%
%MOMM*%
%AMPS10*
1,1,2.100000,0.000000,0.000000*
%
%ADD10PS10*%
%AMPS13*
1,1,1.600000,0.000000,0.000000*
%
%ADD13PS13*%
%AMPS14*
1,1,1.600000,0.000000,0.000000*
%
%ADD14PS14*%
%AMPS20*
1,1,1.600000,0.000000,0.000000*
%
%ADD20PS20*%
%AMPS11*
1,1,1.700000,0.000000,0.000000*
%
%ADD11PS11*%
%AMPS16*
1,1,1.700000,0.000000,0.000000*
%
%ADD16PS16*%
%AMPS19*
1,1,2.200000,0.000000,0.000000*
%
%ADD19PS19*%
%AMPS15*
1,1,1.400000,0.000000,0.000000*
%
%ADD15PS15*%
%AMPS18*
1,1,1.400000,0.000000,0.000000*
%
%ADD18PS18*%
%AMPS12*
1,1,1.400000,0.000000,0.000000*
%
%ADD12PS12*%
%AMPS17*
1,1,1.400000,0.000000,0.000000*
%
%ADD17PS17*%
%AMPS24*
1,1,1.400000,0.000000,0.000000*
%
%ADD24PS24*%
%AMPS22*
1,1,0.700000,0.000000,0.000000*
%
%ADD22PS22*%
%AMPS23*
1,1,0.900000,0.000000,0.000000*
%
%ADD23PS23*%
%AMPS21*
1,1,0.700000,0.000000,0.000000*
%
%ADD21PS21*%
G01*
%LPD*%
G36*
X62640000Y360000D02*
X62640000Y71640000D01*
X360000Y71640000D01*
X360000Y360000D01*
X62640000Y360000D01*
D02*
G37*
%LPC*%
G36*
X4500000Y61154643D02*
X4368140Y61161123D01*
X4237532Y61180496D01*
X4109471Y61212574D01*
X3985153Y61257055D01*
X3865802Y61313504D01*
X3752555Y61381381D01*
X3646521Y61460022D01*
X3548690Y61548690D01*
X3460022Y61646521D01*
X3381381Y61752555D01*
X3313504Y61865802D01*
X3257055Y61985153D01*
X3212574Y62109471D01*
X3180496Y62237532D01*
X3161123Y62368140D01*
X3154643Y62500000D01*
X3161123Y62631860D01*
X3180496Y62762468D01*
X3212574Y62890529D01*
X3257055Y63014847D01*
X3313504Y63134198D01*
X3381381Y63247445D01*
X3460022Y63353479D01*
X3548690Y63451310D01*
X3646521Y63539978D01*
X3752555Y63618619D01*
X3865802Y63686496D01*
X3985153Y63742945D01*
X4109471Y63787426D01*
X4237532Y63819504D01*
X4368140Y63838877D01*
X4500000Y63845357D01*
X4631860Y63838877D01*
X4762468Y63819504D01*
X4890529Y63787426D01*
X5014847Y63742945D01*
X5134198Y63686496D01*
X5247445Y63618619D01*
X5353479Y63539978D01*
X5451310Y63451310D01*
X5539978Y63353479D01*
X5618619Y63247445D01*
X5686496Y63134198D01*
X5742945Y63014847D01*
X5787426Y62890529D01*
X5819504Y62762468D01*
X5838877Y62631860D01*
X5845357Y62500000D01*
X5838877Y62368140D01*
X5819504Y62237532D01*
X5787426Y62109471D01*
X5742945Y61985153D01*
X5686496Y61865802D01*
X5618619Y61752555D01*
X5539978Y61646521D01*
X5451310Y61548690D01*
X5353479Y61460022D01*
X5247445Y61381381D01*
X5134198Y61313504D01*
X5014847Y61257055D01*
X4890529Y61212574D01*
X4762468Y61180496D01*
X4631860Y61161123D01*
X4500000Y61154643D01*
D02*
G37*
%LPC*%
G36*
X9500000Y61154643D02*
X9368140Y61161123D01*
X9237532Y61180496D01*
X9109471Y61212574D01*
X8985153Y61257055D01*
X8865802Y61313504D01*
X8752555Y61381381D01*
X8646521Y61460022D01*
X8548690Y61548690D01*
X8460022Y61646521D01*
X8381381Y61752555D01*
X8313504Y61865802D01*
X8257055Y61985153D01*
X8212574Y62109471D01*
X8180496Y62237532D01*
X8161123Y62368140D01*
X8154643Y62500000D01*
X8161123Y62631860D01*
X8180496Y62762468D01*
X8212574Y62890529D01*
X8257055Y63014847D01*
X8313504Y63134198D01*
X8381381Y63247445D01*
X8460022Y63353479D01*
X8548690Y63451310D01*
X8646521Y63539978D01*
X8752555Y63618619D01*
X8865802Y63686496D01*
X8985153Y63742945D01*
X9109471Y63787426D01*
X9237532Y63819504D01*
X9368140Y63838877D01*
X9500000Y63845357D01*
X9631860Y63838877D01*
X9762468Y63819504D01*
X9890529Y63787426D01*
X10014847Y63742945D01*
X10134198Y63686496D01*
X10247445Y63618619D01*
X10353479Y63539978D01*
X10451310Y63451310D01*
X10539978Y63353479D01*
X10618619Y63247445D01*
X10686496Y63134198D01*
X10742945Y63014847D01*
X10787426Y62890529D01*
X10819504Y62762468D01*
X10838877Y62631860D01*
X10845357Y62500000D01*
X10838877Y62368140D01*
X10819504Y62237532D01*
X10787426Y62109471D01*
X10742945Y61985153D01*
X10686496Y61865802D01*
X10618619Y61752555D01*
X10539978Y61646521D01*
X10451310Y61548690D01*
X10353479Y61460022D01*
X10247445Y61381381D01*
X10134198Y61313504D01*
X10014847Y61257055D01*
X9890529Y61212574D01*
X9762468Y61180496D01*
X9631860Y61161123D01*
X9500000Y61154643D01*
D02*
G37*
%LPC*%
G36*
X14500000Y61154643D02*
X14368140Y61161123D01*
X14237532Y61180496D01*
X14109471Y61212574D01*
X13985153Y61257055D01*
X13865802Y61313504D01*
X13752555Y61381381D01*
X13646521Y61460022D01*
X13548690Y61548690D01*
X13460022Y61646521D01*
X13381381Y61752555D01*
X13313504Y61865802D01*
X13257055Y61985153D01*
X13212574Y62109471D01*
X13180496Y62237532D01*
X13161123Y62368140D01*
X13154643Y62500000D01*
X13161123Y62631860D01*
X13180496Y62762468D01*
X13212574Y62890529D01*
X13257055Y63014847D01*
X13313504Y63134198D01*
X13381381Y63247445D01*
X13460022Y63353479D01*
X13548690Y63451310D01*
X13646521Y63539978D01*
X13752555Y63618619D01*
X13865802Y63686496D01*
X13985153Y63742945D01*
X14109471Y63787426D01*
X14237532Y63819504D01*
X14368140Y63838877D01*
X14500000Y63845357D01*
X14631860Y63838877D01*
X14762468Y63819504D01*
X14890529Y63787426D01*
X15014847Y63742945D01*
X15134198Y63686496D01*
X15247445Y63618619D01*
X15353479Y63539978D01*
X15451310Y63451310D01*
X15539978Y63353479D01*
X15618619Y63247445D01*
X15686496Y63134198D01*
X15742945Y63014847D01*
X15787426Y62890529D01*
X15819504Y62762468D01*
X15838877Y62631860D01*
X15845357Y62500000D01*
X15838877Y62368140D01*
X15819504Y62237532D01*
X15787426Y62109471D01*
X15742945Y61985153D01*
X15686496Y61865802D01*
X15618619Y61752555D01*
X15539978Y61646521D01*
X15451310Y61548690D01*
X15353479Y61460022D01*
X15247445Y61381381D01*
X15134198Y61313504D01*
X15014847Y61257055D01*
X14890529Y61212574D01*
X14762468Y61180496D01*
X14631860Y61161123D01*
X14500000Y61154643D01*
D02*
G37*
%LPC*%
G36*
X48500000Y61154643D02*
X48368140Y61161123D01*
X48237532Y61180496D01*
X48109471Y61212574D01*
X47985153Y61257055D01*
X47865802Y61313504D01*
X47752555Y61381381D01*
X47646521Y61460022D01*
X47548690Y61548690D01*
X47460022Y61646521D01*
X47381381Y61752555D01*
X47313504Y61865802D01*
X47257055Y61985153D01*
X47212574Y62109471D01*
X47180496Y62237532D01*
X47161123Y62368140D01*
X47154643Y62500000D01*
X47161123Y62631860D01*
X47180496Y62762468D01*
X47212574Y62890529D01*
X47257055Y63014847D01*
X47313504Y63134198D01*
X47381381Y63247445D01*
X47460022Y63353479D01*
X47548690Y63451310D01*
X47646521Y63539978D01*
X47752555Y63618619D01*
X47865802Y63686496D01*
X47985153Y63742945D01*
X48109471Y63787426D01*
X48237532Y63819504D01*
X48368140Y63838877D01*
X48500000Y63845357D01*
X48631860Y63838877D01*
X48762468Y63819504D01*
X48890529Y63787426D01*
X49014847Y63742945D01*
X49134198Y63686496D01*
X49247445Y63618619D01*
X49353479Y63539978D01*
X49451310Y63451310D01*
X49539978Y63353479D01*
X49618619Y63247445D01*
X49686496Y63134198D01*
X49742945Y63014847D01*
X49787426Y62890529D01*
X49819504Y62762468D01*
X49838877Y62631860D01*
X49845357Y62500000D01*
X49838877Y62368140D01*
X49819504Y62237532D01*
X49787426Y62109471D01*
X49742945Y61985153D01*
X49686496Y61865802D01*
X49618619Y61752555D01*
X49539978Y61646521D01*
X49451310Y61548690D01*
X49353479Y61460022D01*
X49247445Y61381381D01*
X49134198Y61313504D01*
X49014847Y61257055D01*
X48890529Y61212574D01*
X48762468Y61180496D01*
X48631860Y61161123D01*
X48500000Y61154643D01*
D02*
G37*
%LPC*%
G36*
X53500000Y61154643D02*
X53368140Y61161123D01*
X53237532Y61180496D01*
X53109471Y61212574D01*
X52985153Y61257055D01*
X52865802Y61313504D01*
X52752555Y61381381D01*
X52646521Y61460022D01*
X52548690Y61548690D01*
X52460022Y61646521D01*
X52381381Y61752555D01*
X52313504Y61865802D01*
X52257055Y61985153D01*
X52212574Y62109471D01*
X52180496Y62237532D01*
X52161123Y62368140D01*
X52154643Y62500000D01*
X52161123Y62631860D01*
X52180496Y62762468D01*
X52212574Y62890529D01*
X52257055Y63014847D01*
X52313504Y63134198D01*
X52381381Y63247445D01*
X52460022Y63353479D01*
X52548690Y63451310D01*
X52646521Y63539978D01*
X52752555Y63618619D01*
X52865802Y63686496D01*
X52985153Y63742945D01*
X53109471Y63787426D01*
X53237532Y63819504D01*
X53368140Y63838877D01*
X53500000Y63845357D01*
X53631860Y63838877D01*
X53762468Y63819504D01*
X53890529Y63787426D01*
X54014847Y63742945D01*
X54134198Y63686496D01*
X54247445Y63618619D01*
X54353479Y63539978D01*
X54451310Y63451310D01*
X54539978Y63353479D01*
X54618619Y63247445D01*
X54686496Y63134198D01*
X54742945Y63014847D01*
X54787426Y62890529D01*
X54819504Y62762468D01*
X54838877Y62631860D01*
X54845357Y62500000D01*
X54838877Y62368140D01*
X54819504Y62237532D01*
X54787426Y62109471D01*
X54742945Y61985153D01*
X54686496Y61865802D01*
X54618619Y61752555D01*
X54539978Y61646521D01*
X54451310Y61548690D01*
X54353479Y61460022D01*
X54247445Y61381381D01*
X54134198Y61313504D01*
X54014847Y61257055D01*
X53890529Y61212574D01*
X53762468Y61180496D01*
X53631860Y61161123D01*
X53500000Y61154643D01*
D02*
G37*
%LPC*%
G36*
X26100000Y58004645D02*
X26002438Y58009438D01*
X25905808Y58023773D01*
X25811063Y58047504D01*
X25719099Y58080410D01*
X25630791Y58122177D01*
X25547014Y58172390D01*
X25468551Y58230582D01*
X25396178Y58296178D01*
X25330582Y58368551D01*
X25272390Y58447014D01*
X25222177Y58530791D01*
X25180410Y58619099D01*
X25147504Y58711063D01*
X25123773Y58805808D01*
X25109438Y58902438D01*
X25104645Y59000000D01*
X25109438Y59097562D01*
X25123773Y59194192D01*
X25147504Y59288937D01*
X25180410Y59380901D01*
X25222177Y59469209D01*
X25272390Y59552986D01*
X25330582Y59631449D01*
X25396178Y59703822D01*
X25468551Y59769418D01*
X25547014Y59827610D01*
X25630791Y59877823D01*
X25719099Y59919590D01*
X25811063Y59952496D01*
X25905808Y59976227D01*
X26002438Y59990562D01*
X26100000Y59995355D01*
X26197562Y59990562D01*
X26294192Y59976227D01*
X26388937Y59952496D01*
X26480901Y59919590D01*
X26569209Y59877823D01*
X26652986Y59827610D01*
X26731449Y59769418D01*
X26803822Y59703822D01*
X26869418Y59631449D01*
X26927610Y59552986D01*
X26977823Y59469209D01*
X27019590Y59380901D01*
X27052496Y59288937D01*
X27076227Y59194192D01*
X27090562Y59097562D01*
X27095355Y59000000D01*
X27090562Y58902438D01*
X27076227Y58805808D01*
X27052496Y58711063D01*
X27019590Y58619099D01*
X26977823Y58530791D01*
X26927610Y58447014D01*
X26869418Y58368551D01*
X26803822Y58296178D01*
X26731449Y58230582D01*
X26652986Y58172390D01*
X26569209Y58122177D01*
X26480901Y58080410D01*
X26388937Y58047504D01*
X26294192Y58023773D01*
X26197562Y58009438D01*
X26100000Y58004645D01*
D02*
G37*
%LPC*%
G36*
X29890000Y58004645D02*
X29792438Y58009438D01*
X29695808Y58023773D01*
X29601063Y58047504D01*
X29509099Y58080410D01*
X29420791Y58122177D01*
X29337014Y58172390D01*
X29258551Y58230582D01*
X29186178Y58296178D01*
X29120582Y58368551D01*
X29062390Y58447014D01*
X29012177Y58530791D01*
X28970410Y58619099D01*
X28937504Y58711063D01*
X28913773Y58805808D01*
X28899438Y58902438D01*
X28894645Y59000000D01*
X28899438Y59097562D01*
X28913773Y59194192D01*
X28937504Y59288937D01*
X28970410Y59380901D01*
X29012177Y59469209D01*
X29062390Y59552986D01*
X29120582Y59631449D01*
X29186178Y59703822D01*
X29258551Y59769418D01*
X29337014Y59827610D01*
X29420791Y59877823D01*
X29509099Y59919590D01*
X29601063Y59952496D01*
X29695808Y59976227D01*
X29792438Y59990562D01*
X29890000Y59995355D01*
X29987562Y59990562D01*
X30084192Y59976227D01*
X30178937Y59952496D01*
X30270901Y59919590D01*
X30359209Y59877823D01*
X30442986Y59827610D01*
X30521449Y59769418D01*
X30593822Y59703822D01*
X30659418Y59631449D01*
X30717610Y59552986D01*
X30767823Y59469209D01*
X30809590Y59380901D01*
X30842496Y59288937D01*
X30866227Y59194192D01*
X30880562Y59097562D01*
X30885355Y59000000D01*
X30880562Y58902438D01*
X30866227Y58805808D01*
X30842496Y58711063D01*
X30809590Y58619099D01*
X30767823Y58530791D01*
X30717610Y58447014D01*
X30659418Y58368551D01*
X30593822Y58296178D01*
X30521449Y58230582D01*
X30442986Y58172390D01*
X30359209Y58122177D01*
X30270901Y58080410D01*
X30178937Y58047504D01*
X30084192Y58023773D01*
X29987562Y58009438D01*
X29890000Y58004645D01*
D02*
G37*
%LPC*%
G36*
X33420000Y57984645D02*
X33322438Y57989438D01*
X33225808Y58003773D01*
X33131063Y58027504D01*
X33039099Y58060410D01*
X32950791Y58102177D01*
X32867014Y58152390D01*
X32788551Y58210582D01*
X32716178Y58276178D01*
X32650582Y58348551D01*
X32592390Y58427014D01*
X32542177Y58510791D01*
X32500410Y58599099D01*
X32467504Y58691063D01*
X32443773Y58785808D01*
X32429438Y58882438D01*
X32424645Y58980000D01*
X32429438Y59077562D01*
X32443773Y59174192D01*
X32467504Y59268937D01*
X32500410Y59360901D01*
X32542177Y59449209D01*
X32592390Y59532986D01*
X32650582Y59611449D01*
X32716178Y59683822D01*
X32788551Y59749418D01*
X32867014Y59807610D01*
X32950791Y59857823D01*
X33039099Y59899590D01*
X33131063Y59932496D01*
X33225808Y59956227D01*
X33322438Y59970562D01*
X33420000Y59975355D01*
X33517562Y59970562D01*
X33614192Y59956227D01*
X33708937Y59932496D01*
X33800901Y59899590D01*
X33889209Y59857823D01*
X33972986Y59807610D01*
X34051449Y59749418D01*
X34123822Y59683822D01*
X34189418Y59611449D01*
X34247610Y59532986D01*
X34297823Y59449209D01*
X34339590Y59360901D01*
X34372496Y59268937D01*
X34396227Y59174192D01*
X34410562Y59077562D01*
X34415355Y58980000D01*
X34410562Y58882438D01*
X34396227Y58785808D01*
X34372496Y58691063D01*
X34339590Y58599099D01*
X34297823Y58510791D01*
X34247610Y58427014D01*
X34189418Y58348551D01*
X34123822Y58276178D01*
X34051449Y58210582D01*
X33972986Y58152390D01*
X33889209Y58102177D01*
X33800901Y58060410D01*
X33708937Y58027504D01*
X33614192Y58003773D01*
X33517562Y57989438D01*
X33420000Y57984645D01*
D02*
G37*
%LPC*%
G36*
X36670000Y57984645D02*
X36572438Y57989438D01*
X36475808Y58003773D01*
X36381063Y58027504D01*
X36289099Y58060410D01*
X36200791Y58102177D01*
X36117014Y58152390D01*
X36038551Y58210582D01*
X35966178Y58276178D01*
X35900582Y58348551D01*
X35842390Y58427014D01*
X35792177Y58510791D01*
X35750410Y58599099D01*
X35717504Y58691063D01*
X35693773Y58785808D01*
X35679438Y58882438D01*
X35674645Y58980000D01*
X35679438Y59077562D01*
X35693773Y59174192D01*
X35717504Y59268937D01*
X35750410Y59360901D01*
X35792177Y59449209D01*
X35842390Y59532986D01*
X35900582Y59611449D01*
X35966178Y59683822D01*
X36038551Y59749418D01*
X36117014Y59807610D01*
X36200791Y59857823D01*
X36289099Y59899590D01*
X36381063Y59932496D01*
X36475808Y59956227D01*
X36572438Y59970562D01*
X36670000Y59975355D01*
X36767562Y59970562D01*
X36864192Y59956227D01*
X36958937Y59932496D01*
X37050901Y59899590D01*
X37139209Y59857823D01*
X37222986Y59807610D01*
X37301449Y59749418D01*
X37373822Y59683822D01*
X37439418Y59611449D01*
X37497610Y59532986D01*
X37547823Y59449209D01*
X37589590Y59360901D01*
X37622496Y59268937D01*
X37646227Y59174192D01*
X37660562Y59077562D01*
X37665355Y58980000D01*
X37660562Y58882438D01*
X37646227Y58785808D01*
X37622496Y58691063D01*
X37589590Y58599099D01*
X37547823Y58510791D01*
X37497610Y58427014D01*
X37439418Y58348551D01*
X37373822Y58276178D01*
X37301449Y58210582D01*
X37222986Y58152390D01*
X37139209Y58102177D01*
X37050901Y58060410D01*
X36958937Y58027504D01*
X36864192Y58003773D01*
X36767562Y57989438D01*
X36670000Y57984645D01*
D02*
G37*
%LPC*%
G36*
X22000000Y55024753D02*
X21911268Y55029113D01*
X21823388Y55042149D01*
X21737224Y55063731D01*
X21653579Y55093661D01*
X21573263Y55131648D01*
X21497079Y55177310D01*
X21425715Y55230237D01*
X21359894Y55289894D01*
X21300237Y55355715D01*
X21247310Y55427079D01*
X21201648Y55503263D01*
X21163661Y55583579D01*
X21133731Y55667224D01*
X21112149Y55753388D01*
X21099113Y55841268D01*
X21094753Y55930000D01*
X21099113Y56018732D01*
X21112149Y56106612D01*
X21133731Y56192776D01*
X21163661Y56276421D01*
X21201648Y56356737D01*
X21247310Y56432921D01*
X21300237Y56504285D01*
X21359894Y56570106D01*
X21425715Y56629763D01*
X21497079Y56682690D01*
X21573263Y56728352D01*
X21653579Y56766339D01*
X21737224Y56796269D01*
X21823388Y56817851D01*
X21911268Y56830887D01*
X22000000Y56835247D01*
X22088732Y56830887D01*
X22176612Y56817851D01*
X22262776Y56796269D01*
X22346421Y56766339D01*
X22426737Y56728352D01*
X22502921Y56682690D01*
X22574285Y56629763D01*
X22640106Y56570106D01*
X22699763Y56504285D01*
X22752690Y56432921D01*
X22798352Y56356737D01*
X22836339Y56276421D01*
X22866269Y56192776D01*
X22887851Y56106612D01*
X22900887Y56018732D01*
X22905247Y55930000D01*
X22900887Y55841268D01*
X22887851Y55753388D01*
X22866269Y55667224D01*
X22836339Y55583579D01*
X22798352Y55503263D01*
X22752690Y55427079D01*
X22699763Y55355715D01*
X22640106Y55289894D01*
X22574285Y55230237D01*
X22502921Y55177310D01*
X22426737Y55131648D01*
X22346421Y55093661D01*
X22262776Y55063731D01*
X22176612Y55042149D01*
X22088732Y55029113D01*
X22000000Y55024753D01*
D02*
G37*
%LPC*%
G36*
X14410000Y55274753D02*
X14345774Y55277909D01*
X14282167Y55287345D01*
X14219790Y55302968D01*
X14159243Y55324634D01*
X14101122Y55352123D01*
X14045966Y55385182D01*
X13994316Y55423488D01*
X13946670Y55466670D01*
X13903488Y55514316D01*
X13865182Y55565966D01*
X13832123Y55621122D01*
X13804634Y55679243D01*
X13782968Y55739790D01*
X13767345Y55802167D01*
X13757909Y55865774D01*
X13754753Y55930000D01*
X13757909Y55994226D01*
X13767345Y56057833D01*
X13782968Y56120210D01*
X13804634Y56180757D01*
X13832123Y56238878D01*
X13865182Y56294034D01*
X13903488Y56345684D01*
X13946670Y56393330D01*
X13994316Y56436512D01*
X14045966Y56474818D01*
X14101122Y56507877D01*
X14159243Y56535366D01*
X14219790Y56557032D01*
X14282167Y56572655D01*
X14345774Y56582091D01*
X14410000Y56585247D01*
X14474226Y56582091D01*
X14537833Y56572655D01*
X14600210Y56557032D01*
X14660757Y56535366D01*
X14718878Y56507877D01*
X14774034Y56474818D01*
X14825684Y56436512D01*
X14873330Y56393330D01*
X14916512Y56345684D01*
X14954818Y56294034D01*
X14987877Y56238878D01*
X15015366Y56180757D01*
X15037032Y56120210D01*
X15052655Y56057833D01*
X15062091Y55994226D01*
X15065247Y55930000D01*
X15062091Y55865774D01*
X15052655Y55802167D01*
X15037032Y55739790D01*
X15015366Y55679243D01*
X14987877Y55621122D01*
X14954818Y55565966D01*
X14916512Y55514316D01*
X14873330Y55466670D01*
X14825684Y55423488D01*
X14774034Y55385182D01*
X14718878Y55352123D01*
X14660757Y55324634D01*
X14600210Y55302968D01*
X14537833Y55287345D01*
X14474226Y55277909D01*
X14410000Y55274753D01*
D02*
G37*
%LPC*%
G36*
X16010000Y54004753D02*
X15945774Y54007909D01*
X15882167Y54017345D01*
X15819790Y54032968D01*
X15759243Y54054634D01*
X15701122Y54082123D01*
X15645966Y54115182D01*
X15594316Y54153488D01*
X15546670Y54196670D01*
X15503488Y54244316D01*
X15465182Y54295966D01*
X15432123Y54351122D01*
X15404634Y54409243D01*
X15382968Y54469790D01*
X15367345Y54532167D01*
X15357909Y54595774D01*
X15354753Y54660000D01*
X15357909Y54724226D01*
X15367345Y54787833D01*
X15382968Y54850210D01*
X15404634Y54910757D01*
X15432123Y54968878D01*
X15465182Y55024034D01*
X15503488Y55075684D01*
X15546670Y55123330D01*
X15594316Y55166512D01*
X15645966Y55204818D01*
X15701122Y55237877D01*
X15759243Y55265366D01*
X15819790Y55287032D01*
X15882167Y55302655D01*
X15945774Y55312091D01*
X16010000Y55315247D01*
X16074226Y55312091D01*
X16137833Y55302655D01*
X16200210Y55287032D01*
X16260757Y55265366D01*
X16318878Y55237877D01*
X16374034Y55204818D01*
X16425684Y55166512D01*
X16473330Y55123330D01*
X16516512Y55075684D01*
X16554818Y55024034D01*
X16587877Y54968878D01*
X16615366Y54910757D01*
X16637032Y54850210D01*
X16652655Y54787833D01*
X16662091Y54724226D01*
X16665247Y54660000D01*
X16662091Y54595774D01*
X16652655Y54532167D01*
X16637032Y54469790D01*
X16615366Y54409243D01*
X16587877Y54351122D01*
X16554818Y54295966D01*
X16516512Y54244316D01*
X16473330Y54196670D01*
X16425684Y54153488D01*
X16374034Y54115182D01*
X16318878Y54082123D01*
X16260757Y54054634D01*
X16200210Y54032968D01*
X16137833Y54017345D01*
X16074226Y54007909D01*
X16010000Y54004753D01*
D02*
G37*
%LPC*%
G36*
X26420000Y51104645D02*
X26283231Y51111364D01*
X26147774Y51131458D01*
X26014948Y51164729D01*
X25886023Y51210859D01*
X25762236Y51269406D01*
X25644784Y51339804D01*
X25534794Y51421378D01*
X25433335Y51513335D01*
X25341378Y51614794D01*
X25259804Y51724784D01*
X25189406Y51842236D01*
X25130859Y51966023D01*
X25084729Y52094948D01*
X25051458Y52227774D01*
X25031364Y52363231D01*
X25024645Y52500000D01*
X25031364Y52636769D01*
X25051458Y52772226D01*
X25084729Y52905052D01*
X25130859Y53033977D01*
X25189406Y53157764D01*
X25259804Y53275216D01*
X25341378Y53385206D01*
X25433335Y53486665D01*
X25534794Y53578622D01*
X25644784Y53660196D01*
X25762236Y53730594D01*
X25886023Y53789141D01*
X26014948Y53835271D01*
X26147774Y53868542D01*
X26283231Y53888636D01*
X26420000Y53895355D01*
X26556769Y53888636D01*
X26692226Y53868542D01*
X26825052Y53835271D01*
X26953977Y53789141D01*
X27077764Y53730594D01*
X27195216Y53660196D01*
X27305206Y53578622D01*
X27406665Y53486665D01*
X27498622Y53385206D01*
X27580196Y53275216D01*
X27650594Y53157764D01*
X27709141Y53033977D01*
X27755271Y52905052D01*
X27788542Y52772226D01*
X27808636Y52636769D01*
X27815355Y52500000D01*
X27808636Y52363231D01*
X27788542Y52227774D01*
X27755271Y52094948D01*
X27709141Y51966023D01*
X27650594Y51842236D01*
X27580196Y51724784D01*
X27498622Y51614794D01*
X27406665Y51513335D01*
X27305206Y51421378D01*
X27195216Y51339804D01*
X27077764Y51269406D01*
X26953977Y51210859D01*
X26825052Y51164729D01*
X26692226Y51131458D01*
X26556769Y51111364D01*
X26420000Y51104645D01*
D02*
G37*
%LPC*%
G36*
X31500000Y51104645D02*
X31363231Y51111364D01*
X31227774Y51131458D01*
X31094948Y51164729D01*
X30966023Y51210859D01*
X30842236Y51269406D01*
X30724784Y51339804D01*
X30614794Y51421378D01*
X30513335Y51513335D01*
X30421378Y51614794D01*
X30339804Y51724784D01*
X30269406Y51842236D01*
X30210859Y51966023D01*
X30164729Y52094948D01*
X30131458Y52227774D01*
X30111364Y52363231D01*
X30104645Y52500000D01*
X30111364Y52636769D01*
X30131458Y52772226D01*
X30164729Y52905052D01*
X30210859Y53033977D01*
X30269406Y53157764D01*
X30339804Y53275216D01*
X30421378Y53385206D01*
X30513335Y53486665D01*
X30614794Y53578622D01*
X30724784Y53660196D01*
X30842236Y53730594D01*
X30966023Y53789141D01*
X31094948Y53835271D01*
X31227774Y53868542D01*
X31363231Y53888636D01*
X31500000Y53895355D01*
X31636769Y53888636D01*
X31772226Y53868542D01*
X31905052Y53835271D01*
X32033977Y53789141D01*
X32157764Y53730594D01*
X32275216Y53660196D01*
X32385206Y53578622D01*
X32486665Y53486665D01*
X32578622Y53385206D01*
X32660196Y53275216D01*
X32730594Y53157764D01*
X32789141Y53033977D01*
X32835271Y52905052D01*
X32868542Y52772226D01*
X32888636Y52636769D01*
X32895355Y52500000D01*
X32888636Y52363231D01*
X32868542Y52227774D01*
X32835271Y52094948D01*
X32789141Y51966023D01*
X32730594Y51842236D01*
X32660196Y51724784D01*
X32578622Y51614794D01*
X32486665Y51513335D01*
X32385206Y51421378D01*
X32275216Y51339804D01*
X32157764Y51269406D01*
X32033977Y51210859D01*
X31905052Y51164729D01*
X31772226Y51131458D01*
X31636769Y51111364D01*
X31500000Y51104645D01*
D02*
G37*
%LPC*%
G36*
X36580000Y51104645D02*
X36443231Y51111364D01*
X36307774Y51131458D01*
X36174948Y51164729D01*
X36046023Y51210859D01*
X35922236Y51269406D01*
X35804784Y51339804D01*
X35694794Y51421378D01*
X35593335Y51513335D01*
X35501378Y51614794D01*
X35419804Y51724784D01*
X35349406Y51842236D01*
X35290859Y51966023D01*
X35244729Y52094948D01*
X35211458Y52227774D01*
X35191364Y52363231D01*
X35184645Y52500000D01*
X35191364Y52636769D01*
X35211458Y52772226D01*
X35244729Y52905052D01*
X35290859Y53033977D01*
X35349406Y53157764D01*
X35419804Y53275216D01*
X35501378Y53385206D01*
X35593335Y53486665D01*
X35694794Y53578622D01*
X35804784Y53660196D01*
X35922236Y53730594D01*
X36046023Y53789141D01*
X36174948Y53835271D01*
X36307774Y53868542D01*
X36443231Y53888636D01*
X36580000Y53895355D01*
X36716769Y53888636D01*
X36852226Y53868542D01*
X36985052Y53835271D01*
X37113977Y53789141D01*
X37237764Y53730594D01*
X37355216Y53660196D01*
X37465206Y53578622D01*
X37566665Y53486665D01*
X37658622Y53385206D01*
X37740196Y53275216D01*
X37810594Y53157764D01*
X37869141Y53033977D01*
X37915271Y52905052D01*
X37948542Y52772226D01*
X37968636Y52636769D01*
X37975355Y52500000D01*
X37968636Y52363231D01*
X37948542Y52227774D01*
X37915271Y52094948D01*
X37869141Y51966023D01*
X37810594Y51842236D01*
X37740196Y51724784D01*
X37658622Y51614794D01*
X37566665Y51513335D01*
X37465206Y51421378D01*
X37355216Y51339804D01*
X37237764Y51269406D01*
X37113977Y51210859D01*
X36985052Y51164729D01*
X36852226Y51131458D01*
X36716769Y51111364D01*
X36580000Y51104645D01*
D02*
G37*
%LPC*%
G36*
X10280000Y50024753D02*
X10191268Y50029113D01*
X10103388Y50042149D01*
X10017224Y50063731D01*
X9933579Y50093661D01*
X9853263Y50131648D01*
X9777079Y50177310D01*
X9705715Y50230237D01*
X9639894Y50289894D01*
X9580237Y50355715D01*
X9527310Y50427079D01*
X9481648Y50503263D01*
X9443661Y50583579D01*
X9413731Y50667224D01*
X9392149Y50753388D01*
X9379113Y50841268D01*
X9374753Y50930000D01*
X9379113Y51018732D01*
X9392149Y51106612D01*
X9413731Y51192776D01*
X9443661Y51276421D01*
X9481648Y51356737D01*
X9527310Y51432921D01*
X9580237Y51504285D01*
X9639894Y51570106D01*
X9705715Y51629763D01*
X9777079Y51682690D01*
X9853263Y51728352D01*
X9933579Y51766339D01*
X10017224Y51796269D01*
X10103388Y51817851D01*
X10191268Y51830887D01*
X10280000Y51835247D01*
X10368732Y51830887D01*
X10456612Y51817851D01*
X10542776Y51796269D01*
X10626421Y51766339D01*
X10706737Y51728352D01*
X10782921Y51682690D01*
X10854285Y51629763D01*
X10920106Y51570106D01*
X10979763Y51504285D01*
X11032690Y51432921D01*
X11078352Y51356737D01*
X11116339Y51276421D01*
X11146269Y51192776D01*
X11167851Y51106612D01*
X11180887Y51018732D01*
X11185247Y50930000D01*
X11180887Y50841268D01*
X11167851Y50753388D01*
X11146269Y50667224D01*
X11116339Y50583579D01*
X11078352Y50503263D01*
X11032690Y50427079D01*
X10979763Y50355715D01*
X10920106Y50289894D01*
X10854285Y50230237D01*
X10782921Y50177310D01*
X10706737Y50131648D01*
X10626421Y50093661D01*
X10542776Y50063731D01*
X10456612Y50042149D01*
X10368732Y50029113D01*
X10280000Y50024753D01*
D02*
G37*
%LPC*%
G36*
X51530000Y47604753D02*
X51441268Y47609113D01*
X51353388Y47622149D01*
X51267224Y47643731D01*
X51183579Y47673661D01*
X51103263Y47711648D01*
X51027079Y47757310D01*
X50955715Y47810237D01*
X50889894Y47869894D01*
X50830237Y47935715D01*
X50777310Y48007079D01*
X50731648Y48083263D01*
X50693661Y48163579D01*
X50663731Y48247224D01*
X50642149Y48333388D01*
X50629113Y48421268D01*
X50624753Y48510000D01*
X50629113Y48598732D01*
X50642149Y48686612D01*
X50663731Y48772776D01*
X50693661Y48856421D01*
X50731648Y48936737D01*
X50777310Y49012921D01*
X50830237Y49084285D01*
X50889894Y49150106D01*
X50955715Y49209763D01*
X51027079Y49262690D01*
X51103263Y49308352D01*
X51183579Y49346339D01*
X51267224Y49376269D01*
X51353388Y49397851D01*
X51441268Y49410887D01*
X51530000Y49415247D01*
X51618732Y49410887D01*
X51706612Y49397851D01*
X51792776Y49376269D01*
X51876421Y49346339D01*
X51956737Y49308352D01*
X52032921Y49262690D01*
X52104285Y49209763D01*
X52170106Y49150106D01*
X52229763Y49084285D01*
X52282690Y49012921D01*
X52328352Y48936737D01*
X52366339Y48856421D01*
X52396269Y48772776D01*
X52417851Y48686612D01*
X52430887Y48598732D01*
X52435247Y48510000D01*
X52430887Y48421268D01*
X52417851Y48333388D01*
X52396269Y48247224D01*
X52366339Y48163579D01*
X52328352Y48083263D01*
X52282690Y48007079D01*
X52229763Y47935715D01*
X52170106Y47869894D01*
X52104285Y47810237D01*
X52032921Y47757310D01*
X51956737Y47711648D01*
X51876421Y47673661D01*
X51792776Y47643731D01*
X51706612Y47622149D01*
X51618732Y47609113D01*
X51530000Y47604753D01*
D02*
G37*
%LPC*%
G36*
X35750000Y40404643D02*
X35642644Y40409919D01*
X35536304Y40425692D01*
X35432032Y40451811D01*
X35330829Y40488022D01*
X35233655Y40533982D01*
X35141454Y40589245D01*
X35055113Y40653280D01*
X34975467Y40725467D01*
X34903280Y40805113D01*
X34839245Y40891454D01*
X34783982Y40983655D01*
X34738022Y41080829D01*
X34701811Y41182032D01*
X34675692Y41286304D01*
X34659919Y41392644D01*
X34654643Y41500000D01*
X34659919Y41607356D01*
X34675692Y41713696D01*
X34701811Y41817968D01*
X34738022Y41919171D01*
X34783982Y42016345D01*
X34839245Y42108546D01*
X34903280Y42194887D01*
X34975467Y42274533D01*
X35055113Y42346720D01*
X35141454Y42410755D01*
X35233655Y42466018D01*
X35330829Y42511978D01*
X35432032Y42548189D01*
X35536304Y42574308D01*
X35642644Y42590081D01*
X35750000Y42595357D01*
X35857356Y42590081D01*
X35963696Y42574308D01*
X36067968Y42548189D01*
X36169171Y42511978D01*
X36266345Y42466018D01*
X36358546Y42410755D01*
X36444887Y42346720D01*
X36524533Y42274533D01*
X36596720Y42194887D01*
X36660755Y42108546D01*
X36716018Y42016345D01*
X36761978Y41919171D01*
X36798189Y41817968D01*
X36824308Y41713696D01*
X36840081Y41607356D01*
X36845357Y41500000D01*
X36840081Y41392644D01*
X36824308Y41286304D01*
X36798189Y41182032D01*
X36761978Y41080829D01*
X36716018Y40983655D01*
X36660755Y40891454D01*
X36596720Y40805113D01*
X36524533Y40725467D01*
X36444887Y40653280D01*
X36358546Y40589245D01*
X36266345Y40533982D01*
X36169171Y40488022D01*
X36067968Y40451811D01*
X35963696Y40425692D01*
X35857356Y40409919D01*
X35750000Y40404643D01*
D02*
G37*
%LPC*%
G36*
X35750000Y37904643D02*
X35642644Y37909919D01*
X35536304Y37925692D01*
X35432032Y37951811D01*
X35330829Y37988022D01*
X35233655Y38033982D01*
X35141454Y38089245D01*
X35055113Y38153280D01*
X34975467Y38225467D01*
X34903280Y38305113D01*
X34839245Y38391454D01*
X34783982Y38483655D01*
X34738022Y38580829D01*
X34701811Y38682032D01*
X34675692Y38786304D01*
X34659919Y38892644D01*
X34654643Y39000000D01*
X34659919Y39107356D01*
X34675692Y39213696D01*
X34701811Y39317968D01*
X34738022Y39419171D01*
X34783982Y39516345D01*
X34839245Y39608546D01*
X34903280Y39694887D01*
X34975467Y39774533D01*
X35055113Y39846720D01*
X35141454Y39910755D01*
X35233655Y39966018D01*
X35330829Y40011978D01*
X35432032Y40048189D01*
X35536304Y40074308D01*
X35642644Y40090081D01*
X35750000Y40095357D01*
X35857356Y40090081D01*
X35963696Y40074308D01*
X36067968Y40048189D01*
X36169171Y40011978D01*
X36266345Y39966018D01*
X36358546Y39910755D01*
X36444887Y39846720D01*
X36524533Y39774533D01*
X36596720Y39694887D01*
X36660755Y39608546D01*
X36716018Y39516345D01*
X36761978Y39419171D01*
X36798189Y39317968D01*
X36824308Y39213696D01*
X36840081Y39107356D01*
X36845357Y39000000D01*
X36840081Y38892644D01*
X36824308Y38786304D01*
X36798189Y38682032D01*
X36761978Y38580829D01*
X36716018Y38483655D01*
X36660755Y38391454D01*
X36596720Y38305113D01*
X36524533Y38225467D01*
X36444887Y38153280D01*
X36358546Y38089245D01*
X36266345Y38033982D01*
X36169171Y37988022D01*
X36067968Y37951811D01*
X35963696Y37925692D01*
X35857356Y37909919D01*
X35750000Y37904643D01*
D02*
G37*
%LPC*%
G36*
X4500000Y35154643D02*
X4368140Y35161123D01*
X4237532Y35180496D01*
X4109471Y35212574D01*
X3985153Y35257055D01*
X3865802Y35313504D01*
X3752555Y35381381D01*
X3646521Y35460022D01*
X3548690Y35548690D01*
X3460022Y35646521D01*
X3381381Y35752555D01*
X3313504Y35865802D01*
X3257055Y35985153D01*
X3212574Y36109471D01*
X3180496Y36237532D01*
X3161123Y36368140D01*
X3154643Y36500000D01*
X3161123Y36631860D01*
X3180496Y36762468D01*
X3212574Y36890529D01*
X3257055Y37014847D01*
X3313504Y37134198D01*
X3381381Y37247445D01*
X3460022Y37353479D01*
X3548690Y37451310D01*
X3646521Y37539978D01*
X3752555Y37618619D01*
X3865802Y37686496D01*
X3985153Y37742945D01*
X4109471Y37787426D01*
X4237532Y37819504D01*
X4368140Y37838877D01*
X4500000Y37845357D01*
X4631860Y37838877D01*
X4762468Y37819504D01*
X4890529Y37787426D01*
X5014847Y37742945D01*
X5134198Y37686496D01*
X5247445Y37618619D01*
X5353479Y37539978D01*
X5451310Y37451310D01*
X5539978Y37353479D01*
X5618619Y37247445D01*
X5686496Y37134198D01*
X5742945Y37014847D01*
X5787426Y36890529D01*
X5819504Y36762468D01*
X5838877Y36631860D01*
X5845357Y36500000D01*
X5838877Y36368140D01*
X5819504Y36237532D01*
X5787426Y36109471D01*
X5742945Y35985153D01*
X5686496Y35865802D01*
X5618619Y35752555D01*
X5539978Y35646521D01*
X5451310Y35548690D01*
X5353479Y35460022D01*
X5247445Y35381381D01*
X5134198Y35313504D01*
X5014847Y35257055D01*
X4890529Y35212574D01*
X4762468Y35180496D01*
X4631860Y35161123D01*
X4500000Y35154643D01*
D02*
G37*
%LPC*%
G36*
X58500000Y35154643D02*
X58368140Y35161123D01*
X58237532Y35180496D01*
X58109471Y35212574D01*
X57985153Y35257055D01*
X57865802Y35313504D01*
X57752555Y35381381D01*
X57646521Y35460022D01*
X57548690Y35548690D01*
X57460022Y35646521D01*
X57381381Y35752555D01*
X57313504Y35865802D01*
X57257055Y35985153D01*
X57212574Y36109471D01*
X57180496Y36237532D01*
X57161123Y36368140D01*
X57154643Y36500000D01*
X57161123Y36631860D01*
X57180496Y36762468D01*
X57212574Y36890529D01*
X57257055Y37014847D01*
X57313504Y37134198D01*
X57381381Y37247445D01*
X57460022Y37353479D01*
X57548690Y37451310D01*
X57646521Y37539978D01*
X57752555Y37618619D01*
X57865802Y37686496D01*
X57985153Y37742945D01*
X58109471Y37787426D01*
X58237532Y37819504D01*
X58368140Y37838877D01*
X58500000Y37845357D01*
X58631860Y37838877D01*
X58762468Y37819504D01*
X58890529Y37787426D01*
X59014847Y37742945D01*
X59134198Y37686496D01*
X59247445Y37618619D01*
X59353479Y37539978D01*
X59451310Y37451310D01*
X59539978Y37353479D01*
X59618619Y37247445D01*
X59686496Y37134198D01*
X59742945Y37014847D01*
X59787426Y36890529D01*
X59819504Y36762468D01*
X59838877Y36631860D01*
X59845357Y36500000D01*
X59838877Y36368140D01*
X59819504Y36237532D01*
X59787426Y36109471D01*
X59742945Y35985153D01*
X59686496Y35865802D01*
X59618619Y35752555D01*
X59539978Y35646521D01*
X59451310Y35548690D01*
X59353479Y35460022D01*
X59247445Y35381381D01*
X59134198Y35313504D01*
X59014847Y35257055D01*
X58890529Y35212574D01*
X58762468Y35180496D01*
X58631860Y35161123D01*
X58500000Y35154643D01*
D02*
G37*
%LPC*%
G36*
X53500000Y35154643D02*
X53368140Y35161123D01*
X53237532Y35180496D01*
X53109471Y35212574D01*
X52985153Y35257055D01*
X52865802Y35313504D01*
X52752555Y35381381D01*
X52646521Y35460022D01*
X52548690Y35548690D01*
X52460022Y35646521D01*
X52381381Y35752555D01*
X52313504Y35865802D01*
X52257055Y35985153D01*
X52212574Y36109471D01*
X52180496Y36237532D01*
X52161123Y36368140D01*
X52154643Y36500000D01*
X52161123Y36631860D01*
X52180496Y36762468D01*
X52212574Y36890529D01*
X52257055Y37014847D01*
X52313504Y37134198D01*
X52381381Y37247445D01*
X52460022Y37353479D01*
X52548690Y37451310D01*
X52646521Y37539978D01*
X52752555Y37618619D01*
X52865802Y37686496D01*
X52985153Y37742945D01*
X53109471Y37787426D01*
X53237532Y37819504D01*
X53368140Y37838877D01*
X53500000Y37845357D01*
X53631860Y37838877D01*
X53762468Y37819504D01*
X53890529Y37787426D01*
X54014847Y37742945D01*
X54134198Y37686496D01*
X54247445Y37618619D01*
X54353479Y37539978D01*
X54451310Y37451310D01*
X54539978Y37353479D01*
X54618619Y37247445D01*
X54686496Y37134198D01*
X54742945Y37014847D01*
X54787426Y36890529D01*
X54819504Y36762468D01*
X54838877Y36631860D01*
X54845357Y36500000D01*
X54838877Y36368140D01*
X54819504Y36237532D01*
X54787426Y36109471D01*
X54742945Y35985153D01*
X54686496Y35865802D01*
X54618619Y35752555D01*
X54539978Y35646521D01*
X54451310Y35548690D01*
X54353479Y35460022D01*
X54247445Y35381381D01*
X54134198Y35313504D01*
X54014847Y35257055D01*
X53890529Y35212574D01*
X53762468Y35180496D01*
X53631860Y35161123D01*
X53500000Y35154643D01*
D02*
G37*
%LPC*%
G36*
X14500000Y35154643D02*
X14368140Y35161123D01*
X14237532Y35180496D01*
X14109471Y35212574D01*
X13985153Y35257055D01*
X13865802Y35313504D01*
X13752555Y35381381D01*
X13646521Y35460022D01*
X13548690Y35548690D01*
X13460022Y35646521D01*
X13381381Y35752555D01*
X13313504Y35865802D01*
X13257055Y35985153D01*
X13212574Y36109471D01*
X13180496Y36237532D01*
X13161123Y36368140D01*
X13154643Y36500000D01*
X13161123Y36631860D01*
X13180496Y36762468D01*
X13212574Y36890529D01*
X13257055Y37014847D01*
X13313504Y37134198D01*
X13381381Y37247445D01*
X13460022Y37353479D01*
X13548690Y37451310D01*
X13646521Y37539978D01*
X13752555Y37618619D01*
X13865802Y37686496D01*
X13985153Y37742945D01*
X14109471Y37787426D01*
X14237532Y37819504D01*
X14368140Y37838877D01*
X14500000Y37845357D01*
X14631860Y37838877D01*
X14762468Y37819504D01*
X14890529Y37787426D01*
X15014847Y37742945D01*
X15134198Y37686496D01*
X15247445Y37618619D01*
X15353479Y37539978D01*
X15451310Y37451310D01*
X15539978Y37353479D01*
X15618619Y37247445D01*
X15686496Y37134198D01*
X15742945Y37014847D01*
X15787426Y36890529D01*
X15819504Y36762468D01*
X15838877Y36631860D01*
X15845357Y36500000D01*
X15838877Y36368140D01*
X15819504Y36237532D01*
X15787426Y36109471D01*
X15742945Y35985153D01*
X15686496Y35865802D01*
X15618619Y35752555D01*
X15539978Y35646521D01*
X15451310Y35548690D01*
X15353479Y35460022D01*
X15247445Y35381381D01*
X15134198Y35313504D01*
X15014847Y35257055D01*
X14890529Y35212574D01*
X14762468Y35180496D01*
X14631860Y35161123D01*
X14500000Y35154643D01*
D02*
G37*
%LPC*%
G36*
X9500000Y35154643D02*
X9368140Y35161123D01*
X9237532Y35180496D01*
X9109471Y35212574D01*
X8985153Y35257055D01*
X8865802Y35313504D01*
X8752555Y35381381D01*
X8646521Y35460022D01*
X8548690Y35548690D01*
X8460022Y35646521D01*
X8381381Y35752555D01*
X8313504Y35865802D01*
X8257055Y35985153D01*
X8212574Y36109471D01*
X8180496Y36237532D01*
X8161123Y36368140D01*
X8154643Y36500000D01*
X8161123Y36631860D01*
X8180496Y36762468D01*
X8212574Y36890529D01*
X8257055Y37014847D01*
X8313504Y37134198D01*
X8381381Y37247445D01*
X8460022Y37353479D01*
X8548690Y37451310D01*
X8646521Y37539978D01*
X8752555Y37618619D01*
X8865802Y37686496D01*
X8985153Y37742945D01*
X9109471Y37787426D01*
X9237532Y37819504D01*
X9368140Y37838877D01*
X9500000Y37845357D01*
X9631860Y37838877D01*
X9762468Y37819504D01*
X9890529Y37787426D01*
X10014847Y37742945D01*
X10134198Y37686496D01*
X10247445Y37618619D01*
X10353479Y37539978D01*
X10451310Y37451310D01*
X10539978Y37353479D01*
X10618619Y37247445D01*
X10686496Y37134198D01*
X10742945Y37014847D01*
X10787426Y36890529D01*
X10819504Y36762468D01*
X10838877Y36631860D01*
X10845357Y36500000D01*
X10838877Y36368140D01*
X10819504Y36237532D01*
X10787426Y36109471D01*
X10742945Y35985153D01*
X10686496Y35865802D01*
X10618619Y35752555D01*
X10539978Y35646521D01*
X10451310Y35548690D01*
X10353479Y35460022D01*
X10247445Y35381381D01*
X10134198Y35313504D01*
X10014847Y35257055D01*
X9890529Y35212574D01*
X9762468Y35180496D01*
X9631860Y35161123D01*
X9500000Y35154643D01*
D02*
G37*
%LPC*%
G36*
X48500000Y35154643D02*
X48368140Y35161123D01*
X48237532Y35180496D01*
X48109471Y35212574D01*
X47985153Y35257055D01*
X47865802Y35313504D01*
X47752555Y35381381D01*
X47646521Y35460022D01*
X47548690Y35548690D01*
X47460022Y35646521D01*
X47381381Y35752555D01*
X47313504Y35865802D01*
X47257055Y35985153D01*
X47212574Y36109471D01*
X47180496Y36237532D01*
X47161123Y36368140D01*
X47154643Y36500000D01*
X47161123Y36631860D01*
X47180496Y36762468D01*
X47212574Y36890529D01*
X47257055Y37014847D01*
X47313504Y37134198D01*
X47381381Y37247445D01*
X47460022Y37353479D01*
X47548690Y37451310D01*
X47646521Y37539978D01*
X47752555Y37618619D01*
X47865802Y37686496D01*
X47985153Y37742945D01*
X48109471Y37787426D01*
X48237532Y37819504D01*
X48368140Y37838877D01*
X48500000Y37845357D01*
X48631860Y37838877D01*
X48762468Y37819504D01*
X48890529Y37787426D01*
X49014847Y37742945D01*
X49134198Y37686496D01*
X49247445Y37618619D01*
X49353479Y37539978D01*
X49451310Y37451310D01*
X49539978Y37353479D01*
X49618619Y37247445D01*
X49686496Y37134198D01*
X49742945Y37014847D01*
X49787426Y36890529D01*
X49819504Y36762468D01*
X49838877Y36631860D01*
X49845357Y36500000D01*
X49838877Y36368140D01*
X49819504Y36237532D01*
X49787426Y36109471D01*
X49742945Y35985153D01*
X49686496Y35865802D01*
X49618619Y35752555D01*
X49539978Y35646521D01*
X49451310Y35548690D01*
X49353479Y35460022D01*
X49247445Y35381381D01*
X49134198Y35313504D01*
X49014847Y35257055D01*
X48890529Y35212574D01*
X48762468Y35180496D01*
X48631860Y35161123D01*
X48500000Y35154643D01*
D02*
G37*
%LPC*%
G36*
X35750000Y35404643D02*
X35642644Y35409919D01*
X35536304Y35425692D01*
X35432032Y35451811D01*
X35330829Y35488022D01*
X35233655Y35533982D01*
X35141454Y35589245D01*
X35055113Y35653280D01*
X34975467Y35725467D01*
X34903280Y35805113D01*
X34839245Y35891454D01*
X34783982Y35983655D01*
X34738022Y36080829D01*
X34701811Y36182032D01*
X34675692Y36286304D01*
X34659919Y36392644D01*
X34654643Y36500000D01*
X34659919Y36607356D01*
X34675692Y36713696D01*
X34701811Y36817968D01*
X34738022Y36919171D01*
X34783982Y37016345D01*
X34839245Y37108546D01*
X34903280Y37194887D01*
X34975467Y37274533D01*
X35055113Y37346720D01*
X35141454Y37410755D01*
X35233655Y37466018D01*
X35330829Y37511978D01*
X35432032Y37548189D01*
X35536304Y37574308D01*
X35642644Y37590081D01*
X35750000Y37595357D01*
X35857356Y37590081D01*
X35963696Y37574308D01*
X36067968Y37548189D01*
X36169171Y37511978D01*
X36266345Y37466018D01*
X36358546Y37410755D01*
X36444887Y37346720D01*
X36524533Y37274533D01*
X36596720Y37194887D01*
X36660755Y37108546D01*
X36716018Y37016345D01*
X36761978Y36919171D01*
X36798189Y36817968D01*
X36824308Y36713696D01*
X36840081Y36607356D01*
X36845357Y36500000D01*
X36840081Y36392644D01*
X36824308Y36286304D01*
X36798189Y36182032D01*
X36761978Y36080829D01*
X36716018Y35983655D01*
X36660755Y35891454D01*
X36596720Y35805113D01*
X36524533Y35725467D01*
X36444887Y35653280D01*
X36358546Y35589245D01*
X36266345Y35533982D01*
X36169171Y35488022D01*
X36067968Y35451811D01*
X35963696Y35425692D01*
X35857356Y35409919D01*
X35750000Y35404643D01*
D02*
G37*
%LPC*%
G36*
X26950000Y32874643D02*
X26842644Y32879919D01*
X26736304Y32895692D01*
X26632032Y32921811D01*
X26530829Y32958022D01*
X26433655Y33003982D01*
X26341454Y33059245D01*
X26255113Y33123280D01*
X26175467Y33195467D01*
X26103280Y33275113D01*
X26039245Y33361454D01*
X25983982Y33453655D01*
X25938022Y33550829D01*
X25901811Y33652032D01*
X25875692Y33756304D01*
X25859919Y33862644D01*
X25854643Y33970000D01*
X25859919Y34077356D01*
X25875692Y34183696D01*
X25901811Y34287968D01*
X25938022Y34389171D01*
X25983982Y34486345D01*
X26039245Y34578546D01*
X26103280Y34664887D01*
X26175467Y34744533D01*
X26255113Y34816720D01*
X26341454Y34880755D01*
X26433655Y34936018D01*
X26530829Y34981978D01*
X26632032Y35018189D01*
X26736304Y35044308D01*
X26842644Y35060081D01*
X26950000Y35065357D01*
X27057356Y35060081D01*
X27163696Y35044308D01*
X27267968Y35018189D01*
X27369171Y34981978D01*
X27466345Y34936018D01*
X27558546Y34880755D01*
X27644887Y34816720D01*
X27724533Y34744533D01*
X27796720Y34664887D01*
X27860755Y34578546D01*
X27916018Y34486345D01*
X27961978Y34389171D01*
X27998189Y34287968D01*
X28024308Y34183696D01*
X28040081Y34077356D01*
X28045357Y33970000D01*
X28040081Y33862644D01*
X28024308Y33756304D01*
X27998189Y33652032D01*
X27961978Y33550829D01*
X27916018Y33453655D01*
X27860755Y33361454D01*
X27796720Y33275113D01*
X27724533Y33195467D01*
X27644887Y33123280D01*
X27558546Y33059245D01*
X27466345Y33003982D01*
X27369171Y32958022D01*
X27267968Y32921811D01*
X27163696Y32895692D01*
X27057356Y32879919D01*
X26950000Y32874643D01*
D02*
G37*
%LPC*%
G36*
X31750000Y32874643D02*
X31642644Y32879919D01*
X31536304Y32895692D01*
X31432032Y32921811D01*
X31330829Y32958022D01*
X31233655Y33003982D01*
X31141454Y33059245D01*
X31055113Y33123280D01*
X30975467Y33195467D01*
X30903280Y33275113D01*
X30839245Y33361454D01*
X30783982Y33453655D01*
X30738022Y33550829D01*
X30701811Y33652032D01*
X30675692Y33756304D01*
X30659919Y33862644D01*
X30654643Y33970000D01*
X30659919Y34077356D01*
X30675692Y34183696D01*
X30701811Y34287968D01*
X30738022Y34389171D01*
X30783982Y34486345D01*
X30839245Y34578546D01*
X30903280Y34664887D01*
X30975467Y34744533D01*
X31055113Y34816720D01*
X31141454Y34880755D01*
X31233655Y34936018D01*
X31330829Y34981978D01*
X31432032Y35018189D01*
X31536304Y35044308D01*
X31642644Y35060081D01*
X31750000Y35065357D01*
X31857356Y35060081D01*
X31963696Y35044308D01*
X32067968Y35018189D01*
X32169171Y34981978D01*
X32266345Y34936018D01*
X32358546Y34880755D01*
X32444887Y34816720D01*
X32524533Y34744533D01*
X32596720Y34664887D01*
X32660755Y34578546D01*
X32716018Y34486345D01*
X32761978Y34389171D01*
X32798189Y34287968D01*
X32824308Y34183696D01*
X32840081Y34077356D01*
X32845357Y33970000D01*
X32840081Y33862644D01*
X32824308Y33756304D01*
X32798189Y33652032D01*
X32761978Y33550829D01*
X32716018Y33453655D01*
X32660755Y33361454D01*
X32596720Y33275113D01*
X32524533Y33195467D01*
X32444887Y33123280D01*
X32358546Y33059245D01*
X32266345Y33003982D01*
X32169171Y32958022D01*
X32067968Y32921811D01*
X31963696Y32895692D01*
X31857356Y32879919D01*
X31750000Y32874643D01*
D02*
G37*
%LPC*%
G36*
X25000000Y15094753D02*
X24911268Y15099113D01*
X24823388Y15112149D01*
X24737224Y15133731D01*
X24653579Y15163661D01*
X24573263Y15201648D01*
X24497079Y15247310D01*
X24425715Y15300237D01*
X24359894Y15359894D01*
X24300237Y15425715D01*
X24247310Y15497079D01*
X24201648Y15573263D01*
X24163661Y15653579D01*
X24133731Y15737224D01*
X24112149Y15823388D01*
X24099113Y15911268D01*
X24094753Y16000000D01*
X24099113Y16088732D01*
X24112149Y16176612D01*
X24133731Y16262776D01*
X24163661Y16346421D01*
X24201648Y16426737D01*
X24247310Y16502921D01*
X24300237Y16574285D01*
X24359894Y16640106D01*
X24425715Y16699763D01*
X24497079Y16752690D01*
X24573263Y16798352D01*
X24653579Y16836339D01*
X24737224Y16866269D01*
X24823388Y16887851D01*
X24911268Y16900887D01*
X25000000Y16905247D01*
X25088732Y16900887D01*
X25176612Y16887851D01*
X25262776Y16866269D01*
X25346421Y16836339D01*
X25426737Y16798352D01*
X25502921Y16752690D01*
X25574285Y16699763D01*
X25640106Y16640106D01*
X25699763Y16574285D01*
X25752690Y16502921D01*
X25798352Y16426737D01*
X25836339Y16346421D01*
X25866269Y16262776D01*
X25887851Y16176612D01*
X25900887Y16088732D01*
X25905247Y16000000D01*
X25900887Y15911268D01*
X25887851Y15823388D01*
X25866269Y15737224D01*
X25836339Y15653579D01*
X25798352Y15573263D01*
X25752690Y15497079D01*
X25699763Y15425715D01*
X25640106Y15359894D01*
X25574285Y15300237D01*
X25502921Y15247310D01*
X25426737Y15201648D01*
X25346421Y15163661D01*
X25262776Y15133731D01*
X25176612Y15112149D01*
X25088732Y15099113D01*
X25000000Y15094753D01*
D02*
G37*
%LPC*%
G36*
X38050000Y15024753D02*
X37961268Y15029113D01*
X37873388Y15042149D01*
X37787224Y15063731D01*
X37703579Y15093661D01*
X37623263Y15131648D01*
X37547079Y15177310D01*
X37475715Y15230237D01*
X37409894Y15289894D01*
X37350237Y15355715D01*
X37297310Y15427079D01*
X37251648Y15503263D01*
X37213661Y15583579D01*
X37183731Y15667224D01*
X37162149Y15753388D01*
X37149113Y15841268D01*
X37144753Y15930000D01*
X37149113Y16018732D01*
X37162149Y16106612D01*
X37183731Y16192776D01*
X37213661Y16276421D01*
X37251648Y16356737D01*
X37297310Y16432921D01*
X37350237Y16504285D01*
X37409894Y16570106D01*
X37475715Y16629763D01*
X37547079Y16682690D01*
X37623263Y16728352D01*
X37703579Y16766339D01*
X37787224Y16796269D01*
X37873388Y16817851D01*
X37961268Y16830887D01*
X38050000Y16835247D01*
X38138732Y16830887D01*
X38226612Y16817851D01*
X38312776Y16796269D01*
X38396421Y16766339D01*
X38476737Y16728352D01*
X38552921Y16682690D01*
X38624285Y16629763D01*
X38690106Y16570106D01*
X38749763Y16504285D01*
X38802690Y16432921D01*
X38848352Y16356737D01*
X38886339Y16276421D01*
X38916269Y16192776D01*
X38937851Y16106612D01*
X38950887Y16018732D01*
X38955247Y15930000D01*
X38950887Y15841268D01*
X38937851Y15753388D01*
X38916269Y15667224D01*
X38886339Y15583579D01*
X38848352Y15503263D01*
X38802690Y15427079D01*
X38749763Y15355715D01*
X38690106Y15289894D01*
X38624285Y15230237D01*
X38552921Y15177310D01*
X38476737Y15131648D01*
X38396421Y15093661D01*
X38312776Y15063731D01*
X38226612Y15042149D01*
X38138732Y15029113D01*
X38050000Y15024753D01*
D02*
G37*
%LPC*%
G36*
X10727083Y6545908D02*
X10614819Y6551423D01*
X10503630Y6567917D01*
X10394602Y6595227D01*
X10288778Y6633091D01*
X10187173Y6681146D01*
X10090755Y6738937D01*
X10000474Y6805894D01*
X9917195Y6881375D01*
X9841714Y6964654D01*
X9774757Y7054935D01*
X9716966Y7151353D01*
X9668911Y7252958D01*
X9631047Y7358782D01*
X9603737Y7467810D01*
X9587243Y7578999D01*
X9581728Y7691263D01*
X9587243Y7803527D01*
X9603737Y7914716D01*
X9631047Y8023744D01*
X9668911Y8129568D01*
X9716966Y8231173D01*
X9774757Y8327591D01*
X9841714Y8417872D01*
X9917195Y8501151D01*
X10000474Y8576632D01*
X10090755Y8643589D01*
X10187173Y8701380D01*
X10288778Y8749435D01*
X10394602Y8787299D01*
X10503630Y8814609D01*
X10614819Y8831103D01*
X10727083Y8836618D01*
X10839347Y8831103D01*
X10950536Y8814609D01*
X11059564Y8787299D01*
X11165388Y8749435D01*
X11266993Y8701380D01*
X11363411Y8643589D01*
X11453692Y8576632D01*
X11536971Y8501151D01*
X11612452Y8417872D01*
X11679409Y8327591D01*
X11737200Y8231173D01*
X11785255Y8129568D01*
X11823119Y8023744D01*
X11850429Y7914716D01*
X11866923Y7803527D01*
X11872438Y7691263D01*
X11866923Y7578999D01*
X11850429Y7467810D01*
X11823119Y7358782D01*
X11785255Y7252958D01*
X11737200Y7151353D01*
X11679409Y7054935D01*
X11612452Y6964654D01*
X11536971Y6881375D01*
X11453692Y6805894D01*
X11363411Y6738937D01*
X11266993Y6681146D01*
X11165388Y6633091D01*
X11059564Y6595227D01*
X10950536Y6567917D01*
X10839347Y6551423D01*
X10727083Y6545908D01*
D02*
G37*
%LPC*%
G36*
X54737083Y6545908D02*
X54624819Y6551423D01*
X54513630Y6567917D01*
X54404602Y6595227D01*
X54298778Y6633091D01*
X54197173Y6681146D01*
X54100755Y6738937D01*
X54010474Y6805894D01*
X53927195Y6881375D01*
X53851714Y6964654D01*
X53784757Y7054935D01*
X53726966Y7151353D01*
X53678911Y7252958D01*
X53641047Y7358782D01*
X53613737Y7467810D01*
X53597243Y7578999D01*
X53591728Y7691263D01*
X53597243Y7803527D01*
X53613737Y7914716D01*
X53641047Y8023744D01*
X53678911Y8129568D01*
X53726966Y8231173D01*
X53784757Y8327591D01*
X53851714Y8417872D01*
X53927195Y8501151D01*
X54010474Y8576632D01*
X54100755Y8643589D01*
X54197173Y8701380D01*
X54298778Y8749435D01*
X54404602Y8787299D01*
X54513630Y8814609D01*
X54624819Y8831103D01*
X54737083Y8836618D01*
X54849347Y8831103D01*
X54960536Y8814609D01*
X55069564Y8787299D01*
X55175388Y8749435D01*
X55276993Y8701380D01*
X55373411Y8643589D01*
X55463692Y8576632D01*
X55546971Y8501151D01*
X55622452Y8417872D01*
X55689409Y8327591D01*
X55747200Y8231173D01*
X55795255Y8129568D01*
X55833119Y8023744D01*
X55860429Y7914716D01*
X55876923Y7803527D01*
X55882438Y7691263D01*
X55876923Y7578999D01*
X55860429Y7467810D01*
X55833119Y7358782D01*
X55795255Y7252958D01*
X55747200Y7151353D01*
X55689409Y7054935D01*
X55622452Y6964654D01*
X55546971Y6881375D01*
X55463692Y6805894D01*
X55373411Y6738937D01*
X55276993Y6681146D01*
X55175388Y6633091D01*
X55069564Y6595227D01*
X54960536Y6567917D01*
X54849347Y6551423D01*
X54737083Y6545908D01*
D02*
G37*
%LPC*%
G36*
X20249000Y2094645D02*
X20136736Y2100160D01*
X20025547Y2116654D01*
X19916519Y2143964D01*
X19810695Y2181828D01*
X19709090Y2229883D01*
X19612672Y2287674D01*
X19522391Y2354631D01*
X19439112Y2430112D01*
X19363631Y2513391D01*
X19296674Y2603672D01*
X19238883Y2700090D01*
X19190828Y2801695D01*
X19152964Y2907519D01*
X19125654Y3016547D01*
X19109160Y3127736D01*
X19103645Y3240000D01*
X19109160Y3352264D01*
X19125654Y3463453D01*
X19152964Y3572481D01*
X19190828Y3678305D01*
X19238883Y3779910D01*
X19296674Y3876328D01*
X19363631Y3966609D01*
X19439112Y4049888D01*
X19522391Y4125369D01*
X19612672Y4192326D01*
X19709090Y4250117D01*
X19810695Y4298172D01*
X19916519Y4336036D01*
X20025547Y4363346D01*
X20136736Y4379840D01*
X20249000Y4385355D01*
X20361264Y4379840D01*
X20472453Y4363346D01*
X20581481Y4336036D01*
X20687305Y4298172D01*
X20788910Y4250117D01*
X20885328Y4192326D01*
X20975609Y4125369D01*
X21058888Y4049888D01*
X21134369Y3966609D01*
X21201326Y3876328D01*
X21259117Y3779910D01*
X21307172Y3678305D01*
X21345036Y3572481D01*
X21372346Y3463453D01*
X21388840Y3352264D01*
X21394355Y3240000D01*
X21388840Y3127736D01*
X21372346Y3016547D01*
X21345036Y2907519D01*
X21307172Y2801695D01*
X21259117Y2700090D01*
X21201326Y2603672D01*
X21134369Y2513391D01*
X21058888Y2430112D01*
X20975609Y2354631D01*
X20885328Y2287674D01*
X20788910Y2229883D01*
X20687305Y2181828D01*
X20581481Y2143964D01*
X20472453Y2116654D01*
X20361264Y2100160D01*
X20249000Y2094645D01*
D02*
G37*
%LPC*%
G36*
X25249000Y2094645D02*
X25136736Y2100160D01*
X25025547Y2116654D01*
X24916519Y2143964D01*
X24810695Y2181828D01*
X24709090Y2229883D01*
X24612672Y2287674D01*
X24522391Y2354631D01*
X24439112Y2430112D01*
X24363631Y2513391D01*
X24296674Y2603672D01*
X24238883Y2700090D01*
X24190828Y2801695D01*
X24152964Y2907519D01*
X24125654Y3016547D01*
X24109160Y3127736D01*
X24103645Y3240000D01*
X24109160Y3352264D01*
X24125654Y3463453D01*
X24152964Y3572481D01*
X24190828Y3678305D01*
X24238883Y3779910D01*
X24296674Y3876328D01*
X24363631Y3966609D01*
X24439112Y4049888D01*
X24522391Y4125369D01*
X24612672Y4192326D01*
X24709090Y4250117D01*
X24810695Y4298172D01*
X24916519Y4336036D01*
X25025547Y4363346D01*
X25136736Y4379840D01*
X25249000Y4385355D01*
X25361264Y4379840D01*
X25472453Y4363346D01*
X25581481Y4336036D01*
X25687305Y4298172D01*
X25788910Y4250117D01*
X25885328Y4192326D01*
X25975609Y4125369D01*
X26058888Y4049888D01*
X26134369Y3966609D01*
X26201326Y3876328D01*
X26259117Y3779910D01*
X26307172Y3678305D01*
X26345036Y3572481D01*
X26372346Y3463453D01*
X26388840Y3352264D01*
X26394355Y3240000D01*
X26388840Y3127736D01*
X26372346Y3016547D01*
X26345036Y2907519D01*
X26307172Y2801695D01*
X26259117Y2700090D01*
X26201326Y2603672D01*
X26134369Y2513391D01*
X26058888Y2430112D01*
X25975609Y2354631D01*
X25885328Y2287674D01*
X25788910Y2229883D01*
X25687305Y2181828D01*
X25581481Y2143964D01*
X25472453Y2116654D01*
X25361264Y2100160D01*
X25249000Y2094645D01*
D02*
G37*
%LPC*%
G36*
X27749000Y2094645D02*
X27636736Y2100160D01*
X27525547Y2116654D01*
X27416519Y2143964D01*
X27310695Y2181828D01*
X27209090Y2229883D01*
X27112672Y2287674D01*
X27022391Y2354631D01*
X26939112Y2430112D01*
X26863631Y2513391D01*
X26796674Y2603672D01*
X26738883Y2700090D01*
X26690828Y2801695D01*
X26652964Y2907519D01*
X26625654Y3016547D01*
X26609160Y3127736D01*
X26603645Y3240000D01*
X26609160Y3352264D01*
X26625654Y3463453D01*
X26652964Y3572481D01*
X26690828Y3678305D01*
X26738883Y3779910D01*
X26796674Y3876328D01*
X26863631Y3966609D01*
X26939112Y4049888D01*
X27022391Y4125369D01*
X27112672Y4192326D01*
X27209090Y4250117D01*
X27310695Y4298172D01*
X27416519Y4336036D01*
X27525547Y4363346D01*
X27636736Y4379840D01*
X27749000Y4385355D01*
X27861264Y4379840D01*
X27972453Y4363346D01*
X28081481Y4336036D01*
X28187305Y4298172D01*
X28288910Y4250117D01*
X28385328Y4192326D01*
X28475609Y4125369D01*
X28558888Y4049888D01*
X28634369Y3966609D01*
X28701326Y3876328D01*
X28759117Y3779910D01*
X28807172Y3678305D01*
X28845036Y3572481D01*
X28872346Y3463453D01*
X28888840Y3352264D01*
X28894355Y3240000D01*
X28888840Y3127736D01*
X28872346Y3016547D01*
X28845036Y2907519D01*
X28807172Y2801695D01*
X28759117Y2700090D01*
X28701326Y2603672D01*
X28634369Y2513391D01*
X28558888Y2430112D01*
X28475609Y2354631D01*
X28385328Y2287674D01*
X28288910Y2229883D01*
X28187305Y2181828D01*
X28081481Y2143964D01*
X27972453Y2116654D01*
X27861264Y2100160D01*
X27749000Y2094645D01*
D02*
G37*
%LPC*%
G36*
X30249000Y2094645D02*
X30136736Y2100160D01*
X30025547Y2116654D01*
X29916519Y2143964D01*
X29810695Y2181828D01*
X29709090Y2229883D01*
X29612672Y2287674D01*
X29522391Y2354631D01*
X29439112Y2430112D01*
X29363631Y2513391D01*
X29296674Y2603672D01*
X29238883Y2700090D01*
X29190828Y2801695D01*
X29152964Y2907519D01*
X29125654Y3016547D01*
X29109160Y3127736D01*
X29103645Y3240000D01*
X29109160Y3352264D01*
X29125654Y3463453D01*
X29152964Y3572481D01*
X29190828Y3678305D01*
X29238883Y3779910D01*
X29296674Y3876328D01*
X29363631Y3966609D01*
X29439112Y4049888D01*
X29522391Y4125369D01*
X29612672Y4192326D01*
X29709090Y4250117D01*
X29810695Y4298172D01*
X29916519Y4336036D01*
X30025547Y4363346D01*
X30136736Y4379840D01*
X30249000Y4385355D01*
X30361264Y4379840D01*
X30472453Y4363346D01*
X30581481Y4336036D01*
X30687305Y4298172D01*
X30788910Y4250117D01*
X30885328Y4192326D01*
X30975609Y4125369D01*
X31058888Y4049888D01*
X31134369Y3966609D01*
X31201326Y3876328D01*
X31259117Y3779910D01*
X31307172Y3678305D01*
X31345036Y3572481D01*
X31372346Y3463453D01*
X31388840Y3352264D01*
X31394355Y3240000D01*
X31388840Y3127736D01*
X31372346Y3016547D01*
X31345036Y2907519D01*
X31307172Y2801695D01*
X31259117Y2700090D01*
X31201326Y2603672D01*
X31134369Y2513391D01*
X31058888Y2430112D01*
X30975609Y2354631D01*
X30885328Y2287674D01*
X30788910Y2229883D01*
X30687305Y2181828D01*
X30581481Y2143964D01*
X30472453Y2116654D01*
X30361264Y2100160D01*
X30249000Y2094645D01*
D02*
G37*
%LPC*%
G36*
X32749000Y2094645D02*
X32636736Y2100160D01*
X32525547Y2116654D01*
X32416519Y2143964D01*
X32310695Y2181828D01*
X32209090Y2229883D01*
X32112672Y2287674D01*
X32022391Y2354631D01*
X31939112Y2430112D01*
X31863631Y2513391D01*
X31796674Y2603672D01*
X31738883Y2700090D01*
X31690828Y2801695D01*
X31652964Y2907519D01*
X31625654Y3016547D01*
X31609160Y3127736D01*
X31603645Y3240000D01*
X31609160Y3352264D01*
X31625654Y3463453D01*
X31652964Y3572481D01*
X31690828Y3678305D01*
X31738883Y3779910D01*
X31796674Y3876328D01*
X31863631Y3966609D01*
X31939112Y4049888D01*
X32022391Y4125369D01*
X32112672Y4192326D01*
X32209090Y4250117D01*
X32310695Y4298172D01*
X32416519Y4336036D01*
X32525547Y4363346D01*
X32636736Y4379840D01*
X32749000Y4385355D01*
X32861264Y4379840D01*
X32972453Y4363346D01*
X33081481Y4336036D01*
X33187305Y4298172D01*
X33288910Y4250117D01*
X33385328Y4192326D01*
X33475609Y4125369D01*
X33558888Y4049888D01*
X33634369Y3966609D01*
X33701326Y3876328D01*
X33759117Y3779910D01*
X33807172Y3678305D01*
X33845036Y3572481D01*
X33872346Y3463453D01*
X33888840Y3352264D01*
X33894355Y3240000D01*
X33888840Y3127736D01*
X33872346Y3016547D01*
X33845036Y2907519D01*
X33807172Y2801695D01*
X33759117Y2700090D01*
X33701326Y2603672D01*
X33634369Y2513391D01*
X33558888Y2430112D01*
X33475609Y2354631D01*
X33385328Y2287674D01*
X33288910Y2229883D01*
X33187305Y2181828D01*
X33081481Y2143964D01*
X32972453Y2116654D01*
X32861264Y2100160D01*
X32749000Y2094645D01*
D02*
G37*
%LPC*%
G36*
X37749000Y2094645D02*
X37636736Y2100160D01*
X37525547Y2116654D01*
X37416519Y2143964D01*
X37310695Y2181828D01*
X37209090Y2229883D01*
X37112672Y2287674D01*
X37022391Y2354631D01*
X36939112Y2430112D01*
X36863631Y2513391D01*
X36796674Y2603672D01*
X36738883Y2700090D01*
X36690828Y2801695D01*
X36652964Y2907519D01*
X36625654Y3016547D01*
X36609160Y3127736D01*
X36603645Y3240000D01*
X36609160Y3352264D01*
X36625654Y3463453D01*
X36652964Y3572481D01*
X36690828Y3678305D01*
X36738883Y3779910D01*
X36796674Y3876328D01*
X36863631Y3966609D01*
X36939112Y4049888D01*
X37022391Y4125369D01*
X37112672Y4192326D01*
X37209090Y4250117D01*
X37310695Y4298172D01*
X37416519Y4336036D01*
X37525547Y4363346D01*
X37636736Y4379840D01*
X37749000Y4385355D01*
X37861264Y4379840D01*
X37972453Y4363346D01*
X38081481Y4336036D01*
X38187305Y4298172D01*
X38288910Y4250117D01*
X38385328Y4192326D01*
X38475609Y4125369D01*
X38558888Y4049888D01*
X38634369Y3966609D01*
X38701326Y3876328D01*
X38759117Y3779910D01*
X38807172Y3678305D01*
X38845036Y3572481D01*
X38872346Y3463453D01*
X38888840Y3352264D01*
X38894355Y3240000D01*
X38888840Y3127736D01*
X38872346Y3016547D01*
X38845036Y2907519D01*
X38807172Y2801695D01*
X38759117Y2700090D01*
X38701326Y2603672D01*
X38634369Y2513391D01*
X38558888Y2430112D01*
X38475609Y2354631D01*
X38385328Y2287674D01*
X38288910Y2229883D01*
X38187305Y2181828D01*
X38081481Y2143964D01*
X37972453Y2116654D01*
X37861264Y2100160D01*
X37749000Y2094645D01*
D02*
G37*
%LPC*%
G36*
X42749000Y2094645D02*
X42636736Y2100160D01*
X42525547Y2116654D01*
X42416519Y2143964D01*
X42310695Y2181828D01*
X42209090Y2229883D01*
X42112672Y2287674D01*
X42022391Y2354631D01*
X41939112Y2430112D01*
X41863631Y2513391D01*
X41796674Y2603672D01*
X41738883Y2700090D01*
X41690828Y2801695D01*
X41652964Y2907519D01*
X41625654Y3016547D01*
X41609160Y3127736D01*
X41603645Y3240000D01*
X41609160Y3352264D01*
X41625654Y3463453D01*
X41652964Y3572481D01*
X41690828Y3678305D01*
X41738883Y3779910D01*
X41796674Y3876328D01*
X41863631Y3966609D01*
X41939112Y4049888D01*
X42022391Y4125369D01*
X42112672Y4192326D01*
X42209090Y4250117D01*
X42310695Y4298172D01*
X42416519Y4336036D01*
X42525547Y4363346D01*
X42636736Y4379840D01*
X42749000Y4385355D01*
X42861264Y4379840D01*
X42972453Y4363346D01*
X43081481Y4336036D01*
X43187305Y4298172D01*
X43288910Y4250117D01*
X43385328Y4192326D01*
X43475609Y4125369D01*
X43558888Y4049888D01*
X43634369Y3966609D01*
X43701326Y3876328D01*
X43759117Y3779910D01*
X43807172Y3678305D01*
X43845036Y3572481D01*
X43872346Y3463453D01*
X43888840Y3352264D01*
X43894355Y3240000D01*
X43888840Y3127736D01*
X43872346Y3016547D01*
X43845036Y2907519D01*
X43807172Y2801695D01*
X43759117Y2700090D01*
X43701326Y2603672D01*
X43634369Y2513391D01*
X43558888Y2430112D01*
X43475609Y2354631D01*
X43385328Y2287674D01*
X43288910Y2229883D01*
X43187305Y2181828D01*
X43081481Y2143964D01*
X42972453Y2116654D01*
X42861264Y2100160D01*
X42749000Y2094645D01*
D02*
G37*
%LPD*%
G01*
%LPD*%
G75*
D10*
X4500000Y62500000D03*
D10*
X14500000Y62500000D03*
D10*
X9500000Y62500000D03*
D11*
X20249000Y3240000D03*
D11*
X37749000Y3240000D03*
D11*
X35249000Y3240000D03*
D11*
X32749000Y3240000D03*
D11*
X27749000Y3240000D03*
D11*
X42749000Y3240000D03*
D11*
X22749000Y3240000D03*
D11*
X25249000Y3240000D03*
D11*
X40249000Y3240000D03*
D11*
X30249000Y3240000D03*
D12*
X26100000Y68200000D03*
D12*
X26100000Y59000000D03*
D10*
X48500000Y36500000D03*
D10*
X58500000Y36500000D03*
D10*
X53500000Y36500000D03*
D13*
X31750000Y31430000D03*
D13*
X31750000Y33970000D03*
D14*
X39050000Y36500000D03*
D14*
X35750000Y39000000D03*
D14*
X35750000Y41500000D03*
D14*
X35750000Y36500000D03*
D14*
X39050000Y39000000D03*
D14*
X39050000Y41500000D03*
D15*
X33420000Y58980000D03*
D15*
X33420000Y65380000D03*
D16*
X10727083Y7691263D03*
D16*
X8227083Y7691263D03*
D10*
X4500000Y36500000D03*
D10*
X14500000Y36500000D03*
D10*
X9500000Y36500000D03*
D17*
X29890000Y59000000D03*
D17*
X29890000Y68200000D03*
D18*
X36670000Y65380000D03*
D18*
X36670000Y58980000D03*
D19*
X31500000Y52500000D03*
D19*
X36580000Y52500000D03*
D19*
X26420000Y52500000D03*
D10*
X48500000Y62500000D03*
D10*
X58500000Y62500000D03*
D10*
X53500000Y62500000D03*
D16*
X54737083Y7691263D03*
D16*
X52237083Y7691263D03*
D20*
X26950000Y33970000D03*
D20*
X26950000Y31430000D03*
D21*
X8680000Y57850000D03*
D22*
X1000000Y26200000D03*
D22*
X62000000Y64600000D03*
D21*
X54970000Y42460000D03*
D22*
X54375000Y71000000D03*
D22*
X46750000Y1000000D03*
D21*
X8625000Y39000000D03*
D21*
X54375000Y13400000D03*
D21*
X16250000Y64600000D03*
D21*
X39125000Y32600000D03*
D21*
X54375000Y51800000D03*
D21*
X39125000Y26200000D03*
D21*
X46750000Y58200000D03*
D21*
X54375000Y19800000D03*
D21*
X8625000Y19800000D03*
D22*
X1000000Y51800000D03*
D22*
X1000000Y32600000D03*
D21*
X54375000Y45400000D03*
D22*
X62000000Y13400000D03*
D21*
X43050000Y11280000D03*
D21*
X31500000Y19800000D03*
D21*
X23875000Y7000000D03*
D22*
X46750000Y71000000D03*
D21*
X16250000Y7000000D03*
D22*
X62000000Y51800000D03*
D23*
X16010000Y54660000D03*
D21*
X54375000Y32600000D03*
D22*
X62000000Y1000000D03*
D21*
X34500000Y15860000D03*
D22*
X8625000Y71000000D03*
D21*
X46750000Y7000000D03*
D21*
X8625000Y32600000D03*
D21*
X46750000Y51800000D03*
D21*
X45500000Y12930000D03*
D22*
X1000000Y19800000D03*
D22*
X62000000Y7000000D03*
D22*
X16250000Y1000000D03*
D22*
X62000000Y32600000D03*
D22*
X31500000Y1000000D03*
D22*
X62000000Y45400000D03*
D24*
X38050000Y15930000D03*
D22*
X1000000Y71000000D03*
D21*
X4000001Y47580000D03*
D21*
X23875000Y64600000D03*
D21*
X23875000Y51800000D03*
D21*
X49460000Y40530000D03*
D22*
X39125000Y71000000D03*
D22*
X62000000Y19800000D03*
D22*
X31500000Y71000000D03*
D22*
X62000000Y26200000D03*
D21*
X16250000Y19800000D03*
D21*
X19950000Y11280000D03*
D21*
X17500000Y12930000D03*
D21*
X31500000Y45400000D03*
D24*
X25000000Y16000000D03*
D21*
X16250000Y26200000D03*
D21*
X46750000Y26200000D03*
D22*
X62000000Y39000000D03*
D21*
X46750000Y64600000D03*
D22*
X62000000Y58200000D03*
D22*
X1000000Y1000000D03*
D22*
X8625000Y1000000D03*
D22*
X1000000Y7000000D03*
D22*
X1000000Y45400000D03*
D21*
X23875000Y39000000D03*
D21*
X8625000Y13400000D03*
D21*
X4600000Y41100000D03*
D22*
X1000000Y58200000D03*
D21*
X8625000Y64600000D03*
D22*
X23875000Y71000000D03*
D21*
X23875000Y32600000D03*
D21*
X39125000Y64600000D03*
D21*
X23875000Y45400000D03*
D21*
X8625000Y26200000D03*
D21*
X54375000Y26200000D03*
D21*
X19950000Y14580000D03*
D21*
X31560000Y42090000D03*
D23*
X14410000Y55930000D03*
D21*
X31500000Y26200000D03*
D21*
X39125000Y45400000D03*
D22*
X54375000Y1000000D03*
D24*
X22000000Y55930000D03*
D22*
X23875000Y1000000D03*
D21*
X54375000Y39000000D03*
D21*
X46750000Y19800000D03*
D22*
X1000000Y39000000D03*
D21*
X54375000Y58200000D03*
D21*
X39125000Y7000000D03*
D21*
X46750000Y32600000D03*
D22*
X1000000Y13400000D03*
D21*
X52480000Y54400000D03*
D21*
X16250000Y32600000D03*
D21*
X16250000Y39000000D03*
D22*
X16250000Y71000000D03*
D21*
X20150000Y53030000D03*
D24*
X10280000Y50930000D03*
D21*
X12540000Y52090000D03*
D21*
X23875000Y26200000D03*
D21*
X23875000Y58200000D03*
D21*
X54375000Y64600000D03*
D21*
X39125000Y58200000D03*
D22*
X39125000Y1000000D03*
D21*
X43050000Y14580000D03*
D21*
X31500000Y64600000D03*
D21*
X39125000Y51800000D03*
D22*
X62000000Y71000000D03*
D21*
X31500000Y58200000D03*
D21*
X46750000Y39000000D03*
D21*
X46750000Y45700000D03*
D24*
X51530000Y48510000D03*
D21*
X6410000Y51310000D03*
D22*
X1000000Y64600000D03*
M02*
