%FSLAX46Y46*%
%MOMM*%
%AMPS10*
1,1,2.100000,0.000000,0.000000*
%
%ADD10PS10*%
%AMPS12*
1,1,1.600000,0.000000,0.000000*
%
%ADD12PS12*%
%AMPS13*
1,1,1.600000,0.000000,0.000000*
%
%ADD13PS13*%
%AMPS18*
1,1,1.600000,0.000000,0.000000*
%
%ADD18PS18*%
%AMPS17*
1,1,2.200000,0.000000,0.000000*
%
%ADD17PS17*%
%AMPS14*
1,1,1.400000,0.000000,0.000000*
%
%ADD14PS14*%
%AMPS16*
1,1,1.400000,0.000000,0.000000*
%
%ADD16PS16*%
%AMPS11*
1,1,1.400000,0.000000,0.000000*
%
%ADD11PS11*%
%AMPS15*
1,1,1.400000,0.000000,0.000000*
%
%ADD15PS15*%
%AMPS21*
1,1,0.800000,0.000000,0.000000*
%
%ADD21PS21*%
%AMPS20*
1,1,0.700000,0.000000,0.000000*
%
%ADD20PS20*%
%AMPS22*
1,1,1.000000,0.000000,0.000000*
%
%ADD22PS22*%
%AMPS19*
1,1,0.700000,0.000000,0.000000*
%
%ADD19PS19*%
G01*
%LPD*%
G36*
X62640000Y360000D02*
X62640000Y71640000D01*
X360000Y71640000D01*
X360000Y360000D01*
X62640000Y360000D01*
D02*
G37*
%LPC*%
G36*
X4500000Y61254764D02*
X4377953Y61260762D01*
X4257065Y61278693D01*
X4138526Y61308385D01*
X4023471Y61349552D01*
X3913002Y61401800D01*
X3808185Y61464625D01*
X3710033Y61537421D01*
X3619486Y61619486D01*
X3537421Y61710033D01*
X3464625Y61808185D01*
X3401800Y61913002D01*
X3349552Y62023471D01*
X3308385Y62138526D01*
X3278693Y62257065D01*
X3260762Y62377953D01*
X3254764Y62500000D01*
X3260762Y62622047D01*
X3278693Y62742935D01*
X3308385Y62861474D01*
X3349552Y62976529D01*
X3401800Y63086998D01*
X3464625Y63191815D01*
X3537421Y63289967D01*
X3619486Y63380514D01*
X3710033Y63462579D01*
X3808185Y63535375D01*
X3913002Y63598200D01*
X4023471Y63650448D01*
X4138526Y63691615D01*
X4257065Y63721307D01*
X4377953Y63739238D01*
X4500000Y63745236D01*
X4622047Y63739238D01*
X4742935Y63721307D01*
X4861474Y63691615D01*
X4976529Y63650448D01*
X5086998Y63598200D01*
X5191815Y63535375D01*
X5289967Y63462579D01*
X5380514Y63380514D01*
X5462579Y63289967D01*
X5535375Y63191815D01*
X5598200Y63086998D01*
X5650448Y62976529D01*
X5691615Y62861474D01*
X5721307Y62742935D01*
X5739238Y62622047D01*
X5745236Y62500000D01*
X5739238Y62377953D01*
X5721307Y62257065D01*
X5691615Y62138526D01*
X5650448Y62023471D01*
X5598200Y61913002D01*
X5535375Y61808185D01*
X5462579Y61710033D01*
X5380514Y61619486D01*
X5289967Y61537421D01*
X5191815Y61464625D01*
X5086998Y61401800D01*
X4976529Y61349552D01*
X4861474Y61308385D01*
X4742935Y61278693D01*
X4622047Y61260762D01*
X4500000Y61254764D01*
D02*
G37*
%LPC*%
G36*
X9500000Y61254764D02*
X9377953Y61260762D01*
X9257065Y61278693D01*
X9138526Y61308385D01*
X9023471Y61349552D01*
X8913002Y61401800D01*
X8808185Y61464625D01*
X8710033Y61537421D01*
X8619486Y61619486D01*
X8537421Y61710033D01*
X8464625Y61808185D01*
X8401800Y61913002D01*
X8349552Y62023471D01*
X8308385Y62138526D01*
X8278693Y62257065D01*
X8260762Y62377953D01*
X8254764Y62500000D01*
X8260762Y62622047D01*
X8278693Y62742935D01*
X8308385Y62861474D01*
X8349552Y62976529D01*
X8401800Y63086998D01*
X8464625Y63191815D01*
X8537421Y63289967D01*
X8619486Y63380514D01*
X8710033Y63462579D01*
X8808185Y63535375D01*
X8913002Y63598200D01*
X9023471Y63650448D01*
X9138526Y63691615D01*
X9257065Y63721307D01*
X9377953Y63739238D01*
X9500000Y63745236D01*
X9622047Y63739238D01*
X9742935Y63721307D01*
X9861474Y63691615D01*
X9976529Y63650448D01*
X10086998Y63598200D01*
X10191815Y63535375D01*
X10289967Y63462579D01*
X10380514Y63380514D01*
X10462579Y63289967D01*
X10535375Y63191815D01*
X10598200Y63086998D01*
X10650448Y62976529D01*
X10691615Y62861474D01*
X10721307Y62742935D01*
X10739238Y62622047D01*
X10745236Y62500000D01*
X10739238Y62377953D01*
X10721307Y62257065D01*
X10691615Y62138526D01*
X10650448Y62023471D01*
X10598200Y61913002D01*
X10535375Y61808185D01*
X10462579Y61710033D01*
X10380514Y61619486D01*
X10289967Y61537421D01*
X10191815Y61464625D01*
X10086998Y61401800D01*
X9976529Y61349552D01*
X9861474Y61308385D01*
X9742935Y61278693D01*
X9622047Y61260762D01*
X9500000Y61254764D01*
D02*
G37*
%LPC*%
G36*
X14500000Y61254764D02*
X14377953Y61260762D01*
X14257065Y61278693D01*
X14138526Y61308385D01*
X14023471Y61349552D01*
X13913002Y61401800D01*
X13808185Y61464625D01*
X13710033Y61537421D01*
X13619486Y61619486D01*
X13537421Y61710033D01*
X13464625Y61808185D01*
X13401800Y61913002D01*
X13349552Y62023471D01*
X13308385Y62138526D01*
X13278693Y62257065D01*
X13260762Y62377953D01*
X13254764Y62500000D01*
X13260762Y62622047D01*
X13278693Y62742935D01*
X13308385Y62861474D01*
X13349552Y62976529D01*
X13401800Y63086998D01*
X13464625Y63191815D01*
X13537421Y63289967D01*
X13619486Y63380514D01*
X13710033Y63462579D01*
X13808185Y63535375D01*
X13913002Y63598200D01*
X14023471Y63650448D01*
X14138526Y63691615D01*
X14257065Y63721307D01*
X14377953Y63739238D01*
X14500000Y63745236D01*
X14622047Y63739238D01*
X14742935Y63721307D01*
X14861474Y63691615D01*
X14976529Y63650448D01*
X15086998Y63598200D01*
X15191815Y63535375D01*
X15289967Y63462579D01*
X15380514Y63380514D01*
X15462579Y63289967D01*
X15535375Y63191815D01*
X15598200Y63086998D01*
X15650448Y62976529D01*
X15691615Y62861474D01*
X15721307Y62742935D01*
X15739238Y62622047D01*
X15745236Y62500000D01*
X15739238Y62377953D01*
X15721307Y62257065D01*
X15691615Y62138526D01*
X15650448Y62023471D01*
X15598200Y61913002D01*
X15535375Y61808185D01*
X15462579Y61710033D01*
X15380514Y61619486D01*
X15289967Y61537421D01*
X15191815Y61464625D01*
X15086998Y61401800D01*
X14976529Y61349552D01*
X14861474Y61308385D01*
X14742935Y61278693D01*
X14622047Y61260762D01*
X14500000Y61254764D01*
D02*
G37*
%LPC*%
G36*
X48500000Y61254764D02*
X48377953Y61260762D01*
X48257065Y61278693D01*
X48138526Y61308385D01*
X48023471Y61349552D01*
X47913002Y61401800D01*
X47808185Y61464625D01*
X47710033Y61537421D01*
X47619486Y61619486D01*
X47537421Y61710033D01*
X47464625Y61808185D01*
X47401800Y61913002D01*
X47349552Y62023471D01*
X47308385Y62138526D01*
X47278693Y62257065D01*
X47260762Y62377953D01*
X47254764Y62500000D01*
X47260762Y62622047D01*
X47278693Y62742935D01*
X47308385Y62861474D01*
X47349552Y62976529D01*
X47401800Y63086998D01*
X47464625Y63191815D01*
X47537421Y63289967D01*
X47619486Y63380514D01*
X47710033Y63462579D01*
X47808185Y63535375D01*
X47913002Y63598200D01*
X48023471Y63650448D01*
X48138526Y63691615D01*
X48257065Y63721307D01*
X48377953Y63739238D01*
X48500000Y63745236D01*
X48622047Y63739238D01*
X48742935Y63721307D01*
X48861474Y63691615D01*
X48976529Y63650448D01*
X49086998Y63598200D01*
X49191815Y63535375D01*
X49289967Y63462579D01*
X49380514Y63380514D01*
X49462579Y63289967D01*
X49535375Y63191815D01*
X49598200Y63086998D01*
X49650448Y62976529D01*
X49691615Y62861474D01*
X49721307Y62742935D01*
X49739238Y62622047D01*
X49745236Y62500000D01*
X49739238Y62377953D01*
X49721307Y62257065D01*
X49691615Y62138526D01*
X49650448Y62023471D01*
X49598200Y61913002D01*
X49535375Y61808185D01*
X49462579Y61710033D01*
X49380514Y61619486D01*
X49289967Y61537421D01*
X49191815Y61464625D01*
X49086998Y61401800D01*
X48976529Y61349552D01*
X48861474Y61308385D01*
X48742935Y61278693D01*
X48622047Y61260762D01*
X48500000Y61254764D01*
D02*
G37*
%LPC*%
G36*
X53500000Y61254764D02*
X53377953Y61260762D01*
X53257065Y61278693D01*
X53138526Y61308385D01*
X53023471Y61349552D01*
X52913002Y61401800D01*
X52808185Y61464625D01*
X52710033Y61537421D01*
X52619486Y61619486D01*
X52537421Y61710033D01*
X52464625Y61808185D01*
X52401800Y61913002D01*
X52349552Y62023471D01*
X52308385Y62138526D01*
X52278693Y62257065D01*
X52260762Y62377953D01*
X52254764Y62500000D01*
X52260762Y62622047D01*
X52278693Y62742935D01*
X52308385Y62861474D01*
X52349552Y62976529D01*
X52401800Y63086998D01*
X52464625Y63191815D01*
X52537421Y63289967D01*
X52619486Y63380514D01*
X52710033Y63462579D01*
X52808185Y63535375D01*
X52913002Y63598200D01*
X53023471Y63650448D01*
X53138526Y63691615D01*
X53257065Y63721307D01*
X53377953Y63739238D01*
X53500000Y63745236D01*
X53622047Y63739238D01*
X53742935Y63721307D01*
X53861474Y63691615D01*
X53976529Y63650448D01*
X54086998Y63598200D01*
X54191815Y63535375D01*
X54289967Y63462579D01*
X54380514Y63380514D01*
X54462579Y63289967D01*
X54535375Y63191815D01*
X54598200Y63086998D01*
X54650448Y62976529D01*
X54691615Y62861474D01*
X54721307Y62742935D01*
X54739238Y62622047D01*
X54745236Y62500000D01*
X54739238Y62377953D01*
X54721307Y62257065D01*
X54691615Y62138526D01*
X54650448Y62023471D01*
X54598200Y61913002D01*
X54535375Y61808185D01*
X54462579Y61710033D01*
X54380514Y61619486D01*
X54289967Y61537421D01*
X54191815Y61464625D01*
X54086998Y61401800D01*
X53976529Y61349552D01*
X53861474Y61308385D01*
X53742935Y61278693D01*
X53622047Y61260762D01*
X53500000Y61254764D01*
D02*
G37*
%LPC*%
G36*
X26100000Y58104764D02*
X26012260Y58109076D01*
X25925344Y58121968D01*
X25840129Y58143313D01*
X25757407Y58172913D01*
X25677990Y58210473D01*
X25602637Y58255638D01*
X25532073Y58307972D01*
X25466974Y58366974D01*
X25407972Y58432073D01*
X25355638Y58502637D01*
X25310473Y58577990D01*
X25272913Y58657407D01*
X25243313Y58740129D01*
X25221968Y58825344D01*
X25209076Y58912260D01*
X25204764Y59000000D01*
X25209076Y59087740D01*
X25221968Y59174656D01*
X25243313Y59259871D01*
X25272913Y59342593D01*
X25310473Y59422010D01*
X25355638Y59497363D01*
X25407972Y59567927D01*
X25466974Y59633026D01*
X25532073Y59692028D01*
X25602637Y59744362D01*
X25677990Y59789527D01*
X25757407Y59827087D01*
X25840129Y59856687D01*
X25925344Y59878032D01*
X26012260Y59890924D01*
X26100000Y59895236D01*
X26187740Y59890924D01*
X26274656Y59878032D01*
X26359871Y59856687D01*
X26442593Y59827087D01*
X26522010Y59789527D01*
X26597363Y59744362D01*
X26667927Y59692028D01*
X26733026Y59633026D01*
X26792028Y59567927D01*
X26844362Y59497363D01*
X26889527Y59422010D01*
X26927087Y59342593D01*
X26956687Y59259871D01*
X26978032Y59174656D01*
X26990924Y59087740D01*
X26995236Y59000000D01*
X26990924Y58912260D01*
X26978032Y58825344D01*
X26956687Y58740129D01*
X26927087Y58657407D01*
X26889527Y58577990D01*
X26844362Y58502637D01*
X26792028Y58432073D01*
X26733026Y58366974D01*
X26667927Y58307972D01*
X26597363Y58255638D01*
X26522010Y58210473D01*
X26442593Y58172913D01*
X26359871Y58143313D01*
X26274656Y58121968D01*
X26187740Y58109076D01*
X26100000Y58104764D01*
D02*
G37*
%LPC*%
G36*
X29890000Y58104764D02*
X29802260Y58109076D01*
X29715344Y58121968D01*
X29630129Y58143313D01*
X29547407Y58172913D01*
X29467990Y58210473D01*
X29392637Y58255638D01*
X29322073Y58307972D01*
X29256974Y58366974D01*
X29197972Y58432073D01*
X29145638Y58502637D01*
X29100473Y58577990D01*
X29062913Y58657407D01*
X29033313Y58740129D01*
X29011968Y58825344D01*
X28999076Y58912260D01*
X28994764Y59000000D01*
X28999076Y59087740D01*
X29011968Y59174656D01*
X29033313Y59259871D01*
X29062913Y59342593D01*
X29100473Y59422010D01*
X29145638Y59497363D01*
X29197972Y59567927D01*
X29256974Y59633026D01*
X29322073Y59692028D01*
X29392637Y59744362D01*
X29467990Y59789527D01*
X29547407Y59827087D01*
X29630129Y59856687D01*
X29715344Y59878032D01*
X29802260Y59890924D01*
X29890000Y59895236D01*
X29977740Y59890924D01*
X30064656Y59878032D01*
X30149871Y59856687D01*
X30232593Y59827087D01*
X30312010Y59789527D01*
X30387363Y59744362D01*
X30457927Y59692028D01*
X30523026Y59633026D01*
X30582028Y59567927D01*
X30634362Y59497363D01*
X30679527Y59422010D01*
X30717087Y59342593D01*
X30746687Y59259871D01*
X30768032Y59174656D01*
X30780924Y59087740D01*
X30785236Y59000000D01*
X30780924Y58912260D01*
X30768032Y58825344D01*
X30746687Y58740129D01*
X30717087Y58657407D01*
X30679527Y58577990D01*
X30634362Y58502637D01*
X30582028Y58432073D01*
X30523026Y58366974D01*
X30457927Y58307972D01*
X30387363Y58255638D01*
X30312010Y58210473D01*
X30232593Y58172913D01*
X30149871Y58143313D01*
X30064656Y58121968D01*
X29977740Y58109076D01*
X29890000Y58104764D01*
D02*
G37*
%LPC*%
G36*
X33420000Y58084764D02*
X33332260Y58089076D01*
X33245344Y58101968D01*
X33160129Y58123313D01*
X33077407Y58152913D01*
X32997990Y58190473D01*
X32922637Y58235638D01*
X32852073Y58287972D01*
X32786974Y58346974D01*
X32727972Y58412073D01*
X32675638Y58482637D01*
X32630473Y58557990D01*
X32592913Y58637407D01*
X32563313Y58720129D01*
X32541968Y58805344D01*
X32529076Y58892260D01*
X32524764Y58980000D01*
X32529076Y59067740D01*
X32541968Y59154656D01*
X32563313Y59239871D01*
X32592913Y59322593D01*
X32630473Y59402010D01*
X32675638Y59477363D01*
X32727972Y59547927D01*
X32786974Y59613026D01*
X32852073Y59672028D01*
X32922637Y59724362D01*
X32997990Y59769527D01*
X33077407Y59807087D01*
X33160129Y59836687D01*
X33245344Y59858032D01*
X33332260Y59870924D01*
X33420000Y59875236D01*
X33507740Y59870924D01*
X33594656Y59858032D01*
X33679871Y59836687D01*
X33762593Y59807087D01*
X33842010Y59769527D01*
X33917363Y59724362D01*
X33987927Y59672028D01*
X34053026Y59613026D01*
X34112028Y59547927D01*
X34164362Y59477363D01*
X34209527Y59402010D01*
X34247087Y59322593D01*
X34276687Y59239871D01*
X34298032Y59154656D01*
X34310924Y59067740D01*
X34315236Y58980000D01*
X34310924Y58892260D01*
X34298032Y58805344D01*
X34276687Y58720129D01*
X34247087Y58637407D01*
X34209527Y58557990D01*
X34164362Y58482637D01*
X34112028Y58412073D01*
X34053026Y58346974D01*
X33987927Y58287972D01*
X33917363Y58235638D01*
X33842010Y58190473D01*
X33762593Y58152913D01*
X33679871Y58123313D01*
X33594656Y58101968D01*
X33507740Y58089076D01*
X33420000Y58084764D01*
D02*
G37*
%LPC*%
G36*
X36670000Y58084764D02*
X36582260Y58089076D01*
X36495344Y58101968D01*
X36410129Y58123313D01*
X36327407Y58152913D01*
X36247990Y58190473D01*
X36172637Y58235638D01*
X36102073Y58287972D01*
X36036974Y58346974D01*
X35977972Y58412073D01*
X35925638Y58482637D01*
X35880473Y58557990D01*
X35842913Y58637407D01*
X35813313Y58720129D01*
X35791968Y58805344D01*
X35779076Y58892260D01*
X35774764Y58980000D01*
X35779076Y59067740D01*
X35791968Y59154656D01*
X35813313Y59239871D01*
X35842913Y59322593D01*
X35880473Y59402010D01*
X35925638Y59477363D01*
X35977972Y59547927D01*
X36036974Y59613026D01*
X36102073Y59672028D01*
X36172637Y59724362D01*
X36247990Y59769527D01*
X36327407Y59807087D01*
X36410129Y59836687D01*
X36495344Y59858032D01*
X36582260Y59870924D01*
X36670000Y59875236D01*
X36757740Y59870924D01*
X36844656Y59858032D01*
X36929871Y59836687D01*
X37012593Y59807087D01*
X37092010Y59769527D01*
X37167363Y59724362D01*
X37237927Y59672028D01*
X37303026Y59613026D01*
X37362028Y59547927D01*
X37414362Y59477363D01*
X37459527Y59402010D01*
X37497087Y59322593D01*
X37526687Y59239871D01*
X37548032Y59154656D01*
X37560924Y59067740D01*
X37565236Y58980000D01*
X37560924Y58892260D01*
X37548032Y58805344D01*
X37526687Y58720129D01*
X37497087Y58637407D01*
X37459527Y58557990D01*
X37414362Y58482637D01*
X37362028Y58412073D01*
X37303026Y58346974D01*
X37237927Y58287972D01*
X37167363Y58235638D01*
X37092010Y58190473D01*
X37012593Y58152913D01*
X36929871Y58123313D01*
X36844656Y58101968D01*
X36757740Y58089076D01*
X36670000Y58084764D01*
D02*
G37*
%LPC*%
G36*
X40255000Y14285000D02*
X35745000Y14285000D01*
X35745000Y21255000D01*
X40745000Y21255000D01*
X40745000Y46745000D01*
X20745000Y46745000D01*
X20745000Y57255000D01*
X23255000Y57255000D01*
X23255000Y50255000D01*
X53055000Y50255000D01*
X53055000Y46745000D01*
X45255000Y46745000D01*
X45255000Y16745000D01*
X40255000Y16745000D01*
X40255000Y14285000D01*
D02*
G37*
%LPD*%
G36*
X40000000Y14540000D02*
X40000000Y17000000D01*
X45000000Y17000000D01*
X45000000Y47000000D01*
X52800000Y47000000D01*
X52800000Y50000000D01*
X23000000Y50000000D01*
X23000000Y57000000D01*
X21000000Y57000000D01*
X21000000Y47000000D01*
X41000000Y47000000D01*
X41000000Y21000000D01*
X36000000Y21000000D01*
X36000000Y14540000D01*
X40000000Y14540000D01*
D02*
G37*
%LPC*%
G36*
X14410000Y55324752D02*
X14350681Y55327668D01*
X14291924Y55336382D01*
X14234308Y55350815D01*
X14178382Y55370826D01*
X14124686Y55396222D01*
X14073741Y55426757D01*
X14026037Y55462136D01*
X13982027Y55502027D01*
X13942136Y55546037D01*
X13906757Y55593741D01*
X13876222Y55644686D01*
X13850826Y55698382D01*
X13830815Y55754308D01*
X13816382Y55811924D01*
X13807668Y55870681D01*
X13804752Y55930000D01*
X13807668Y55989319D01*
X13816382Y56048076D01*
X13830815Y56105692D01*
X13850826Y56161618D01*
X13876222Y56215314D01*
X13906757Y56266259D01*
X13942136Y56313963D01*
X13982027Y56357973D01*
X14026037Y56397864D01*
X14073741Y56433243D01*
X14124686Y56463778D01*
X14178382Y56489174D01*
X14234308Y56509185D01*
X14291924Y56523618D01*
X14350681Y56532332D01*
X14410000Y56535248D01*
X14469319Y56532332D01*
X14528076Y56523618D01*
X14585692Y56509185D01*
X14641618Y56489174D01*
X14695314Y56463778D01*
X14746259Y56433243D01*
X14793963Y56397864D01*
X14837973Y56357973D01*
X14877864Y56313963D01*
X14913243Y56266259D01*
X14943778Y56215314D01*
X14969174Y56161618D01*
X14989185Y56105692D01*
X15003618Y56048076D01*
X15012332Y55989319D01*
X15015248Y55930000D01*
X15012332Y55870681D01*
X15003618Y55811924D01*
X14989185Y55754308D01*
X14969174Y55698382D01*
X14943778Y55644686D01*
X14913243Y55593741D01*
X14877864Y55546037D01*
X14837973Y55502027D01*
X14793963Y55462136D01*
X14746259Y55426757D01*
X14695314Y55396222D01*
X14641618Y55370826D01*
X14585692Y55350815D01*
X14528076Y55336382D01*
X14469319Y55327668D01*
X14410000Y55324752D01*
D02*
G37*
%LPC*%
G36*
X16010000Y54054752D02*
X15950681Y54057668D01*
X15891924Y54066382D01*
X15834308Y54080815D01*
X15778382Y54100826D01*
X15724686Y54126222D01*
X15673741Y54156757D01*
X15626037Y54192136D01*
X15582027Y54232027D01*
X15542136Y54276037D01*
X15506757Y54323741D01*
X15476222Y54374686D01*
X15450826Y54428382D01*
X15430815Y54484308D01*
X15416382Y54541924D01*
X15407668Y54600681D01*
X15404752Y54660000D01*
X15407668Y54719319D01*
X15416382Y54778076D01*
X15430815Y54835692D01*
X15450826Y54891618D01*
X15476222Y54945314D01*
X15506757Y54996259D01*
X15542136Y55043963D01*
X15582027Y55087973D01*
X15626037Y55127864D01*
X15673741Y55163243D01*
X15724686Y55193778D01*
X15778382Y55219174D01*
X15834308Y55239185D01*
X15891924Y55253618D01*
X15950681Y55262332D01*
X16010000Y55265248D01*
X16069319Y55262332D01*
X16128076Y55253618D01*
X16185692Y55239185D01*
X16241618Y55219174D01*
X16295314Y55193778D01*
X16346259Y55163243D01*
X16393963Y55127864D01*
X16437973Y55087973D01*
X16477864Y55043963D01*
X16513243Y54996259D01*
X16543778Y54945314D01*
X16569174Y54891618D01*
X16589185Y54835692D01*
X16603618Y54778076D01*
X16612332Y54719319D01*
X16615248Y54660000D01*
X16612332Y54600681D01*
X16603618Y54541924D01*
X16589185Y54484308D01*
X16569174Y54428382D01*
X16543778Y54374686D01*
X16513243Y54323741D01*
X16477864Y54276037D01*
X16437973Y54232027D01*
X16393963Y54192136D01*
X16346259Y54156757D01*
X16295314Y54126222D01*
X16241618Y54100826D01*
X16185692Y54080815D01*
X16128076Y54066382D01*
X16069319Y54057668D01*
X16010000Y54054752D01*
D02*
G37*
%LPC*%
G36*
X26420000Y51204765D02*
X26293044Y51211003D01*
X26167308Y51229654D01*
X26044011Y51260538D01*
X25924337Y51303358D01*
X25809436Y51357702D01*
X25700404Y51423054D01*
X25598310Y51498772D01*
X25504131Y51584131D01*
X25418772Y51678310D01*
X25343054Y51780404D01*
X25277702Y51889436D01*
X25223358Y52004337D01*
X25180538Y52124011D01*
X25149654Y52247308D01*
X25131003Y52373044D01*
X25124765Y52500000D01*
X25131003Y52626956D01*
X25149654Y52752692D01*
X25180538Y52875989D01*
X25223358Y52995663D01*
X25277702Y53110564D01*
X25343054Y53219596D01*
X25418772Y53321690D01*
X25504131Y53415869D01*
X25598310Y53501228D01*
X25700404Y53576946D01*
X25809436Y53642298D01*
X25924337Y53696642D01*
X26044011Y53739462D01*
X26167308Y53770346D01*
X26293044Y53788997D01*
X26420000Y53795235D01*
X26546956Y53788997D01*
X26672692Y53770346D01*
X26795989Y53739462D01*
X26915663Y53696642D01*
X27030564Y53642298D01*
X27139596Y53576946D01*
X27241690Y53501228D01*
X27335869Y53415869D01*
X27421228Y53321690D01*
X27496946Y53219596D01*
X27562298Y53110564D01*
X27616642Y52995663D01*
X27659462Y52875989D01*
X27690346Y52752692D01*
X27708997Y52626956D01*
X27715235Y52500000D01*
X27708997Y52373044D01*
X27690346Y52247308D01*
X27659462Y52124011D01*
X27616642Y52004337D01*
X27562298Y51889436D01*
X27496946Y51780404D01*
X27421228Y51678310D01*
X27335869Y51584131D01*
X27241690Y51498772D01*
X27139596Y51423054D01*
X27030564Y51357702D01*
X26915663Y51303358D01*
X26795989Y51260538D01*
X26672692Y51229654D01*
X26546956Y51211003D01*
X26420000Y51204765D01*
D02*
G37*
%LPC*%
G36*
X31500000Y51204765D02*
X31373044Y51211003D01*
X31247308Y51229654D01*
X31124011Y51260538D01*
X31004337Y51303358D01*
X30889436Y51357702D01*
X30780404Y51423054D01*
X30678310Y51498772D01*
X30584131Y51584131D01*
X30498772Y51678310D01*
X30423054Y51780404D01*
X30357702Y51889436D01*
X30303358Y52004337D01*
X30260538Y52124011D01*
X30229654Y52247308D01*
X30211003Y52373044D01*
X30204765Y52500000D01*
X30211003Y52626956D01*
X30229654Y52752692D01*
X30260538Y52875989D01*
X30303358Y52995663D01*
X30357702Y53110564D01*
X30423054Y53219596D01*
X30498772Y53321690D01*
X30584131Y53415869D01*
X30678310Y53501228D01*
X30780404Y53576946D01*
X30889436Y53642298D01*
X31004337Y53696642D01*
X31124011Y53739462D01*
X31247308Y53770346D01*
X31373044Y53788997D01*
X31500000Y53795235D01*
X31626956Y53788997D01*
X31752692Y53770346D01*
X31875989Y53739462D01*
X31995663Y53696642D01*
X32110564Y53642298D01*
X32219596Y53576946D01*
X32321690Y53501228D01*
X32415869Y53415869D01*
X32501228Y53321690D01*
X32576946Y53219596D01*
X32642298Y53110564D01*
X32696642Y52995663D01*
X32739462Y52875989D01*
X32770346Y52752692D01*
X32788997Y52626956D01*
X32795235Y52500000D01*
X32788997Y52373044D01*
X32770346Y52247308D01*
X32739462Y52124011D01*
X32696642Y52004337D01*
X32642298Y51889436D01*
X32576946Y51780404D01*
X32501228Y51678310D01*
X32415869Y51584131D01*
X32321690Y51498772D01*
X32219596Y51423054D01*
X32110564Y51357702D01*
X31995663Y51303358D01*
X31875989Y51260538D01*
X31752692Y51229654D01*
X31626956Y51211003D01*
X31500000Y51204765D01*
D02*
G37*
%LPC*%
G36*
X36580000Y51204765D02*
X36453044Y51211003D01*
X36327308Y51229654D01*
X36204011Y51260538D01*
X36084337Y51303358D01*
X35969436Y51357702D01*
X35860404Y51423054D01*
X35758310Y51498772D01*
X35664131Y51584131D01*
X35578772Y51678310D01*
X35503054Y51780404D01*
X35437702Y51889436D01*
X35383358Y52004337D01*
X35340538Y52124011D01*
X35309654Y52247308D01*
X35291003Y52373044D01*
X35284765Y52500000D01*
X35291003Y52626956D01*
X35309654Y52752692D01*
X35340538Y52875989D01*
X35383358Y52995663D01*
X35437702Y53110564D01*
X35503054Y53219596D01*
X35578772Y53321690D01*
X35664131Y53415869D01*
X35758310Y53501228D01*
X35860404Y53576946D01*
X35969436Y53642298D01*
X36084337Y53696642D01*
X36204011Y53739462D01*
X36327308Y53770346D01*
X36453044Y53788997D01*
X36580000Y53795235D01*
X36706956Y53788997D01*
X36832692Y53770346D01*
X36955989Y53739462D01*
X37075663Y53696642D01*
X37190564Y53642298D01*
X37299596Y53576946D01*
X37401690Y53501228D01*
X37495869Y53415869D01*
X37581228Y53321690D01*
X37656946Y53219596D01*
X37722298Y53110564D01*
X37776642Y52995663D01*
X37819462Y52875989D01*
X37850346Y52752692D01*
X37868997Y52626956D01*
X37875235Y52500000D01*
X37868997Y52373044D01*
X37850346Y52247308D01*
X37819462Y52124011D01*
X37776642Y52004337D01*
X37722298Y51889436D01*
X37656946Y51780404D01*
X37581228Y51678310D01*
X37495869Y51584131D01*
X37401690Y51498772D01*
X37299596Y51423054D01*
X37190564Y51357702D01*
X37075663Y51303358D01*
X36955989Y51260538D01*
X36832692Y51229654D01*
X36706956Y51211003D01*
X36580000Y51204765D01*
D02*
G37*
%LPC*%
G36*
X27255000Y14285000D02*
X22745000Y14285000D01*
X22745000Y16745000D01*
X17745000Y16745000D01*
X17745000Y40745000D01*
X8745000Y40745000D01*
X8745000Y52255000D01*
X11755000Y52255000D01*
X11755000Y44255000D01*
X22255000Y44255000D01*
X22255000Y21255000D01*
X27255000Y21255000D01*
X27255000Y14285000D01*
D02*
G37*
%LPD*%
G36*
X27000000Y14540000D02*
X27000000Y21000000D01*
X22000000Y21000000D01*
X22000000Y44000000D01*
X11500000Y44000000D01*
X11500000Y52000000D01*
X9000000Y52000000D01*
X9000000Y41000000D01*
X18000000Y41000000D01*
X18000000Y17000000D01*
X23000000Y17000000D01*
X23000000Y14540000D01*
X27000000Y14540000D01*
D02*
G37*
%LPC*%
G36*
X35750000Y40504764D02*
X35652457Y40509558D01*
X35555837Y40523889D01*
X35461100Y40547619D01*
X35369136Y40580525D01*
X35280855Y40622278D01*
X35197079Y40672492D01*
X35118628Y40730675D01*
X35046263Y40796263D01*
X34980675Y40868628D01*
X34922492Y40947079D01*
X34872278Y41030855D01*
X34830525Y41119136D01*
X34797619Y41211100D01*
X34773889Y41305837D01*
X34759558Y41402457D01*
X34754764Y41500000D01*
X34759558Y41597543D01*
X34773889Y41694163D01*
X34797619Y41788900D01*
X34830525Y41880864D01*
X34872278Y41969145D01*
X34922492Y42052921D01*
X34980675Y42131372D01*
X35046263Y42203737D01*
X35118628Y42269325D01*
X35197079Y42327508D01*
X35280855Y42377722D01*
X35369136Y42419475D01*
X35461100Y42452381D01*
X35555837Y42476111D01*
X35652457Y42490442D01*
X35750000Y42495236D01*
X35847543Y42490442D01*
X35944163Y42476111D01*
X36038900Y42452381D01*
X36130864Y42419475D01*
X36219145Y42377722D01*
X36302921Y42327508D01*
X36381372Y42269325D01*
X36453737Y42203737D01*
X36519325Y42131372D01*
X36577508Y42052921D01*
X36627722Y41969145D01*
X36669475Y41880864D01*
X36702381Y41788900D01*
X36726111Y41694163D01*
X36740442Y41597543D01*
X36745236Y41500000D01*
X36740442Y41402457D01*
X36726111Y41305837D01*
X36702381Y41211100D01*
X36669475Y41119136D01*
X36627722Y41030855D01*
X36577508Y40947079D01*
X36519325Y40868628D01*
X36453737Y40796263D01*
X36381372Y40730675D01*
X36302921Y40672492D01*
X36219145Y40622278D01*
X36130864Y40580525D01*
X36038900Y40547619D01*
X35944163Y40523889D01*
X35847543Y40509558D01*
X35750000Y40504764D01*
D02*
G37*
%LPC*%
G36*
X35750000Y38004764D02*
X35652457Y38009558D01*
X35555837Y38023889D01*
X35461100Y38047619D01*
X35369136Y38080525D01*
X35280855Y38122278D01*
X35197079Y38172492D01*
X35118628Y38230675D01*
X35046263Y38296263D01*
X34980675Y38368628D01*
X34922492Y38447079D01*
X34872278Y38530855D01*
X34830525Y38619136D01*
X34797619Y38711100D01*
X34773889Y38805837D01*
X34759558Y38902457D01*
X34754764Y39000000D01*
X34759558Y39097543D01*
X34773889Y39194163D01*
X34797619Y39288900D01*
X34830525Y39380864D01*
X34872278Y39469145D01*
X34922492Y39552921D01*
X34980675Y39631372D01*
X35046263Y39703737D01*
X35118628Y39769325D01*
X35197079Y39827508D01*
X35280855Y39877722D01*
X35369136Y39919475D01*
X35461100Y39952381D01*
X35555837Y39976111D01*
X35652457Y39990442D01*
X35750000Y39995236D01*
X35847543Y39990442D01*
X35944163Y39976111D01*
X36038900Y39952381D01*
X36130864Y39919475D01*
X36219145Y39877722D01*
X36302921Y39827508D01*
X36381372Y39769325D01*
X36453737Y39703737D01*
X36519325Y39631372D01*
X36577508Y39552921D01*
X36627722Y39469145D01*
X36669475Y39380864D01*
X36702381Y39288900D01*
X36726111Y39194163D01*
X36740442Y39097543D01*
X36745236Y39000000D01*
X36740442Y38902457D01*
X36726111Y38805837D01*
X36702381Y38711100D01*
X36669475Y38619136D01*
X36627722Y38530855D01*
X36577508Y38447079D01*
X36519325Y38368628D01*
X36453737Y38296263D01*
X36381372Y38230675D01*
X36302921Y38172492D01*
X36219145Y38122278D01*
X36130864Y38080525D01*
X36038900Y38047619D01*
X35944163Y38023889D01*
X35847543Y38009558D01*
X35750000Y38004764D01*
D02*
G37*
%LPC*%
G36*
X4500000Y35254764D02*
X4377953Y35260762D01*
X4257065Y35278693D01*
X4138526Y35308385D01*
X4023471Y35349552D01*
X3913002Y35401800D01*
X3808185Y35464625D01*
X3710033Y35537421D01*
X3619486Y35619486D01*
X3537421Y35710033D01*
X3464625Y35808185D01*
X3401800Y35913002D01*
X3349552Y36023471D01*
X3308385Y36138526D01*
X3278693Y36257065D01*
X3260762Y36377953D01*
X3254764Y36500000D01*
X3260762Y36622047D01*
X3278693Y36742935D01*
X3308385Y36861474D01*
X3349552Y36976529D01*
X3401800Y37086998D01*
X3464625Y37191815D01*
X3537421Y37289967D01*
X3619486Y37380514D01*
X3710033Y37462579D01*
X3808185Y37535375D01*
X3913002Y37598200D01*
X4023471Y37650448D01*
X4138526Y37691615D01*
X4257065Y37721307D01*
X4377953Y37739238D01*
X4500000Y37745236D01*
X4622047Y37739238D01*
X4742935Y37721307D01*
X4861474Y37691615D01*
X4976529Y37650448D01*
X5086998Y37598200D01*
X5191815Y37535375D01*
X5289967Y37462579D01*
X5380514Y37380514D01*
X5462579Y37289967D01*
X5535375Y37191815D01*
X5598200Y37086998D01*
X5650448Y36976529D01*
X5691615Y36861474D01*
X5721307Y36742935D01*
X5739238Y36622047D01*
X5745236Y36500000D01*
X5739238Y36377953D01*
X5721307Y36257065D01*
X5691615Y36138526D01*
X5650448Y36023471D01*
X5598200Y35913002D01*
X5535375Y35808185D01*
X5462579Y35710033D01*
X5380514Y35619486D01*
X5289967Y35537421D01*
X5191815Y35464625D01*
X5086998Y35401800D01*
X4976529Y35349552D01*
X4861474Y35308385D01*
X4742935Y35278693D01*
X4622047Y35260762D01*
X4500000Y35254764D01*
D02*
G37*
%LPC*%
G36*
X9500000Y35254764D02*
X9377953Y35260762D01*
X9257065Y35278693D01*
X9138526Y35308385D01*
X9023471Y35349552D01*
X8913002Y35401800D01*
X8808185Y35464625D01*
X8710033Y35537421D01*
X8619486Y35619486D01*
X8537421Y35710033D01*
X8464625Y35808185D01*
X8401800Y35913002D01*
X8349552Y36023471D01*
X8308385Y36138526D01*
X8278693Y36257065D01*
X8260762Y36377953D01*
X8254764Y36500000D01*
X8260762Y36622047D01*
X8278693Y36742935D01*
X8308385Y36861474D01*
X8349552Y36976529D01*
X8401800Y37086998D01*
X8464625Y37191815D01*
X8537421Y37289967D01*
X8619486Y37380514D01*
X8710033Y37462579D01*
X8808185Y37535375D01*
X8913002Y37598200D01*
X9023471Y37650448D01*
X9138526Y37691615D01*
X9257065Y37721307D01*
X9377953Y37739238D01*
X9500000Y37745236D01*
X9622047Y37739238D01*
X9742935Y37721307D01*
X9861474Y37691615D01*
X9976529Y37650448D01*
X10086998Y37598200D01*
X10191815Y37535375D01*
X10289967Y37462579D01*
X10380514Y37380514D01*
X10462579Y37289967D01*
X10535375Y37191815D01*
X10598200Y37086998D01*
X10650448Y36976529D01*
X10691615Y36861474D01*
X10721307Y36742935D01*
X10739238Y36622047D01*
X10745236Y36500000D01*
X10739238Y36377953D01*
X10721307Y36257065D01*
X10691615Y36138526D01*
X10650448Y36023471D01*
X10598200Y35913002D01*
X10535375Y35808185D01*
X10462579Y35710033D01*
X10380514Y35619486D01*
X10289967Y35537421D01*
X10191815Y35464625D01*
X10086998Y35401800D01*
X9976529Y35349552D01*
X9861474Y35308385D01*
X9742935Y35278693D01*
X9622047Y35260762D01*
X9500000Y35254764D01*
D02*
G37*
%LPC*%
G36*
X14500000Y35254764D02*
X14377953Y35260762D01*
X14257065Y35278693D01*
X14138526Y35308385D01*
X14023471Y35349552D01*
X13913002Y35401800D01*
X13808185Y35464625D01*
X13710033Y35537421D01*
X13619486Y35619486D01*
X13537421Y35710033D01*
X13464625Y35808185D01*
X13401800Y35913002D01*
X13349552Y36023471D01*
X13308385Y36138526D01*
X13278693Y36257065D01*
X13260762Y36377953D01*
X13254764Y36500000D01*
X13260762Y36622047D01*
X13278693Y36742935D01*
X13308385Y36861474D01*
X13349552Y36976529D01*
X13401800Y37086998D01*
X13464625Y37191815D01*
X13537421Y37289967D01*
X13619486Y37380514D01*
X13710033Y37462579D01*
X13808185Y37535375D01*
X13913002Y37598200D01*
X14023471Y37650448D01*
X14138526Y37691615D01*
X14257065Y37721307D01*
X14377953Y37739238D01*
X14500000Y37745236D01*
X14622047Y37739238D01*
X14742935Y37721307D01*
X14861474Y37691615D01*
X14976529Y37650448D01*
X15086998Y37598200D01*
X15191815Y37535375D01*
X15289967Y37462579D01*
X15380514Y37380514D01*
X15462579Y37289967D01*
X15535375Y37191815D01*
X15598200Y37086998D01*
X15650448Y36976529D01*
X15691615Y36861474D01*
X15721307Y36742935D01*
X15739238Y36622047D01*
X15745236Y36500000D01*
X15739238Y36377953D01*
X15721307Y36257065D01*
X15691615Y36138526D01*
X15650448Y36023471D01*
X15598200Y35913002D01*
X15535375Y35808185D01*
X15462579Y35710033D01*
X15380514Y35619486D01*
X15289967Y35537421D01*
X15191815Y35464625D01*
X15086998Y35401800D01*
X14976529Y35349552D01*
X14861474Y35308385D01*
X14742935Y35278693D01*
X14622047Y35260762D01*
X14500000Y35254764D01*
D02*
G37*
%LPC*%
G36*
X48500000Y35254764D02*
X48377953Y35260762D01*
X48257065Y35278693D01*
X48138526Y35308385D01*
X48023471Y35349552D01*
X47913002Y35401800D01*
X47808185Y35464625D01*
X47710033Y35537421D01*
X47619486Y35619486D01*
X47537421Y35710033D01*
X47464625Y35808185D01*
X47401800Y35913002D01*
X47349552Y36023471D01*
X47308385Y36138526D01*
X47278693Y36257065D01*
X47260762Y36377953D01*
X47254764Y36500000D01*
X47260762Y36622047D01*
X47278693Y36742935D01*
X47308385Y36861474D01*
X47349552Y36976529D01*
X47401800Y37086998D01*
X47464625Y37191815D01*
X47537421Y37289967D01*
X47619486Y37380514D01*
X47710033Y37462579D01*
X47808185Y37535375D01*
X47913002Y37598200D01*
X48023471Y37650448D01*
X48138526Y37691615D01*
X48257065Y37721307D01*
X48377953Y37739238D01*
X48500000Y37745236D01*
X48622047Y37739238D01*
X48742935Y37721307D01*
X48861474Y37691615D01*
X48976529Y37650448D01*
X49086998Y37598200D01*
X49191815Y37535375D01*
X49289967Y37462579D01*
X49380514Y37380514D01*
X49462579Y37289967D01*
X49535375Y37191815D01*
X49598200Y37086998D01*
X49650448Y36976529D01*
X49691615Y36861474D01*
X49721307Y36742935D01*
X49739238Y36622047D01*
X49745236Y36500000D01*
X49739238Y36377953D01*
X49721307Y36257065D01*
X49691615Y36138526D01*
X49650448Y36023471D01*
X49598200Y35913002D01*
X49535375Y35808185D01*
X49462579Y35710033D01*
X49380514Y35619486D01*
X49289967Y35537421D01*
X49191815Y35464625D01*
X49086998Y35401800D01*
X48976529Y35349552D01*
X48861474Y35308385D01*
X48742935Y35278693D01*
X48622047Y35260762D01*
X48500000Y35254764D01*
D02*
G37*
%LPC*%
G36*
X53500000Y35254764D02*
X53377953Y35260762D01*
X53257065Y35278693D01*
X53138526Y35308385D01*
X53023471Y35349552D01*
X52913002Y35401800D01*
X52808185Y35464625D01*
X52710033Y35537421D01*
X52619486Y35619486D01*
X52537421Y35710033D01*
X52464625Y35808185D01*
X52401800Y35913002D01*
X52349552Y36023471D01*
X52308385Y36138526D01*
X52278693Y36257065D01*
X52260762Y36377953D01*
X52254764Y36500000D01*
X52260762Y36622047D01*
X52278693Y36742935D01*
X52308385Y36861474D01*
X52349552Y36976529D01*
X52401800Y37086998D01*
X52464625Y37191815D01*
X52537421Y37289967D01*
X52619486Y37380514D01*
X52710033Y37462579D01*
X52808185Y37535375D01*
X52913002Y37598200D01*
X53023471Y37650448D01*
X53138526Y37691615D01*
X53257065Y37721307D01*
X53377953Y37739238D01*
X53500000Y37745236D01*
X53622047Y37739238D01*
X53742935Y37721307D01*
X53861474Y37691615D01*
X53976529Y37650448D01*
X54086998Y37598200D01*
X54191815Y37535375D01*
X54289967Y37462579D01*
X54380514Y37380514D01*
X54462579Y37289967D01*
X54535375Y37191815D01*
X54598200Y37086998D01*
X54650448Y36976529D01*
X54691615Y36861474D01*
X54721307Y36742935D01*
X54739238Y36622047D01*
X54745236Y36500000D01*
X54739238Y36377953D01*
X54721307Y36257065D01*
X54691615Y36138526D01*
X54650448Y36023471D01*
X54598200Y35913002D01*
X54535375Y35808185D01*
X54462579Y35710033D01*
X54380514Y35619486D01*
X54289967Y35537421D01*
X54191815Y35464625D01*
X54086998Y35401800D01*
X53976529Y35349552D01*
X53861474Y35308385D01*
X53742935Y35278693D01*
X53622047Y35260762D01*
X53500000Y35254764D01*
D02*
G37*
%LPC*%
G36*
X58500000Y35254764D02*
X58377953Y35260762D01*
X58257065Y35278693D01*
X58138526Y35308385D01*
X58023471Y35349552D01*
X57913002Y35401800D01*
X57808185Y35464625D01*
X57710033Y35537421D01*
X57619486Y35619486D01*
X57537421Y35710033D01*
X57464625Y35808185D01*
X57401800Y35913002D01*
X57349552Y36023471D01*
X57308385Y36138526D01*
X57278693Y36257065D01*
X57260762Y36377953D01*
X57254764Y36500000D01*
X57260762Y36622047D01*
X57278693Y36742935D01*
X57308385Y36861474D01*
X57349552Y36976529D01*
X57401800Y37086998D01*
X57464625Y37191815D01*
X57537421Y37289967D01*
X57619486Y37380514D01*
X57710033Y37462579D01*
X57808185Y37535375D01*
X57913002Y37598200D01*
X58023471Y37650448D01*
X58138526Y37691615D01*
X58257065Y37721307D01*
X58377953Y37739238D01*
X58500000Y37745236D01*
X58622047Y37739238D01*
X58742935Y37721307D01*
X58861474Y37691615D01*
X58976529Y37650448D01*
X59086998Y37598200D01*
X59191815Y37535375D01*
X59289967Y37462579D01*
X59380514Y37380514D01*
X59462579Y37289967D01*
X59535375Y37191815D01*
X59598200Y37086998D01*
X59650448Y36976529D01*
X59691615Y36861474D01*
X59721307Y36742935D01*
X59739238Y36622047D01*
X59745236Y36500000D01*
X59739238Y36377953D01*
X59721307Y36257065D01*
X59691615Y36138526D01*
X59650448Y36023471D01*
X59598200Y35913002D01*
X59535375Y35808185D01*
X59462579Y35710033D01*
X59380514Y35619486D01*
X59289967Y35537421D01*
X59191815Y35464625D01*
X59086998Y35401800D01*
X58976529Y35349552D01*
X58861474Y35308385D01*
X58742935Y35278693D01*
X58622047Y35260762D01*
X58500000Y35254764D01*
D02*
G37*
%LPC*%
G36*
X35750000Y35504764D02*
X35652457Y35509558D01*
X35555837Y35523889D01*
X35461100Y35547619D01*
X35369136Y35580525D01*
X35280855Y35622278D01*
X35197079Y35672492D01*
X35118628Y35730675D01*
X35046263Y35796263D01*
X34980675Y35868628D01*
X34922492Y35947079D01*
X34872278Y36030855D01*
X34830525Y36119136D01*
X34797619Y36211100D01*
X34773889Y36305837D01*
X34759558Y36402457D01*
X34754764Y36500000D01*
X34759558Y36597543D01*
X34773889Y36694163D01*
X34797619Y36788900D01*
X34830525Y36880864D01*
X34872278Y36969145D01*
X34922492Y37052921D01*
X34980675Y37131372D01*
X35046263Y37203737D01*
X35118628Y37269325D01*
X35197079Y37327508D01*
X35280855Y37377722D01*
X35369136Y37419475D01*
X35461100Y37452381D01*
X35555837Y37476111D01*
X35652457Y37490442D01*
X35750000Y37495236D01*
X35847543Y37490442D01*
X35944163Y37476111D01*
X36038900Y37452381D01*
X36130864Y37419475D01*
X36219145Y37377722D01*
X36302921Y37327508D01*
X36381372Y37269325D01*
X36453737Y37203737D01*
X36519325Y37131372D01*
X36577508Y37052921D01*
X36627722Y36969145D01*
X36669475Y36880864D01*
X36702381Y36788900D01*
X36726111Y36694163D01*
X36740442Y36597543D01*
X36745236Y36500000D01*
X36740442Y36402457D01*
X36726111Y36305837D01*
X36702381Y36211100D01*
X36669475Y36119136D01*
X36627722Y36030855D01*
X36577508Y35947079D01*
X36519325Y35868628D01*
X36453737Y35796263D01*
X36381372Y35730675D01*
X36302921Y35672492D01*
X36219145Y35622278D01*
X36130864Y35580525D01*
X36038900Y35547619D01*
X35944163Y35523889D01*
X35847543Y35509558D01*
X35750000Y35504764D01*
D02*
G37*
%LPC*%
G36*
X31750000Y32974764D02*
X31652457Y32979558D01*
X31555837Y32993889D01*
X31461100Y33017619D01*
X31369136Y33050525D01*
X31280855Y33092278D01*
X31197079Y33142492D01*
X31118628Y33200675D01*
X31046263Y33266263D01*
X30980675Y33338628D01*
X30922492Y33417079D01*
X30872278Y33500855D01*
X30830525Y33589136D01*
X30797619Y33681100D01*
X30773889Y33775837D01*
X30759558Y33872457D01*
X30754764Y33970000D01*
X30759558Y34067543D01*
X30773889Y34164163D01*
X30797619Y34258900D01*
X30830525Y34350864D01*
X30872278Y34439145D01*
X30922492Y34522921D01*
X30980675Y34601372D01*
X31046263Y34673737D01*
X31118628Y34739325D01*
X31197079Y34797508D01*
X31280855Y34847722D01*
X31369136Y34889475D01*
X31461100Y34922381D01*
X31555837Y34946111D01*
X31652457Y34960442D01*
X31750000Y34965236D01*
X31847543Y34960442D01*
X31944163Y34946111D01*
X32038900Y34922381D01*
X32130864Y34889475D01*
X32219145Y34847722D01*
X32302921Y34797508D01*
X32381372Y34739325D01*
X32453737Y34673737D01*
X32519325Y34601372D01*
X32577508Y34522921D01*
X32627722Y34439145D01*
X32669475Y34350864D01*
X32702381Y34258900D01*
X32726111Y34164163D01*
X32740442Y34067543D01*
X32745236Y33970000D01*
X32740442Y33872457D01*
X32726111Y33775837D01*
X32702381Y33681100D01*
X32669475Y33589136D01*
X32627722Y33500855D01*
X32577508Y33417079D01*
X32519325Y33338628D01*
X32453737Y33266263D01*
X32381372Y33200675D01*
X32302921Y33142492D01*
X32219145Y33092278D01*
X32130864Y33050525D01*
X32038900Y33017619D01*
X31944163Y32993889D01*
X31847543Y32979558D01*
X31750000Y32974764D01*
D02*
G37*
%LPC*%
G36*
X26950000Y32974764D02*
X26852457Y32979558D01*
X26755837Y32993889D01*
X26661100Y33017619D01*
X26569136Y33050525D01*
X26480855Y33092278D01*
X26397079Y33142492D01*
X26318628Y33200675D01*
X26246263Y33266263D01*
X26180675Y33338628D01*
X26122492Y33417079D01*
X26072278Y33500855D01*
X26030525Y33589136D01*
X25997619Y33681100D01*
X25973889Y33775837D01*
X25959558Y33872457D01*
X25954764Y33970000D01*
X25959558Y34067543D01*
X25973889Y34164163D01*
X25997619Y34258900D01*
X26030525Y34350864D01*
X26072278Y34439145D01*
X26122492Y34522921D01*
X26180675Y34601372D01*
X26246263Y34673737D01*
X26318628Y34739325D01*
X26397079Y34797508D01*
X26480855Y34847722D01*
X26569136Y34889475D01*
X26661100Y34922381D01*
X26755837Y34946111D01*
X26852457Y34960442D01*
X26950000Y34965236D01*
X27047543Y34960442D01*
X27144163Y34946111D01*
X27238900Y34922381D01*
X27330864Y34889475D01*
X27419145Y34847722D01*
X27502921Y34797508D01*
X27581372Y34739325D01*
X27653737Y34673737D01*
X27719325Y34601372D01*
X27777508Y34522921D01*
X27827722Y34439145D01*
X27869475Y34350864D01*
X27902381Y34258900D01*
X27926111Y34164163D01*
X27940442Y34067543D01*
X27945236Y33970000D01*
X27940442Y33872457D01*
X27926111Y33775837D01*
X27902381Y33681100D01*
X27869475Y33589136D01*
X27827722Y33500855D01*
X27777508Y33417079D01*
X27719325Y33338628D01*
X27653737Y33266263D01*
X27581372Y33200675D01*
X27502921Y33142492D01*
X27419145Y33092278D01*
X27330864Y33050525D01*
X27238900Y33017619D01*
X27144163Y32993889D01*
X27047543Y32979558D01*
X26950000Y32974764D01*
D02*
G37*
%LPC*%
G36*
X10477083Y5646027D02*
X10389343Y5650339D01*
X10302427Y5663231D01*
X10217212Y5684576D01*
X10134490Y5714176D01*
X10055073Y5751736D01*
X9979720Y5796901D01*
X9909156Y5849235D01*
X9844057Y5908237D01*
X9785055Y5973336D01*
X9732721Y6043900D01*
X9687556Y6119253D01*
X9649996Y6198670D01*
X9620396Y6281392D01*
X9599051Y6366607D01*
X9586159Y6453523D01*
X9581847Y6541263D01*
X9586159Y6629003D01*
X9599051Y6715919D01*
X9620396Y6801134D01*
X9649996Y6883856D01*
X9687556Y6963273D01*
X9732721Y7038626D01*
X9785055Y7109190D01*
X9844057Y7174289D01*
X9909156Y7233291D01*
X9979720Y7285625D01*
X10055073Y7330790D01*
X10134490Y7368350D01*
X10217212Y7397950D01*
X10302427Y7419295D01*
X10389343Y7432187D01*
X10477083Y7436499D01*
X10564823Y7432187D01*
X10651739Y7419295D01*
X10736954Y7397950D01*
X10819676Y7368350D01*
X10899093Y7330790D01*
X10974446Y7285625D01*
X11045010Y7233291D01*
X11110109Y7174289D01*
X11169111Y7109190D01*
X11221445Y7038626D01*
X11266610Y6963273D01*
X11304170Y6883856D01*
X11333770Y6801134D01*
X11355115Y6715919D01*
X11368007Y6629003D01*
X11372319Y6541263D01*
X11368007Y6453523D01*
X11355115Y6366607D01*
X11333770Y6281392D01*
X11304170Y6198670D01*
X11266610Y6119253D01*
X11221445Y6043900D01*
X11169111Y5973336D01*
X11110109Y5908237D01*
X11045010Y5849235D01*
X10974446Y5796901D01*
X10899093Y5751736D01*
X10819676Y5714176D01*
X10736954Y5684576D01*
X10651739Y5663231D01*
X10564823Y5650339D01*
X10477083Y5646027D01*
D02*
G37*
%LPC*%
G36*
X54477083Y5646027D02*
X54389343Y5650339D01*
X54302427Y5663231D01*
X54217212Y5684576D01*
X54134490Y5714176D01*
X54055073Y5751736D01*
X53979720Y5796901D01*
X53909156Y5849235D01*
X53844057Y5908237D01*
X53785055Y5973336D01*
X53732721Y6043900D01*
X53687556Y6119253D01*
X53649996Y6198670D01*
X53620396Y6281392D01*
X53599051Y6366607D01*
X53586159Y6453523D01*
X53581847Y6541263D01*
X53586159Y6629003D01*
X53599051Y6715919D01*
X53620396Y6801134D01*
X53649996Y6883856D01*
X53687556Y6963273D01*
X53732721Y7038626D01*
X53785055Y7109190D01*
X53844057Y7174289D01*
X53909156Y7233291D01*
X53979720Y7285625D01*
X54055073Y7330790D01*
X54134490Y7368350D01*
X54217212Y7397950D01*
X54302427Y7419295D01*
X54389343Y7432187D01*
X54477083Y7436499D01*
X54564823Y7432187D01*
X54651739Y7419295D01*
X54736954Y7397950D01*
X54819676Y7368350D01*
X54899093Y7330790D01*
X54974446Y7285625D01*
X55045010Y7233291D01*
X55110109Y7174289D01*
X55169111Y7109190D01*
X55221445Y7038626D01*
X55266610Y6963273D01*
X55304170Y6883856D01*
X55333770Y6801134D01*
X55355115Y6715919D01*
X55368007Y6629003D01*
X55372319Y6541263D01*
X55368007Y6453523D01*
X55355115Y6366607D01*
X55333770Y6281392D01*
X55304170Y6198670D01*
X55266610Y6119253D01*
X55221445Y6043900D01*
X55169111Y5973336D01*
X55110109Y5908237D01*
X55045010Y5849235D01*
X54974446Y5796901D01*
X54899093Y5751736D01*
X54819676Y5714176D01*
X54736954Y5684576D01*
X54651739Y5663231D01*
X54564823Y5650339D01*
X54477083Y5646027D01*
D02*
G37*
%LPC*%
G36*
X22502917Y2174501D02*
X22415177Y2178813D01*
X22328261Y2191705D01*
X22243046Y2213050D01*
X22160324Y2242650D01*
X22080907Y2280210D01*
X22005554Y2325375D01*
X21934990Y2377709D01*
X21869891Y2436711D01*
X21810889Y2501810D01*
X21758555Y2572374D01*
X21713390Y2647727D01*
X21675830Y2727144D01*
X21646230Y2809866D01*
X21624885Y2895081D01*
X21611993Y2981997D01*
X21607681Y3069737D01*
X21611993Y3157477D01*
X21624885Y3244393D01*
X21646230Y3329608D01*
X21675830Y3412330D01*
X21713390Y3491747D01*
X21758555Y3567100D01*
X21810889Y3637664D01*
X21869891Y3702763D01*
X21934990Y3761765D01*
X22005554Y3814099D01*
X22080907Y3859264D01*
X22160324Y3896824D01*
X22243046Y3926424D01*
X22328261Y3947769D01*
X22415177Y3960661D01*
X22502917Y3964973D01*
X22590657Y3960661D01*
X22677573Y3947769D01*
X22762788Y3926424D01*
X22845510Y3896824D01*
X22924927Y3859264D01*
X23000280Y3814099D01*
X23070844Y3761765D01*
X23135943Y3702763D01*
X23194945Y3637664D01*
X23247279Y3567100D01*
X23292444Y3491747D01*
X23330004Y3412330D01*
X23359604Y3329608D01*
X23380949Y3244393D01*
X23393841Y3157477D01*
X23398153Y3069737D01*
X23393841Y2981997D01*
X23380949Y2895081D01*
X23359604Y2809866D01*
X23330004Y2727144D01*
X23292444Y2647727D01*
X23247279Y2572374D01*
X23194945Y2501810D01*
X23135943Y2436711D01*
X23070844Y2377709D01*
X23000280Y2325375D01*
X22924927Y2280210D01*
X22845510Y2242650D01*
X22762788Y2213050D01*
X22677573Y2191705D01*
X22590657Y2178813D01*
X22502917Y2174501D01*
D02*
G37*
%LPC*%
G36*
X26502917Y2174501D02*
X26415177Y2178813D01*
X26328261Y2191705D01*
X26243046Y2213050D01*
X26160324Y2242650D01*
X26080907Y2280210D01*
X26005554Y2325375D01*
X25934990Y2377709D01*
X25869891Y2436711D01*
X25810889Y2501810D01*
X25758555Y2572374D01*
X25713390Y2647727D01*
X25675830Y2727144D01*
X25646230Y2809866D01*
X25624885Y2895081D01*
X25611993Y2981997D01*
X25607681Y3069737D01*
X25611993Y3157477D01*
X25624885Y3244393D01*
X25646230Y3329608D01*
X25675830Y3412330D01*
X25713390Y3491747D01*
X25758555Y3567100D01*
X25810889Y3637664D01*
X25869891Y3702763D01*
X25934990Y3761765D01*
X26005554Y3814099D01*
X26080907Y3859264D01*
X26160324Y3896824D01*
X26243046Y3926424D01*
X26328261Y3947769D01*
X26415177Y3960661D01*
X26502917Y3964973D01*
X26590657Y3960661D01*
X26677573Y3947769D01*
X26762788Y3926424D01*
X26845510Y3896824D01*
X26924927Y3859264D01*
X27000280Y3814099D01*
X27070844Y3761765D01*
X27135943Y3702763D01*
X27194945Y3637664D01*
X27247279Y3567100D01*
X27292444Y3491747D01*
X27330004Y3412330D01*
X27359604Y3329608D01*
X27380949Y3244393D01*
X27393841Y3157477D01*
X27398153Y3069737D01*
X27393841Y2981997D01*
X27380949Y2895081D01*
X27359604Y2809866D01*
X27330004Y2727144D01*
X27292444Y2647727D01*
X27247279Y2572374D01*
X27194945Y2501810D01*
X27135943Y2436711D01*
X27070844Y2377709D01*
X27000280Y2325375D01*
X26924927Y2280210D01*
X26845510Y2242650D01*
X26762788Y2213050D01*
X26677573Y2191705D01*
X26590657Y2178813D01*
X26502917Y2174501D01*
D02*
G37*
%LPC*%
G36*
X30502917Y2174501D02*
X30415177Y2178813D01*
X30328261Y2191705D01*
X30243046Y2213050D01*
X30160324Y2242650D01*
X30080907Y2280210D01*
X30005554Y2325375D01*
X29934990Y2377709D01*
X29869891Y2436711D01*
X29810889Y2501810D01*
X29758555Y2572374D01*
X29713390Y2647727D01*
X29675830Y2727144D01*
X29646230Y2809866D01*
X29624885Y2895081D01*
X29611993Y2981997D01*
X29607681Y3069737D01*
X29611993Y3157477D01*
X29624885Y3244393D01*
X29646230Y3329608D01*
X29675830Y3412330D01*
X29713390Y3491747D01*
X29758555Y3567100D01*
X29810889Y3637664D01*
X29869891Y3702763D01*
X29934990Y3761765D01*
X30005554Y3814099D01*
X30080907Y3859264D01*
X30160324Y3896824D01*
X30243046Y3926424D01*
X30328261Y3947769D01*
X30415177Y3960661D01*
X30502917Y3964973D01*
X30590657Y3960661D01*
X30677573Y3947769D01*
X30762788Y3926424D01*
X30845510Y3896824D01*
X30924927Y3859264D01*
X31000280Y3814099D01*
X31070844Y3761765D01*
X31135943Y3702763D01*
X31194945Y3637664D01*
X31247279Y3567100D01*
X31292444Y3491747D01*
X31330004Y3412330D01*
X31359604Y3329608D01*
X31380949Y3244393D01*
X31393841Y3157477D01*
X31398153Y3069737D01*
X31393841Y2981997D01*
X31380949Y2895081D01*
X31359604Y2809866D01*
X31330004Y2727144D01*
X31292444Y2647727D01*
X31247279Y2572374D01*
X31194945Y2501810D01*
X31135943Y2436711D01*
X31070844Y2377709D01*
X31000280Y2325375D01*
X30924927Y2280210D01*
X30845510Y2242650D01*
X30762788Y2213050D01*
X30677573Y2191705D01*
X30590657Y2178813D01*
X30502917Y2174501D01*
D02*
G37*
%LPC*%
G36*
X32502917Y2174501D02*
X32415177Y2178813D01*
X32328261Y2191705D01*
X32243046Y2213050D01*
X32160324Y2242650D01*
X32080907Y2280210D01*
X32005554Y2325375D01*
X31934990Y2377709D01*
X31869891Y2436711D01*
X31810889Y2501810D01*
X31758555Y2572374D01*
X31713390Y2647727D01*
X31675830Y2727144D01*
X31646230Y2809866D01*
X31624885Y2895081D01*
X31611993Y2981997D01*
X31607681Y3069737D01*
X31611993Y3157477D01*
X31624885Y3244393D01*
X31646230Y3329608D01*
X31675830Y3412330D01*
X31713390Y3491747D01*
X31758555Y3567100D01*
X31810889Y3637664D01*
X31869891Y3702763D01*
X31934990Y3761765D01*
X32005554Y3814099D01*
X32080907Y3859264D01*
X32160324Y3896824D01*
X32243046Y3926424D01*
X32328261Y3947769D01*
X32415177Y3960661D01*
X32502917Y3964973D01*
X32590657Y3960661D01*
X32677573Y3947769D01*
X32762788Y3926424D01*
X32845510Y3896824D01*
X32924927Y3859264D01*
X33000280Y3814099D01*
X33070844Y3761765D01*
X33135943Y3702763D01*
X33194945Y3637664D01*
X33247279Y3567100D01*
X33292444Y3491747D01*
X33330004Y3412330D01*
X33359604Y3329608D01*
X33380949Y3244393D01*
X33393841Y3157477D01*
X33398153Y3069737D01*
X33393841Y2981997D01*
X33380949Y2895081D01*
X33359604Y2809866D01*
X33330004Y2727144D01*
X33292444Y2647727D01*
X33247279Y2572374D01*
X33194945Y2501810D01*
X33135943Y2436711D01*
X33070844Y2377709D01*
X33000280Y2325375D01*
X32924927Y2280210D01*
X32845510Y2242650D01*
X32762788Y2213050D01*
X32677573Y2191705D01*
X32590657Y2178813D01*
X32502917Y2174501D01*
D02*
G37*
%LPC*%
G36*
X34502917Y2174501D02*
X34415177Y2178813D01*
X34328261Y2191705D01*
X34243046Y2213050D01*
X34160324Y2242650D01*
X34080907Y2280210D01*
X34005554Y2325375D01*
X33934990Y2377709D01*
X33869891Y2436711D01*
X33810889Y2501810D01*
X33758555Y2572374D01*
X33713390Y2647727D01*
X33675830Y2727144D01*
X33646230Y2809866D01*
X33624885Y2895081D01*
X33611993Y2981997D01*
X33607681Y3069737D01*
X33611993Y3157477D01*
X33624885Y3244393D01*
X33646230Y3329608D01*
X33675830Y3412330D01*
X33713390Y3491747D01*
X33758555Y3567100D01*
X33810889Y3637664D01*
X33869891Y3702763D01*
X33934990Y3761765D01*
X34005554Y3814099D01*
X34080907Y3859264D01*
X34160324Y3896824D01*
X34243046Y3926424D01*
X34328261Y3947769D01*
X34415177Y3960661D01*
X34502917Y3964973D01*
X34590657Y3960661D01*
X34677573Y3947769D01*
X34762788Y3926424D01*
X34845510Y3896824D01*
X34924927Y3859264D01*
X35000280Y3814099D01*
X35070844Y3761765D01*
X35135943Y3702763D01*
X35194945Y3637664D01*
X35247279Y3567100D01*
X35292444Y3491747D01*
X35330004Y3412330D01*
X35359604Y3329608D01*
X35380949Y3244393D01*
X35393841Y3157477D01*
X35398153Y3069737D01*
X35393841Y2981997D01*
X35380949Y2895081D01*
X35359604Y2809866D01*
X35330004Y2727144D01*
X35292444Y2647727D01*
X35247279Y2572374D01*
X35194945Y2501810D01*
X35135943Y2436711D01*
X35070844Y2377709D01*
X35000280Y2325375D01*
X34924927Y2280210D01*
X34845510Y2242650D01*
X34762788Y2213050D01*
X34677573Y2191705D01*
X34590657Y2178813D01*
X34502917Y2174501D01*
D02*
G37*
%LPC*%
G36*
X36502917Y2174501D02*
X36415177Y2178813D01*
X36328261Y2191705D01*
X36243046Y2213050D01*
X36160324Y2242650D01*
X36080907Y2280210D01*
X36005554Y2325375D01*
X35934990Y2377709D01*
X35869891Y2436711D01*
X35810889Y2501810D01*
X35758555Y2572374D01*
X35713390Y2647727D01*
X35675830Y2727144D01*
X35646230Y2809866D01*
X35624885Y2895081D01*
X35611993Y2981997D01*
X35607681Y3069737D01*
X35611993Y3157477D01*
X35624885Y3244393D01*
X35646230Y3329608D01*
X35675830Y3412330D01*
X35713390Y3491747D01*
X35758555Y3567100D01*
X35810889Y3637664D01*
X35869891Y3702763D01*
X35934990Y3761765D01*
X36005554Y3814099D01*
X36080907Y3859264D01*
X36160324Y3896824D01*
X36243046Y3926424D01*
X36328261Y3947769D01*
X36415177Y3960661D01*
X36502917Y3964973D01*
X36590657Y3960661D01*
X36677573Y3947769D01*
X36762788Y3926424D01*
X36845510Y3896824D01*
X36924927Y3859264D01*
X37000280Y3814099D01*
X37070844Y3761765D01*
X37135943Y3702763D01*
X37194945Y3637664D01*
X37247279Y3567100D01*
X37292444Y3491747D01*
X37330004Y3412330D01*
X37359604Y3329608D01*
X37380949Y3244393D01*
X37393841Y3157477D01*
X37398153Y3069737D01*
X37393841Y2981997D01*
X37380949Y2895081D01*
X37359604Y2809866D01*
X37330004Y2727144D01*
X37292444Y2647727D01*
X37247279Y2572374D01*
X37194945Y2501810D01*
X37135943Y2436711D01*
X37070844Y2377709D01*
X37000280Y2325375D01*
X36924927Y2280210D01*
X36845510Y2242650D01*
X36762788Y2213050D01*
X36677573Y2191705D01*
X36590657Y2178813D01*
X36502917Y2174501D01*
D02*
G37*
%LPC*%
G36*
X40502917Y2174501D02*
X40415177Y2178813D01*
X40328261Y2191705D01*
X40243046Y2213050D01*
X40160324Y2242650D01*
X40080907Y2280210D01*
X40005554Y2325375D01*
X39934990Y2377709D01*
X39869891Y2436711D01*
X39810889Y2501810D01*
X39758555Y2572374D01*
X39713390Y2647727D01*
X39675830Y2727144D01*
X39646230Y2809866D01*
X39624885Y2895081D01*
X39611993Y2981997D01*
X39607681Y3069737D01*
X39611993Y3157477D01*
X39624885Y3244393D01*
X39646230Y3329608D01*
X39675830Y3412330D01*
X39713390Y3491747D01*
X39758555Y3567100D01*
X39810889Y3637664D01*
X39869891Y3702763D01*
X39934990Y3761765D01*
X40005554Y3814099D01*
X40080907Y3859264D01*
X40160324Y3896824D01*
X40243046Y3926424D01*
X40328261Y3947769D01*
X40415177Y3960661D01*
X40502917Y3964973D01*
X40590657Y3960661D01*
X40677573Y3947769D01*
X40762788Y3926424D01*
X40845510Y3896824D01*
X40924927Y3859264D01*
X41000280Y3814099D01*
X41070844Y3761765D01*
X41135943Y3702763D01*
X41194945Y3637664D01*
X41247279Y3567100D01*
X41292444Y3491747D01*
X41330004Y3412330D01*
X41359604Y3329608D01*
X41380949Y3244393D01*
X41393841Y3157477D01*
X41398153Y3069737D01*
X41393841Y2981997D01*
X41380949Y2895081D01*
X41359604Y2809866D01*
X41330004Y2727144D01*
X41292444Y2647727D01*
X41247279Y2572374D01*
X41194945Y2501810D01*
X41135943Y2436711D01*
X41070844Y2377709D01*
X41000280Y2325375D01*
X40924927Y2280210D01*
X40845510Y2242650D01*
X40762788Y2213050D01*
X40677573Y2191705D01*
X40590657Y2178813D01*
X40502917Y2174501D01*
D02*
G37*
%LPD*%
G01*
%LPD*%
G75*
D10*
X4500000Y62500000D03*
D10*
X14500000Y62500000D03*
D10*
X9500000Y62500000D03*
D11*
X26100000Y68200000D03*
D11*
X26100000Y59000000D03*
D10*
X48500000Y36500000D03*
D10*
X58500000Y36500000D03*
D10*
X53500000Y36500000D03*
D12*
X31750000Y31430000D03*
D12*
X31750000Y33970000D03*
D11*
X10477083Y6541263D03*
D11*
X8477083Y6541263D03*
D13*
X39050000Y36500000D03*
D13*
X35750000Y39000000D03*
D13*
X35750000Y41500000D03*
D13*
X35750000Y36500000D03*
D13*
X39050000Y39000000D03*
D13*
X39050000Y41500000D03*
D14*
X33420000Y58980000D03*
D14*
X33420000Y65380000D03*
D10*
X4500000Y36500000D03*
D10*
X14500000Y36500000D03*
D10*
X9500000Y36500000D03*
D15*
X29890000Y59000000D03*
D15*
X29890000Y68200000D03*
D16*
X36670000Y65380000D03*
D16*
X36670000Y58980000D03*
D11*
X54477083Y6541263D03*
D11*
X52477083Y6541263D03*
D17*
X31500000Y52500000D03*
D17*
X36580000Y52500000D03*
D17*
X26420000Y52500000D03*
D10*
X48500000Y62500000D03*
D10*
X58500000Y62500000D03*
D10*
X53500000Y62500000D03*
D18*
X26950000Y33970000D03*
D18*
X26950000Y31430000D03*
D15*
X24502917Y3069737D03*
D15*
X38502917Y3069737D03*
D15*
X30502917Y3069737D03*
D15*
X28502917Y3069737D03*
D15*
X22502917Y3069737D03*
D15*
X36502917Y3069737D03*
D15*
X26502917Y3069737D03*
D15*
X32502917Y3069737D03*
D15*
X34502917Y3069737D03*
D15*
X40502917Y3069737D03*
D19*
X8680000Y57850000D03*
D20*
X1000000Y26200000D03*
D20*
X62000000Y64600000D03*
D19*
X54970000Y42460000D03*
D20*
X54375000Y71000000D03*
D20*
X46750000Y1000000D03*
D19*
X8625000Y39000000D03*
D19*
X54375000Y13400000D03*
D19*
X16250000Y64600000D03*
D19*
X39125000Y32600000D03*
D19*
X54375000Y51800000D03*
D19*
X39125000Y26200000D03*
D19*
X46750000Y58200000D03*
D19*
X54375000Y19800000D03*
D19*
X8625000Y19800000D03*
D20*
X1000000Y51800000D03*
D20*
X1000000Y32600000D03*
D19*
X54375000Y45400000D03*
D20*
X62000000Y13400000D03*
D19*
X43050000Y11280000D03*
D19*
X31500000Y19800000D03*
D19*
X23875000Y7000000D03*
D20*
X46750000Y71000000D03*
D19*
X16250000Y7000000D03*
D20*
X62000000Y51800000D03*
D21*
X16010000Y54660000D03*
D19*
X54375000Y32600000D03*
D20*
X62000000Y1000000D03*
D19*
X34500000Y15860000D03*
D20*
X8625000Y71000000D03*
D19*
X46750000Y7000000D03*
D19*
X8625000Y32600000D03*
D19*
X46750000Y51800000D03*
D19*
X45500000Y12930000D03*
D20*
X1000000Y19800000D03*
D20*
X62000000Y7000000D03*
D20*
X16250000Y1000000D03*
D20*
X62000000Y32600000D03*
D20*
X31500000Y1000000D03*
D20*
X62000000Y45400000D03*
D22*
X38050000Y15930000D03*
D20*
X1000000Y71000000D03*
D19*
X4000001Y47580000D03*
D19*
X23875000Y64600000D03*
D19*
X23875000Y51800000D03*
D19*
X49460000Y40530000D03*
D20*
X39125000Y71000000D03*
D20*
X62000000Y19800000D03*
D20*
X31500000Y71000000D03*
D20*
X62000000Y26200000D03*
D19*
X16250000Y19800000D03*
D19*
X19950000Y11280000D03*
D19*
X17500000Y12930000D03*
D19*
X31500000Y45400000D03*
D22*
X25000000Y16000000D03*
D19*
X16250000Y26200000D03*
D19*
X46750000Y26200000D03*
D20*
X62000000Y39000000D03*
D19*
X46750000Y64600000D03*
D20*
X62000000Y58200000D03*
D20*
X1000000Y1000000D03*
D20*
X8625000Y1000000D03*
D20*
X1000000Y7000000D03*
D20*
X1000000Y45400000D03*
D19*
X23875000Y39000000D03*
D19*
X8625000Y13400000D03*
D19*
X4600000Y41100000D03*
D20*
X1000000Y58200000D03*
D19*
X8625000Y64600000D03*
D20*
X23875000Y71000000D03*
D19*
X23875000Y32600000D03*
D19*
X39125000Y64600000D03*
D19*
X23875000Y45400000D03*
D19*
X8625000Y26200000D03*
D19*
X54375000Y26200000D03*
D19*
X19950000Y14580000D03*
D19*
X31560000Y42090000D03*
D21*
X14410000Y55930000D03*
D19*
X31500000Y26200000D03*
D19*
X39125000Y45400000D03*
D20*
X54375000Y1000000D03*
D22*
X22000000Y55930000D03*
D20*
X23875000Y1000000D03*
D19*
X54375000Y39000000D03*
D19*
X46750000Y19800000D03*
D20*
X1000000Y39000000D03*
D19*
X54375000Y58200000D03*
D19*
X39125000Y7000000D03*
D19*
X46750000Y32600000D03*
D20*
X1000000Y13400000D03*
D19*
X52480000Y54400000D03*
D19*
X16250000Y32600000D03*
D19*
X16250000Y39000000D03*
D20*
X16250000Y71000000D03*
D19*
X20150000Y53030000D03*
D22*
X10280000Y50930000D03*
D19*
X12540000Y52090000D03*
D19*
X23875000Y26200000D03*
D19*
X23875000Y58200000D03*
D19*
X54375000Y64600000D03*
D19*
X39125000Y58200000D03*
D20*
X39125000Y1000000D03*
D19*
X43050000Y14580000D03*
D19*
X31500000Y64600000D03*
D19*
X39125000Y51800000D03*
D20*
X62000000Y71000000D03*
D19*
X31500000Y58200000D03*
D19*
X46750000Y39000000D03*
D19*
X46750000Y45700000D03*
D22*
X51530000Y48510000D03*
D19*
X6410000Y51310000D03*
D20*
X1000000Y64600000D03*
M02*
