%FSLAX46Y46*%
%MOMM*%
%AMPS12*
1,1,2.300000,0.000000,0.000000*
%
%ADD12PS12*%
%AMPS22*
1,1,1.800000,0.000000,0.000000*
%
%ADD22PS22*%
%AMPS25*
1,1,1.800000,0.000000,0.000000*
%
%ADD25PS25*%
%AMPS38*
1,1,1.800000,0.000000,0.000000*
%
%ADD38PS38*%
%AMPS35*
1,1,2.400000,0.000000,0.000000*
%
%ADD35PS35*%
%AMPS28*
1,1,1.600000,0.000000,0.000000*
%
%ADD28PS28*%
%AMPS34*
1,1,1.600000,0.000000,0.000000*
%
%ADD34PS34*%
%AMPS15*
1,1,1.600000,0.000000,0.000000*
%
%ADD15PS15*%
%AMPS33*
1,1,1.600000,0.000000,0.000000*
%
%ADD33PS33*%
%AMPS29*
21,1,0.800000,1.750000,0.000000,0.000000,90.000000*
%
%ADD29PS29*%
%AMPS30*
21,1,0.800000,1.750000,0.000000,0.000000,270.000000*
%
%ADD30PS30*%
%AMPS32*
21,1,1.800000,2.700000,0.000000,0.000000,0.000000*
%
%ADD32PS32*%
%AMPS37*
21,1,1.800000,2.700000,0.000000,0.000000,90.000000*
%
%ADD37PS37*%
%AMPS31*
21,1,1.800000,2.700000,0.000000,0.000000,180.000000*
%
%ADD31PS31*%
%AMPS36*
21,1,1.800000,2.700000,0.000000,0.000000,270.000000*
%
%ADD36PS36*%
%AMPS24*
21,1,1.100000,1.200000,0.000000,0.000000,0.000000*
%
%ADD24PS24*%
%AMPS23*
21,1,1.100000,1.200000,0.000000,0.000000,180.000000*
%
%ADD23PS23*%
%AMPS21*
21,1,1.800000,3.400000,0.000000,0.000000,90.000000*
%
%ADD21PS21*%
%AMPS20*
21,1,1.800000,3.400000,0.000000,0.000000,270.000000*
%
%ADD20PS20*%
%AMPS26*
21,1,1.650000,1.200000,0.000000,0.000000,90.000000*
%
%ADD26PS26*%
%AMPS27*
21,1,1.650000,1.200000,0.000000,0.000000,270.000000*
%
%ADD27PS27*%
%AMPS11*
21,1,1.700000,3.000000,0.000000,0.000000,90.000000*
%
%ADD11PS11*%
%AMPS10*
21,1,1.700000,3.000000,0.000000,0.000000,270.000000*
%
%ADD10PS10*%
%AMPS14*
21,1,2.000000,1.300000,0.000000,0.000000,90.000000*
%
%ADD14PS14*%
%AMPS13*
21,1,2.000000,1.300000,0.000000,0.000000,270.000000*
%
%ADD13PS13*%
%AMPS19*
21,1,1.200000,1.100000,0.000000,0.000000,0.000000*
%
%ADD19PS19*%
%AMPS17*
21,1,1.200000,1.100000,0.000000,0.000000,90.000000*
%
%ADD17PS17*%
%AMPS18*
21,1,1.200000,1.100000,0.000000,0.000000,180.000000*
%
%ADD18PS18*%
%AMPS16*
21,1,1.200000,1.100000,0.000000,0.000000,270.000000*
%
%ADD16PS16*%
%AMPS40*
1,1,0.600000,0.000000,0.000000*
%
%ADD40PS40*%
%AMPS39*
1,1,0.550000,0.000000,0.000000*
%
%ADD39PS39*%
%AMPS41*
1,1,0.800000,0.000000,0.000000*
%
%ADD41PS41*%
G01*
%LPD*%
G01*
%LPD*%
G75*
D10*
X27050002Y39000000D03*
D11*
X31750000Y39000000D03*
D12*
X4500000Y62500000D03*
D12*
X14500000Y62500000D03*
D12*
X9500000Y62500000D03*
D13*
X30000000Y10000000D03*
D14*
X33000000Y10000000D03*
D15*
X26100000Y68200000D03*
D15*
X26100000Y59000000D03*
D16*
X14410000Y59285000D03*
D17*
X16010000Y59285000D03*
D18*
X16340000Y49175000D03*
D19*
X16340000Y47575000D03*
D17*
X6410000Y52610000D03*
D16*
X4810000Y52610000D03*
D18*
X52480000Y53100000D03*
D19*
X52480000Y51500000D03*
D12*
X48500000Y36500000D03*
D12*
X58500000Y36500000D03*
D12*
X53500000Y36500000D03*
D17*
X16010000Y51305000D03*
D16*
X14410000Y51305000D03*
D20*
X19950000Y12930000D03*
D21*
X24950000Y12930000D03*
D22*
X31750000Y31430000D03*
D22*
X31750000Y33970000D03*
D15*
X10477083Y6541263D03*
D15*
X8477083Y6541263D03*
D23*
X47860000Y48510000D03*
D24*
X48810000Y46310000D03*
D23*
X49760000Y48510000D03*
D18*
X14410000Y49175000D03*
D19*
X14410000Y47575000D03*
D25*
X39050000Y36500000D03*
D25*
X35750000Y39000000D03*
D25*
X35750000Y41500000D03*
D25*
X35750000Y36500000D03*
D25*
X39050000Y39000000D03*
D25*
X39050000Y41500000D03*
D16*
X8680000Y52730000D03*
D17*
X10280000Y52730000D03*
D20*
X38050000Y12930000D03*
D21*
X43050000Y12930000D03*
D19*
X53670000Y42460000D03*
D18*
X53670000Y44060000D03*
D26*
X49760000Y44060000D03*
D27*
X47860000Y44060000D03*
D19*
X20150000Y54330000D03*
D18*
X20150000Y55930000D03*
D11*
X11149999Y47580000D03*
D10*
X6450001Y47580000D03*
D16*
X31560000Y43390000D03*
D17*
X33160000Y43390000D03*
D28*
X33420000Y58980000D03*
D28*
X33420000Y65380000D03*
D18*
X51790000Y44060000D03*
D19*
X51790000Y42460000D03*
D16*
X8680000Y56550000D03*
D17*
X10280000Y56550000D03*
D29*
X17880000Y57200000D03*
D29*
X17880000Y54660000D03*
D29*
X17880000Y53390000D03*
D30*
X12540000Y53390000D03*
D30*
X12540000Y55930000D03*
D29*
X17880000Y55930000D03*
D30*
X12540000Y57200000D03*
D30*
X12540000Y54660000D03*
D31*
X48500000Y55000000D03*
D32*
X48500000Y51500000D03*
D12*
X4500000Y36500000D03*
D12*
X14500000Y36500000D03*
D12*
X9500000Y36500000D03*
D26*
X6710000Y54840000D03*
D27*
X4810000Y54840000D03*
D14*
X33000000Y15860000D03*
D13*
X30000000Y15860000D03*
D17*
X49460000Y41830000D03*
D16*
X47860000Y41830000D03*
D33*
X29890000Y59000000D03*
D33*
X29890000Y68200000D03*
D14*
X33000000Y12930000D03*
D13*
X30000000Y12930000D03*
D17*
X27260000Y43430000D03*
D16*
X25660000Y43430000D03*
D17*
X10280000Y54660000D03*
D16*
X8680000Y54660000D03*
D34*
X36670000Y65380000D03*
D34*
X36670000Y58980000D03*
D15*
X54477083Y6541263D03*
D15*
X52477083Y6541263D03*
D35*
X31500000Y52500000D03*
D35*
X36580000Y52500000D03*
D35*
X26420000Y52500000D03*
D12*
X48500000Y62500000D03*
D12*
X58500000Y62500000D03*
D12*
X53500000Y62500000D03*
D36*
X7050000Y41100000D03*
D37*
X10550000Y41100000D03*
D38*
X26950000Y33970000D03*
D38*
X26950000Y31430000D03*
D33*
X24502917Y3069737D03*
D33*
X38502917Y3069737D03*
D33*
X30502917Y3069737D03*
D33*
X28502917Y3069737D03*
D33*
X22502917Y3069737D03*
D33*
X36502917Y3069737D03*
D33*
X26502917Y3069737D03*
D33*
X32502917Y3069737D03*
D33*
X34502917Y3069737D03*
D33*
X40502917Y3069737D03*
D39*
X1000000Y26200000D03*
D39*
X62000000Y64600000D03*
D39*
X54375000Y71000000D03*
D39*
X46750000Y1000000D03*
D39*
X1000000Y51800000D03*
D39*
X1000000Y32600000D03*
D39*
X62000000Y13400000D03*
D39*
X46750000Y71000000D03*
D39*
X62000000Y51800000D03*
D40*
X16010000Y54660000D03*
D39*
X62000000Y1000000D03*
D39*
X8625000Y71000000D03*
D39*
X1000000Y19800000D03*
D39*
X62000000Y7000000D03*
D39*
X16250000Y1000000D03*
D39*
X62000000Y32600000D03*
D39*
X31500000Y1000000D03*
D39*
X62000000Y45400000D03*
D41*
X38050000Y15930000D03*
D39*
X1000000Y71000000D03*
D39*
X39125000Y71000000D03*
D39*
X62000000Y19800000D03*
D39*
X31500000Y71000000D03*
D39*
X62000000Y26200000D03*
D41*
X25000000Y16000000D03*
D39*
X62000000Y39000000D03*
D39*
X62000000Y58200000D03*
D39*
X1000000Y1000000D03*
D39*
X8625000Y1000000D03*
D39*
X1000000Y7000000D03*
D39*
X1000000Y45400000D03*
D39*
X1000000Y58200000D03*
D39*
X23875000Y71000000D03*
D40*
X14410000Y55930000D03*
D39*
X54375000Y1000000D03*
D41*
X22000000Y55930000D03*
D39*
X23875000Y1000000D03*
D39*
X1000000Y39000000D03*
D39*
X1000000Y13400000D03*
D39*
X16250000Y71000000D03*
D41*
X10280000Y50930000D03*
D39*
X39125000Y1000000D03*
D39*
X62000000Y71000000D03*
D41*
X51530000Y48510000D03*
D39*
X1000000Y64600000D03*
M02*
