%FSLAX46Y46*%
%MOMM*%
%ADD12C,0.050000*%
%ADD16C,0.100000*%
%ADD10C,0.150000*%
%ADD11C,0.200000*%
%ADD15C,0.300000*%
%ADD14C,0.400000*%
%ADD13C,0.500000*%
G01*
%LPD*%
G01*
%LPD*%
D10*
X45224524Y56695952D02*
X45272144Y56600716D01*
D10*
X45129284Y56791192D02*
X45224524Y56695952D01*
D10*
X45034048Y56838808D02*
X45129284Y56791192D01*
D10*
X44843572Y56838808D02*
X45034048Y56838808D01*
D10*
X44748332Y56791192D02*
X44843572Y56838808D01*
D10*
X44653096Y56695952D02*
X44748332Y56791192D01*
D10*
X44605476Y56600716D02*
X44653096Y56695952D01*
D10*
X44557856Y56457856D02*
X44605476Y56600716D01*
D10*
X44557856Y56219760D02*
X44557856Y56457856D01*
D10*
X44605476Y56076904D02*
X44557856Y56219760D01*
D10*
X44653096Y55981668D02*
X44605476Y56076904D01*
D10*
X44748332Y55886428D02*
X44653096Y55981668D01*
D10*
X44843572Y55838808D02*
X44748332Y55886428D01*
D10*
X45034048Y55838808D02*
X44843572Y55838808D01*
D10*
X45129284Y55886428D02*
X45034048Y55838808D01*
D10*
X45224524Y55981668D02*
X45129284Y55886428D01*
D10*
X45272144Y56076904D02*
X45224524Y55981668D01*
D10*
X45795952Y56695952D02*
X45700716Y56648332D01*
D10*
X45938808Y56838808D02*
X45795952Y56695952D01*
D10*
X45938808Y55838808D02*
X45938808Y56838808D01*
D10*
X46510240Y56172144D02*
X46986428Y56838808D01*
D10*
X47224524Y56172144D02*
X46510240Y56172144D01*
D10*
X46986428Y55838808D02*
X46986428Y56838808D01*
D10*
X22476190Y62500476D02*
X21476190Y62500476D01*
D10*
X21476190Y62833808D02*
X21476190Y62500476D01*
D10*
X21523810Y62976668D02*
X21476190Y62833808D01*
D10*
X21619048Y63071904D02*
X21523810Y62976668D01*
D10*
X21714286Y63119524D02*
X21619048Y63071904D01*
D10*
X21857142Y63167144D02*
X21714286Y63119524D01*
D10*
X22095238Y63167144D02*
X21857142Y63167144D01*
D10*
X22238096Y63119524D02*
X22095238Y63167144D01*
D10*
X22333334Y63071904D02*
X22238096Y63119524D01*
D10*
X22428572Y62976668D02*
X22333334Y63071904D01*
D10*
X22476190Y62833808D02*
X22428572Y62976668D01*
D10*
X22476190Y62500476D02*
X22476190Y62833808D01*
D10*
X21476190Y64071904D02*
X21476190Y63548096D01*
D10*
X21857142Y63786192D02*
X21476190Y64071904D01*
D10*
X21857142Y63929048D02*
X21857142Y63786192D01*
D10*
X21904762Y64024284D02*
X21857142Y63929048D01*
D10*
X21952380Y64071904D02*
X21904762Y64024284D01*
D10*
X22095238Y64119524D02*
X21952380Y64071904D01*
D10*
X22190476Y64119524D02*
X22095238Y64119524D01*
D10*
X22333334Y64071904D02*
X22190476Y64119524D01*
D10*
X22428572Y63976668D02*
X22333334Y64071904D01*
D10*
X22476190Y63833808D02*
X22428572Y63976668D01*
D10*
X22476190Y63690952D02*
X22476190Y63833808D01*
D10*
X22428572Y63548096D02*
X22476190Y63690952D01*
D10*
X22380952Y63500476D02*
X22428572Y63548096D01*
D10*
X22285714Y63452856D02*
X22380952Y63500476D01*
D10*
X27390476Y9523810D02*
X27390476Y10523810D01*
D10*
X27819048Y10523810D02*
X27390476Y10523810D01*
D10*
X27961904Y10476190D02*
X27819048Y10523810D01*
D10*
X28009524Y10428571D02*
X27961904Y10476190D01*
D10*
X28057142Y10333333D02*
X28009524Y10428571D01*
D10*
X28057142Y10238095D02*
X28057142Y10333333D01*
D10*
X28009524Y10142857D02*
X28057142Y10238095D01*
D10*
X27961904Y10095238D02*
X28009524Y10142857D01*
D10*
X27819048Y10047619D02*
X27961904Y10095238D01*
D10*
X27390476Y10047619D02*
X27819048Y10047619D01*
D10*
X28057142Y9523810D02*
X27723810Y10047619D01*
D10*
X28580952Y10380952D02*
X28485714Y10333333D01*
D10*
X28723810Y10523810D02*
X28580952Y10380952D01*
D10*
X28723810Y9523810D02*
X28723810Y10523810D01*
D10*
X48826192Y2480476D02*
X47826192Y2480476D01*
D10*
X47826192Y3099523D02*
X47826192Y2480476D01*
D10*
X48302380Y2861428D02*
X48302380Y2480476D01*
D10*
X47873808Y3861428D02*
X47969048Y3956666D01*
D10*
X47826192Y3718571D02*
X47873808Y3861428D01*
D10*
X47826192Y3528095D02*
X47826192Y3718571D01*
D10*
X47873808Y3385238D02*
X47826192Y3528095D01*
D10*
X47969048Y3290000D02*
X47873808Y3385238D01*
D10*
X48064284Y3290000D02*
X47969048Y3290000D01*
D10*
X48159524Y3337619D02*
X48064284Y3290000D01*
D10*
X48207144Y3385238D02*
X48159524Y3337619D01*
D10*
X48254760Y3480476D02*
X48207144Y3385238D01*
D10*
X48350000Y3766190D02*
X48254760Y3480476D01*
D10*
X48397620Y3861428D02*
X48350000Y3766190D01*
D10*
X48445240Y3909047D02*
X48397620Y3861428D01*
D10*
X48540476Y3956666D02*
X48445240Y3909047D01*
D10*
X48683332Y3956666D02*
X48540476Y3956666D01*
D10*
X48778572Y3861428D02*
X48683332Y3956666D01*
D10*
X48826192Y3718571D02*
X48778572Y3861428D01*
D10*
X48826192Y3528095D02*
X48826192Y3718571D01*
D10*
X48778572Y3385238D02*
X48826192Y3528095D01*
D10*
X48683332Y3290000D02*
X48778572Y3385238D01*
D10*
X48826192Y4432857D02*
X47826192Y4194762D01*
D10*
X48826192Y4432857D02*
X47826192Y4670952D01*
D10*
X48826192Y4909047D02*
X47826192Y4670952D01*
D10*
X48826192Y4909047D02*
X47826192Y5147143D01*
D10*
X2200476Y52133808D02*
X2200476Y53133808D01*
D10*
X2629047Y53133808D02*
X2200476Y53133808D01*
D10*
X2771904Y53086192D02*
X2629047Y53133808D01*
D10*
X2819523Y53038572D02*
X2771904Y53086192D01*
D10*
X2867143Y52943332D02*
X2819523Y53038572D01*
D10*
X2867143Y52848096D02*
X2867143Y52943332D01*
D10*
X2819523Y52752856D02*
X2867143Y52848096D01*
D10*
X2771904Y52705240D02*
X2819523Y52752856D01*
D10*
X2629047Y52657620D02*
X2771904Y52705240D01*
D10*
X2200476Y52657620D02*
X2629047Y52657620D01*
D10*
X2867143Y52133808D02*
X2533809Y52657620D01*
D10*
X3152857Y52467144D02*
X3629047Y53133808D01*
D10*
X3867143Y52467144D02*
X3152857Y52467144D01*
D10*
X3629047Y52133808D02*
X3629047Y53133808D01*
D10*
X17567142Y59665952D02*
X17614762Y59570716D01*
D10*
X17471904Y59761192D02*
X17567142Y59665952D01*
D10*
X17376666Y59808808D02*
X17471904Y59761192D01*
D10*
X17186190Y59808808D02*
X17376666Y59808808D01*
D10*
X17090952Y59761192D02*
X17186190Y59808808D01*
D10*
X16995714Y59665952D02*
X17090952Y59761192D01*
D10*
X16948096Y59570716D02*
X16995714Y59665952D01*
D10*
X16900476Y59427856D02*
X16948096Y59570716D01*
D10*
X16900476Y59189760D02*
X16900476Y59427856D01*
D10*
X16948096Y59046904D02*
X16900476Y59189760D01*
D10*
X16995714Y58951668D02*
X16948096Y59046904D01*
D10*
X17090952Y58856428D02*
X16995714Y58951668D01*
D10*
X17186190Y58808808D02*
X17090952Y58856428D01*
D10*
X17376666Y58808808D02*
X17186190Y58808808D01*
D10*
X17471904Y58856428D02*
X17376666Y58808808D01*
D10*
X17567142Y58951668D02*
X17471904Y58856428D01*
D10*
X17614762Y59046904D02*
X17567142Y58951668D01*
D10*
X18471904Y59761192D02*
X18519524Y59665952D01*
D10*
X18329048Y59808808D02*
X18471904Y59761192D01*
D10*
X18233810Y59808808D02*
X18329048Y59808808D01*
D10*
X18090952Y59761192D02*
X18233810Y59808808D01*
D10*
X17995714Y59618332D02*
X18090952Y59761192D01*
D10*
X17948096Y59380240D02*
X17995714Y59618332D01*
D10*
X17948096Y59142144D02*
X17948096Y59380240D01*
D10*
X17995714Y58951668D02*
X17948096Y59142144D01*
D10*
X18090952Y58856428D02*
X17995714Y58951668D01*
D10*
X18233810Y58808808D02*
X18090952Y58856428D01*
D10*
X18281428Y58808808D02*
X18233810Y58808808D01*
D10*
X18424286Y58856428D02*
X18281428Y58808808D01*
D10*
X18519524Y58951668D02*
X18424286Y58856428D01*
D10*
X18567142Y59094524D02*
X18519524Y58951668D01*
D10*
X18567142Y59142144D02*
X18567142Y59094524D01*
D10*
X18519524Y59285000D02*
X18567142Y59142144D01*
D10*
X18424286Y59380240D02*
X18519524Y59285000D01*
D10*
X18281428Y59427856D02*
X18424286Y59380240D01*
D10*
X18233810Y59427856D02*
X18281428Y59427856D01*
D10*
X18090952Y59380240D02*
X18233810Y59427856D01*
D10*
X17995714Y59285000D02*
X18090952Y59380240D01*
D10*
X17948096Y59142144D02*
X17995714Y59285000D01*
D10*
X9747143Y60155952D02*
X9794762Y60060716D01*
D10*
X9651905Y60251192D02*
X9747143Y60155952D01*
D10*
X9556667Y60298808D02*
X9651905Y60251192D01*
D10*
X9366190Y60298808D02*
X9556667Y60298808D01*
D10*
X9270952Y60251192D02*
X9366190Y60298808D01*
D10*
X9175714Y60155952D02*
X9270952Y60251192D01*
D10*
X9128095Y60060716D02*
X9175714Y60155952D01*
D10*
X9080476Y59917856D02*
X9128095Y60060716D01*
D10*
X9080476Y59679760D02*
X9080476Y59917856D01*
D10*
X9128095Y59536904D02*
X9080476Y59679760D01*
D10*
X9175714Y59441668D02*
X9128095Y59536904D01*
D10*
X9270952Y59346428D02*
X9175714Y59441668D01*
D10*
X9366190Y59298808D02*
X9270952Y59346428D01*
D10*
X9556667Y59298808D02*
X9366190Y59298808D01*
D10*
X9651905Y59346428D02*
X9556667Y59298808D01*
D10*
X9747143Y59441668D02*
X9651905Y59346428D01*
D10*
X9794762Y59536904D02*
X9747143Y59441668D01*
D10*
X10175714Y60298808D02*
X10651905Y60298808D01*
D10*
X10128095Y59870240D02*
X10175714Y60298808D01*
D10*
X10175714Y59917856D02*
X10128095Y59870240D01*
D10*
X10318571Y59965476D02*
X10175714Y59917856D01*
D10*
X10461429Y59965476D02*
X10318571Y59965476D01*
D10*
X10604286Y59917856D02*
X10461429Y59965476D01*
D10*
X10699524Y59822620D02*
X10604286Y59917856D01*
D10*
X10747143Y59679760D02*
X10699524Y59822620D01*
D10*
X10747143Y59584524D02*
X10747143Y59679760D01*
D10*
X10699524Y59441668D02*
X10747143Y59584524D01*
D10*
X10604286Y59346428D02*
X10699524Y59441668D01*
D10*
X10461429Y59298808D02*
X10604286Y59346428D01*
D10*
X10318571Y59298808D02*
X10461429Y59298808D01*
D10*
X10175714Y59346428D02*
X10318571Y59298808D01*
D10*
X10128095Y59394048D02*
X10175714Y59346428D01*
D10*
X10080476Y59489284D02*
X10128095Y59394048D01*
D10*
X40976192Y61338096D02*
X39976192Y61338096D01*
D10*
X39976192Y61671428D02*
X39976192Y61338096D01*
D10*
X40023808Y61814284D02*
X39976192Y61671428D01*
D10*
X40119048Y61909524D02*
X40023808Y61814284D01*
D10*
X40214284Y61957144D02*
X40119048Y61909524D01*
D10*
X40357144Y62004760D02*
X40214284Y61957144D01*
D10*
X40595240Y62004760D02*
X40357144Y62004760D01*
D10*
X40738096Y61957144D02*
X40595240Y62004760D01*
D10*
X40833332Y61909524D02*
X40738096Y61957144D01*
D10*
X40928572Y61814284D02*
X40833332Y61909524D01*
D10*
X40976192Y61671428D02*
X40928572Y61814284D01*
D10*
X40976192Y61338096D02*
X40976192Y61671428D01*
D10*
X40023808Y62861904D02*
X40119048Y62909524D01*
D10*
X39976192Y62719048D02*
X40023808Y62861904D01*
D10*
X39976192Y62623808D02*
X39976192Y62719048D01*
D10*
X40023808Y62480952D02*
X39976192Y62623808D01*
D10*
X40166668Y62385716D02*
X40023808Y62480952D01*
D10*
X40404760Y62338096D02*
X40166668Y62385716D01*
D10*
X40642856Y62338096D02*
X40404760Y62338096D01*
D10*
X40833332Y62385716D02*
X40642856Y62338096D01*
D10*
X40928572Y62480952D02*
X40833332Y62385716D01*
D10*
X40976192Y62623808D02*
X40928572Y62480952D01*
D10*
X40976192Y62671428D02*
X40976192Y62623808D01*
D10*
X40928572Y62814284D02*
X40976192Y62671428D01*
D10*
X40833332Y62909524D02*
X40928572Y62814284D01*
D10*
X40690476Y62957144D02*
X40833332Y62909524D01*
D10*
X40642856Y62957144D02*
X40690476Y62957144D01*
D10*
X40500000Y62909524D02*
X40642856Y62957144D01*
D10*
X40404760Y62814284D02*
X40500000Y62909524D01*
D10*
X40357144Y62671428D02*
X40404760Y62814284D01*
D10*
X40357144Y62623808D02*
X40357144Y62671428D01*
D10*
X40404760Y62480952D02*
X40357144Y62623808D01*
D10*
X40500000Y62385716D02*
X40404760Y62480952D01*
D10*
X40642856Y62338096D02*
X40500000Y62385716D01*
D10*
X24376190Y62498096D02*
X23376190Y62498096D01*
D10*
X23376190Y62831428D02*
X23376190Y62498096D01*
D10*
X23423810Y62974284D02*
X23376190Y62831428D01*
D10*
X23519048Y63069524D02*
X23423810Y62974284D01*
D10*
X23614286Y63117144D02*
X23519048Y63069524D01*
D10*
X23757142Y63164760D02*
X23614286Y63117144D01*
D10*
X23995238Y63164760D02*
X23757142Y63164760D01*
D10*
X24138096Y63117144D02*
X23995238Y63164760D01*
D10*
X24233334Y63069524D02*
X24138096Y63117144D01*
D10*
X24328572Y62974284D02*
X24233334Y63069524D01*
D10*
X24376190Y62831428D02*
X24328572Y62974284D01*
D10*
X24376190Y62498096D02*
X24376190Y62831428D01*
D10*
X24042858Y63450476D02*
X23376190Y63926668D01*
D10*
X24042858Y64164760D02*
X24042858Y63450476D01*
D10*
X24376190Y63926668D02*
X23376190Y63926668D01*
D10*
X17854048Y10654524D02*
X17949286Y10702143D01*
D10*
X17758810Y10559286D02*
X17854048Y10654524D01*
D10*
X17711190Y10464048D02*
X17758810Y10559286D01*
D10*
X17711190Y10273571D02*
X17711190Y10464048D01*
D10*
X17758810Y10178333D02*
X17711190Y10273571D01*
D10*
X17854048Y10083095D02*
X17758810Y10178333D01*
D10*
X17949286Y10035476D02*
X17854048Y10083095D01*
D10*
X18092142Y9987857D02*
X17949286Y10035476D01*
D10*
X18330238Y9987857D02*
X18092142Y9987857D01*
D10*
X18473096Y10035476D02*
X18330238Y9987857D01*
D10*
X18568334Y10083095D02*
X18473096Y10035476D01*
D10*
X18663572Y10178333D02*
X18568334Y10083095D01*
D10*
X18711190Y10273571D02*
X18663572Y10178333D01*
D10*
X18711190Y10464048D02*
X18711190Y10273571D01*
D10*
X18663572Y10559286D02*
X18711190Y10464048D01*
D10*
X18568334Y10654524D02*
X18663572Y10559286D01*
D10*
X18473096Y10702143D02*
X18568334Y10654524D01*
D10*
X17901666Y11035476D02*
X17949286Y11035476D01*
D10*
X17806428Y11083095D02*
X17901666Y11035476D01*
D10*
X17758810Y11130714D02*
X17806428Y11083095D01*
D10*
X17711190Y11225952D02*
X17758810Y11130714D01*
D10*
X17711190Y11416428D02*
X17711190Y11225952D01*
D10*
X17758810Y11511667D02*
X17711190Y11416428D01*
D10*
X17806428Y11559286D02*
X17758810Y11511667D01*
D10*
X17901666Y11606905D02*
X17806428Y11559286D01*
D10*
X17996904Y11606905D02*
X17901666Y11606905D01*
D10*
X18092142Y11559286D02*
X17996904Y11606905D01*
D10*
X18235000Y11464048D02*
X18092142Y11559286D01*
D10*
X18711190Y10987857D02*
X18235000Y11464048D01*
D10*
X18711190Y11654524D02*
X18711190Y10987857D01*
D10*
X31664762Y45395952D02*
X31712380Y45300716D01*
D10*
X31569524Y45491192D02*
X31664762Y45395952D01*
D10*
X31474286Y45538808D02*
X31569524Y45491192D01*
D10*
X31283810Y45538808D02*
X31474286Y45538808D01*
D10*
X31188572Y45491192D02*
X31283810Y45538808D01*
D10*
X31093334Y45395952D02*
X31188572Y45491192D01*
D10*
X31045714Y45300716D02*
X31093334Y45395952D01*
D10*
X30998096Y45157856D02*
X31045714Y45300716D01*
D10*
X30998096Y44919760D02*
X30998096Y45157856D01*
D10*
X31045714Y44776904D02*
X30998096Y44919760D01*
D10*
X31093334Y44681668D02*
X31045714Y44776904D01*
D10*
X31188572Y44586428D02*
X31093334Y44681668D01*
D10*
X31283810Y44538808D02*
X31188572Y44586428D01*
D10*
X31474286Y44538808D02*
X31283810Y44538808D01*
D10*
X31569524Y44586428D02*
X31474286Y44538808D01*
D10*
X31664762Y44681668D02*
X31569524Y44586428D01*
D10*
X31712380Y44776904D02*
X31664762Y44681668D01*
D10*
X32236190Y45395952D02*
X32140952Y45348332D01*
D10*
X32379048Y45538808D02*
X32236190Y45395952D01*
D10*
X32379048Y44538808D02*
X32379048Y45538808D01*
D10*
X33188572Y45395952D02*
X33093334Y45348332D01*
D10*
X33331428Y45538808D02*
X33188572Y45395952D01*
D10*
X33331428Y44538808D02*
X33331428Y45538808D01*
D11*
X41300000Y38014284D02*
X41442856Y38085716D01*
D11*
X41157144Y37871428D02*
X41300000Y38014284D01*
D11*
X41085716Y37728572D02*
X41157144Y37871428D01*
D11*
X41014284Y37514284D02*
X41085716Y37728572D01*
D11*
X41014284Y37157144D02*
X41014284Y37514284D01*
D11*
X41085716Y36942856D02*
X41014284Y37157144D01*
D11*
X41157144Y36800000D02*
X41085716Y36942856D01*
D11*
X41300000Y36657144D02*
X41157144Y36800000D01*
D11*
X41442856Y36585716D02*
X41300000Y36657144D01*
D11*
X41728572Y36585716D02*
X41442856Y36585716D01*
D11*
X41871428Y36657144D02*
X41728572Y36585716D01*
D11*
X42014284Y36800000D02*
X41871428Y36657144D01*
D11*
X42085716Y36942856D02*
X42014284Y36800000D01*
D11*
X42157144Y37157144D02*
X42085716Y36942856D01*
D11*
X42157144Y37514284D02*
X42157144Y37157144D01*
D11*
X42085716Y37728572D02*
X42157144Y37514284D01*
D11*
X42014284Y37871428D02*
X42085716Y37728572D01*
D11*
X41871428Y38014284D02*
X42014284Y37871428D01*
D11*
X41728572Y38085716D02*
X41871428Y38014284D01*
D11*
X41442856Y38085716D02*
X41728572Y38085716D01*
D11*
X42657144Y36585716D02*
X42657144Y38085716D01*
D11*
X43657144Y36585716D02*
X42657144Y38085716D01*
D11*
X43657144Y36585716D02*
X43657144Y38085716D01*
D10*
X27138096Y15383810D02*
X27138096Y16383810D01*
D10*
X27566666Y16383810D02*
X27138096Y16383810D01*
D10*
X27709524Y16336190D02*
X27566666Y16383810D01*
D10*
X27757142Y16288571D02*
X27709524Y16336190D01*
D10*
X27804762Y16193333D02*
X27757142Y16288571D01*
D10*
X27804762Y16098095D02*
X27804762Y16193333D01*
D10*
X27757142Y16002857D02*
X27804762Y16098095D01*
D10*
X27709524Y15955238D02*
X27757142Y16002857D01*
D10*
X27566666Y15907619D02*
X27709524Y15955238D01*
D10*
X27138096Y15907619D02*
X27566666Y15907619D01*
D10*
X27804762Y15383810D02*
X27471428Y15907619D01*
D10*
X28709524Y16383810D02*
X28185714Y16383810D01*
D10*
X28423810Y16002857D02*
X28709524Y16383810D01*
D10*
X28566666Y16002857D02*
X28423810Y16002857D01*
D10*
X28661904Y15955238D02*
X28566666Y16002857D01*
D10*
X28709524Y15907619D02*
X28661904Y15955238D01*
D10*
X28757142Y15764762D02*
X28709524Y15907619D01*
D10*
X28757142Y15669524D02*
X28757142Y15764762D01*
D10*
X28709524Y15526667D02*
X28757142Y15669524D01*
D10*
X28614286Y15431429D02*
X28709524Y15526667D01*
D10*
X28471428Y15383810D02*
X28614286Y15431429D01*
D10*
X28328572Y15383810D02*
X28471428Y15383810D01*
D10*
X28185714Y15431429D02*
X28328572Y15383810D01*
D10*
X28138096Y15479048D02*
X28185714Y15431429D01*
D10*
X28090476Y15574286D02*
X28138096Y15479048D01*
D10*
X19769048Y57487144D02*
X19864286Y57534760D01*
D10*
X19673810Y57391904D02*
X19769048Y57487144D01*
D10*
X19626190Y57296668D02*
X19673810Y57391904D01*
D10*
X19626190Y57106192D02*
X19626190Y57296668D01*
D10*
X19673810Y57010952D02*
X19626190Y57106192D01*
D10*
X19769048Y56915716D02*
X19673810Y57010952D01*
D10*
X19864286Y56868096D02*
X19769048Y56915716D01*
D10*
X20007142Y56820476D02*
X19864286Y56868096D01*
D10*
X20245238Y56820476D02*
X20007142Y56820476D01*
D10*
X20388096Y56868096D02*
X20245238Y56820476D01*
D10*
X20483334Y56915716D02*
X20388096Y56868096D01*
D10*
X20578572Y57010952D02*
X20483334Y56915716D01*
D10*
X20626190Y57106192D02*
X20578572Y57010952D01*
D10*
X20626190Y57296668D02*
X20626190Y57106192D01*
D10*
X20578572Y57391904D02*
X20626190Y57296668D01*
D10*
X20483334Y57487144D02*
X20578572Y57391904D01*
D10*
X20388096Y57534760D02*
X20483334Y57487144D01*
D10*
X19626190Y58439524D02*
X19626190Y57915716D01*
D10*
X20007142Y58153808D02*
X19626190Y58439524D01*
D10*
X20007142Y58296668D02*
X20007142Y58153808D01*
D10*
X20054762Y58391904D02*
X20007142Y58296668D01*
D10*
X20102380Y58439524D02*
X20054762Y58391904D01*
D10*
X20245238Y58487144D02*
X20102380Y58439524D01*
D10*
X20340476Y58487144D02*
X20245238Y58487144D01*
D10*
X20483334Y58439524D02*
X20340476Y58487144D01*
D10*
X20578572Y58344284D02*
X20483334Y58439524D01*
D10*
X20626190Y58201428D02*
X20578572Y58344284D01*
D10*
X20626190Y58058572D02*
X20626190Y58201428D01*
D10*
X20578572Y57915716D02*
X20626190Y58058572D01*
D10*
X20530952Y57868096D02*
X20578572Y57915716D01*
D10*
X20435714Y57820476D02*
X20530952Y57868096D01*
D10*
X16816190Y45065476D02*
X15816190Y45065476D01*
D10*
X15816190Y45494048D02*
X15816190Y45065476D01*
D10*
X15863810Y45636904D02*
X15816190Y45494048D01*
D10*
X15911429Y45684524D02*
X15863810Y45636904D01*
D10*
X16006667Y45732144D02*
X15911429Y45684524D01*
D10*
X16101905Y45732144D02*
X16006667Y45732144D01*
D10*
X16197143Y45684524D02*
X16101905Y45732144D01*
D10*
X16244762Y45636904D02*
X16197143Y45684524D01*
D10*
X16292381Y45494048D02*
X16244762Y45636904D01*
D10*
X16292381Y45065476D02*
X16292381Y45494048D01*
D10*
X16816190Y45732144D02*
X16292381Y45398808D01*
D10*
X16816190Y46208332D02*
X15816190Y46684524D01*
D10*
X15816190Y46684524D02*
X15816190Y46017856D01*
D10*
X48119524Y40540952D02*
X48167144Y40445716D01*
D10*
X48024284Y40636192D02*
X48119524Y40540952D01*
D10*
X47929048Y40683808D02*
X48024284Y40636192D01*
D10*
X47738572Y40683808D02*
X47929048Y40683808D01*
D10*
X47643332Y40636192D02*
X47738572Y40683808D01*
D10*
X47548096Y40540952D02*
X47643332Y40636192D01*
D10*
X47500476Y40445716D02*
X47548096Y40540952D01*
D10*
X47452856Y40302856D02*
X47500476Y40445716D01*
D10*
X47452856Y40064760D02*
X47452856Y40302856D01*
D10*
X47500476Y39921904D02*
X47452856Y40064760D01*
D10*
X47548096Y39826668D02*
X47500476Y39921904D01*
D10*
X47643332Y39731428D02*
X47548096Y39826668D01*
D10*
X47738572Y39683808D02*
X47643332Y39731428D01*
D10*
X47929048Y39683808D02*
X47738572Y39683808D01*
D10*
X48024284Y39731428D02*
X47929048Y39683808D01*
D10*
X48119524Y39826668D02*
X48024284Y39731428D01*
D10*
X48167144Y39921904D02*
X48119524Y39826668D01*
D10*
X48690952Y40540952D02*
X48595716Y40493332D01*
D10*
X48833808Y40683808D02*
X48690952Y40540952D01*
D10*
X48833808Y39683808D02*
X48833808Y40683808D01*
D10*
X50024284Y40683808D02*
X49500476Y40683808D01*
D10*
X49738572Y40302856D02*
X50024284Y40683808D01*
D10*
X49881428Y40302856D02*
X49738572Y40302856D01*
D10*
X49976668Y40255240D02*
X49881428Y40302856D01*
D10*
X50024284Y40207620D02*
X49976668Y40255240D01*
D10*
X50071904Y40064760D02*
X50024284Y40207620D01*
D10*
X50071904Y39969524D02*
X50071904Y40064760D01*
D10*
X50024284Y39826668D02*
X50071904Y39969524D01*
D10*
X49929048Y39731428D02*
X50024284Y39826668D01*
D10*
X49786192Y39683808D02*
X49929048Y39731428D01*
D10*
X49643332Y39683808D02*
X49786192Y39683808D01*
D10*
X49500476Y39731428D02*
X49643332Y39683808D01*
D10*
X49452856Y39779048D02*
X49500476Y39731428D01*
D10*
X49405240Y39874284D02*
X49452856Y39779048D01*
D10*
X5354047Y43154524D02*
X5449285Y43202144D01*
D10*
X5258809Y43059284D02*
X5354047Y43154524D01*
D10*
X5211190Y42964048D02*
X5258809Y43059284D01*
D10*
X5211190Y42773572D02*
X5211190Y42964048D01*
D10*
X5258809Y42678332D02*
X5211190Y42773572D01*
D10*
X5354047Y42583096D02*
X5258809Y42678332D01*
D10*
X5449285Y42535476D02*
X5354047Y42583096D01*
D10*
X5592143Y42487856D02*
X5449285Y42535476D01*
D10*
X5830238Y42487856D02*
X5592143Y42487856D01*
D10*
X5973095Y42535476D02*
X5830238Y42487856D01*
D10*
X6068333Y42583096D02*
X5973095Y42535476D01*
D10*
X6163571Y42678332D02*
X6068333Y42583096D01*
D10*
X6211190Y42773572D02*
X6163571Y42678332D01*
D10*
X6211190Y42964048D02*
X6211190Y42773572D01*
D10*
X6163571Y43059284D02*
X6211190Y42964048D01*
D10*
X6068333Y43154524D02*
X6163571Y43059284D01*
D10*
X5973095Y43202144D02*
X6068333Y43154524D01*
D10*
X5258809Y43583096D02*
X5211190Y43725952D01*
D10*
X5354047Y43535476D02*
X5258809Y43583096D01*
D10*
X5449285Y43535476D02*
X5354047Y43535476D01*
D10*
X5544524Y43583096D02*
X5449285Y43535476D01*
D10*
X5592143Y43678332D02*
X5544524Y43583096D01*
D10*
X5639762Y43868808D02*
X5592143Y43678332D01*
D10*
X5687381Y44011668D02*
X5639762Y43868808D01*
D10*
X5782619Y44106904D02*
X5687381Y44011668D01*
D10*
X5877857Y44154524D02*
X5782619Y44106904D01*
D10*
X6020714Y44154524D02*
X5877857Y44154524D01*
D10*
X6115952Y44106904D02*
X6020714Y44154524D01*
D10*
X6163571Y44059284D02*
X6115952Y44106904D01*
D10*
X6211190Y43916428D02*
X6163571Y44059284D01*
D10*
X6211190Y43725952D02*
X6211190Y43916428D01*
D10*
X6163571Y43583096D02*
X6211190Y43725952D01*
D10*
X6115952Y43535476D02*
X6163571Y43583096D01*
D10*
X6020714Y43487856D02*
X6115952Y43535476D01*
D10*
X5877857Y43487856D02*
X6020714Y43487856D01*
D10*
X5782619Y43535476D02*
X5877857Y43487856D01*
D10*
X5687381Y43630716D02*
X5782619Y43535476D01*
D10*
X5639762Y43773572D02*
X5687381Y43630716D01*
D10*
X5592143Y43964048D02*
X5639762Y43773572D01*
D10*
X5544524Y44059284D02*
X5592143Y43964048D01*
D10*
X5449285Y44106904D02*
X5544524Y44059284D01*
D10*
X5354047Y44106904D02*
X5449285Y44106904D01*
D10*
X5258809Y44059284D02*
X5354047Y44106904D01*
D10*
X5211190Y43916428D02*
X5258809Y44059284D01*
D10*
X5211190Y43725952D02*
X5211190Y43916428D01*
D10*
X27138096Y12453810D02*
X27138096Y13453810D01*
D10*
X27566666Y13453810D02*
X27138096Y13453810D01*
D10*
X27709524Y13406190D02*
X27566666Y13453810D01*
D10*
X27757142Y13358571D02*
X27709524Y13406190D01*
D10*
X27804762Y13263333D02*
X27757142Y13358571D01*
D10*
X27804762Y13168095D02*
X27804762Y13263333D01*
D10*
X27757142Y13072857D02*
X27804762Y13168095D01*
D10*
X27709524Y13025238D02*
X27757142Y13072857D01*
D10*
X27566666Y12977619D02*
X27709524Y13025238D01*
D10*
X27138096Y12977619D02*
X27566666Y12977619D01*
D10*
X27804762Y12453810D02*
X27471428Y12977619D01*
D10*
X28138096Y13263333D02*
X28138096Y13215714D01*
D10*
X28185714Y13358571D02*
X28138096Y13263333D01*
D10*
X28233334Y13406190D02*
X28185714Y13358571D01*
D10*
X28328572Y13453810D02*
X28233334Y13406190D01*
D10*
X28519048Y13453810D02*
X28328572Y13453810D01*
D10*
X28614286Y13406190D02*
X28519048Y13453810D01*
D10*
X28661904Y13358571D02*
X28614286Y13406190D01*
D10*
X28709524Y13263333D02*
X28661904Y13358571D01*
D10*
X28709524Y13168095D02*
X28709524Y13263333D01*
D10*
X28661904Y13072857D02*
X28709524Y13168095D01*
D10*
X28566666Y12930000D02*
X28661904Y13072857D01*
D10*
X28090476Y12453810D02*
X28566666Y12930000D01*
D10*
X28757142Y12453810D02*
X28090476Y12453810D01*
D10*
X15156190Y2480476D02*
X14156190Y2480476D01*
D10*
X15156190Y3051904D02*
X15156190Y2480476D01*
D10*
X15156190Y3290000D02*
X14156190Y3290000D01*
D10*
X14156190Y3909047D02*
X14156190Y3290000D01*
D10*
X14632381Y3670952D02*
X14632381Y3290000D01*
D10*
X15156190Y3909047D02*
X15156190Y3290000D01*
D10*
X15156190Y4194762D02*
X14156190Y4194762D01*
D10*
X14156190Y4528095D02*
X14156190Y4194762D01*
D10*
X14203810Y4670952D02*
X14156190Y4528095D01*
D10*
X14299048Y4766190D02*
X14203810Y4670952D01*
D10*
X14394286Y4813809D02*
X14299048Y4766190D01*
D10*
X14537143Y4861428D02*
X14394286Y4813809D01*
D10*
X14775238Y4861428D02*
X14537143Y4861428D01*
D10*
X14918095Y4813809D02*
X14775238Y4861428D01*
D10*
X15013333Y4766190D02*
X14918095Y4813809D01*
D10*
X15108571Y4670952D02*
X15013333Y4766190D01*
D10*
X15156190Y4528095D02*
X15108571Y4670952D01*
D10*
X15156190Y4194762D02*
X15156190Y4528095D01*
D10*
X9074476Y57578808D02*
X9074476Y58578808D01*
D10*
X9503048Y58578808D02*
X9074476Y58578808D01*
D10*
X9645905Y58531192D02*
X9503048Y58578808D01*
D10*
X9693524Y58483572D02*
X9645905Y58531192D01*
D10*
X9741143Y58388332D02*
X9693524Y58483572D01*
D10*
X9741143Y58293096D02*
X9741143Y58388332D01*
D10*
X9693524Y58197856D02*
X9741143Y58293096D01*
D10*
X9645905Y58150240D02*
X9693524Y58197856D01*
D10*
X9503048Y58102620D02*
X9645905Y58150240D01*
D10*
X9074476Y58102620D02*
X9503048Y58102620D01*
D10*
X9741143Y57578808D02*
X9407810Y58102620D01*
D10*
X10598286Y58531192D02*
X10645905Y58435952D01*
D10*
X10455428Y58578808D02*
X10598286Y58531192D01*
D10*
X10360190Y58578808D02*
X10455428Y58578808D01*
D10*
X10217333Y58531192D02*
X10360190Y58578808D01*
D10*
X10122095Y58388332D02*
X10217333Y58531192D01*
D10*
X10074476Y58150240D02*
X10122095Y58388332D01*
D10*
X10074476Y57912144D02*
X10074476Y58150240D01*
D10*
X10122095Y57721668D02*
X10074476Y57912144D01*
D10*
X10217333Y57626428D02*
X10122095Y57721668D01*
D10*
X10360190Y57578808D02*
X10217333Y57626428D01*
D10*
X10407810Y57578808D02*
X10360190Y57578808D01*
D10*
X10550667Y57626428D02*
X10407810Y57578808D01*
D10*
X10645905Y57721668D02*
X10550667Y57626428D01*
D10*
X10693524Y57864524D02*
X10645905Y57721668D01*
D10*
X10693524Y57912144D02*
X10693524Y57864524D01*
D10*
X10645905Y58055000D02*
X10693524Y57912144D01*
D10*
X10550667Y58150240D02*
X10645905Y58055000D01*
D10*
X10407810Y58197856D02*
X10550667Y58150240D01*
D10*
X10360190Y58197856D02*
X10407810Y58197856D01*
D10*
X10217333Y58150240D02*
X10360190Y58197856D01*
D10*
X10122095Y58055000D02*
X10217333Y58150240D01*
D10*
X10074476Y57912144D02*
X10122095Y58055000D01*
D10*
X7614095Y50558808D02*
X7614095Y51558808D01*
D10*
X8042667Y51558808D02*
X7614095Y51558808D01*
D10*
X8185524Y51511192D02*
X8042667Y51558808D01*
D10*
X8233143Y51463572D02*
X8185524Y51511192D01*
D10*
X8280762Y51368332D02*
X8233143Y51463572D01*
D10*
X8280762Y51273096D02*
X8280762Y51368332D01*
D10*
X8233143Y51177856D02*
X8280762Y51273096D01*
D10*
X8185524Y51130240D02*
X8233143Y51177856D01*
D10*
X8042667Y51082620D02*
X8185524Y51130240D01*
D10*
X7614095Y51082620D02*
X8042667Y51082620D01*
D10*
X8280762Y50558808D02*
X7947428Y51082620D01*
D10*
X8661714Y51558808D02*
X9137905Y51558808D01*
D10*
X8614095Y51130240D02*
X8661714Y51558808D01*
D10*
X8661714Y51177856D02*
X8614095Y51130240D01*
D10*
X8804571Y51225476D02*
X8661714Y51177856D01*
D10*
X8947429Y51225476D02*
X8804571Y51225476D01*
D10*
X9090286Y51177856D02*
X8947429Y51225476D01*
D10*
X9185524Y51082620D02*
X9090286Y51177856D01*
D10*
X9233143Y50939760D02*
X9185524Y51082620D01*
D10*
X9233143Y50844524D02*
X9233143Y50939760D01*
D10*
X9185524Y50701668D02*
X9233143Y50844524D01*
D10*
X9090286Y50606428D02*
X9185524Y50701668D01*
D10*
X8947429Y50558808D02*
X9090286Y50606428D01*
D10*
X8804571Y50558808D02*
X8947429Y50558808D01*
D10*
X8661714Y50606428D02*
X8804571Y50558808D01*
D10*
X8614095Y50654048D02*
X8661714Y50606428D01*
D10*
X8566476Y50749284D02*
X8614095Y50654048D01*
D10*
X26178096Y29023810D02*
X26178096Y30023810D01*
D10*
X26511428Y30023810D02*
X26178096Y30023810D01*
D10*
X26654286Y29976190D02*
X26511428Y30023810D01*
D10*
X26749524Y29880952D02*
X26654286Y29976190D01*
D10*
X26797142Y29785714D02*
X26749524Y29880952D01*
D10*
X26844762Y29642858D02*
X26797142Y29785714D01*
D10*
X26844762Y29404762D02*
X26844762Y29642858D01*
D10*
X26797142Y29261904D02*
X26844762Y29404762D01*
D10*
X26749524Y29166666D02*
X26797142Y29261904D01*
D10*
X26654286Y29071428D02*
X26749524Y29166666D01*
D10*
X26511428Y29023810D02*
X26654286Y29071428D01*
D10*
X26178096Y29023810D02*
X26511428Y29023810D01*
D10*
X27368572Y29880952D02*
X27273334Y29833334D01*
D10*
X27511428Y30023810D02*
X27368572Y29880952D01*
D10*
X27511428Y29023810D02*
X27511428Y30023810D01*
D10*
X14385476Y52888808D02*
X14385476Y53888808D01*
D10*
X15385476Y53745952D02*
X15433095Y53650716D01*
D10*
X15290238Y53841192D02*
X15385476Y53745952D01*
D10*
X15195000Y53888808D02*
X15290238Y53841192D01*
D10*
X15004524Y53888808D02*
X15195000Y53888808D01*
D10*
X14909286Y53841192D02*
X15004524Y53888808D01*
D10*
X14814048Y53745952D02*
X14909286Y53841192D01*
D10*
X14766429Y53650716D02*
X14814048Y53745952D01*
D10*
X14718810Y53507856D02*
X14766429Y53650716D01*
D10*
X14718810Y53269760D02*
X14718810Y53507856D01*
D10*
X14766429Y53126904D02*
X14718810Y53269760D01*
D10*
X14814048Y53031668D02*
X14766429Y53126904D01*
D10*
X14909286Y52936428D02*
X14814048Y53031668D01*
D10*
X15004524Y52888808D02*
X14909286Y52936428D01*
D10*
X15195000Y52888808D02*
X15004524Y52888808D01*
D10*
X15290238Y52936428D02*
X15195000Y52888808D01*
D10*
X15385476Y53031668D02*
X15290238Y52936428D01*
D10*
X15433095Y53126904D02*
X15385476Y53031668D01*
D10*
X15956905Y53745952D02*
X15861667Y53698332D01*
D10*
X16099762Y53888808D02*
X15956905Y53745952D01*
D10*
X16099762Y52888808D02*
X16099762Y53888808D01*
D10*
X53289048Y39564760D02*
X53384284Y39612380D01*
D10*
X53193808Y39469524D02*
X53289048Y39564760D01*
D10*
X53146192Y39374284D02*
X53193808Y39469524D01*
D10*
X53146192Y39183808D02*
X53146192Y39374284D01*
D10*
X53193808Y39088572D02*
X53146192Y39183808D01*
D10*
X53289048Y38993332D02*
X53193808Y39088572D01*
D10*
X53384284Y38945716D02*
X53289048Y38993332D01*
D10*
X53527144Y38898096D02*
X53384284Y38945716D01*
D10*
X53765240Y38898096D02*
X53527144Y38898096D01*
D10*
X53908096Y38945716D02*
X53765240Y38898096D01*
D10*
X54003332Y38993332D02*
X53908096Y38945716D01*
D10*
X54098572Y39088572D02*
X54003332Y38993332D01*
D10*
X54146192Y39183808D02*
X54098572Y39088572D01*
D10*
X54146192Y39374284D02*
X54146192Y39183808D01*
D10*
X54098572Y39469524D02*
X54146192Y39374284D01*
D10*
X54003332Y39564760D02*
X54098572Y39469524D01*
D10*
X53908096Y39612380D02*
X54003332Y39564760D01*
D10*
X53289048Y40136192D02*
X53336668Y40040952D01*
D10*
X53146192Y40279048D02*
X53289048Y40136192D01*
D10*
X54146192Y40279048D02*
X53146192Y40279048D01*
D10*
X53336668Y40898096D02*
X53384284Y40898096D01*
D10*
X53241428Y40945716D02*
X53336668Y40898096D01*
D10*
X53193808Y40993332D02*
X53241428Y40945716D01*
D10*
X53146192Y41088572D02*
X53193808Y40993332D01*
D10*
X53146192Y41279048D02*
X53146192Y41088572D01*
D10*
X53193808Y41374284D02*
X53146192Y41279048D01*
D10*
X53241428Y41421904D02*
X53193808Y41374284D01*
D10*
X53336668Y41469524D02*
X53241428Y41421904D01*
D10*
X53431904Y41469524D02*
X53336668Y41469524D01*
D10*
X53527144Y41421904D02*
X53431904Y41469524D01*
D10*
X53670000Y41326668D02*
X53527144Y41421904D01*
D10*
X54146192Y40850476D02*
X53670000Y41326668D01*
D10*
X54146192Y41517144D02*
X54146192Y40850476D01*
D10*
X30950476Y29023810D02*
X30950476Y30023810D01*
D10*
X31283810Y30023810D02*
X30950476Y30023810D01*
D10*
X31426666Y29976190D02*
X31283810Y30023810D01*
D10*
X31521904Y29880952D02*
X31426666Y29976190D01*
D10*
X31569524Y29785714D02*
X31521904Y29880952D01*
D10*
X31617142Y29642858D02*
X31569524Y29785714D01*
D10*
X31617142Y29404762D02*
X31617142Y29642858D01*
D10*
X31569524Y29261904D02*
X31617142Y29404762D01*
D10*
X31521904Y29166666D02*
X31569524Y29261904D01*
D10*
X31426666Y29071428D02*
X31521904Y29166666D01*
D10*
X31283810Y29023810D02*
X31426666Y29071428D01*
D10*
X30950476Y29023810D02*
X31283810Y29023810D01*
D10*
X31950476Y29833334D02*
X31950476Y29785714D01*
D10*
X31998096Y29928572D02*
X31950476Y29833334D01*
D10*
X32045714Y29976190D02*
X31998096Y29928572D01*
D10*
X32140952Y30023810D02*
X32045714Y29976190D01*
D10*
X32331428Y30023810D02*
X32140952Y30023810D01*
D10*
X32426666Y29976190D02*
X32331428Y30023810D01*
D10*
X32474286Y29928572D02*
X32426666Y29976190D01*
D10*
X32521904Y29833334D02*
X32474286Y29928572D01*
D10*
X32521904Y29738096D02*
X32521904Y29833334D01*
D10*
X32474286Y29642858D02*
X32521904Y29738096D01*
D10*
X32379048Y29500000D02*
X32474286Y29642858D01*
D10*
X31902858Y29023810D02*
X32379048Y29500000D01*
D10*
X32569524Y29023810D02*
X31902858Y29023810D01*
D10*
X50843332Y47236192D02*
X50938572Y47283808D01*
D10*
X50748096Y47140952D02*
X50843332Y47236192D01*
D10*
X50700476Y47045716D02*
X50748096Y47140952D01*
D10*
X50652856Y46902856D02*
X50700476Y47045716D01*
D10*
X50652856Y46664760D02*
X50652856Y46902856D01*
D10*
X50700476Y46521904D02*
X50652856Y46664760D01*
D10*
X50748096Y46426668D02*
X50700476Y46521904D01*
D10*
X50843332Y46331428D02*
X50748096Y46426668D01*
D10*
X50938572Y46283808D02*
X50843332Y46331428D01*
D10*
X51129048Y46283808D02*
X50938572Y46283808D01*
D10*
X51224284Y46331428D02*
X51129048Y46283808D01*
D10*
X51319524Y46426668D02*
X51224284Y46331428D01*
D10*
X51367144Y46521904D02*
X51319524Y46426668D01*
D10*
X51414760Y46664760D02*
X51367144Y46521904D01*
D10*
X51414760Y46902856D02*
X51414760Y46664760D01*
D10*
X51367144Y47045716D02*
X51414760Y46902856D01*
D10*
X51319524Y47140952D02*
X51367144Y47045716D01*
D10*
X51224284Y47236192D02*
X51319524Y47140952D01*
D10*
X51129048Y47283808D02*
X51224284Y47236192D01*
D10*
X50938572Y47283808D02*
X51129048Y47283808D01*
D10*
X51367144Y46188572D02*
X51081428Y46474284D01*
D10*
X51938572Y47140952D02*
X51843332Y47093332D01*
D10*
X52081428Y47283808D02*
X51938572Y47140952D01*
D10*
X52081428Y46283808D02*
X52081428Y47283808D01*
D10*
X39071192Y61340476D02*
X38071192Y61340476D01*
D10*
X38071192Y61673808D02*
X38071192Y61340476D01*
D10*
X38118808Y61816668D02*
X38071192Y61673808D01*
D10*
X38214048Y61911904D02*
X38118808Y61816668D01*
D10*
X38309284Y61959524D02*
X38214048Y61911904D01*
D10*
X38452144Y62007144D02*
X38309284Y61959524D01*
D10*
X38690240Y62007144D02*
X38452144Y62007144D01*
D10*
X38833096Y61959524D02*
X38690240Y62007144D01*
D10*
X38928332Y61911904D02*
X38833096Y61959524D01*
D10*
X39023572Y61816668D02*
X38928332Y61911904D01*
D10*
X39071192Y61673808D02*
X39023572Y61816668D01*
D10*
X39071192Y61340476D02*
X39071192Y61673808D01*
D10*
X38071192Y62388096D02*
X38071192Y62864284D01*
D10*
X38499760Y62340476D02*
X38071192Y62388096D01*
D10*
X38452144Y62388096D02*
X38499760Y62340476D01*
D10*
X38404524Y62530952D02*
X38452144Y62388096D01*
D10*
X38404524Y62673808D02*
X38404524Y62530952D01*
D10*
X38452144Y62816668D02*
X38404524Y62673808D01*
D10*
X38547380Y62911904D02*
X38452144Y62816668D01*
D10*
X38690240Y62959524D02*
X38547380Y62911904D01*
D10*
X38785476Y62959524D02*
X38690240Y62959524D01*
D10*
X38928332Y62911904D02*
X38785476Y62959524D01*
D10*
X39023572Y62816668D02*
X38928332Y62911904D01*
D10*
X39071192Y62673808D02*
X39023572Y62816668D01*
D10*
X39071192Y62530952D02*
X39071192Y62673808D01*
D10*
X39023572Y62388096D02*
X39071192Y62530952D01*
D10*
X38975952Y62340476D02*
X39023572Y62388096D01*
D10*
X38880716Y62292856D02*
X38975952Y62340476D01*
D10*
X31220428Y7451905D02*
X31220428Y8213809D01*
D10*
X31172810Y7309047D02*
X31220428Y7451905D01*
D10*
X31125190Y7261428D02*
X31172810Y7309047D01*
D10*
X31029952Y7213809D02*
X31125190Y7261428D01*
D10*
X30934714Y7213809D02*
X31029952Y7213809D01*
D10*
X30839476Y7261428D02*
X30934714Y7213809D01*
D10*
X30791858Y7309047D02*
X30839476Y7261428D01*
D10*
X30744238Y7451905D02*
X30791858Y7309047D01*
D10*
X30744238Y7547143D02*
X30744238Y7451905D01*
D10*
X31791858Y8070952D02*
X31696620Y8023333D01*
D10*
X31934714Y8213809D02*
X31791858Y8070952D01*
D10*
X31934714Y7213809D02*
X31934714Y8213809D01*
D10*
X52956192Y54090476D02*
X51956192Y54090476D01*
D10*
X51956192Y54519048D02*
X51956192Y54090476D01*
D10*
X52003808Y54661904D02*
X51956192Y54519048D01*
D10*
X52051428Y54709524D02*
X52003808Y54661904D01*
D10*
X52146668Y54757144D02*
X52051428Y54709524D01*
D10*
X52241904Y54757144D02*
X52146668Y54757144D01*
D10*
X52337144Y54709524D02*
X52241904Y54757144D01*
D10*
X52384760Y54661904D02*
X52337144Y54709524D01*
D10*
X52432380Y54519048D02*
X52384760Y54661904D01*
D10*
X52432380Y54090476D02*
X52432380Y54519048D01*
D10*
X52956192Y54757144D02*
X52432380Y54423808D01*
D10*
X52099048Y55280952D02*
X52146668Y55185716D01*
D10*
X51956192Y55423808D02*
X52099048Y55280952D01*
D10*
X52956192Y55423808D02*
X51956192Y55423808D01*
D10*
X52146668Y56042856D02*
X52194284Y56042856D01*
D10*
X52051428Y56090476D02*
X52146668Y56042856D01*
D10*
X52003808Y56138096D02*
X52051428Y56090476D01*
D10*
X51956192Y56233332D02*
X52003808Y56138096D01*
D10*
X51956192Y56423808D02*
X51956192Y56233332D01*
D10*
X52003808Y56519048D02*
X51956192Y56423808D01*
D10*
X52051428Y56566668D02*
X52003808Y56519048D01*
D10*
X52146668Y56614284D02*
X52051428Y56566668D01*
D10*
X52241904Y56614284D02*
X52146668Y56614284D01*
D10*
X52337144Y56566668D02*
X52241904Y56614284D01*
D10*
X52480000Y56471428D02*
X52337144Y56566668D01*
D10*
X52956192Y55995240D02*
X52480000Y56471428D01*
D10*
X52956192Y56661904D02*
X52956192Y55995240D01*
D10*
X52266192Y39050476D02*
X51266192Y39050476D01*
D10*
X51266192Y39479048D02*
X51266192Y39050476D01*
D10*
X51313808Y39621904D02*
X51266192Y39479048D01*
D10*
X51361428Y39669524D02*
X51313808Y39621904D01*
D10*
X51456668Y39717144D02*
X51361428Y39669524D01*
D10*
X51551904Y39717144D02*
X51456668Y39717144D01*
D10*
X51647144Y39669524D02*
X51551904Y39717144D01*
D10*
X51694760Y39621904D02*
X51647144Y39669524D01*
D10*
X51742380Y39479048D02*
X51694760Y39621904D01*
D10*
X51742380Y39050476D02*
X51742380Y39479048D01*
D10*
X52266192Y39717144D02*
X51742380Y39383808D01*
D10*
X51409048Y40240952D02*
X51456668Y40145716D01*
D10*
X51266192Y40383808D02*
X51409048Y40240952D01*
D10*
X52266192Y40383808D02*
X51266192Y40383808D01*
D10*
X51313808Y41098096D02*
X51266192Y41240952D01*
D10*
X51456668Y41002856D02*
X51313808Y41098096D01*
D10*
X51694760Y40955240D02*
X51456668Y41002856D01*
D10*
X51837620Y40955240D02*
X51694760Y40955240D01*
D10*
X52075716Y41002856D02*
X51837620Y40955240D01*
D10*
X52218572Y41098096D02*
X52075716Y41002856D01*
D10*
X52266192Y41240952D02*
X52218572Y41098096D01*
D10*
X52266192Y41336192D02*
X52266192Y41240952D01*
D10*
X52218572Y41479048D02*
X52266192Y41336192D01*
D10*
X52075716Y41574284D02*
X52218572Y41479048D01*
D10*
X51837620Y41621904D02*
X52075716Y41574284D01*
D10*
X51694760Y41621904D02*
X51837620Y41621904D01*
D10*
X51456668Y41574284D02*
X51694760Y41621904D01*
D10*
X51313808Y41479048D02*
X51456668Y41574284D01*
D10*
X51266192Y41336192D02*
X51313808Y41479048D01*
D10*
X51266192Y41240952D02*
X51266192Y41336192D01*
D10*
X25714476Y44578808D02*
X25714476Y45578808D01*
D10*
X26143048Y45578808D02*
X25714476Y45578808D01*
D10*
X26285904Y45531192D02*
X26143048Y45578808D01*
D10*
X26333524Y45483572D02*
X26285904Y45531192D01*
D10*
X26381142Y45388332D02*
X26333524Y45483572D01*
D10*
X26381142Y45293096D02*
X26381142Y45388332D01*
D10*
X26333524Y45197856D02*
X26381142Y45293096D01*
D10*
X26285904Y45150240D02*
X26333524Y45197856D01*
D10*
X26143048Y45102620D02*
X26285904Y45150240D01*
D10*
X25714476Y45102620D02*
X26143048Y45102620D01*
D10*
X26381142Y44578808D02*
X26047810Y45102620D01*
D10*
X27238286Y45102620D02*
X27285904Y45245476D01*
D10*
X27143048Y45007380D02*
X27238286Y45102620D01*
D10*
X27000190Y44959760D02*
X27143048Y45007380D01*
D10*
X26952572Y44959760D02*
X27000190Y44959760D01*
D10*
X26809714Y45007380D02*
X26952572Y44959760D01*
D10*
X26714476Y45102620D02*
X26809714Y45007380D01*
D10*
X26666858Y45245476D02*
X26714476Y45102620D01*
D10*
X26666858Y45293096D02*
X26666858Y45245476D01*
D10*
X26714476Y45435952D02*
X26666858Y45293096D01*
D10*
X26809714Y45531192D02*
X26714476Y45435952D01*
D10*
X26952572Y45578808D02*
X26809714Y45531192D01*
D10*
X27000190Y45578808D02*
X26952572Y45578808D01*
D10*
X27143048Y45531192D02*
X27000190Y45578808D01*
D10*
X27238286Y45435952D02*
X27143048Y45531192D01*
D10*
X27285904Y45245476D02*
X27238286Y45435952D01*
D10*
X27285904Y45007380D02*
X27285904Y45245476D01*
D10*
X27238286Y44769284D02*
X27285904Y45007380D01*
D10*
X27143048Y44626428D02*
X27238286Y44769284D01*
D10*
X27000190Y44578808D02*
X27143048Y44626428D01*
D10*
X26904952Y44578808D02*
X27000190Y44578808D01*
D10*
X26762096Y44626428D02*
X26904952Y44578808D01*
D10*
X26714476Y44721668D02*
X26762096Y44626428D01*
D11*
X35385716Y44585716D02*
X35385716Y46085716D01*
D11*
X35957144Y44585716D02*
X35385716Y46085716D01*
D11*
X35957144Y44585716D02*
X36528572Y46085716D01*
D11*
X36528572Y44585716D02*
X36528572Y46085716D01*
D11*
X37100000Y44585716D02*
X37100000Y46085716D01*
D11*
X38028572Y46085716D02*
X37100000Y46085716D01*
D11*
X37671428Y45371428D02*
X37100000Y45371428D01*
D11*
X38028572Y44585716D02*
X37100000Y44585716D01*
D11*
X38457144Y44585716D02*
X38457144Y46085716D01*
D11*
X39314284Y44585716D02*
X38457144Y44585716D01*
D11*
X39671428Y44585716D02*
X39671428Y46085716D01*
D11*
X40528572Y44585716D02*
X39671428Y44585716D01*
D11*
X41100000Y46014284D02*
X41242856Y46085716D01*
D11*
X40957144Y45871428D02*
X41100000Y46014284D01*
D11*
X40885712Y45728572D02*
X40957144Y45871428D01*
D11*
X40814284Y45514284D02*
X40885712Y45728572D01*
D11*
X40814284Y45157144D02*
X40814284Y45514284D01*
D11*
X40885712Y44942856D02*
X40814284Y45157144D01*
D11*
X40957144Y44800000D02*
X40885712Y44942856D01*
D11*
X41100000Y44657144D02*
X40957144Y44800000D01*
D11*
X41242856Y44585716D02*
X41100000Y44657144D01*
D11*
X41528572Y44585716D02*
X41242856Y44585716D01*
D11*
X41671428Y44657144D02*
X41528572Y44585716D01*
D11*
X41814284Y44800000D02*
X41671428Y44657144D01*
D11*
X41885712Y44942856D02*
X41814284Y44800000D01*
D11*
X41957144Y45157144D02*
X41885712Y44942856D01*
D11*
X41957144Y45514284D02*
X41957144Y45157144D01*
D11*
X41885712Y45728572D02*
X41957144Y45514284D01*
D11*
X41814284Y45871428D02*
X41885712Y45728572D01*
D11*
X41671428Y46014284D02*
X41814284Y45871428D01*
D11*
X41528572Y46085716D02*
X41671428Y46014284D01*
D11*
X41242856Y46085716D02*
X41528572Y46085716D01*
D11*
X42671428Y44585716D02*
X42314284Y46085716D01*
D11*
X42671428Y44585716D02*
X43028572Y46085716D01*
D11*
X43385712Y44585716D02*
X43028572Y46085716D01*
D11*
X43385712Y44585716D02*
X43742856Y46085716D01*
D10*
X32594048Y35729760D02*
X32689286Y35777380D01*
D10*
X32498810Y35634524D02*
X32594048Y35729760D01*
D10*
X32451190Y35539284D02*
X32498810Y35634524D01*
D10*
X32451190Y35348808D02*
X32451190Y35539284D01*
D10*
X32498810Y35253572D02*
X32451190Y35348808D01*
D10*
X32594048Y35158332D02*
X32498810Y35253572D01*
D10*
X32689286Y35110716D02*
X32594048Y35158332D01*
D10*
X32832142Y35063096D02*
X32689286Y35110716D01*
D10*
X33070238Y35063096D02*
X32832142Y35063096D01*
D10*
X33213096Y35110716D02*
X33070238Y35063096D01*
D10*
X33308334Y35158332D02*
X33213096Y35110716D01*
D10*
X33403572Y35253572D02*
X33308334Y35158332D01*
D10*
X33451190Y35348808D02*
X33403572Y35253572D01*
D10*
X33451190Y35539284D02*
X33451190Y35348808D01*
D10*
X33403572Y35634524D02*
X33451190Y35539284D01*
D10*
X33308334Y35729760D02*
X33403572Y35634524D01*
D10*
X33213096Y35777380D02*
X33308334Y35729760D01*
D10*
X32594048Y36301192D02*
X32641666Y36205952D01*
D10*
X32451190Y36444048D02*
X32594048Y36301192D01*
D10*
X33451190Y36444048D02*
X32451190Y36444048D01*
D10*
X32498810Y37158332D02*
X32451190Y37301192D01*
D10*
X32641666Y37063096D02*
X32498810Y37158332D01*
D10*
X32879762Y37015476D02*
X32641666Y37063096D01*
D10*
X33022620Y37015476D02*
X32879762Y37015476D01*
D10*
X33260714Y37063096D02*
X33022620Y37015476D01*
D10*
X33403572Y37158332D02*
X33260714Y37063096D01*
D10*
X33451190Y37301192D02*
X33403572Y37158332D01*
D10*
X33451190Y37396428D02*
X33451190Y37301192D01*
D10*
X33403572Y37539284D02*
X33451190Y37396428D01*
D10*
X33260714Y37634524D02*
X33403572Y37539284D01*
D10*
X33022620Y37682144D02*
X33260714Y37634524D01*
D10*
X32879762Y37682144D02*
X33022620Y37682144D01*
D10*
X32641666Y37634524D02*
X32879762Y37682144D01*
D10*
X32498810Y37539284D02*
X32641666Y37634524D01*
D10*
X32451190Y37396428D02*
X32498810Y37539284D01*
D10*
X32451190Y37301192D02*
X32451190Y37396428D01*
D10*
X57380952Y8823810D02*
X57095240Y9490476D01*
D10*
X57380952Y8823810D02*
X57666668Y9490476D01*
D10*
X58142856Y9680952D02*
X58047620Y9633333D01*
D10*
X58285716Y9823810D02*
X58142856Y9680952D01*
D10*
X58285716Y8823810D02*
X58285716Y9823810D01*
D10*
X58904760Y8871429D02*
X58952380Y8919048D01*
D10*
X58952380Y8823810D02*
X58904760Y8871429D01*
D10*
X59000000Y8871429D02*
X58952380Y8823810D01*
D10*
X58952380Y8919048D02*
X59000000Y8871429D01*
D10*
X59476192Y9776190D02*
X59619048Y9823810D01*
D10*
X59380952Y9633333D02*
X59476192Y9776190D01*
D10*
X59333332Y9395238D02*
X59380952Y9633333D01*
D10*
X59333332Y9252381D02*
X59333332Y9395238D01*
D10*
X59380952Y9014286D02*
X59333332Y9252381D01*
D10*
X59476192Y8871429D02*
X59380952Y9014286D01*
D10*
X59619048Y8823810D02*
X59476192Y8871429D01*
D10*
X59714284Y8823810D02*
X59619048Y8823810D01*
D10*
X59857144Y8871429D02*
X59714284Y8823810D01*
D10*
X59952380Y9014286D02*
X59857144Y8871429D01*
D10*
X60000000Y9252381D02*
X59952380Y9014286D01*
D10*
X60000000Y9395238D02*
X60000000Y9252381D01*
D10*
X59952380Y9633333D02*
X60000000Y9395238D01*
D10*
X59857144Y9776190D02*
X59952380Y9633333D01*
D10*
X59714284Y9823810D02*
X59857144Y9776190D01*
D10*
X59619048Y9823810D02*
X59714284Y9823810D01*
D10*
X2669523Y55220952D02*
X2717143Y55125716D01*
D10*
X2574285Y55316192D02*
X2669523Y55220952D01*
D10*
X2479047Y55363808D02*
X2574285Y55316192D01*
D10*
X2288571Y55363808D02*
X2479047Y55363808D01*
D10*
X2193333Y55316192D02*
X2288571Y55363808D01*
D10*
X2098095Y55220952D02*
X2193333Y55316192D01*
D10*
X2050476Y55125716D02*
X2098095Y55220952D01*
D10*
X2002857Y54982856D02*
X2050476Y55125716D01*
D10*
X2002857Y54744760D02*
X2002857Y54982856D01*
D10*
X2050476Y54601904D02*
X2002857Y54744760D01*
D10*
X2098095Y54506668D02*
X2050476Y54601904D01*
D10*
X2193333Y54411428D02*
X2098095Y54506668D01*
D10*
X2288571Y54363808D02*
X2193333Y54411428D01*
D10*
X2479047Y54363808D02*
X2288571Y54363808D01*
D10*
X2574285Y54411428D02*
X2479047Y54363808D01*
D10*
X2669523Y54506668D02*
X2574285Y54411428D01*
D10*
X2717143Y54601904D02*
X2669523Y54506668D01*
D10*
X3002857Y54697144D02*
X3479047Y55363808D01*
D10*
X3717143Y54697144D02*
X3002857Y54697144D01*
D10*
X3479047Y54363808D02*
X3479047Y55363808D01*
D10*
X44419048Y14842143D02*
X44514284Y14889762D01*
D10*
X44323808Y14746905D02*
X44419048Y14842143D01*
D10*
X44276192Y14651667D02*
X44323808Y14746905D01*
D10*
X44276192Y14461190D02*
X44276192Y14651667D01*
D10*
X44323808Y14365952D02*
X44276192Y14461190D01*
D10*
X44419048Y14270714D02*
X44323808Y14365952D01*
D10*
X44514284Y14223095D02*
X44419048Y14270714D01*
D10*
X44657144Y14175476D02*
X44514284Y14223095D01*
D10*
X44895240Y14175476D02*
X44657144Y14175476D01*
D10*
X45038096Y14223095D02*
X44895240Y14175476D01*
D10*
X45133332Y14270714D02*
X45038096Y14223095D01*
D10*
X45228572Y14365952D02*
X45133332Y14270714D01*
D10*
X45276192Y14461190D02*
X45228572Y14365952D01*
D10*
X45276192Y14651667D02*
X45276192Y14461190D01*
D10*
X45228572Y14746905D02*
X45276192Y14651667D01*
D10*
X45133332Y14842143D02*
X45228572Y14746905D01*
D10*
X45038096Y14889762D02*
X45133332Y14842143D01*
D10*
X44419048Y15413571D02*
X44466668Y15318333D01*
D10*
X44276192Y15556429D02*
X44419048Y15413571D01*
D10*
X45276192Y15556429D02*
X44276192Y15556429D01*
D10*
X14886190Y45065476D02*
X13886190Y45065476D01*
D10*
X13886190Y45494048D02*
X13886190Y45065476D01*
D10*
X13933810Y45636904D02*
X13886190Y45494048D01*
D10*
X13981429Y45684524D02*
X13933810Y45636904D01*
D10*
X14076667Y45732144D02*
X13981429Y45684524D01*
D10*
X14171905Y45732144D02*
X14076667Y45732144D01*
D10*
X14267143Y45684524D02*
X14171905Y45732144D01*
D10*
X14314762Y45636904D02*
X14267143Y45684524D01*
D10*
X14362381Y45494048D02*
X14314762Y45636904D01*
D10*
X14362381Y45065476D02*
X14362381Y45494048D01*
D10*
X14886190Y45732144D02*
X14362381Y45398808D01*
D10*
X13933810Y46113096D02*
X13886190Y46255952D01*
D10*
X14029048Y46065476D02*
X13933810Y46113096D01*
D10*
X14124286Y46065476D02*
X14029048Y46065476D01*
D10*
X14219524Y46113096D02*
X14124286Y46065476D01*
D10*
X14267143Y46208332D02*
X14219524Y46113096D01*
D10*
X14314762Y46398808D02*
X14267143Y46208332D01*
D10*
X14362381Y46541668D02*
X14314762Y46398808D01*
D10*
X14457619Y46636904D02*
X14362381Y46541668D01*
D10*
X14552857Y46684524D02*
X14457619Y46636904D01*
D10*
X14695714Y46684524D02*
X14552857Y46684524D01*
D10*
X14790952Y46636904D02*
X14695714Y46684524D01*
D10*
X14838571Y46589284D02*
X14790952Y46636904D01*
D10*
X14886190Y46446428D02*
X14838571Y46589284D01*
D10*
X14886190Y46255952D02*
X14886190Y46446428D01*
D10*
X14838571Y46113096D02*
X14886190Y46255952D01*
D10*
X14790952Y46065476D02*
X14838571Y46113096D01*
D10*
X14695714Y46017856D02*
X14790952Y46065476D01*
D10*
X14552857Y46017856D02*
X14695714Y46017856D01*
D10*
X14457619Y46065476D02*
X14552857Y46017856D01*
D10*
X14362381Y46160716D02*
X14457619Y46065476D01*
D10*
X14314762Y46303572D02*
X14362381Y46160716D01*
D10*
X14267143Y46494048D02*
X14314762Y46303572D01*
D10*
X14219524Y46589284D02*
X14267143Y46494048D01*
D10*
X14124286Y46636904D02*
X14219524Y46589284D01*
D10*
X14029048Y46636904D02*
X14124286Y46636904D01*
D10*
X13933810Y46589284D02*
X14029048Y46636904D01*
D10*
X13886190Y46446428D02*
X13933810Y46589284D01*
D10*
X13886190Y46255952D02*
X13886190Y46446428D01*
D10*
X4844047Y49664524D02*
X4939285Y49712144D01*
D10*
X4748809Y49569284D02*
X4844047Y49664524D01*
D10*
X4701190Y49474048D02*
X4748809Y49569284D01*
D10*
X4701190Y49283572D02*
X4701190Y49474048D01*
D10*
X4748809Y49188332D02*
X4701190Y49283572D01*
D10*
X4844047Y49093096D02*
X4748809Y49188332D01*
D10*
X4939285Y49045476D02*
X4844047Y49093096D01*
D10*
X5082143Y48997856D02*
X4939285Y49045476D01*
D10*
X5320238Y48997856D02*
X5082143Y48997856D01*
D10*
X5463095Y49045476D02*
X5320238Y48997856D01*
D10*
X5558333Y49093096D02*
X5463095Y49045476D01*
D10*
X5653571Y49188332D02*
X5558333Y49093096D01*
D10*
X5701190Y49283572D02*
X5653571Y49188332D01*
D10*
X5701190Y49474048D02*
X5701190Y49283572D01*
D10*
X5653571Y49569284D02*
X5701190Y49474048D01*
D10*
X5558333Y49664524D02*
X5653571Y49569284D01*
D10*
X5463095Y49712144D02*
X5558333Y49664524D01*
D10*
X5177381Y50569284D02*
X5034524Y50616904D01*
D10*
X5272619Y50474048D02*
X5177381Y50569284D01*
D10*
X5320238Y50331192D02*
X5272619Y50474048D01*
D10*
X5320238Y50283572D02*
X5320238Y50331192D01*
D10*
X5272619Y50140716D02*
X5320238Y50283572D01*
D10*
X5177381Y50045476D02*
X5272619Y50140716D01*
D10*
X5034524Y49997856D02*
X5177381Y50045476D01*
D10*
X4986905Y49997856D02*
X5034524Y49997856D01*
D10*
X4844047Y50045476D02*
X4986905Y49997856D01*
D10*
X4748809Y50140716D02*
X4844047Y50045476D01*
D10*
X4701190Y50283572D02*
X4748809Y50140716D01*
D10*
X4701190Y50331192D02*
X4701190Y50283572D01*
D10*
X4748809Y50474048D02*
X4701190Y50331192D01*
D10*
X4844047Y50569284D02*
X4748809Y50474048D01*
D10*
X5034524Y50616904D02*
X4844047Y50569284D01*
D10*
X5272619Y50616904D02*
X5034524Y50616904D01*
D10*
X5510714Y50569284D02*
X5272619Y50616904D01*
D10*
X5653571Y50474048D02*
X5510714Y50569284D01*
D10*
X5701190Y50331192D02*
X5653571Y50474048D01*
D10*
X5701190Y50235952D02*
X5701190Y50331192D01*
D10*
X5653571Y50093096D02*
X5701190Y50235952D01*
D10*
X5558333Y50045476D02*
X5653571Y50093096D01*
D10*
X17619524Y51685952D02*
X17667142Y51590716D01*
D10*
X17524286Y51781192D02*
X17619524Y51685952D01*
D10*
X17429048Y51828808D02*
X17524286Y51781192D01*
D10*
X17238572Y51828808D02*
X17429048Y51828808D01*
D10*
X17143334Y51781192D02*
X17238572Y51828808D01*
D10*
X17048096Y51685952D02*
X17143334Y51781192D01*
D10*
X17000476Y51590716D02*
X17048096Y51685952D01*
D10*
X16952858Y51447856D02*
X17000476Y51590716D01*
D10*
X16952858Y51209760D02*
X16952858Y51447856D01*
D10*
X17000476Y51066904D02*
X16952858Y51209760D01*
D10*
X17048096Y50971668D02*
X17000476Y51066904D01*
D10*
X17143334Y50876428D02*
X17048096Y50971668D01*
D10*
X17238572Y50828808D02*
X17143334Y50876428D01*
D10*
X17429048Y50828808D02*
X17238572Y50828808D01*
D10*
X17524286Y50876428D02*
X17429048Y50828808D01*
D10*
X17619524Y50971668D02*
X17524286Y50876428D01*
D10*
X17667142Y51066904D02*
X17619524Y50971668D01*
D10*
X18143334Y50828808D02*
X18619524Y51828808D01*
D10*
X18619524Y51828808D02*
X17952858Y51828808D01*
D10*
X47550476Y38153808D02*
X47550476Y39153808D01*
D10*
X47979048Y39153808D02*
X47550476Y39153808D01*
D10*
X48121904Y39106192D02*
X47979048Y39153808D01*
D10*
X48169524Y39058572D02*
X48121904Y39106192D01*
D10*
X48217144Y38963332D02*
X48169524Y39058572D01*
D10*
X48217144Y38868096D02*
X48217144Y38963332D01*
D10*
X48169524Y38772856D02*
X48217144Y38868096D01*
D10*
X48121904Y38725240D02*
X48169524Y38772856D01*
D10*
X47979048Y38677620D02*
X48121904Y38725240D01*
D10*
X47550476Y38677620D02*
X47979048Y38677620D01*
D10*
X48217144Y38153808D02*
X47883808Y38677620D01*
D10*
X48740952Y39010952D02*
X48645716Y38963332D01*
D10*
X48883808Y39153808D02*
X48740952Y39010952D01*
D10*
X48883808Y38153808D02*
X48883808Y39153808D01*
D10*
X49693332Y39010952D02*
X49598096Y38963332D01*
D10*
X49836192Y39153808D02*
X49693332Y39010952D01*
D10*
X49836192Y38153808D02*
X49836192Y39153808D01*
D12*
X26725001Y39885000D02*
X26725001Y40462500D01*
D12*
X27937501Y41675000D02*
X32075001Y41675000D01*
D12*
X26725001Y37537500D02*
X26725001Y38115000D01*
D12*
X32075001Y36325000D02*
X32075001Y38115000D01*
D12*
X26725001Y37537500D02*
X27937501Y36325000D01*
D12*
X26725001Y40462500D02*
X27937501Y41675000D01*
D12*
X27937501Y36325000D02*
X32075001Y36325000D01*
D12*
X32075001Y41675000D02*
X32075001Y39885000D01*
D12*
X17774000Y6665000D02*
X45226000Y6665000D01*
D12*
X45226000Y6665000D02*
X45226000Y865000D01*
D12*
X45226000Y865000D02*
X40699000Y865000D01*
D12*
X17774000Y865000D02*
X22299000Y865000D01*
D12*
X23099000Y865000D02*
X39899000Y865000D01*
D12*
X17774000Y865000D02*
X17774000Y6665000D01*
D12*
X30685000Y9175000D02*
X32315000Y9175000D01*
D12*
X30685000Y10825000D02*
X32315000Y10825000D01*
D12*
X24925000Y60475000D02*
X24925000Y66725000D01*
D13*
X24500000Y58400000D02*
X24500000Y59500000D01*
D12*
X27275000Y60475000D02*
X24925000Y60475000D01*
D12*
X27275000Y66725000D02*
X27275000Y60475000D01*
D12*
X24925000Y66725000D02*
X27275000Y66725000D01*
D12*
X15425000Y59735000D02*
X14995000Y59735000D01*
D12*
X15425000Y58835000D02*
X14995000Y58835000D01*
D12*
X15890000Y48160000D02*
X15890000Y48590000D01*
D12*
X16790000Y48160000D02*
X16790000Y48590000D01*
D12*
X5395000Y53060000D02*
X5825000Y53060000D01*
D12*
X5395000Y52160000D02*
X5825000Y52160000D01*
D12*
X52030000Y52085000D02*
X52030000Y52515000D01*
D12*
X52930000Y52085000D02*
X52930000Y52515000D01*
D12*
X14995000Y50855000D02*
X15425000Y50855000D01*
D12*
X14995000Y51755000D02*
X15425000Y51755000D01*
D12*
X24362500Y9605000D02*
X19125000Y9605000D01*
D12*
X25775000Y11017500D02*
X24362500Y9605000D01*
D12*
X19125000Y16255000D02*
X19125000Y13865000D01*
D12*
X19125000Y9605000D02*
X19125000Y11995000D01*
D12*
X25775000Y11017500D02*
X25775000Y11995000D01*
D12*
X24362500Y16255000D02*
X25775000Y14842500D01*
D12*
X19125000Y16255000D02*
X24362500Y16255000D01*
D12*
X25775000Y14842500D02*
X25775000Y13865000D01*
D12*
X30742001Y31024000D02*
X30913000Y31024000D01*
D12*
X32759999Y31024000D02*
X32587000Y31024000D01*
D14*
X32750000Y30600000D02*
X33550000Y30600000D01*
D12*
X48445000Y48085000D02*
X49175000Y48085000D01*
D12*
X50285000Y47875000D02*
X50285000Y46735000D01*
D12*
X47335000Y46735000D02*
X47335000Y47875000D01*
D12*
X48225000Y46735000D02*
X47335000Y46735000D01*
D12*
X50285000Y46735000D02*
X49395000Y46735000D01*
D12*
X13960000Y48160000D02*
X13960000Y48590000D01*
D12*
X14860000Y48160000D02*
X14860000Y48590000D01*
D12*
X39225000Y37435000D02*
X39225000Y38065000D01*
D12*
X35575000Y42435000D02*
X35575000Y43500000D01*
D12*
X39225000Y42435000D02*
X39225000Y43500000D01*
D12*
X39200000Y34475000D02*
X35575000Y34475000D01*
D12*
X35600000Y43525000D02*
X39200000Y43525000D01*
D12*
X35575000Y37435000D02*
X35575000Y38065000D01*
D12*
X39225000Y39935000D02*
X39225000Y40565000D01*
D12*
X35575000Y34475000D02*
X35575000Y35565000D01*
D12*
X35575000Y39935000D02*
X35575000Y40565000D01*
D12*
X39225000Y34500000D02*
X39225000Y35565000D01*
D12*
X9695000Y52280000D02*
X9265000Y52280000D01*
D12*
X9695000Y53180000D02*
X9265000Y53180000D01*
D12*
X38737500Y16255000D02*
X43875000Y16255000D01*
D12*
X43875000Y9605000D02*
X43875000Y11995000D01*
D12*
X43875000Y16255000D02*
X43875000Y13865000D01*
D12*
X37225000Y14742500D02*
X38737500Y16255000D01*
D12*
X38737500Y9605000D02*
X37225000Y11117500D01*
D12*
X37225000Y11117500D02*
X37225000Y11995000D01*
D12*
X43875000Y9605000D02*
X38737500Y9605000D01*
D12*
X37225000Y14742500D02*
X37225000Y13865000D01*
D12*
X53220000Y43475000D02*
X53220000Y43045000D01*
D12*
X54120000Y43475000D02*
X54120000Y43045000D01*
D12*
X48495000Y44735000D02*
X49125000Y44735000D01*
D12*
X48495000Y43385000D02*
X49125000Y43385000D01*
D12*
X19700000Y55345000D02*
X19700000Y54915000D01*
D12*
X20600000Y55345000D02*
X20600000Y54915000D01*
D12*
X11475000Y46695000D02*
X11475000Y46117500D01*
D12*
X10262500Y44905000D02*
X6125000Y44905000D01*
D12*
X11475000Y49042500D02*
X11475000Y48465000D01*
D12*
X6125000Y50255000D02*
X6125000Y48465000D01*
D12*
X11475000Y49042500D02*
X10262500Y50255000D01*
D12*
X11475000Y46117500D02*
X10262500Y44905000D01*
D12*
X10262500Y50255000D02*
X6125000Y50255000D01*
D12*
X6125000Y44905000D02*
X6125000Y46695000D01*
D12*
X32575000Y43840000D02*
X32145000Y43840000D01*
D12*
X32575000Y42940000D02*
X32145000Y42940000D01*
D12*
X32520000Y63905000D02*
X34320000Y63905000D01*
D12*
X34320000Y60455000D02*
X32520000Y60455000D01*
D12*
X34320000Y63905000D02*
X34320000Y60455000D01*
D13*
X32070000Y58430000D02*
X32070000Y59530000D01*
D12*
X32520000Y60455000D02*
X32520000Y63905000D01*
D12*
X51340000Y43045000D02*
X51340000Y43475000D01*
D12*
X52240000Y43045000D02*
X52240000Y43475000D01*
D12*
X9695000Y57000000D02*
X9265000Y57000000D01*
D12*
X9695000Y56100000D02*
X9265000Y56100000D01*
D12*
X17225000Y52770000D02*
X17225000Y52955000D01*
D12*
X13195000Y55495000D02*
X13195000Y55095000D01*
D12*
X17225000Y56765000D02*
X17225000Y56365000D01*
D12*
X13195000Y52770000D02*
X13195000Y52955000D01*
D12*
X13195000Y57820000D02*
X13195000Y57635000D01*
D12*
X13195000Y57820000D02*
X17225000Y57820000D01*
D12*
X17225000Y53825000D02*
X17225000Y54225000D01*
D15*
X11862500Y57925000D02*
X12812500Y57925000D01*
D12*
X13195000Y53825000D02*
X13195000Y54225000D01*
D12*
X13195000Y56765000D02*
X13195000Y56365000D01*
D12*
X17225000Y55495000D02*
X17225000Y55095000D01*
D12*
X17225000Y52770000D02*
X13195000Y52770000D01*
D12*
X17225000Y57820000D02*
X17225000Y57635000D01*
D12*
X46325000Y51787500D02*
X47037500Y51075000D01*
D12*
X47037500Y51075000D02*
X46325000Y51787500D01*
D12*
X49962500Y51075000D02*
X50675000Y51787500D01*
D12*
X49962500Y51075000D02*
X49435000Y51075000D01*
D12*
X46325000Y55425000D02*
X47565000Y55425000D01*
D12*
X46325000Y55425000D02*
X46325000Y51787500D01*
D12*
X46325000Y51787500D02*
X47037500Y51075000D01*
D12*
X50675000Y55425000D02*
X49435000Y55425000D01*
D12*
X47037500Y51075000D02*
X47560000Y51075000D01*
D12*
X47037500Y51075000D02*
X47037500Y51075000D01*
D12*
X50675000Y51787500D02*
X50675000Y55425000D01*
D12*
X5755000Y365000D02*
X5755000Y7415000D01*
D12*
X13205000Y365000D02*
X13205000Y7415000D01*
D12*
X9755000Y7415000D02*
X9205000Y7415000D01*
D12*
X13205000Y7415000D02*
X11705000Y7415000D01*
D12*
X13205000Y365000D02*
X5755000Y365000D01*
D12*
X5755000Y7415000D02*
X7255000Y7415000D01*
D12*
X5445000Y55515000D02*
X6075000Y55515000D01*
D12*
X5445000Y54165000D02*
X6075000Y54165000D01*
D12*
X32315000Y16685000D02*
X30685000Y16685000D01*
D12*
X32315000Y15035000D02*
X30685000Y15035000D01*
D12*
X48445000Y42280000D02*
X48875000Y42280000D01*
D12*
X48445000Y41380000D02*
X48875000Y41380000D01*
D12*
X31065000Y66725000D02*
X31065000Y60475000D01*
D13*
X31490000Y68800000D02*
X31490000Y67700000D01*
D12*
X28715000Y66725000D02*
X31065000Y66725000D01*
D12*
X28715000Y60475000D02*
X28715000Y66725000D01*
D12*
X31065000Y60475000D02*
X28715000Y60475000D01*
D12*
X32315000Y13755000D02*
X30685000Y13755000D01*
D12*
X32315000Y12105000D02*
X30685000Y12105000D01*
D12*
X26245000Y43880000D02*
X26675000Y43880000D01*
D12*
X26245000Y42980000D02*
X26675000Y42980000D01*
D12*
X9265000Y55110000D02*
X9695000Y55110000D01*
D12*
X9265000Y54210000D02*
X9695000Y54210000D01*
D12*
X37570000Y60455000D02*
X35770000Y60455000D01*
D12*
X35770000Y63905000D02*
X37570000Y63905000D01*
D12*
X35770000Y60455000D02*
X35770000Y63905000D01*
D13*
X38020000Y65930000D02*
X38020000Y64830000D01*
D12*
X37570000Y63905000D02*
X37570000Y60455000D01*
D12*
X49765000Y365000D02*
X49765000Y7415000D01*
D12*
X57215000Y365000D02*
X57215000Y7415000D01*
D12*
X53765000Y7415000D02*
X53215000Y7415000D01*
D12*
X57215000Y7415000D02*
X55715000Y7415000D01*
D12*
X57215000Y365000D02*
X49765000Y365000D01*
D12*
X49765000Y7415000D02*
X51265000Y7415000D01*
D12*
X10262500Y38925000D02*
X10975000Y39637500D01*
D12*
X10975000Y39637500D02*
X10262500Y38925000D01*
D12*
X10975000Y42562500D02*
X10262500Y43275000D01*
D12*
X10975000Y42562500D02*
X10975000Y42035000D01*
D12*
X6625000Y38925000D02*
X6625000Y40165000D01*
D12*
X6625000Y38925000D02*
X10262500Y38925000D01*
D12*
X10262500Y38925000D02*
X10975000Y39637500D01*
D12*
X6625000Y43275000D02*
X6625000Y42035000D01*
D12*
X10975000Y39637500D02*
X10975000Y40160000D01*
D12*
X10975000Y39637500D02*
X10975000Y39637500D01*
D12*
X10262500Y43275000D02*
X6625000Y43275000D01*
D12*
X27957999Y34376000D02*
X27787000Y34376000D01*
D12*
X25940001Y34376000D02*
X26113000Y34376000D01*
D14*
X25950000Y34800000D02*
X25150000Y34800000D01*
D11*
X42400000Y40900000D02*
X41800000Y40000000D01*
D11*
X42400000Y38900000D02*
X42400000Y40900000D01*
D11*
X42400000Y40900000D02*
X43000000Y40000000D01*
D16*
X56446000Y17362000D02*
X56434000Y17172000D01*
D16*
X56239000Y16807000D02*
X56182000Y16821000D01*
D16*
X59367000Y16348000D02*
X59356000Y16626000D01*
D16*
X57703000Y17466000D02*
X57691000Y17702000D01*
D16*
X56434000Y17172000D02*
X56438000Y17069000D01*
D16*
X60916000Y18668000D02*
X60905000Y18514000D01*
D16*
X58938000Y17381000D02*
X58985000Y17349000D01*
D16*
X58597000Y17420000D02*
X58743000Y17433000D01*
D16*
X58672000Y17072000D02*
X58664000Y17126000D01*
D16*
X59356000Y16626000D02*
X59334000Y16974000D01*
D16*
X58582000Y17185000D02*
X58497000Y17180000D01*
D16*
X56378000Y16369000D02*
X56417000Y16339000D01*
D16*
X58953000Y16221000D02*
X58927000Y16180000D01*
D16*
X58075000Y16395000D02*
X58059000Y16188000D01*
D16*
X56298000Y16383000D02*
X56378000Y16369000D01*
D16*
X58835000Y16125000D02*
X58742000Y16101000D01*
D16*
X59722000Y18189000D02*
X59718000Y18030000D01*
D16*
X58381000Y17360000D02*
X58412000Y17391000D01*
D16*
X59743000Y18578000D02*
X59786000Y18488000D01*
D16*
X56987000Y16853000D02*
X56973000Y16872000D01*
D16*
X58510000Y18491000D02*
X58660000Y18504000D01*
D16*
X59534000Y18609000D02*
X59648000Y18615000D01*
D16*
X58640000Y16284000D02*
X58650000Y16385000D01*
D16*
X56907000Y16101000D02*
X56947000Y16109000D01*
D16*
X60928000Y17180000D02*
X60942000Y16896000D01*
D16*
X56169000Y15821000D02*
X56144000Y15829000D01*
D16*
X58594000Y18392000D02*
X58573000Y18405000D01*
D16*
X60546000Y18224000D02*
X60552000Y18684000D01*
D16*
X56115000Y18178000D02*
X56145000Y18211000D01*
D16*
X56438000Y17069000D02*
X56450000Y17026000D01*
D16*
X57967000Y16005000D02*
X57817000Y15995000D01*
D16*
X57756000Y18391000D02*
X57802000Y18412000D01*
D16*
X58872000Y17420000D02*
X58938000Y17381000D01*
D16*
X57802000Y18412000D02*
X57865000Y18428000D01*
D16*
X58968000Y18476000D02*
X58974000Y18428000D01*
D16*
X56452000Y18070000D02*
X56456000Y17708000D01*
D16*
X58573000Y18405000D02*
X58531000Y18416000D01*
D16*
X58742000Y16101000D02*
X58589000Y16075000D01*
D16*
X56456000Y17708000D02*
X56457000Y17470000D01*
D16*
X59334000Y16974000D02*
X59312000Y17320000D01*
D16*
X57709000Y18336000D02*
X57725000Y18366000D01*
D16*
X58132000Y16094000D02*
X58271000Y16108000D01*
D16*
X56817000Y16087000D02*
X56907000Y16101000D01*
D16*
X56595000Y15851000D02*
X56427000Y15834000D01*
D16*
X57150000Y15955000D02*
X57074000Y15923000D01*
D16*
X60548000Y17544000D02*
X60546000Y18224000D01*
D16*
X60942000Y16896000D02*
X60944000Y16682000D01*
D16*
X58467000Y17406000D02*
X58597000Y17420000D01*
D16*
X56401000Y18241000D02*
X56423000Y18227000D01*
D16*
X56423000Y18227000D02*
X56439000Y18208000D01*
D16*
X56835000Y15875000D02*
X56711000Y15859000D01*
D16*
X57711000Y16010000D02*
X57688000Y16035000D01*
D16*
X59011000Y16545000D02*
X58998000Y16408000D01*
D16*
X58077000Y16094000D02*
X58132000Y16094000D01*
D16*
X56993000Y16297000D02*
X57013000Y16419000D01*
D16*
X60665000Y16295000D02*
X60579000Y16303000D01*
D16*
X56457000Y17470000D02*
X56446000Y17362000D01*
D16*
X56691000Y16065000D02*
X56817000Y16087000D01*
D16*
X57719000Y16946000D02*
X57715000Y17230000D01*
D16*
X57817000Y15995000D02*
X57745000Y15997000D01*
D16*
X58889000Y16150000D02*
X58835000Y16125000D01*
D16*
X58998000Y16408000D02*
X58977000Y16299000D01*
D16*
X58087000Y18356000D02*
X58078000Y18282000D01*
D16*
X58340000Y17277000D02*
X58353000Y17316000D01*
D16*
X60520000Y16462000D02*
X60475000Y16573000D01*
D16*
X59731000Y16212000D02*
X59701000Y16198000D01*
D16*
X59011000Y16729000D02*
X59011000Y16545000D01*
D16*
X56104000Y16092000D02*
X56114000Y16189000D01*
D16*
X58891000Y18100000D02*
X58805000Y18086000D01*
D16*
X57288000Y18348000D02*
X57330000Y18335000D01*
D16*
X56987000Y17077000D02*
X56987000Y17657000D01*
D16*
X57334000Y16295000D02*
X57317000Y16197000D01*
D16*
X56973000Y16872000D02*
X56940000Y16875000D01*
D16*
X59346000Y18498000D02*
X59357000Y18557000D01*
D16*
X58073000Y18056000D02*
X58080000Y17772000D01*
D16*
X60009000Y17920000D02*
X60073000Y17768000D01*
D16*
X56464000Y17003000D02*
X56515000Y17005000D01*
D16*
X60804000Y18737000D02*
X60919000Y18743000D01*
D16*
X59840000Y18363000D02*
X59927000Y18135000D01*
D16*
X60400000Y16735000D02*
X60291000Y16948000D01*
D16*
X58985000Y17349000D02*
X58988000Y17212000D01*
D16*
X57715000Y16657000D02*
X57719000Y16946000D01*
D16*
X59648000Y18615000D02*
X59718000Y18610000D01*
D16*
X58589000Y16075000D02*
X58403000Y16049000D01*
D16*
X58661000Y16537000D02*
X58671000Y16841000D01*
D16*
X58271000Y16108000D02*
X58413000Y16123000D01*
D16*
X57725000Y18366000D02*
X57756000Y18391000D01*
D16*
X57074000Y15923000D02*
X56971000Y15899000D01*
D16*
X60579000Y16303000D02*
X60551000Y16366000D01*
D16*
X57347000Y16415000D02*
X57334000Y16295000D01*
D16*
X58313000Y18472000D02*
X58510000Y18491000D01*
D16*
X58933000Y18116000D02*
X58891000Y18100000D01*
D16*
X56987000Y17657000D02*
X56992000Y18254000D01*
D16*
X60919000Y18743000D02*
X60924000Y18739000D01*
D16*
X57205000Y18361000D02*
X57288000Y18348000D01*
D16*
X58988000Y17212000D02*
X58998000Y16953000D01*
D16*
X60924000Y18739000D02*
X60916000Y18668000D01*
D16*
X60900000Y18200000D02*
X60907000Y17722000D01*
D16*
X58743000Y17433000D02*
X58828000Y17433000D01*
D16*
X56417000Y16339000D02*
X56429000Y16291000D01*
D16*
X56635000Y17020000D02*
X56841000Y17052000D01*
D16*
X58650000Y17169000D02*
X58633000Y17187000D01*
D16*
X58805000Y18086000D02*
X58680000Y18081000D01*
D16*
X58496000Y16131000D02*
X58558000Y16147000D01*
D16*
X60195000Y17134000D02*
X60143000Y17242000D01*
D16*
X60554000Y17030000D02*
X60548000Y17544000D01*
D16*
X56560000Y16050000D02*
X56691000Y16065000D01*
D16*
X57020000Y18293000D02*
X57076000Y18332000D01*
D16*
X59440000Y18595000D02*
X59534000Y18609000D01*
D16*
X58927000Y16180000D02*
X58889000Y16150000D01*
D16*
X60936000Y16516000D02*
X60926000Y16421000D01*
D16*
X58626000Y16216000D02*
X58640000Y16284000D01*
D16*
X60179000Y17528000D02*
X60335000Y17186000D01*
D16*
X60552000Y18684000D02*
X60567000Y18699000D01*
D16*
X58633000Y17187000D02*
X58582000Y17185000D01*
D16*
X56104000Y17387000D02*
X56102000Y18029000D01*
D16*
X58660000Y18504000D02*
X58824000Y18510000D01*
D16*
X57317000Y16197000D02*
X57293000Y16110000D01*
D16*
X56128000Y16268000D02*
X56149000Y16326000D01*
D16*
X57026000Y16651000D02*
X57017000Y16753000D01*
D16*
X58091000Y17552000D02*
X58099000Y17248000D01*
D16*
X58109000Y18454000D02*
X58313000Y18472000D01*
D16*
X59314000Y18246000D02*
X59330000Y18392000D01*
D16*
X56427000Y15834000D02*
X56251000Y15819000D01*
D16*
X59302000Y18074000D02*
X59314000Y18246000D01*
D16*
X59740000Y16341000D02*
X59741000Y16220000D01*
D16*
X56101000Y18159000D02*
X56115000Y18178000D01*
D16*
X58380000Y17200000D02*
X58353000Y17220000D01*
D16*
X58824000Y18510000D02*
X58924000Y18510000D01*
D16*
X57013000Y16419000D02*
X57024000Y16525000D01*
D16*
X58455000Y18420000D02*
X58352000Y18414000D01*
D16*
X59378000Y16174000D02*
X59367000Y16348000D01*
D16*
X58497000Y17180000D02*
X58424000Y17186000D01*
D16*
X58353000Y17220000D02*
X58340000Y17247000D01*
D16*
X58558000Y16147000D02*
X58599000Y16176000D01*
D16*
X58099000Y17248000D02*
X58099000Y16840000D01*
D16*
X56144000Y15829000D02*
X56130000Y15842000D01*
D16*
X59312000Y17320000D02*
X59302000Y17528000D01*
D16*
X60073000Y17768000D02*
X60179000Y17528000D01*
D16*
X56475000Y16053000D02*
X56560000Y16050000D01*
D16*
X56145000Y18211000D02*
X56182000Y18234000D01*
D16*
X56355000Y16797000D02*
X56239000Y16807000D01*
D16*
X57697000Y18290000D02*
X57709000Y18336000D01*
D16*
X59302000Y17528000D02*
X59297000Y17810000D01*
D16*
X56429000Y16291000D02*
X56426000Y16177000D01*
D16*
X56116000Y15890000D02*
X56103000Y15982000D01*
D16*
X58977000Y16299000D02*
X58953000Y16221000D01*
D16*
X58924000Y18510000D02*
X58943000Y18499000D01*
D16*
X59732000Y16898000D02*
X59740000Y16341000D01*
D16*
X58403000Y16049000D02*
X58187000Y16025000D01*
D16*
X57293000Y16110000D02*
X57261000Y16042000D01*
D16*
X56130000Y15842000D02*
X56116000Y15890000D01*
D16*
X56182000Y18234000D02*
X56234000Y18252000D01*
D16*
X57692000Y16341000D02*
X57707000Y16503000D01*
D16*
X56477000Y16795000D02*
X56355000Y16797000D01*
D16*
X60944000Y16682000D02*
X60936000Y16516000D01*
D16*
X60899000Y16338000D02*
X60857000Y16319000D01*
D16*
X59718000Y18030000D02*
X59722000Y17600000D01*
D16*
X56439000Y18208000D02*
X56452000Y18070000D01*
D16*
X58958000Y18206000D02*
X58948000Y18131000D01*
D16*
X58187000Y16025000D02*
X57967000Y16005000D01*
D16*
X58599000Y16176000D02*
X58626000Y16216000D01*
D16*
X59404000Y16168000D02*
X59378000Y16174000D01*
D16*
X58261000Y18400000D02*
X58153000Y18377000D01*
D16*
X56103000Y15982000D02*
X56104000Y16092000D01*
D16*
X58948000Y18131000D02*
X58933000Y18116000D01*
D16*
X58581000Y18242000D02*
X58594000Y18392000D01*
D16*
X57691000Y17702000D02*
X57684000Y17974000D01*
D16*
X58153000Y18377000D02*
X58087000Y18356000D01*
D16*
X60551000Y16366000D02*
X60520000Y16462000D01*
D16*
X59297000Y17810000D02*
X59302000Y18074000D01*
D16*
X57745000Y15997000D02*
X57711000Y16010000D01*
D16*
X56427000Y16080000D02*
X56441000Y16062000D01*
D16*
X60489000Y16855000D02*
X60551000Y16735000D01*
D16*
X58059000Y16105000D02*
X58077000Y16094000D01*
D16*
X57003000Y16812000D02*
X56987000Y16853000D01*
D16*
X58680000Y18081000D02*
X58591000Y18089000D01*
D16*
X56450000Y17026000D02*
X56464000Y17003000D01*
D16*
X60907000Y17722000D02*
X60916000Y17410000D01*
D16*
X59357000Y18557000D02*
X59380000Y18578000D01*
D16*
X58828000Y17433000D02*
X58872000Y17420000D01*
D16*
X59927000Y18135000D02*
X60009000Y17920000D01*
D16*
X58078000Y18282000D02*
X58073000Y18056000D01*
D16*
X57340000Y16873000D02*
X57349000Y16627000D01*
D16*
X59540000Y16173000D02*
X59460000Y16167000D01*
D16*
X58412000Y17391000D02*
X58467000Y17406000D01*
D16*
X58099000Y16840000D02*
X58091000Y16585000D01*
D16*
X59460000Y16167000D02*
X59404000Y16168000D01*
D16*
X58091000Y16585000D02*
X58075000Y16395000D01*
D16*
X56795000Y16849000D02*
X56597000Y16811000D01*
D16*
X58353000Y17316000D02*
X58381000Y17360000D01*
D16*
X56251000Y15819000D02*
X56252000Y15819000D01*
D16*
X56114000Y16189000D02*
X56128000Y16268000D01*
D16*
X56992000Y18254000D02*
X57020000Y18293000D01*
D16*
X56426000Y16177000D02*
X56427000Y16080000D01*
D16*
X57332000Y17653000D02*
X57340000Y16873000D01*
D16*
X56515000Y17005000D02*
X56635000Y17020000D01*
D16*
X57349000Y16627000D02*
X57347000Y16415000D01*
D16*
X59924000Y17736000D02*
X59722000Y18189000D01*
D16*
X56114000Y16865000D02*
X56104000Y17387000D01*
D16*
X60784000Y16302000D02*
X60665000Y16295000D01*
D16*
X59741000Y16220000D02*
X59731000Y16212000D01*
D16*
X58059000Y16188000D02*
X58059000Y16105000D01*
D16*
X58970000Y18333000D02*
X58958000Y18206000D01*
D16*
X56182000Y16821000D02*
X56141000Y16842000D01*
D16*
X60917000Y16369000D02*
X60899000Y16338000D01*
D16*
X58352000Y18414000D02*
X58261000Y18400000D01*
D16*
X56971000Y15899000D02*
X56835000Y15875000D01*
D16*
X56180000Y16355000D02*
X56222000Y16375000D01*
D16*
X58664000Y17126000D02*
X58650000Y17169000D01*
D16*
X57684000Y17974000D02*
X57687000Y18210000D01*
D16*
X56234000Y18252000D02*
X56305000Y18260000D01*
D16*
X59330000Y18392000D02*
X59346000Y18498000D01*
D16*
X60335000Y17186000D02*
X60489000Y16855000D01*
D16*
X58671000Y16841000D02*
X58672000Y17072000D01*
D16*
X58080000Y17772000D02*
X58091000Y17552000D01*
D16*
X57959000Y18441000D02*
X58109000Y18454000D01*
D16*
X56940000Y16875000D02*
X56795000Y16849000D01*
D16*
X59786000Y18488000D02*
X59840000Y18363000D01*
D16*
X56141000Y16842000D02*
X56114000Y16865000D01*
D16*
X56365000Y18255000D02*
X56401000Y18241000D01*
D16*
X58569000Y18097000D02*
X58581000Y18242000D01*
D16*
X60905000Y18514000D02*
X60900000Y18200000D01*
D16*
X60475000Y16573000D02*
X60400000Y16735000D01*
D16*
X57681000Y16145000D02*
X57692000Y16341000D01*
D16*
X56252000Y15819000D02*
X56169000Y15821000D01*
D16*
X58943000Y18499000D02*
X58968000Y18476000D01*
D16*
X59718000Y18610000D02*
X59743000Y18578000D01*
D16*
X57076000Y18332000D02*
X57137000Y18354000D01*
D16*
X60551000Y16735000D02*
X60554000Y17030000D01*
D16*
X56711000Y15859000D02*
X56595000Y15851000D01*
D16*
X56441000Y16062000D02*
X56475000Y16053000D01*
D16*
X60291000Y16948000D02*
X60195000Y17134000D01*
D16*
X57688000Y16035000D02*
X57681000Y16145000D01*
D16*
X56102000Y18029000D02*
X56101000Y18159000D01*
D16*
X59701000Y16198000D02*
X59632000Y16185000D01*
D16*
X58591000Y18089000D02*
X58569000Y18097000D01*
D16*
X57715000Y17230000D02*
X57703000Y17466000D01*
D16*
X60143000Y17242000D02*
X59924000Y17736000D01*
D16*
X60916000Y17410000D02*
X60928000Y17180000D01*
D16*
X57218000Y15997000D02*
X57150000Y15955000D01*
D16*
X57330000Y18335000D02*
X57332000Y17653000D01*
D16*
X58340000Y17247000D02*
X58340000Y17277000D01*
D16*
X58650000Y16385000D02*
X58661000Y16537000D01*
D16*
X60600000Y18713000D02*
X60658000Y18726000D01*
D16*
X57261000Y16042000D02*
X57218000Y15997000D01*
D16*
X56305000Y18260000D02*
X56365000Y18255000D01*
D16*
X58531000Y18416000D02*
X58455000Y18420000D01*
D16*
X57865000Y18428000D02*
X57959000Y18441000D01*
D16*
X60926000Y16421000D02*
X60917000Y16369000D01*
D16*
X56597000Y16811000D02*
X56477000Y16795000D01*
D16*
X59460000Y16167000D02*
X59460000Y16167000D01*
D16*
X58424000Y17186000D02*
X58380000Y17200000D01*
D16*
X57137000Y18354000D02*
X57205000Y18361000D01*
D16*
X57024000Y16525000D02*
X57026000Y16651000D01*
D16*
X59632000Y16185000D02*
X59540000Y16173000D01*
D16*
X57687000Y18210000D02*
X57697000Y18290000D01*
D16*
X60857000Y16319000D02*
X60784000Y16302000D01*
D16*
X56149000Y16326000D02*
X56180000Y16355000D01*
D16*
X59722000Y17600000D02*
X59732000Y16898000D01*
D16*
X57017000Y16753000D02*
X57003000Y16812000D01*
D16*
X60567000Y18699000D02*
X60600000Y18713000D01*
D16*
X56841000Y17052000D02*
X56978000Y17075000D01*
D16*
X60658000Y18726000D02*
X60804000Y18737000D01*
D16*
X56947000Y16109000D02*
X56965000Y16167000D01*
D16*
X56965000Y16167000D02*
X56993000Y16297000D01*
D16*
X57817000Y15995000D02*
X57817000Y15995000D01*
D16*
X58998000Y16953000D02*
X59011000Y16729000D01*
D16*
X56222000Y16375000D02*
X56298000Y16383000D01*
D16*
X58974000Y18428000D02*
X58970000Y18333000D01*
D16*
X58413000Y16123000D02*
X58496000Y16131000D01*
D16*
X57707000Y16503000D02*
X57715000Y16657000D01*
D16*
X56978000Y17075000D02*
X56987000Y17077000D01*
D16*
X59380000Y18578000D02*
X59440000Y18595000D01*
D10*
X3691000Y12601000D02*
X3943000Y12561000D01*
D10*
X11357000Y16569000D02*
X11393000Y16448000D01*
D10*
X12448000Y12632000D02*
X12578000Y12930000D01*
D10*
X3787000Y12023000D02*
X3580000Y11858000D01*
D10*
X2657000Y12536000D02*
X2735000Y12655000D01*
D10*
X12855000Y12604000D02*
X12923000Y11994000D01*
D10*
X13138000Y15676000D02*
X13149000Y15526000D01*
D10*
X12338000Y11739000D02*
X12233000Y11624000D01*
D10*
X8444000Y16184000D02*
X8454000Y16555000D01*
D10*
X3048000Y11253000D02*
X2898000Y11777000D01*
D10*
X8454000Y16555000D02*
X8490000Y16848000D01*
D10*
X5638000Y16224000D02*
X5549000Y16092000D01*
D10*
X6833000Y16721000D02*
X6881000Y16597000D01*
D10*
X3845000Y10829000D02*
X4124000Y11189000D01*
D10*
X10665000Y14202000D02*
X10826000Y14895000D01*
D10*
X3399000Y11753000D02*
X3218000Y11720000D01*
D10*
X2735000Y12655000D02*
X2866000Y12815000D01*
D10*
X4776000Y15513000D02*
X4984000Y15382000D01*
D10*
X10313000Y10496000D02*
X10279000Y10397000D01*
D10*
X8290000Y12268000D02*
X8118000Y11833000D01*
D10*
X11475000Y11297000D02*
X11444000Y11162000D01*
D10*
X8039000Y11575000D02*
X7926000Y11156000D01*
D10*
X6550000Y15696000D02*
X6643000Y15636000D01*
D10*
X9391000Y16476000D02*
X9532000Y16494000D01*
D10*
X4883000Y11931000D02*
X5088000Y12230000D01*
D10*
X2866000Y12815000D02*
X3011000Y13042000D01*
D10*
X4043000Y15070000D02*
X4328000Y14893000D01*
D10*
X10524000Y15239000D02*
X10392000Y14700000D01*
D10*
X7727000Y10262000D02*
X7617000Y10087000D01*
D10*
X8669000Y13971000D02*
X8523000Y13912000D01*
D10*
X7926000Y11156000D02*
X7814000Y10764000D01*
D10*
X9431000Y11790000D02*
X9278000Y12010000D01*
D10*
X8140000Y12736000D02*
X8025000Y12795000D01*
D10*
X4904000Y14999000D02*
X4578000Y15170000D01*
D10*
X9299000Y16313000D02*
X9308000Y16385000D01*
D10*
X12923000Y11994000D02*
X13018000Y11559000D01*
D10*
X6850000Y16860000D02*
X6833000Y16721000D01*
D10*
X10392000Y14700000D02*
X10337000Y14147000D01*
D10*
X3234000Y11978000D02*
X3234000Y11978000D01*
D10*
X6705000Y16159000D02*
X6622000Y15911000D01*
D10*
X13549000Y12112000D02*
X13597000Y12284000D01*
D10*
X5767000Y12726000D02*
X6178000Y12892000D01*
D10*
X7395000Y10742000D02*
X7491000Y10721000D01*
D10*
X10816000Y10723000D02*
X11133000Y10613000D01*
D10*
X4927000Y15959000D02*
X4709000Y15834000D01*
D10*
X5549000Y16092000D02*
X5283000Y16013000D01*
D10*
X10741000Y15474000D02*
X10524000Y15239000D01*
D10*
X5968000Y14209000D02*
X5783000Y14218000D01*
D10*
X14663000Y10078000D02*
X14663000Y10078000D01*
D10*
X7306000Y16025000D02*
X7234000Y15942000D01*
D10*
X5726000Y10629000D02*
X6109000Y10922000D01*
D10*
X11082000Y14803000D02*
X10951000Y14227000D01*
D10*
X10360000Y12460000D02*
X10363000Y12706000D01*
D10*
X7814000Y10764000D02*
X7916000Y10651000D01*
D10*
X4321000Y11382000D02*
X4299000Y11253000D01*
D10*
X6624000Y11786000D02*
X6663000Y12173000D01*
D10*
X4476000Y16275000D02*
X4678000Y16389000D01*
D10*
X5943000Y12414000D02*
X5536000Y12111000D01*
D10*
X3994000Y12408000D02*
X3947000Y12207000D01*
D10*
X9716000Y11446000D02*
X9629000Y11011000D01*
D10*
X8819000Y16689000D02*
X8840000Y16112000D01*
D10*
X12824000Y12966000D02*
X12855000Y12604000D01*
D10*
X12021000Y11606000D02*
X12265000Y12189000D01*
D10*
X1945000Y10155000D02*
X1964000Y10420000D01*
D10*
X8940000Y15896000D02*
X9149000Y16145000D01*
D10*
X8874000Y12675000D02*
X9455000Y12204000D01*
D10*
X5276000Y10567000D02*
X5473000Y10531000D01*
D10*
X6324000Y14342000D02*
X6188000Y14396000D01*
D10*
X12843000Y11192000D02*
X12797000Y11514000D01*
D10*
X8376000Y15199000D02*
X8409000Y15579000D01*
D10*
X4678000Y16389000D02*
X5074000Y16474000D01*
D10*
X3284000Y10401000D02*
X3206000Y10667000D01*
D10*
X13781000Y12842000D02*
X13872000Y12830000D01*
D10*
X7282000Y16330000D02*
X7359000Y16279000D01*
D10*
X6510000Y12893000D02*
X6796000Y12734000D01*
D10*
X6541000Y15372000D02*
X6392000Y15411000D01*
D10*
X5864000Y10375000D02*
X5429000Y10196000D01*
D10*
X6622000Y15911000D02*
X6550000Y15696000D01*
D10*
X14888000Y12591000D02*
X15019000Y12830000D01*
D10*
X4323000Y14457000D02*
X4017000Y14593000D01*
D10*
X10389000Y11019000D02*
X10456000Y10850000D01*
D10*
X8523000Y13912000D02*
X8430000Y13985000D01*
D10*
X4671000Y15660000D02*
X4776000Y15513000D01*
D10*
X6392000Y15411000D02*
X6304000Y15260000D01*
D10*
X5553000Y16433000D02*
X5638000Y16224000D01*
D10*
X12676000Y12106000D02*
X12583000Y12057000D01*
D10*
X13309000Y11140000D02*
X13390000Y11559000D01*
D10*
X6154000Y14199000D02*
X5968000Y14209000D01*
D10*
X13082000Y15427000D02*
X13034000Y15461000D01*
D10*
X6178000Y12892000D02*
X6510000Y12893000D01*
D10*
X6182000Y12535000D02*
X5943000Y12414000D01*
D10*
X3414000Y12296000D02*
X3097000Y12183000D01*
D10*
X8389000Y14686000D02*
X8131000Y14444000D01*
D10*
X2093000Y10983000D02*
X2347000Y11764000D01*
D10*
X5428000Y10196000D02*
X5138000Y10188000D01*
D10*
X10456000Y10850000D02*
X10816000Y10723000D01*
D10*
X3218000Y11720000D02*
X3124000Y11703000D01*
D10*
X8409000Y15579000D02*
X8444000Y15991000D01*
D10*
X10120000Y14386000D02*
X10180000Y14790000D01*
D10*
X8146000Y14983000D02*
X8376000Y15199000D01*
D10*
X11006000Y12697000D02*
X11219000Y12534000D01*
D10*
X13731000Y11952000D02*
X13617000Y11511000D01*
D10*
X5283000Y16013000D02*
X4927000Y15959000D01*
D10*
X10430000Y11360000D02*
X10389000Y11019000D01*
D10*
X10748000Y12011000D02*
X10676000Y11796000D01*
D10*
X7210000Y15318000D02*
X7349000Y15197000D01*
D10*
X8131000Y14444000D02*
X7813000Y14202000D01*
D10*
X6498000Y16988000D02*
X6688000Y16970000D01*
D10*
X11119000Y10208000D02*
X10811000Y10300000D01*
D10*
X3158000Y12870000D02*
X2995000Y12579000D01*
D10*
X13617000Y11511000D02*
X13481000Y10915000D01*
D10*
X4302000Y15459000D02*
X4252000Y15835000D01*
D10*
X6304000Y15260000D02*
X6264000Y14919000D01*
D10*
X15019000Y12830000D02*
X15154000Y13085000D01*
D10*
X6688000Y16970000D02*
X6850000Y16860000D01*
D10*
X3947000Y12207000D02*
X3787000Y12023000D01*
D10*
X10157000Y16378000D02*
X10436000Y16902000D01*
D10*
X7007000Y14513000D02*
X7103000Y14432000D01*
D10*
X6135000Y16045000D02*
X6234000Y16360000D01*
D10*
X11219000Y12534000D02*
X11407000Y12430000D01*
D10*
X4984000Y15382000D02*
X5210000Y15305000D01*
D10*
X8840000Y16112000D02*
X8857000Y15782000D01*
D10*
X4542000Y11104000D02*
X4666000Y11529000D01*
D10*
X12936000Y10898000D02*
X12843000Y11192000D01*
D10*
X12448000Y11842000D02*
X12338000Y11739000D01*
D10*
X10951000Y14227000D02*
X10756000Y13767000D01*
D10*
X9278000Y12010000D02*
X9067000Y12188000D01*
D10*
X12002000Y15588000D02*
X11300000Y15558000D01*
D10*
X3235000Y11292000D02*
X3368000Y10770000D01*
D10*
X8430000Y13985000D02*
X8410000Y14371000D01*
D10*
X10814000Y13070000D02*
X10976000Y12960000D01*
D10*
X4160000Y10949000D02*
X3849000Y10565000D01*
D10*
X14217000Y12712000D02*
X14311000Y12718000D01*
D10*
X11775000Y10734000D02*
X11806000Y10951000D01*
D10*
X5444000Y14858000D02*
X5358000Y14627000D01*
D10*
X3420000Y10582000D02*
X3553000Y10546000D01*
D10*
X5473000Y10531000D02*
X5473000Y10531000D01*
D10*
X6154000Y14297000D02*
X6154000Y14199000D01*
D10*
X7491000Y10721000D02*
X7552000Y10726000D01*
D10*
X10756000Y13767000D02*
X10591000Y13573000D01*
D10*
X8444000Y15991000D02*
X8444000Y16184000D01*
D10*
X13736000Y12760000D02*
X13781000Y12842000D01*
D10*
X8523000Y13912000D02*
X8523000Y13912000D01*
D10*
X10279000Y10299000D02*
X10094000Y10309000D01*
D10*
X6702000Y15285000D02*
X6541000Y15372000D01*
D10*
X13222000Y10823000D02*
X13309000Y11140000D01*
D10*
X10137000Y14006000D02*
X10120000Y14386000D01*
D10*
X14301000Y12465000D02*
X14179000Y12601000D01*
D10*
X8751000Y16992000D02*
X8819000Y16689000D01*
D10*
X8490000Y16848000D02*
X8611000Y16989000D01*
D10*
X11300000Y15558000D02*
X11168000Y15297000D01*
D10*
X9980000Y15886000D02*
X10157000Y16378000D01*
D10*
X13659000Y12464000D02*
X13696000Y12634000D01*
D10*
X5416000Y16541000D02*
X5553000Y16433000D01*
D10*
X11120000Y10208000D02*
X11119000Y10208000D01*
D10*
X14518000Y10615000D02*
X14598000Y11060000D01*
D10*
X14696000Y11446000D02*
X14775000Y11984000D01*
D10*
X15300000Y12138000D02*
X15106000Y11947000D01*
D10*
X6186000Y16690000D02*
X6229000Y16795000D01*
D10*
X10400000Y13548000D02*
X10247000Y13688000D01*
D10*
X2572000Y12294000D02*
X2657000Y12536000D01*
D10*
X10337000Y14147000D02*
X10376000Y13881000D01*
D10*
X5088000Y12230000D02*
X5362000Y12487000D01*
D10*
X5076000Y11331000D02*
X4987000Y11116000D01*
D10*
X1964000Y10420000D02*
X2093000Y10983000D01*
D10*
X9168000Y15571000D02*
X8830000Y15142000D01*
D10*
X11168000Y15297000D02*
X11082000Y14803000D01*
D10*
X10624000Y13088000D02*
X10814000Y13070000D01*
D10*
X3036000Y12423000D02*
X3315000Y12543000D01*
D10*
X10976000Y12960000D02*
X10959000Y12821000D01*
D10*
X7842000Y11791000D02*
X7991000Y12278000D01*
D10*
X4639000Y14364000D02*
X4323000Y14457000D01*
D10*
X10063000Y15651000D02*
X10021000Y15782000D01*
D10*
X7793000Y13048000D02*
X7911000Y13133000D01*
D10*
X7769000Y10393000D02*
X7727000Y10262000D01*
D10*
X10312000Y15912000D02*
X10368000Y15742000D01*
D10*
X10579000Y17039000D02*
X10653000Y16993000D01*
D10*
X11277000Y16602000D02*
X11357000Y16569000D01*
D10*
X7318000Y15062000D02*
X7251000Y14995000D01*
D10*
X7991000Y12278000D02*
X8073000Y12511000D01*
D10*
X6540000Y11547000D02*
X6624000Y11786000D01*
D10*
X2347000Y11764000D02*
X2572000Y12294000D01*
D10*
X14179000Y12601000D02*
X14217000Y12712000D01*
D10*
X14830000Y10486000D02*
X14760000Y10108000D01*
D10*
X2900000Y12380000D02*
X3036000Y12423000D01*
D10*
X5784000Y14460000D02*
X5858000Y15035000D01*
D10*
X6283000Y10616000D02*
X5864000Y10375000D01*
D10*
X5141000Y14436000D02*
X4885000Y14335000D01*
D10*
X5399000Y15142000D02*
X5444000Y14858000D01*
D10*
X15296000Y13072000D02*
X15391000Y12998000D01*
D10*
X5358000Y14627000D02*
X5141000Y14436000D01*
D10*
X13034000Y15461000D02*
X12964000Y15477000D01*
D10*
X10126000Y12034000D02*
X10187000Y12056000D01*
D10*
X9108000Y10870000D02*
X9415000Y11100000D01*
D10*
X6796000Y12734000D02*
X6986000Y12405000D01*
D10*
X11108000Y12186000D02*
X10831000Y12259000D01*
D10*
X15603000Y12073000D02*
X15300000Y12138000D01*
D10*
X13090000Y10415000D02*
X13018000Y10689000D01*
D10*
X12744000Y13042000D02*
X12824000Y12966000D01*
D10*
X5076000Y10692000D02*
X5276000Y10567000D01*
D10*
X2114000Y10246000D02*
X2022000Y10077000D01*
D10*
X2818000Y11914000D02*
X2690000Y11805000D01*
D10*
X11485000Y12379000D02*
X11504000Y12268000D01*
D10*
X6264000Y14919000D02*
X6330000Y14750000D01*
D10*
X11393000Y16448000D02*
X11328000Y16146000D01*
D10*
X5250000Y11718000D02*
X5076000Y11331000D01*
D10*
X4972000Y14841000D02*
X4904000Y14999000D01*
D10*
X15154000Y13085000D02*
X15296000Y13072000D01*
D10*
X9149000Y16145000D02*
X9299000Y16313000D01*
D10*
X6986000Y12405000D02*
X7069000Y11994000D01*
D10*
X6432000Y16874000D02*
X6498000Y16988000D01*
D10*
X7349000Y15197000D02*
X7318000Y15062000D01*
D10*
X3011000Y13042000D02*
X3138000Y13044000D01*
D10*
X10247000Y13688000D02*
X10137000Y14006000D01*
D10*
X13696000Y12634000D02*
X13736000Y12760000D01*
D10*
X3206000Y10667000D02*
X3048000Y11253000D01*
D10*
X15391000Y12998000D02*
X15356000Y12702000D01*
D10*
X8830000Y15142000D02*
X8762000Y14543000D01*
D10*
X2554000Y11540000D02*
X2444000Y11308000D01*
D10*
X12770000Y15524000D02*
X12002000Y15588000D01*
D10*
X8747000Y10725000D02*
X9108000Y10870000D01*
D10*
X10261000Y12145000D02*
X10360000Y12460000D01*
D10*
X6188000Y14396000D02*
X6154000Y14297000D01*
D10*
X11279000Y15880000D02*
X11851000Y15846000D01*
D10*
X2022000Y10077000D02*
X1945000Y10155000D01*
D10*
X10676000Y11796000D02*
X10769000Y11736000D01*
D10*
X9067000Y12188000D02*
X8729000Y12423000D01*
D10*
X8410000Y14371000D02*
X8389000Y14686000D01*
D10*
X8118000Y11833000D02*
X8039000Y11575000D01*
D10*
X10623000Y16792000D02*
X10443000Y16353000D01*
D10*
X13945000Y12723000D02*
X13860000Y12371000D01*
D10*
X10666000Y11472000D02*
X10518000Y11511000D01*
D10*
X9567000Y16089000D02*
X9168000Y15571000D01*
D10*
X3234000Y11978000D02*
X3414000Y12047000D01*
D10*
X7911000Y13133000D02*
X8133000Y13090000D01*
D10*
X14598000Y11060000D02*
X14696000Y11446000D01*
D10*
X13155000Y10214000D02*
X13090000Y10415000D01*
D10*
X4124000Y11189000D02*
X4321000Y11382000D01*
D10*
X12342000Y12317000D02*
X12387000Y12395000D01*
D10*
X12233000Y11624000D02*
X12181000Y11447000D01*
D10*
X11133000Y10613000D02*
X11228000Y10532000D01*
D10*
X3315000Y12543000D02*
X3691000Y12601000D01*
D10*
X11228000Y10532000D02*
X11225000Y10320000D01*
D10*
X8666000Y10445000D02*
X8437000Y10413000D01*
D10*
X11806000Y10951000D02*
X12021000Y11606000D01*
D10*
X10558000Y12974000D02*
X10624000Y13088000D01*
D10*
X12387000Y12395000D02*
X12448000Y12632000D01*
D10*
X14663000Y10078000D02*
X14574000Y10103000D01*
D10*
X14574000Y10103000D02*
X14504000Y10231000D01*
D10*
X2444000Y11308000D02*
X2321000Y11034000D01*
D10*
X9455000Y12204000D02*
X9664000Y11833000D01*
D10*
X8729000Y12423000D02*
X8449000Y12584000D01*
D10*
X13232000Y10173000D02*
X13232000Y10173000D01*
D10*
X5362000Y12487000D02*
X5767000Y12726000D01*
D10*
X11055000Y11592000D02*
X11336000Y11418000D01*
D10*
X7617000Y10087000D02*
X7509000Y10091000D01*
D10*
X8611000Y16989000D02*
X8751000Y16992000D01*
D10*
X15356000Y12702000D02*
X15319000Y12413000D01*
D10*
X4626000Y10683000D02*
X4542000Y11104000D01*
D10*
X5536000Y12111000D02*
X5250000Y11718000D01*
D10*
X3580000Y11858000D02*
X3399000Y11753000D01*
D10*
X3648000Y12211000D02*
X3769000Y12330000D01*
D10*
X5783000Y14218000D02*
X5784000Y14460000D01*
D10*
X7099000Y14220000D02*
X6994000Y14108000D01*
D10*
X7813000Y14202000D02*
X7669000Y14267000D01*
D10*
X2995000Y12579000D02*
X2900000Y12380000D01*
D10*
X3414000Y12047000D02*
X3648000Y12211000D01*
D10*
X14793000Y12296000D02*
X14608000Y12349000D01*
D10*
X10249000Y15145000D02*
X10328000Y15364000D01*
D10*
X10312000Y12790000D02*
X10355000Y12895000D01*
D10*
X6109000Y10922000D02*
X6400000Y11305000D01*
D10*
X4885000Y14335000D02*
X4639000Y14364000D01*
D10*
X10518000Y11511000D02*
X10430000Y11360000D01*
D10*
X11225000Y10320000D02*
X11120000Y10208000D01*
D10*
X14504000Y10231000D02*
X14518000Y10615000D01*
D10*
X8762000Y14543000D02*
X8669000Y13971000D01*
D10*
X11143000Y11205000D02*
X10828000Y11385000D01*
D10*
X3021000Y12134000D02*
X3094000Y12056000D01*
D10*
X4017000Y14593000D02*
X3712000Y14790000D01*
D10*
X3712000Y12357000D02*
X3414000Y12296000D01*
D10*
X10267000Y15434000D02*
X10122000Y15471000D01*
D10*
X8076000Y10395000D02*
X7769000Y10393000D01*
D10*
X8449000Y12584000D02*
X8290000Y12268000D01*
D10*
X5074000Y16474000D02*
X5416000Y16541000D01*
D10*
X3543000Y14993000D02*
X3648000Y15132000D01*
D10*
X10506000Y13530000D02*
X10506000Y13530000D01*
D10*
X7552000Y10726000D02*
X7630000Y11011000D01*
D10*
X7760000Y14579000D02*
X8146000Y14983000D01*
D10*
X14775000Y11984000D02*
X14793000Y12296000D01*
D10*
X13390000Y11559000D02*
X13470000Y11870000D01*
D10*
X10076000Y11732000D02*
X10126000Y12034000D01*
D10*
X4252000Y15835000D02*
X4329000Y16097000D01*
D10*
X11119000Y16336000D02*
X11277000Y16602000D01*
D10*
X7017000Y15105000D02*
X6702000Y15285000D01*
D10*
X9629000Y11011000D02*
X9182000Y10631000D01*
D10*
X6983000Y16086000D02*
X6705000Y16159000D01*
D10*
X5138000Y10188000D02*
X4913000Y10277000D01*
D10*
X10376000Y13881000D02*
X10445000Y13783000D01*
D10*
X6685000Y14200000D02*
X6324000Y14342000D01*
D10*
X7103000Y14432000D02*
X7099000Y14220000D01*
D10*
X10506000Y13530000D02*
X10400000Y13548000D01*
D10*
X10279000Y10397000D02*
X10279000Y10299000D01*
D10*
X4329000Y16097000D02*
X4476000Y16275000D01*
D10*
X10443000Y16353000D02*
X10312000Y15912000D01*
D10*
X4715000Y14791000D02*
X4972000Y14841000D01*
D10*
X14311000Y12718000D02*
X14598000Y12639000D01*
D10*
X6994000Y14108000D02*
X6994000Y14108000D01*
D10*
X6581000Y10921000D02*
X6283000Y10616000D01*
D10*
X12797000Y11514000D02*
X12745000Y11849000D01*
D10*
X10826000Y14895000D02*
X10924000Y15467000D01*
D10*
X3382000Y10302000D02*
X3284000Y10401000D01*
D10*
X5858000Y15035000D02*
X5950000Y15632000D01*
D10*
X8025000Y12795000D02*
X7845000Y12894000D01*
D10*
X7069000Y11994000D02*
X6975000Y11591000D01*
D10*
X6400000Y12454000D02*
X6182000Y12535000D01*
D10*
X6690000Y14623000D02*
X7007000Y14513000D01*
D10*
X9483000Y11451000D02*
X9431000Y11790000D01*
D10*
X5473000Y10531000D02*
X5726000Y10629000D01*
D10*
X10021000Y15782000D02*
X9980000Y15886000D01*
D10*
X10538000Y13888000D02*
X10665000Y14202000D01*
D10*
X7845000Y12894000D02*
X7793000Y13048000D01*
D10*
X12745000Y11849000D02*
X12676000Y12106000D01*
D10*
X6799000Y11249000D02*
X6581000Y10921000D01*
D10*
X10363000Y12706000D02*
X10312000Y12790000D01*
D10*
X12181000Y11447000D02*
X12088000Y11114000D01*
D10*
X7379000Y16168000D02*
X7306000Y16025000D01*
D10*
X10445000Y13783000D02*
X10445000Y13783000D01*
D10*
X7093000Y16434000D02*
X7282000Y16330000D01*
D10*
X4885000Y14335000D02*
X4885000Y14335000D01*
D10*
X2202000Y10625000D02*
X2114000Y10246000D01*
D10*
X3124000Y11703000D02*
X3235000Y11292000D01*
D10*
X3849000Y15179000D02*
X4043000Y15070000D01*
D10*
X3368000Y10770000D02*
X3420000Y10582000D01*
D10*
X14966000Y11502000D02*
X14884000Y11108000D01*
D10*
X10610000Y15791000D02*
X10892000Y15970000D01*
D10*
X6342000Y16816000D02*
X6432000Y16874000D01*
D10*
X7490000Y10295000D02*
X7429000Y10489000D01*
D10*
X6975000Y11591000D02*
X6799000Y11249000D01*
D10*
X12265000Y12189000D02*
X12342000Y12317000D01*
D10*
X10180000Y14790000D02*
X10249000Y15145000D01*
D10*
X15106000Y11947000D02*
X15017000Y11689000D01*
D10*
X14884000Y11108000D02*
X14830000Y10486000D01*
D10*
X13119000Y11097000D02*
X13222000Y10823000D01*
D10*
X6929000Y15492000D02*
X7210000Y15318000D01*
D10*
X7429000Y10489000D02*
X7346000Y10625000D01*
D10*
X9635000Y16362000D02*
X9567000Y16089000D01*
D10*
X6400000Y11305000D02*
X6513000Y11495000D01*
D10*
X10959000Y12821000D02*
X11006000Y12697000D01*
D10*
X7359000Y16279000D02*
X7379000Y16168000D01*
D10*
X3553000Y10546000D02*
X3710000Y10615000D01*
D10*
X6994000Y14108000D02*
X6685000Y14200000D01*
D10*
X11359000Y12042000D02*
X11108000Y12186000D01*
D10*
X8133000Y13090000D02*
X8368000Y12987000D01*
D10*
X6001000Y15934000D02*
X6061000Y15956000D01*
D10*
X5210000Y15305000D02*
X5399000Y15142000D01*
D10*
X7346000Y10625000D02*
X7395000Y10742000D01*
D10*
X3094000Y12056000D02*
X3234000Y11978000D01*
D10*
X9984000Y11135000D02*
X10076000Y11732000D01*
D10*
X10368000Y15742000D02*
X10610000Y15791000D01*
D10*
X15621000Y12299000D02*
X15893000Y12131000D01*
D10*
X6237000Y16606000D02*
X6186000Y16690000D01*
D10*
X3550000Y10313000D02*
X3382000Y10302000D01*
D10*
X4578000Y15170000D02*
X4302000Y15459000D01*
D10*
X13597000Y12284000D02*
X13659000Y12464000D01*
D10*
X4709000Y15834000D02*
X4671000Y15660000D01*
D10*
X9664000Y11833000D02*
X9716000Y11446000D01*
D10*
X9415000Y11100000D02*
X9483000Y11451000D01*
D10*
X13018000Y11559000D02*
X13119000Y11097000D01*
D10*
X8437000Y10413000D02*
X8076000Y10395000D01*
D10*
X10903000Y15556000D02*
X10741000Y15474000D01*
D10*
X2321000Y11034000D02*
X2202000Y10625000D01*
D10*
X6618000Y12374000D02*
X6400000Y12454000D01*
D10*
X6234000Y16360000D02*
X6237000Y16606000D01*
D10*
X10769000Y11736000D02*
X11055000Y11592000D01*
D10*
X7630000Y11011000D02*
X7694000Y11301000D01*
D10*
X3849000Y10565000D02*
X3550000Y10313000D01*
D10*
X10811000Y10300000D02*
X10450000Y10442000D01*
D10*
X3943000Y12561000D02*
X3994000Y12408000D01*
D10*
X12088000Y11114000D02*
X11958000Y10758000D01*
D10*
X13232000Y10173000D02*
X13155000Y10214000D01*
D10*
X9532000Y16494000D02*
X9635000Y16362000D01*
D10*
X11958000Y10758000D02*
X11857000Y10689000D01*
D10*
X3138000Y13044000D02*
X3158000Y12870000D01*
D10*
X10450000Y10442000D02*
X10313000Y10496000D01*
D10*
X4976000Y10931000D02*
X5076000Y10692000D01*
D10*
X2022000Y10077000D02*
X2022000Y10077000D01*
D10*
X10468000Y12916000D02*
X10558000Y12974000D01*
D10*
X13337000Y10391000D02*
X13232000Y10173000D01*
D10*
X12578000Y12930000D02*
X12744000Y13042000D01*
D10*
X6881000Y16597000D02*
X7093000Y16434000D01*
D10*
X10122000Y15471000D02*
X10063000Y15651000D01*
D10*
X6643000Y15636000D02*
X6929000Y15492000D01*
D10*
X6330000Y14750000D02*
X6690000Y14623000D01*
D10*
X3648000Y15132000D02*
X3849000Y15179000D01*
D10*
X7251000Y14995000D02*
X7017000Y15105000D01*
D10*
X10653000Y16993000D02*
X10623000Y16792000D01*
D10*
X10328000Y15364000D02*
X10267000Y15434000D01*
D10*
X11336000Y11418000D02*
X11475000Y11297000D01*
D10*
X11504000Y12268000D02*
X11432000Y12125000D01*
D10*
X10445000Y13783000D02*
X10538000Y13888000D01*
D10*
X3712000Y14790000D02*
X3543000Y14993000D01*
D10*
X5950000Y15632000D02*
X6001000Y15934000D01*
D10*
X2690000Y11805000D02*
X2554000Y11540000D01*
D10*
X13018000Y10689000D02*
X12936000Y10898000D01*
D10*
X7916000Y10651000D02*
X8328000Y10665000D01*
D10*
X9909000Y10318000D02*
X9910000Y10560000D01*
D10*
X11857000Y10689000D02*
X11775000Y10734000D01*
D10*
X11432000Y12125000D02*
X11359000Y12042000D01*
D10*
X7694000Y11301000D02*
X7842000Y11791000D01*
D10*
X8368000Y12987000D02*
X8874000Y12675000D01*
D10*
X13872000Y12830000D02*
X13945000Y12723000D01*
D10*
X3097000Y12183000D02*
X3021000Y12134000D01*
D10*
X4913000Y10277000D02*
X4763000Y10388000D01*
D10*
X10892000Y15970000D02*
X11119000Y16336000D01*
D10*
X15893000Y12131000D02*
X15840000Y12022000D01*
D10*
X14608000Y12349000D02*
X14301000Y12465000D01*
D10*
X10094000Y10309000D02*
X9909000Y10318000D01*
D10*
X10436000Y16902000D02*
X10579000Y17039000D01*
D10*
X5429000Y10196000D02*
X5428000Y10196000D01*
D10*
X3769000Y12330000D02*
X3712000Y12357000D01*
D10*
X14760000Y10108000D02*
X14663000Y10078000D01*
D10*
X8857000Y15782000D02*
X8940000Y15896000D01*
D10*
X7617000Y10087000D02*
X7617000Y10087000D01*
D10*
X13470000Y11870000D02*
X13549000Y12112000D01*
D10*
X6513000Y11495000D02*
X6540000Y11547000D01*
D10*
X10828000Y11385000D02*
X10666000Y11472000D01*
D10*
X12964000Y15477000D02*
X12770000Y15524000D01*
D10*
X7669000Y14267000D02*
X7604000Y14362000D01*
D10*
X13860000Y12371000D02*
X13731000Y11952000D01*
D10*
X11377000Y11095000D02*
X11143000Y11205000D01*
D10*
X4763000Y10388000D02*
X4626000Y10683000D01*
D10*
X8328000Y10665000D02*
X8747000Y10725000D01*
D10*
X6229000Y16795000D02*
X6342000Y16816000D01*
D10*
X15017000Y11689000D02*
X14966000Y11502000D01*
D10*
X12583000Y12057000D02*
X12448000Y11842000D01*
D10*
X11851000Y15846000D02*
X12755000Y15786000D01*
D10*
X10591000Y13573000D02*
X10506000Y13530000D01*
D10*
X10355000Y12895000D02*
X10468000Y12916000D01*
D10*
X11328000Y16146000D02*
X11279000Y15880000D01*
D10*
X4666000Y11529000D02*
X4883000Y11931000D01*
D10*
X11407000Y12430000D02*
X11485000Y12379000D01*
D10*
X9308000Y16385000D02*
X9391000Y16476000D01*
D10*
X9182000Y10631000D02*
X8666000Y10445000D01*
D10*
X9910000Y10560000D02*
X9984000Y11135000D01*
D10*
X7509000Y10091000D02*
X7490000Y10295000D01*
D10*
X7604000Y14362000D02*
X7760000Y14579000D01*
D10*
X7234000Y15942000D02*
X6983000Y16086000D01*
D10*
X3710000Y10615000D02*
X3845000Y10829000D01*
D10*
X4328000Y14893000D02*
X4715000Y14791000D01*
D10*
X14598000Y12639000D02*
X14888000Y12591000D01*
D10*
X8073000Y12511000D02*
X8140000Y12736000D01*
D10*
X13481000Y10915000D02*
X13337000Y10391000D01*
D10*
X2898000Y11777000D02*
X2818000Y11914000D01*
D10*
X8328000Y10665000D02*
X8328000Y10665000D01*
D10*
X6663000Y12173000D02*
X6618000Y12374000D01*
D10*
X6061000Y15956000D02*
X6135000Y16045000D01*
D10*
X12755000Y15786000D02*
X13138000Y15676000D01*
D10*
X4299000Y11253000D02*
X4160000Y10949000D01*
D10*
X11444000Y11162000D02*
X11377000Y11095000D01*
D10*
X10924000Y15467000D02*
X10903000Y15556000D01*
D10*
X15319000Y12413000D02*
X15621000Y12299000D01*
D10*
X4987000Y11116000D02*
X4976000Y10931000D01*
D10*
X15840000Y12022000D02*
X15603000Y12073000D01*
D10*
X10187000Y12056000D02*
X10261000Y12145000D01*
D10*
X13149000Y15526000D02*
X13082000Y15427000D01*
D10*
X10831000Y12259000D02*
X10748000Y12011000D01*
D16*
X56777000Y13148000D02*
X56902000Y13409000D01*
D16*
X60722000Y12434000D02*
X60768000Y12492000D01*
D16*
X59468000Y14235000D02*
X59602000Y14317000D01*
D16*
X57214000Y14487000D02*
X57532000Y14259000D01*
D16*
X56838000Y12978000D02*
X56381000Y12883000D01*
D16*
X56808000Y12332000D02*
X56948000Y12081000D01*
D16*
X56897000Y11836000D02*
X56801000Y12087000D01*
D16*
X58033000Y13257000D02*
X58518000Y13431000D01*
D16*
X58786000Y11999000D02*
X58835000Y12059000D01*
D16*
X57343000Y10907000D02*
X57082000Y10749000D01*
D16*
X58756000Y15032000D02*
X58835000Y15015000D01*
D16*
X56948000Y12081000D02*
X57062000Y11810000D01*
D16*
X56323000Y12437000D02*
X56627000Y12364000D01*
D16*
X56614000Y12219000D02*
X56449000Y12251000D01*
D16*
X58518000Y13431000D02*
X58997000Y13272000D01*
D16*
X57152000Y14347000D02*
X57106000Y14374000D01*
D16*
X56381000Y12883000D02*
X56287000Y12846000D01*
D16*
X59475000Y11200000D02*
X59741000Y11055000D01*
D16*
X57089000Y10918000D02*
X57130000Y10941000D01*
D16*
X59010000Y11803000D02*
X59282000Y11167000D01*
D16*
X58956000Y11946000D02*
X59010000Y11803000D01*
D16*
X56962000Y13553000D02*
X56861000Y13714000D01*
D16*
X57331000Y14224000D02*
X57152000Y14347000D01*
D16*
X58242000Y14559000D02*
X58220000Y14456000D01*
D16*
X56143000Y12973000D02*
X56208000Y12993000D01*
D16*
X60163000Y12297000D02*
X60242000Y12323000D01*
D16*
X60184000Y13320000D02*
X60338000Y13097000D01*
D16*
X59966000Y11751000D02*
X60045000Y11945000D01*
D16*
X59289000Y12462000D02*
X59027000Y12023000D01*
D16*
X58264000Y14675000D02*
X58242000Y14559000D01*
D16*
X58802000Y14564000D02*
X58701000Y14881000D01*
D16*
X59027000Y12023000D02*
X58956000Y11946000D01*
D16*
X57891000Y12507000D02*
X58076000Y12181000D01*
D16*
X58076000Y14476000D02*
X58143000Y14794000D01*
D16*
X59330000Y14084000D02*
X59113000Y14177000D01*
D16*
X60354000Y11338000D02*
X60430000Y11189000D01*
D16*
X59271000Y14264000D02*
X59418000Y14210000D01*
D16*
X58143000Y14794000D02*
X58200000Y15025000D01*
D16*
X57092000Y11684000D02*
X56962000Y11478000D01*
D16*
X59280000Y12854000D02*
X59289000Y12462000D01*
D16*
X60142000Y11811000D02*
X60129000Y11698000D01*
D16*
X56801000Y11207000D02*
X56945000Y11059000D01*
D16*
X60201000Y14124000D02*
X59968000Y14361000D01*
D16*
X59943000Y11688000D02*
X59966000Y11751000D01*
D16*
X59992000Y14546000D02*
X60171000Y14384000D01*
D16*
X60891000Y12971000D02*
X60916000Y12958000D01*
D16*
X60916000Y12958000D02*
X60915000Y12704000D01*
D16*
X58997000Y13272000D02*
X59280000Y12854000D01*
D16*
X59553000Y11013000D02*
X59527000Y11033000D01*
D16*
X59527000Y11033000D02*
X59365000Y11012000D01*
D16*
X59817000Y14464000D02*
X59992000Y14546000D01*
D16*
X59372000Y11179000D02*
X59475000Y11200000D01*
D16*
X57708000Y10997000D02*
X57619000Y11045000D01*
D16*
X59991000Y10751000D02*
X59926000Y10766000D01*
D16*
X56682000Y13976000D02*
X56609000Y14088000D01*
D16*
X56711000Y12198000D02*
X56614000Y12219000D01*
D16*
X57082000Y10749000D02*
X56982000Y10816000D01*
D16*
X57326000Y11069000D02*
X57511000Y11197000D01*
D16*
X60129000Y11698000D02*
X60354000Y11338000D01*
D16*
X58000000Y11711000D02*
X58074000Y11914000D01*
D16*
X60144000Y11091000D02*
X60237000Y11198000D01*
D16*
X60350000Y11090000D02*
X60235000Y10963000D01*
D16*
X56632000Y14120000D02*
X56796000Y14291000D01*
D16*
X58243000Y11941000D02*
X57913000Y11126000D01*
D16*
X60768000Y12492000D02*
X60753000Y12846000D01*
D16*
X56756000Y11039000D02*
X56610000Y11188000D01*
D16*
X58167000Y13191000D02*
X57929000Y12891000D01*
D16*
X57744000Y14252000D02*
X57992000Y14357000D01*
D16*
X57662000Y11187000D02*
X57744000Y11152000D01*
D16*
X58088000Y14243000D02*
X57876000Y14151000D01*
D16*
X56982000Y10816000D02*
X56982000Y10816000D01*
D16*
X57532000Y14259000D02*
X57744000Y14252000D01*
D16*
X56989000Y13777000D02*
X57113000Y13579000D01*
D16*
X60430000Y14090000D02*
X60244000Y13796000D01*
D16*
X56902000Y13409000D02*
X56962000Y13553000D01*
D16*
X58315000Y14876000D02*
X58264000Y14675000D01*
D16*
X56945000Y11059000D02*
X57089000Y10918000D01*
D16*
X60235000Y10963000D02*
X59991000Y10751000D01*
D16*
X58088000Y11950000D02*
X58050000Y11993000D01*
D16*
X60903000Y12321000D02*
X60840000Y12301000D01*
D16*
X60240000Y14070000D02*
X60201000Y14124000D01*
D16*
X60915000Y12704000D02*
X60908000Y12385000D01*
D16*
X57739000Y12637000D02*
X57813000Y12983000D01*
D16*
X58263000Y12004000D02*
X58243000Y11941000D01*
D16*
X60420000Y12932000D02*
X60217000Y12974000D01*
D16*
X59113000Y14177000D02*
X58879000Y14288000D01*
D16*
X56144000Y12324000D02*
X56138000Y12611000D01*
D16*
X58200000Y15025000D02*
X58756000Y15032000D01*
D16*
X60338000Y13097000D02*
X60629000Y13036000D01*
D16*
X57954000Y12100000D02*
X57739000Y12637000D01*
D16*
X56801000Y12087000D02*
X56711000Y12198000D01*
D16*
X56138000Y12611000D02*
X56138000Y12935000D01*
D16*
X60204000Y11975000D02*
X60142000Y11811000D01*
D16*
X56957000Y14458000D02*
X57080000Y14542000D01*
D16*
X58638000Y13278000D02*
X58167000Y13191000D01*
D16*
X56944000Y13163000D02*
X56838000Y12978000D01*
D16*
X57062000Y11810000D02*
X57108000Y11716000D01*
D16*
X57511000Y11197000D02*
X57662000Y11187000D01*
D16*
X60133000Y13437000D02*
X60184000Y13320000D01*
D16*
X56624000Y11220000D02*
X56858000Y11576000D01*
D16*
X60105000Y13540000D02*
X60133000Y13437000D01*
D16*
X59950000Y10935000D02*
X60144000Y11091000D01*
D16*
X58879000Y14288000D02*
X58802000Y14564000D01*
D16*
X60045000Y11945000D02*
X60157000Y12261000D01*
D16*
X57326000Y11069000D02*
X57326000Y11069000D01*
D16*
X57619000Y11045000D02*
X57535000Y11031000D01*
D16*
X59282000Y11167000D02*
X59372000Y11179000D01*
D16*
X60079000Y13223000D02*
X59976000Y13447000D01*
D16*
X59088000Y12971000D02*
X58638000Y13278000D01*
D16*
X60434000Y12368000D02*
X60722000Y12434000D01*
D16*
X59418000Y14210000D02*
X59468000Y14235000D01*
D16*
X60171000Y14384000D02*
X60430000Y14090000D01*
D16*
X57060000Y14345000D02*
X56862000Y14161000D01*
D16*
X60237000Y11198000D02*
X60058000Y11518000D01*
D16*
X60217000Y14027000D02*
X60240000Y14070000D01*
D16*
X59602000Y14317000D02*
X59717000Y14390000D01*
D16*
X59050000Y11323000D02*
X58865000Y11769000D01*
D16*
X60908000Y12385000D02*
X60903000Y12321000D01*
D16*
X59945000Y13594000D02*
X60080000Y13811000D01*
D16*
X57108000Y11716000D02*
X57092000Y11684000D01*
D16*
X60649000Y12259000D02*
X60298000Y12189000D01*
D16*
X56449000Y12251000D02*
X56189000Y12308000D01*
D16*
X57876000Y14151000D02*
X57610000Y14056000D01*
D16*
X56796000Y14291000D02*
X56957000Y14458000D01*
D16*
X56861000Y13714000D02*
X56682000Y13976000D01*
D16*
X56609000Y14088000D02*
X56632000Y14120000D01*
D16*
X60242000Y12323000D02*
X60434000Y12368000D01*
D16*
X60298000Y12189000D02*
X60204000Y11975000D01*
D16*
X56800000Y14088000D02*
X56832000Y14024000D01*
D16*
X56208000Y12993000D02*
X56404000Y13036000D01*
D16*
X58074000Y11914000D02*
X58088000Y11950000D01*
D16*
X56962000Y11478000D02*
X56801000Y11207000D01*
D16*
X56404000Y13036000D02*
X56777000Y13148000D01*
D16*
X60058000Y11518000D02*
X59943000Y11688000D01*
D16*
X57873000Y11024000D02*
X57708000Y10997000D01*
D16*
X57080000Y14542000D02*
X57214000Y14487000D01*
D16*
X59976000Y13447000D02*
X59924000Y13550000D01*
D16*
X57813000Y12983000D02*
X58033000Y13257000D01*
D16*
X59128000Y12409000D02*
X59088000Y12971000D01*
D16*
X59780000Y14263000D02*
X59472000Y14064000D01*
D16*
X58701000Y14881000D02*
X58315000Y14876000D01*
D16*
X56138000Y12935000D02*
X56143000Y12973000D01*
D16*
X56982000Y10816000D02*
X56756000Y11039000D01*
D16*
X56189000Y12308000D02*
X56144000Y12324000D01*
D16*
X57744000Y11152000D02*
X58000000Y11711000D01*
D16*
X57610000Y14056000D02*
X57331000Y14224000D01*
D16*
X58835000Y12059000D02*
X59128000Y12409000D01*
D16*
X59968000Y14361000D02*
X59780000Y14263000D01*
D16*
X57113000Y13579000D02*
X56944000Y13163000D01*
D16*
X58954000Y14547000D02*
X59000000Y14387000D01*
D16*
X58050000Y14392000D02*
X58076000Y14476000D01*
D16*
X56287000Y12846000D02*
X56280000Y12507000D01*
D16*
X56610000Y11188000D02*
X56624000Y11220000D01*
D16*
X59214000Y10979000D02*
X59050000Y11323000D01*
D16*
X58050000Y11993000D02*
X57954000Y12100000D01*
D16*
X58835000Y15015000D02*
X58954000Y14547000D01*
D16*
X59717000Y14390000D02*
X59817000Y14464000D01*
D16*
X60157000Y12261000D02*
X60163000Y12297000D01*
D16*
X59741000Y11055000D02*
X59950000Y10935000D01*
D16*
X57106000Y14374000D02*
X57060000Y14345000D01*
D16*
X57929000Y12891000D02*
X57891000Y12507000D01*
D16*
X56862000Y14161000D02*
X56800000Y14088000D01*
D16*
X59924000Y13550000D02*
X59945000Y13594000D01*
D16*
X59472000Y14064000D02*
X59423000Y14040000D01*
D16*
X59423000Y14040000D02*
X59330000Y14084000D01*
D16*
X56858000Y11576000D02*
X56897000Y11836000D01*
D16*
X57535000Y11031000D02*
X57343000Y10907000D01*
D16*
X60080000Y13811000D02*
X60217000Y14027000D01*
D16*
X59365000Y11012000D02*
X59214000Y10979000D01*
D16*
X58076000Y12181000D02*
X58206000Y12058000D01*
D16*
X59000000Y14387000D02*
X59271000Y14264000D01*
D16*
X60430000Y11189000D02*
X60350000Y11090000D01*
D16*
X60753000Y12846000D02*
X60420000Y12932000D01*
D16*
X57130000Y10941000D02*
X57326000Y11069000D01*
D16*
X56280000Y12507000D02*
X56323000Y12437000D01*
D16*
X60840000Y12301000D02*
X60649000Y12259000D01*
D16*
X58220000Y14456000D02*
X58088000Y14243000D01*
D16*
X60244000Y13796000D02*
X60105000Y13540000D01*
D16*
X60217000Y12974000D02*
X60079000Y13223000D01*
D16*
X58206000Y12058000D02*
X58263000Y12004000D01*
D16*
X60629000Y13036000D02*
X60891000Y12971000D01*
D16*
X57992000Y14357000D02*
X58050000Y14392000D01*
D16*
X57913000Y11126000D02*
X57873000Y11024000D01*
D16*
X56627000Y12364000D02*
X56808000Y12332000D01*
D16*
X59926000Y10766000D02*
X59553000Y11013000D01*
D16*
X58865000Y11769000D02*
X58786000Y11999000D01*
D16*
X56832000Y14024000D02*
X56989000Y13777000D01*
G75*
D12*
G03*
X32759999Y31024000D02*
X32689326Y34118875I-1009981J1525181D01*
D12*
G03*
X30810674Y34118875D02*
X30742001Y31024000I939322J-1569043D01*
D12*
G03*
X25940001Y34376000D02*
X26010674Y31281125I1009980J-1525182D01*
D12*
G03*
X27889326Y31281125D02*
X27957999Y34376000I-939323J1569042D01*
M02*
