M48
FMAT,2
METRIC,TZ
T6C0.350
T7C0.400
T8C0.600
T2C0.700
T4C0.800
T3C0.900
T1C1.400
T5C1.500
%
G90
G05
M71
T6
X8.680Y57.850
X1.000Y26.200
X62.000Y64.600
X54.970Y42.460
X54.375Y71.000
X46.750Y1.000
X8.625Y39.000
X54.375Y13.400
X16.250Y64.600
X39.125Y32.600
X54.375Y51.800
X39.125Y26.200
X46.750Y58.200
X54.375Y19.800
X8.625Y19.800
X1.000Y51.800
X1.000Y32.600
X54.375Y45.400
X62.000Y13.400
X43.050Y11.280
X31.500Y19.800
X23.875Y7.000
X46.750Y71.000
X16.250Y7.000
X62.000Y51.800
X54.375Y32.600
X62.000Y1.000
X34.500Y15.860
X8.625Y71.000
X46.750Y7.000
X8.625Y32.600
X46.750Y51.800
X45.500Y12.930
X1.000Y19.800
X62.000Y7.000
X16.250Y1.000
X62.000Y32.600
X31.500Y1.000
X62.000Y45.400
X1.000Y71.000
X4.000Y47.580
X23.875Y64.600
X23.875Y51.800
X49.460Y40.530
X39.125Y71.000
X62.000Y19.800
X31.500Y71.000
X62.000Y26.200
X16.250Y19.800
X19.950Y11.280
X17.500Y12.930
X31.500Y45.400
X16.250Y26.200
X46.750Y26.200
X62.000Y39.000
X46.750Y64.600
X62.000Y58.200
X1.000Y1.000
X8.625Y1.000
X1.000Y7.000
X1.000Y45.400
X23.875Y39.000
X8.625Y13.400
X4.600Y41.100
X1.000Y58.200
X8.625Y64.600
X23.875Y71.000
X23.875Y32.600
X39.125Y64.600
X23.875Y45.400
X8.625Y26.200
X54.375Y26.200
X19.950Y14.580
X31.560Y42.090
X31.500Y26.200
X39.125Y45.400
X54.375Y1.000
X23.875Y1.000
X54.375Y39.000
X46.750Y19.800
X1.000Y39.000
X54.375Y58.200
X39.125Y7.000
X46.750Y32.600
X1.000Y13.400
X52.480Y54.400
X16.250Y32.600
X16.250Y39.000
X16.250Y71.000
X20.150Y53.030
X12.540Y52.090
X23.875Y26.200
X23.875Y58.200
X54.375Y64.600
X39.125Y58.200
X39.125Y1.000
X43.050Y14.580
X31.500Y64.600
X39.125Y51.800
X62.000Y71.000
X31.500Y58.200
X46.750Y39.000
X46.750Y45.700
X6.410Y51.310
X1.000Y64.600
T7
X16.010Y54.660
X14.410Y55.930
T8
X38.050Y15.930
X25.000Y16.000
X22.000Y55.930
X10.280Y50.930
X51.530Y48.510
T2
X26.100Y68.200
X26.100Y59.000
X10.477Y6.541
X8.477Y6.541
X29.890Y59.000
X29.890Y68.200
X54.477Y6.541
X52.477Y6.541
X24.503Y3.070
X38.503Y3.070
X30.503Y3.070
X28.503Y3.070
X22.503Y3.070
X36.503Y3.070
X26.503Y3.070
X32.503Y3.070
X34.503Y3.070
X40.503Y3.070
T4
X33.420Y58.980
X33.420Y65.380
X36.670Y65.380
X36.670Y58.980
T3
X31.750Y31.430
X31.750Y33.970
X39.050Y36.500
X35.750Y39.000
X35.750Y41.500
X35.750Y36.500
X39.050Y39.000
X39.050Y41.500
X26.950Y33.970
X26.950Y31.430
T1
X4.500Y62.500
X14.500Y62.500
X9.500Y62.500
X48.500Y36.500
X58.500Y36.500
X53.500Y36.500
X4.500Y36.500
X14.500Y36.500
X9.500Y36.500
X48.500Y62.500
X58.500Y62.500
X53.500Y62.500
T5
X31.500Y52.500
X36.580Y52.500
X26.420Y52.500
M30
