%FSLAX46Y46*%
%MOMM*%
%AMPS10*
1,1,2.300000,0.000000,0.000000*
%
%ADD10PS10*%
%AMPS12*
1,1,1.800000,0.000000,0.000000*
%
%ADD12PS12*%
%AMPS13*
1,1,1.800000,0.000000,0.000000*
%
%ADD13PS13*%
%AMPS18*
1,1,1.800000,0.000000,0.000000*
%
%ADD18PS18*%
%AMPS17*
1,1,2.400000,0.000000,0.000000*
%
%ADD17PS17*%
%AMPS14*
1,1,1.600000,0.000000,0.000000*
%
%ADD14PS14*%
%AMPS16*
1,1,1.600000,0.000000,0.000000*
%
%ADD16PS16*%
%AMPS11*
1,1,1.600000,0.000000,0.000000*
%
%ADD11PS11*%
%AMPS15*
1,1,1.600000,0.000000,0.000000*
%
%ADD15PS15*%
%AMPS20*
1,1,0.600000,0.000000,0.000000*
%
%ADD20PS20*%
%AMPS19*
1,1,0.550000,0.000000,0.000000*
%
%ADD19PS19*%
%AMPS21*
1,1,0.800000,0.000000,0.000000*
%
%ADD21PS21*%
G01*
%LPD*%
G01*
%LPD*%
G75*
D10*
X4500000Y62500000D03*
D10*
X14500000Y62500000D03*
D10*
X9500000Y62500000D03*
D11*
X26100000Y68200000D03*
D11*
X26100000Y59000000D03*
D10*
X48500000Y36500000D03*
D10*
X58500000Y36500000D03*
D10*
X53500000Y36500000D03*
D12*
X31750000Y31430000D03*
D12*
X31750000Y33970000D03*
D11*
X10477083Y6541263D03*
D11*
X8477083Y6541263D03*
D13*
X39050000Y36500000D03*
D13*
X35750000Y39000000D03*
D13*
X35750000Y41500000D03*
D13*
X35750000Y36500000D03*
D13*
X39050000Y39000000D03*
D13*
X39050000Y41500000D03*
D14*
X33420000Y58980000D03*
D14*
X33420000Y65380000D03*
D10*
X4500000Y36500000D03*
D10*
X14500000Y36500000D03*
D10*
X9500000Y36500000D03*
D15*
X29890000Y59000000D03*
D15*
X29890000Y68200000D03*
D16*
X36670000Y65380000D03*
D16*
X36670000Y58980000D03*
D11*
X54477083Y6541263D03*
D11*
X52477083Y6541263D03*
D17*
X31500000Y52500000D03*
D17*
X36580000Y52500000D03*
D17*
X26420000Y52500000D03*
D10*
X48500000Y62500000D03*
D10*
X58500000Y62500000D03*
D10*
X53500000Y62500000D03*
D18*
X26950000Y33970000D03*
D18*
X26950000Y31430000D03*
D15*
X24502917Y3069737D03*
D15*
X38502917Y3069737D03*
D15*
X30502917Y3069737D03*
D15*
X28502917Y3069737D03*
D15*
X22502917Y3069737D03*
D15*
X36502917Y3069737D03*
D15*
X26502917Y3069737D03*
D15*
X32502917Y3069737D03*
D15*
X34502917Y3069737D03*
D15*
X40502917Y3069737D03*
D19*
X1000000Y26200000D03*
D19*
X62000000Y64600000D03*
D19*
X54375000Y71000000D03*
D19*
X46750000Y1000000D03*
D19*
X1000000Y51800000D03*
D19*
X1000000Y32600000D03*
D19*
X62000000Y13400000D03*
D19*
X46750000Y71000000D03*
D19*
X62000000Y51800000D03*
D20*
X16010000Y54660000D03*
D19*
X62000000Y1000000D03*
D19*
X8625000Y71000000D03*
D19*
X1000000Y19800000D03*
D19*
X62000000Y7000000D03*
D19*
X16250000Y1000000D03*
D19*
X62000000Y32600000D03*
D19*
X31500000Y1000000D03*
D19*
X62000000Y45400000D03*
D21*
X38050000Y15930000D03*
D19*
X1000000Y71000000D03*
D19*
X39125000Y71000000D03*
D19*
X62000000Y19800000D03*
D19*
X31500000Y71000000D03*
D19*
X62000000Y26200000D03*
D21*
X25000000Y16000000D03*
D19*
X62000000Y39000000D03*
D19*
X62000000Y58200000D03*
D19*
X1000000Y1000000D03*
D19*
X8625000Y1000000D03*
D19*
X1000000Y7000000D03*
D19*
X1000000Y45400000D03*
D19*
X1000000Y58200000D03*
D19*
X23875000Y71000000D03*
D20*
X14410000Y55930000D03*
D19*
X54375000Y1000000D03*
D21*
X22000000Y55930000D03*
D19*
X23875000Y1000000D03*
D19*
X1000000Y39000000D03*
D19*
X1000000Y13400000D03*
D19*
X16250000Y71000000D03*
D21*
X10280000Y50930000D03*
D19*
X39125000Y1000000D03*
D19*
X62000000Y71000000D03*
D21*
X51530000Y48510000D03*
D19*
X1000000Y64600000D03*
M02*
