<?xml version="1.0" encoding="UTF-8" standalone="no"?>
<!-- Created with Inkscape (http://www.inkscape.org/) -->

<svg
   width="110mm"
   height="90mm"
   viewBox="-55 -45 110 90"
   version="1.1"
   id="svg1"
   xml:space="preserve"
   inkscape:version="1.4.2 (ebf0e940d0, 2025-05-08)"
   sodipodi:docname="sexy-rodent.gtp.svg"
   xmlns:inkscape="http://www.inkscape.org/namespaces/inkscape"
   xmlns:sodipodi="http://sodipodi.sourceforge.net/DTD/sodipodi-0.dtd"
   xmlns="http://www.w3.org/2000/svg"
   xmlns:svg="http://www.w3.org/2000/svg"><sodipodi:namedview
     id="namedview1"
     pagecolor="#505050"
     bordercolor="#ffffff"
     borderopacity="1"
     inkscape:showpageshadow="0"
     inkscape:pageopacity="0"
     inkscape:pagecheckerboard="1"
     inkscape:deskcolor="#d1d1d1"
     inkscape:document-units="mm"
     inkscape:zoom="1.7113286"
     inkscape:cx="-35.64482"
     inkscape:cy="328.69199"
     inkscape:current-layer="g1-3"
     inkscape:antialias-rendering="true"
     showgrid="false"><inkscape:page
       x="0"
       y="0"
       width="110.00001"
       height="90"
       id="page1"
       margin="0"
       bleed="0" /><inkscape:page
       x="155"
       y="0"
       width="104.06945"
       height="68.791664"
       id="page2"
       margin="0"
       bleed="0" /><inkscape:page
       x="269.06946"
       y="0"
       width="104.06945"
       height="68.791672"
       id="page3"
       margin="0"
       bleed="0" /></sodipodi:namedview><defs
     id="defs1" /><g
     id="g1"
     inkscape:groupmode="layer"
     inkscape:label="1"
     transform="matrix(0.26458334,0,0,0.26458333,208.31771,45.963542)" /><g
     id="g1-3"
     inkscape:groupmode="layer"
     inkscape:label="1"
     transform="matrix(0.26458335,0,0,0.26458334,213.47555,-42.191891)"><path
       id="path1"
       d="m -968.70934,265.67074 0.67733,3.40133 -0.67733,3.396 -1.92667,2.88533 -2.88,1.92134 -3.40133,0.67733 -3.396,-0.67733 -2.88,-1.92134 -1.92667,-2.88533 -0.67733,-3.396 0.67733,-3.40133 1.92667,-2.88 2.88,-1.92667 3.396,-0.67733 3.40133,0.67733 2.88,1.92667 z"
       style="fill:none;fill-opacity:1;fill-rule:evenodd;stroke:#000000;stroke-width:0.37795274;stroke-opacity:1;stroke-dasharray:none" /><path
       id="path2"
       d="m -968.70934,46.457406 0.67733,3.401333 -0.67733,3.396 -1.92667,2.885333 -2.88,1.921333 -3.40133,0.677334 -3.396,-0.677334 -2.88,-1.921333 -1.92667,-2.885333 -0.67733,-3.396 0.67733,-3.401333 1.92667,-2.88 2.88,-1.926667 3.396,-0.672 3.40133,0.672 2.88,1.926667 z"
       style="fill:none;fill-opacity:1;fill-rule:evenodd;stroke:#000000;stroke-width:0.37795274;stroke-opacity:1;stroke-dasharray:none" /><path
       id="path3"
       d="m -628.55335,265.67074 0.67733,3.40133 -0.67733,3.396 -1.92667,2.88533 -2.88,1.92134 -3.396,0.67733 -3.40133,-0.67733 -2.88,-1.92134 -1.92667,-2.88533 -0.67733,-3.396 0.67733,-3.40133 1.92667,-2.88 2.88,-1.92667 3.40133,-0.67733 3.396,0.67733 2.88,1.92667 z"
       style="fill:none;fill-opacity:1;fill-rule:evenodd;stroke:#000000;stroke-width:0.37795274;stroke-opacity:1;stroke-dasharray:none" /><path
       id="path4"
       d="m -628.55335,46.457406 0.67733,3.401333 -0.67733,3.396 -1.92667,2.885333 -2.88,1.921333 -3.396,0.677334 -3.40133,-0.677334 -2.88,-1.921333 -1.92667,-2.885333 -0.67733,-3.396 0.67733,-3.401333 1.92667,-2.88 2.88,-1.926667 3.40133,-0.672 3.396,0.672 2.88,1.926667 z"
       style="fill:none;fill-opacity:1;fill-rule:evenodd;stroke:#000000;stroke-width:0.37795274;stroke-opacity:1;stroke-dasharray:none" /><path
       id="path5"
       d="m -828.94801,137.35341 h 10.584 v 5.672 h -10.584 z"
       style="fill:none;fill-opacity:1;fill-rule:evenodd;stroke:#000000;stroke-width:0.37795274;stroke-opacity:1;stroke-dasharray:none" /><path
       id="path6"
       d="m -811.18268,137.35341 h 10.584 v 5.672 h -10.584 z"
       style="fill:none;fill-opacity:1;fill-rule:evenodd;stroke:#000000;stroke-width:0.37795274;stroke-opacity:1;stroke-dasharray:none" /><path
       id="path7"
       d="m -814.58401,246.39474 h 4.156 v 6.80266 h -4.156 z"
       style="fill:none;fill-opacity:1;fill-rule:evenodd;stroke:#000000;stroke-width:0.37795274;stroke-opacity:1;stroke-dasharray:none" /><path
       id="path8"
       d="m -803.24534,246.39474 h 4.156 v 6.80266 h -4.156 z"
       style="fill:none;fill-opacity:1;fill-rule:evenodd;stroke:#000000;stroke-width:0.37795274;stroke-opacity:1;stroke-dasharray:none" /><path
       id="path9"
       d="m -873.13068,61.629405 h 3.40134 v 3.781333 h -3.40134 z"
       style="fill:none;fill-opacity:1;fill-rule:evenodd;stroke:#000000;stroke-width:0.37795274;stroke-opacity:1;stroke-dasharray:none" /><path
       id="path10"
       d="m -867.08401,61.629405 h 3.40133 v 3.781333 h -3.40133 z"
       style="fill:none;fill-opacity:1;fill-rule:evenodd;stroke:#000000;stroke-width:0.37795274;stroke-opacity:1;stroke-dasharray:none" /><path
       id="path11"
       d="m -866.02668,100.03074 h 3.78134 v 3.40133 h -3.78134 z"
       style="fill:none;fill-opacity:1;fill-rule:evenodd;stroke:#000000;stroke-width:0.37795274;stroke-opacity:1;stroke-dasharray:none" /><path
       id="path12"
       d="m -866.02134,106.07741 h 3.78133 v 3.40133 h -3.78133 z"
       style="fill:none;fill-opacity:1;fill-rule:evenodd;stroke:#000000;stroke-width:0.37795274;stroke-opacity:1;stroke-dasharray:none" /><path
       id="path13"
       d="m -903.36534,86.858738 h 3.40133 v 3.781333 h -3.40133 z"
       style="fill:none;fill-opacity:1;fill-rule:evenodd;stroke:#000000;stroke-width:0.37795274;stroke-opacity:1;stroke-dasharray:none" /><path
       id="path14"
       d="m -909.41201,86.858738 h 3.40133 v 3.781333 h -3.40133 z"
       style="fill:none;fill-opacity:1;fill-rule:evenodd;stroke:#000000;stroke-width:0.37795274;stroke-opacity:1;stroke-dasharray:none" /><path
       id="path15"
       d="m -729.43335,85.197405 h 3.78134 v 3.401333 h -3.78134 z"
       style="fill:none;fill-opacity:1;fill-rule:evenodd;stroke:#000000;stroke-width:0.37795274;stroke-opacity:1;stroke-dasharray:none" /><path
       id="path16"
       d="m -729.43335,91.244071 h 3.78134 v 3.401333 h -3.78134 z"
       style="fill:none;fill-opacity:1;fill-rule:evenodd;stroke:#000000;stroke-width:0.37795274;stroke-opacity:1;stroke-dasharray:none" /><path
       id="path17"
       d="m -867.08401,91.790738 h 3.40133 v 3.781333 h -3.40133 z"
       style="fill:none;fill-opacity:1;fill-rule:evenodd;stroke:#000000;stroke-width:0.37795274;stroke-opacity:1;stroke-dasharray:none" /><path
       id="path18"
       d="m -873.13068,91.790738 h 3.40134 v 3.781333 h -3.40134 z"
       style="fill:none;fill-opacity:1;fill-rule:evenodd;stroke:#000000;stroke-width:0.37795274;stroke-opacity:1;stroke-dasharray:none" /><path
       id="path19"
       d="m -856.53734,235.6974 h 12.09333 v 6.04667 h -12.09333 z"
       style="fill:none;fill-opacity:1;fill-rule:evenodd;stroke:#000000;stroke-width:0.37795274;stroke-opacity:1;stroke-dasharray:none" /><path
       id="path20"
       d="m -837.64134,235.6974 h 12.09333 v 6.04667 h -12.09333 z"
       style="fill:none;fill-opacity:1;fill-rule:evenodd;stroke:#000000;stroke-width:0.37795274;stroke-opacity:1;stroke-dasharray:none" /><path
       id="path21"
       d="m -746.70401,102.3534 h 3.40133 v 3.78134 h -3.40133 z"
       style="fill:none;fill-opacity:1;fill-rule:evenodd;stroke:#000000;stroke-width:0.37795274;stroke-opacity:1;stroke-dasharray:none" /><path
       id="path22"
       d="m -743.11468,110.67074 h 3.40133 v 3.78133 h -3.40133 z"
       style="fill:none;fill-opacity:1;fill-rule:evenodd;stroke:#000000;stroke-width:0.37795274;stroke-opacity:1;stroke-dasharray:none" /><path
       id="path23"
       d="m -739.52135,102.3534 h 3.40134 v 3.78134 h -3.40134 z"
       style="fill:none;fill-opacity:1;fill-rule:evenodd;stroke:#000000;stroke-width:0.37795274;stroke-opacity:1;stroke-dasharray:none" /><path
       id="path24"
       d="m -873.31868,100.03074 h 3.78134 v 3.40133 h -3.78134 z"
       style="fill:none;fill-opacity:1;fill-rule:evenodd;stroke:#000000;stroke-width:0.37795274;stroke-opacity:1;stroke-dasharray:none" /><path
       id="path25"
       d="m -873.31868,106.07741 h 3.78134 v 3.40133 h -3.78134 z"
       style="fill:none;fill-opacity:1;fill-rule:evenodd;stroke:#000000;stroke-width:0.37795274;stroke-opacity:1;stroke-dasharray:none" /><path
       id="path26"
       d="m -894.78668,86.405405 h 3.40134 v 3.781333 h -3.40134 z"
       style="fill:none;fill-opacity:1;fill-rule:evenodd;stroke:#000000;stroke-width:0.37795274;stroke-opacity:1;stroke-dasharray:none" /><path
       id="path27"
       d="m -888.74001,86.405405 h 3.40133 v 3.781333 h -3.40133 z"
       style="fill:none;fill-opacity:1;fill-rule:evenodd;stroke:#000000;stroke-width:0.37795274;stroke-opacity:1;stroke-dasharray:none" /><path
       id="path28"
       d="m -788.12535,235.6974 h 12.09334 v 6.04667 h -12.09334 z"
       style="fill:none;fill-opacity:1;fill-rule:evenodd;stroke:#000000;stroke-width:0.37795274;stroke-opacity:1;stroke-dasharray:none" /><path
       id="path29"
       d="m -769.22935,235.6974 h 12.09334 v 6.04667 h -12.09334 z"
       style="fill:none;fill-opacity:1;fill-rule:evenodd;stroke:#000000;stroke-width:0.37795274;stroke-opacity:1;stroke-dasharray:none" /><path
       id="path30"
       d="m -724.93335,125.41074 h 3.78134 v 3.40133 h -3.78134 z"
       style="fill:none;fill-opacity:1;fill-rule:evenodd;stroke:#000000;stroke-width:0.37795274;stroke-opacity:1;stroke-dasharray:none" /><path
       id="path31"
       d="m -724.93868,119.36407 h 3.78133 v 3.40134 h -3.78133 z"
       style="fill:none;fill-opacity:1;fill-rule:evenodd;stroke:#000000;stroke-width:0.37795274;stroke-opacity:1;stroke-dasharray:none" /><path
       id="path32"
       d="m -739.71468,118.32807 h 3.78133 v 5.47867 h -3.78133 z"
       style="fill:none;fill-opacity:1;fill-rule:evenodd;stroke:#000000;stroke-width:0.37795274;stroke-opacity:1;stroke-dasharray:none" /><path
       id="path33"
       d="m -746.89068,118.32274 h 3.78133 v 5.47867 h -3.78133 z"
       style="fill:none;fill-opacity:1;fill-rule:evenodd;stroke:#000000;stroke-width:0.37795274;stroke-opacity:1;stroke-dasharray:none" /><path
       id="path34"
       d="m -851.62534,80.546738 h 3.78133 v 3.401333 h -3.78133 z"
       style="fill:none;fill-opacity:1;fill-rule:evenodd;stroke:#000000;stroke-width:0.37795274;stroke-opacity:1;stroke-dasharray:none" /><path
       id="path35"
       d="m -851.62534,74.498738 h 3.78133 v 3.401333 h -3.78133 z"
       style="fill:none;fill-opacity:1;fill-rule:evenodd;stroke:#000000;stroke-width:0.37795274;stroke-opacity:1;stroke-dasharray:none" /><path
       id="path36"
       d="m -889.04268,104.92141 h 10.584 v 5.672 h -10.584 z"
       style="fill:none;fill-opacity:1;fill-rule:evenodd;stroke:#000000;stroke-width:0.37795274;stroke-opacity:1;stroke-dasharray:none" /><path
       id="path37"
       d="m -906.80268,104.92674 h 10.584 v 5.672 h -10.584 z"
       style="fill:none;fill-opacity:1;fill-rule:evenodd;stroke:#000000;stroke-width:0.37795274;stroke-opacity:1;stroke-dasharray:none" /><path
       id="path38"
       d="m -808.31334,121.70807 h 3.40133 v 3.78134 h -3.40133 z"
       style="fill:none;fill-opacity:1;fill-rule:evenodd;stroke:#000000;stroke-width:0.37795274;stroke-opacity:1;stroke-dasharray:none" /><path
       id="path39"
       d="m -802.26134,121.70807 h 3.40133 v 3.78134 h -3.40133 z"
       style="fill:none;fill-opacity:1;fill-rule:evenodd;stroke:#000000;stroke-width:0.37795274;stroke-opacity:1;stroke-dasharray:none" /><path
       id="path40"
       d="m -732.04268,119.36407 h 3.78133 v 3.40134 h -3.78133 z"
       style="fill:none;fill-opacity:1;fill-rule:evenodd;stroke:#000000;stroke-width:0.37795274;stroke-opacity:1;stroke-dasharray:none" /><path
       id="path41"
       d="m -732.04268,125.41074 h 3.78133 v 3.40133 h -3.78133 z"
       style="fill:none;fill-opacity:1;fill-rule:evenodd;stroke:#000000;stroke-width:0.37795274;stroke-opacity:1;stroke-dasharray:none" /><path
       id="path42"
       d="m -894.78668,71.968072 h 3.40134 v 3.781333 h -3.40134 z"
       style="fill:none;fill-opacity:1;fill-rule:evenodd;stroke:#000000;stroke-width:0.37795274;stroke-opacity:1;stroke-dasharray:none" /><path
       id="path43"
       d="m -888.74001,71.968072 h 3.40133 v 3.781333 h -3.40133 z"
       style="fill:none;fill-opacity:1;fill-rule:evenodd;stroke:#000000;stroke-width:0.37795274;stroke-opacity:1;stroke-dasharray:none" /><path
       id="path44"
       d="m -861.24534,70.270738 h 5.86 v 2.265334 h -5.86 z"
       style="fill:none;fill-opacity:1;fill-rule:evenodd;stroke:#000000;stroke-width:0.37795274;stroke-opacity:1;stroke-dasharray:none" /><path
       id="path45"
       d="m -861.24534,79.869405 h 5.86 v 2.265333 h -5.86 z"
       style="fill:none;fill-opacity:1;fill-rule:evenodd;stroke:#000000;stroke-width:0.37795274;stroke-opacity:1;stroke-dasharray:none" /><path
       id="path46"
       d="m -861.24534,84.670738 h 5.86 v 2.265333 h -5.86 z"
       style="fill:none;fill-opacity:1;fill-rule:evenodd;stroke:#000000;stroke-width:0.37795274;stroke-opacity:1;stroke-dasharray:none" /><path
       id="path47"
       d="m -881.42801,84.665405 h 5.86 v 2.265333 h -5.86 z"
       style="fill:none;fill-opacity:1;fill-rule:evenodd;stroke:#000000;stroke-width:0.37795274;stroke-opacity:1;stroke-dasharray:none" /><path
       id="path48"
       d="m -881.42801,75.066738 h 5.86 v 2.265333 h -5.86 z"
       style="fill:none;fill-opacity:1;fill-rule:evenodd;stroke:#000000;stroke-width:0.37795274;stroke-opacity:1;stroke-dasharray:none" /><path
       id="path49"
       d="m -861.24534,75.072072 h 5.86 v 2.265333 h -5.86 z"
       style="fill:none;fill-opacity:1;fill-rule:evenodd;stroke:#000000;stroke-width:0.37795274;stroke-opacity:1;stroke-dasharray:none" /><path
       id="path50"
       d="m -881.42801,70.265405 h 5.86 v 2.265333 h -5.86 z"
       style="fill:none;fill-opacity:1;fill-rule:evenodd;stroke:#000000;stroke-width:0.37795274;stroke-opacity:1;stroke-dasharray:none" /><path
       id="path51"
       d="m -881.42801,79.869405 h 5.86 v 2.265333 h -5.86 z"
       style="fill:none;fill-opacity:1;fill-rule:evenodd;stroke:#000000;stroke-width:0.37795274;stroke-opacity:1;stroke-dasharray:none" /><path
       id="path52"
       d="m -745.61068,74.994738 h 6.04667 v 9.448 h -6.04667 z"
       style="fill:none;fill-opacity:1;fill-rule:evenodd;stroke:#000000;stroke-width:0.37795274;stroke-opacity:1;stroke-dasharray:none" /><path
       id="path53"
       d="m -745.61068,88.222738 h 6.04667 v 9.448 h -6.04667 z"
       style="fill:none;fill-opacity:1;fill-rule:evenodd;stroke:#000000;stroke-width:0.37795274;stroke-opacity:1;stroke-dasharray:none" /><path
       id="path54"
       d="m -902.42268,77.582738 h 3.78134 v 5.478667 h -3.78134 z"
       style="fill:none;fill-opacity:1;fill-rule:evenodd;stroke:#000000;stroke-width:0.37795274;stroke-opacity:1;stroke-dasharray:none" /><path
       id="path55"
       d="m -909.60001,77.582738 h 3.78133 v 5.478667 h -3.78133 z"
       style="fill:none;fill-opacity:1;fill-rule:evenodd;stroke:#000000;stroke-width:0.37795274;stroke-opacity:1;stroke-dasharray:none" /><path
       id="path56"
       d="m -803.24534,224.24407 h 4.156 v 6.80267 h -4.156 z"
       style="fill:none;fill-opacity:1;fill-rule:evenodd;stroke:#000000;stroke-width:0.37795274;stroke-opacity:1;stroke-dasharray:none" /><path
       id="path57"
       d="m -814.58401,224.24407 h 4.156 v 6.80267 h -4.156 z"
       style="fill:none;fill-opacity:1;fill-rule:evenodd;stroke:#000000;stroke-width:0.37795274;stroke-opacity:1;stroke-dasharray:none" /><path
       id="path58"
       d="m -740.65735,127.60407 h 3.40134 v 3.78134 h -3.40134 z"
       style="fill:none;fill-opacity:1;fill-rule:evenodd;stroke:#000000;stroke-width:0.37795274;stroke-opacity:1;stroke-dasharray:none" /><path
       id="path59"
       d="m -746.70401,127.60407 h 3.40133 v 3.78134 h -3.40133 z"
       style="fill:none;fill-opacity:1;fill-rule:evenodd;stroke:#000000;stroke-width:0.37795274;stroke-opacity:1;stroke-dasharray:none" /><path
       id="path60"
       d="m -803.24534,235.32274 h 4.156 v 6.80266 h -4.156 z"
       style="fill:none;fill-opacity:1;fill-rule:evenodd;stroke:#000000;stroke-width:0.37795274;stroke-opacity:1;stroke-dasharray:none" /><path
       id="path61"
       d="m -814.58401,235.3174 h 4.156 v 6.80267 h -4.156 z"
       style="fill:none;fill-opacity:1;fill-rule:evenodd;stroke:#000000;stroke-width:0.37795274;stroke-opacity:1;stroke-dasharray:none" /><path
       id="path62"
       d="m -824.56268,121.55607 h 3.40134 v 3.78134 h -3.40134 z"
       style="fill:none;fill-opacity:1;fill-rule:evenodd;stroke:#000000;stroke-width:0.37795274;stroke-opacity:1;stroke-dasharray:none" /><path
       id="path63"
       d="m -830.61068,121.55607 h 3.40134 v 3.78134 h -3.40134 z"
       style="fill:none;fill-opacity:1;fill-rule:evenodd;stroke:#000000;stroke-width:0.37795274;stroke-opacity:1;stroke-dasharray:none" /><path
       id="path64"
       d="m -888.74001,79.108071 h 3.40133 v 3.781334 h -3.40133 z"
       style="fill:none;fill-opacity:1;fill-rule:evenodd;stroke:#000000;stroke-width:0.37795274;stroke-opacity:1;stroke-dasharray:none" /><path
       id="path65"
       d="m -894.78668,79.113405 h 3.40134 v 3.781333 h -3.40134 z"
       style="fill:none;fill-opacity:1;fill-rule:evenodd;stroke:#000000;stroke-width:0.37795274;stroke-opacity:1;stroke-dasharray:none" /><path
       id="path66"
       d="m -903.96934,129.22807 h 9.448 v 6.04667 h -9.448 z"
       style="fill:none;fill-opacity:1;fill-rule:evenodd;stroke:#000000;stroke-width:0.37795274;stroke-opacity:1;stroke-dasharray:none" /><path
       id="path67"
       d="m -890.74001,129.22807 h 9.448 v 6.04667 h -9.448 z"
       style="fill:none;fill-opacity:1;fill-rule:evenodd;stroke:#000000;stroke-width:0.37795274;stroke-opacity:1;stroke-dasharray:none" /></g></svg>
